<?plantuml 1.2026.2?><svg xmlns="http://www.w3.org/2000/svg" xmlns:xlink="http://www.w3.org/1999/xlink" contentStyleType="text/css" data-diagram-type="CLASS" height="119px" preserveAspectRatio="none" style="width:902px;height:119px;background:#FFFFFF;" version="1.1" viewBox="0 0 902 119" width="902px" zoomAndPan="magnify"><defs/><g><!--class pit_box_api.Handler--><g class="entity" data-qualified-name="pit_box_api.Handler" data-source-line="2" id="ent0002"><rect fill="#F1F1F1" height="105.2038" rx="2.5" ry="2.5" style="stroke:#181818;stroke-width:0.5;" width="99.6257" x="7" y="7"/><ellipse cx="28.6806" cy="23" fill="#ADD1B2" rx="11" ry="11" style="stroke:#181818;stroke-width:1;"/><path d="M28.79,18.5313 Q27.8681,18.5313 27.1338,18.8438 Q26.415,19.1563 25.915,19.75 Q25.415,20.3281 25.1338,21.2031 Q24.8681,22.0781 24.8681,23.1719 Q24.8681,24.6094 25.3056,25.6563 Q25.7588,26.7031 26.6025,27.25 Q27.4619,27.7969 28.7744,27.7969 Q29.5556,27.7969 30.2431,27.6719 Q30.9463,27.5313 31.9463,27.2188 L31.9463,29.0938 Q31.0869,29.4219 30.3213,29.5469 Q29.5713,29.6719 28.5556,29.6719 Q26.6338,29.6719 25.3213,28.875 Q24.0244,28.0625 23.3681,26.5938 Q22.7119,25.1094 22.7119,23.1406 Q22.7119,21.7188 23.1025,20.5469 Q23.5088,19.3594 24.29,18.4844 Q25.0713,17.6094 26.2119,17.1406 Q27.3525,16.6563 28.8213,16.6563 Q29.7744,16.6563 30.665,16.8594 Q31.5713,17.0469 32.5088,17.5156 L31.6806,19.2969 Q30.8994,18.9219 30.2431,18.7344 Q29.5869,18.5313 28.79,18.5313 Z " fill="#000000"/><text fill="#000000" font-family="sans-serif" font-size="14" lengthAdjust="spacing" textLength="52.7798" x="44.1652" y="28.432">Handler</text><line style="stroke:#181818;stroke-width:0.5;" x1="8" x2="105.6257" y1="39" y2="39"/><line style="stroke:#181818;stroke-width:0.5;" x1="8" x2="105.6257" y1="47" y2="47"/><text fill="#000000" font-family="sans-serif" font-size="14" lengthAdjust="spacing" textLength="80.3877" x="13" y="65.9659">do_DELETE()</text><text fill="#000000" font-family="sans-serif" font-size="14" lengthAdjust="spacing" textLength="57.4558" x="13" y="85.0339">do_GET()</text><text fill="#000000" font-family="sans-serif" font-size="14" font-style="italic" lengthAdjust="spacing" textLength="87.6257" x="13" y="104.1018">log_message()</text></g><g class="entity" data-qualified-name="archilityPythonSurfaceNote" data-source-line="8" id="ent0003"><path d="M141.87,28.04 L141.87,91.158 L895.7585,91.158 L895.7585,38.04 L885.7585,28.04 L141.87,28.04" fill="#FEFFDD" style="stroke:#181818;stroke-width:0.5;"/><path d="M885.7585,28.04 L885.7585,38.04 L895.7585,38.04 L885.7585,28.04" fill="#FEFFDD" style="stroke:#181818;stroke-width:1;"/><text fill="#000000" font-family="sans-serif" font-size="13" lengthAdjust="spacing" textLength="190.8792" x="147.87" y="46.937">Minimal class surface detected.</text><text fill="#000000" font-family="sans-serif" font-size="13" lengthAdjust="spacing" textLength="169.2082" x="147.87" y="64.643">Scanned 2 Python modules.</text><text fill="#000000" font-family="sans-serif" font-size="13" lengthAdjust="spacing" textLength="732.8885" x="147.87" y="82.349">See python-import-deps-scripts-inject_toolbar.svg, python-import-deps-scripts-pit_box_api.svg for module-level imports.</text></g><?plantuml-src VL0nRiCm3Dpz2Y9J2zGU-eOQxT061PnTe2N6KI6JWiW43OBylKhKeLCtadVatL79W74bpUXfeem5JGgmC7K-eIfitf13eh81LCZHt2pV3dCSVkTmwG22k9VnVToD3u-jUnrtz_A2irf1RzSaYwiwYWjLvDgn6DrEOl67cAATFyzs49wEPL-jR2lQVKIEAoPeHhGX4CZ86uMXcpmoKu1dQBkmIZWcqeeGGRxF-hXcATO7ojghBp6Rzf6_wWbd8cd6CkXfUVgF_ZTrvSA-VgX9zObEbA0jLLtY0BTWFm00?></g></svg>
