<?xml version="1.0" encoding="UTF-8"?>
<!DOCTYPE svg PUBLIC "-//W3C//DTD SVG 1.1//EN" "http://www.w3.org/Graphics/SVG/1.1/DTD/svg11.dtd">
<svg xmlns="http://www.w3.org/2000/svg" xmlns:xlink="http://www.w3.org/1999/xlink" version="1.1" width="1022px" height="507px" viewBox="-0.5 -0.5 1022 507"><defs/><g><g data-cell-id="0"><g data-cell-id="1"><g data-cell-id="10"><g><rect x="0" y="60" width="140" height="50" fill="#dae8fc" stroke="#6c8ebf" pointer-events="all"/></g><g><g fill="rgb(0, 0, 0)" font-family="&quot;Helvetica&quot;" font-weight="bold" text-anchor="middle" font-size="12px"><text x="69.5" y="89.5">settings.env</text></g></g></g><g data-cell-id="20"><g><rect x="200" y="60" width="160" height="50" rx="7.5" ry="7.5" fill="#fff2cc" stroke="#d6b656" pointer-events="all"/></g><g><g fill="rgb(0, 0, 0)" font-family="&quot;Helvetica&quot;" text-anchor="middle" font-size="12px"><text x="279.5" y="89.5">render_configs.sh</text></g></g></g><g data-cell-id="e10_20"><g><path d="M 140 85 L 193.63 85" fill="none" stroke="rgb(0, 0, 0)" stroke-miterlimit="10" pointer-events="stroke"/><path d="M 198.88 85 L 191.88 88.5 L 193.63 85 L 191.88 81.5 Z" fill="rgb(0, 0, 0)" stroke="rgb(0, 0, 0)" stroke-miterlimit="10" pointer-events="all"/></g></g><g data-cell-id="30"><g><path d="M 420 0 L 570 0 L 600 30 L 600 40 L 420 40 L 420 0 Z" fill="#f8cecc" stroke="#b85450" stroke-miterlimit="10" pointer-events="all"/><path d="M 570 0 L 570 30 L 600 30" fill="none" stroke="#b85450" stroke-miterlimit="10" pointer-events="all"/></g><g><g fill="rgb(0, 0, 0)" font-family="&quot;Helvetica&quot;" text-anchor="middle" font-size="12px"><text x="509.5" y="24.5">build/server/wg0.conf</text></g></g></g><g data-cell-id="31"><g><path d="M 420 55 L 570 55 L 600 85 L 600 95 L 420 95 L 420 55 Z" fill="#f8cecc" stroke="#b85450" stroke-miterlimit="10" pointer-events="all"/><path d="M 570 55 L 570 85 L 600 85" fill="none" stroke="#b85450" stroke-miterlimit="10" pointer-events="all"/></g><g><g fill="rgb(0, 0, 0)" font-family="&quot;Helvetica&quot;" text-anchor="middle" font-size="12px"><text x="509.5" y="79.5">build/client/&lt;peer&gt;.conf</text></g></g></g><g data-cell-id="32"><g><path d="M 420 110 L 570 110 L 600 140 L 600 150 L 420 150 L 420 110 Z" fill="#f8cecc" stroke="#b85450" stroke-miterlimit="10" pointer-events="all"/><path d="M 570 110 L 570 140 L 600 140" fill="none" stroke="#b85450" stroke-miterlimit="10" pointer-events="all"/></g><g><g fill="rgb(0, 0, 0)" font-family="&quot;Helvetica&quot;" text-anchor="middle" font-size="12px"><text x="509.5" y="134.5">build/ssh/sshd_config.snippet</text></g></g></g><g data-cell-id="e20_30"><g><path d="M 360 100 L 374 100 Q 384 100 384 90 L 384 30 Q 384 20 394 20 L 413.63 20" fill="none" stroke="rgb(0, 0, 0)" stroke-miterlimit="10" pointer-events="stroke"/><path d="M 418.88 20 L 411.88 23.5 L 413.63 20 L 411.88 16.5 Z" fill="rgb(0, 0, 0)" stroke="rgb(0, 0, 0)" stroke-miterlimit="10" pointer-events="all"/></g></g><g data-cell-id="e20_31"><g><path d="M 360 85 L 374 85 Q 384 85 384 75 L 384 66.5 Q 384 58 390 58 L 393 58 Q 396 58 396 66.5 L 396 70.75 Q 396 75 404.82 75 L 413.63 75" fill="none" stroke="rgb(0, 0, 0)" stroke-miterlimit="10" pointer-events="stroke"/><path d="M 418.88 75 L 411.88 78.5 L 413.63 75 L 411.88 71.5 Z" fill="rgb(0, 0, 0)" stroke="rgb(0, 0, 0)" stroke-miterlimit="10" pointer-events="all"/></g></g><g data-cell-id="e20_32"><g><path d="M 360 70 L 374 70 Q 384 70 384 80 L 384 120 Q 384 130 394 130 L 413.63 130" fill="none" stroke="rgb(0, 0, 0)" stroke-miterlimit="10" pointer-events="stroke"/><path d="M 418.88 130 L 411.88 133.5 L 413.63 130 L 411.88 126.5 Z" fill="rgb(0, 0, 0)" stroke="rgb(0, 0, 0)" stroke-miterlimit="10" pointer-events="all"/></g></g><g data-cell-id="40"><g><rect x="0" y="180" width="160" height="50" rx="7.5" ry="7.5" fill="#fff2cc" stroke="#d6b656" pointer-events="all"/></g><g><g fill="rgb(0, 0, 0)" font-family="&quot;Helvetica&quot;" text-anchor="middle" font-size="12px"><text x="79.5" y="209.5">generate_keys.sh</text></g></g></g><g data-cell-id="41"><g><path d="M 200 185 L 330 185 L 360 215 L 360 225 L 200 225 L 200 185 Z" fill="#e1d5e7" stroke="#9673a6" stroke-miterlimit="10" pointer-events="all"/><path d="M 330 185 L 330 215 L 360 215" fill="none" stroke="#9673a6" stroke-miterlimit="10" pointer-events="all"/></g><g><g fill="rgb(0, 0, 0)" font-family="&quot;Helvetica&quot;" text-anchor="middle" font-size="12px"><text x="279.5" y="209.5">secrets/ (gitignored)</text></g></g></g><g data-cell-id="e40_41"><g><path d="M 160 205 L 193.63 205" fill="none" stroke="rgb(0, 0, 0)" stroke-miterlimit="10" pointer-events="stroke"/><path d="M 198.88 205 L 191.88 208.5 L 193.63 205 L 191.88 201.5 Z" fill="rgb(0, 0, 0)" stroke="rgb(0, 0, 0)" stroke-miterlimit="10" pointer-events="all"/></g></g><g data-cell-id="e41_20"><g><path d="M 280 185 L 280 116.37" fill="none" stroke="rgb(0, 0, 0)" stroke-miterlimit="10" stroke-dasharray="3 3" pointer-events="stroke"/><path d="M 280 111.12 L 283.5 118.12 L 280 116.37 L 276.5 118.12 Z" fill="rgb(0, 0, 0)" stroke="rgb(0, 0, 0)" stroke-miterlimit="10" pointer-events="all"/></g><g><g fill="rgb(0, 0, 0)" font-family="&quot;Helvetica&quot;" text-anchor="middle" font-size="11px"><rect fill="rgb(255, 255, 255)" stroke="none" x="246" y="141" width="69" height="14" stroke-width="0"/><text x="279.5" y="151">referenced by</text></g></g></g><g data-cell-id="50"><g><rect x="0" y="290" width="160" height="60" rx="9" ry="9" fill="#fff2cc" stroke="#d6b656" pointer-events="all"/></g><g><g fill="rgb(0, 0, 0)" font-family="&quot;Helvetica&quot;" text-anchor="middle" font-size="12px"><text x="79.5" y="310.5">install.sh</text><text x="79.5" y="324.5">install_ubuntu.sh</text><text x="79.5" y="338.5">install_fedora.sh</text></g></g></g><g data-cell-id="60"><g><rect x="200" y="290" width="180" height="40" rx="6" ry="6" fill="#fff2cc" stroke="#d6b656" pointer-events="all"/></g><g><g fill="rgb(0, 0, 0)" font-family="&quot;Helvetica&quot;" text-anchor="middle" font-size="12px"><text x="289.5" y="314.5">enable_ip_forwarding.sh</text></g></g></g><g data-cell-id="61"><g><rect x="200" y="340" width="180" height="50" rx="7.5" ry="7.5" fill="#fff2cc" stroke="#d6b656" pointer-events="all"/></g><g><g fill="rgb(0, 0, 0)" font-family="&quot;Helvetica&quot;" text-anchor="middle" font-size="12px"><text x="289.5" y="362.5">configure_ufw.sh</text><text x="289.5" y="376.5">configure_firewalld.sh</text></g></g></g><g data-cell-id="e50_60"><g><path d="M 160 320 L 170 320 Q 180 320 180 315 L 180 312.5 Q 180 310 186.82 310 L 193.63 310" fill="none" stroke="rgb(0, 0, 0)" stroke-miterlimit="10" pointer-events="stroke"/><path d="M 198.88 310 L 191.88 313.5 L 193.63 310 L 191.88 306.5 Z" fill="rgb(0, 0, 0)" stroke="rgb(0, 0, 0)" stroke-miterlimit="10" pointer-events="all"/></g></g><g data-cell-id="e50_61"><g><path d="M 160 320 L 170 320 Q 180 320 180 330 L 180 355 Q 180 365 186.82 365 L 193.63 365" fill="none" stroke="rgb(0, 0, 0)" stroke-miterlimit="10" pointer-events="stroke"/><path d="M 198.88 365 L 191.88 368.5 L 193.63 365 L 191.88 361.5 Z" fill="rgb(0, 0, 0)" stroke="rgb(0, 0, 0)" stroke-miterlimit="10" pointer-events="all"/></g></g><g data-cell-id="70"><g><rect x="420" y="160" width="160" height="50" rx="7.5" ry="7.5" fill="#fff2cc" stroke="#d6b656" pointer-events="all"/></g><g><g fill="rgb(0, 0, 0)" font-family="&quot;Helvetica&quot;" text-anchor="middle" font-size="12px"><text x="499.5" y="189.5">harden_ssh.sh</text></g></g></g><g data-cell-id="e32_70"><g><path d="M 510 150 L 510 155 Q 510 160 508.18 160 L 506.37 160" fill="none" stroke="rgb(0, 0, 0)" stroke-miterlimit="10" pointer-events="stroke"/><path d="M 501.12 160 L 508.12 156.5 L 506.37 160 L 508.12 163.5 Z" fill="rgb(0, 0, 0)" stroke="rgb(0, 0, 0)" stroke-miterlimit="10" pointer-events="all"/></g></g><g data-cell-id="80"><g><rect x="640" y="55" width="140" height="50" rx="7.5" ry="7.5" fill="#d5e8d4" stroke="#82b366" pointer-events="all"/></g><g><g fill="rgb(0, 0, 0)" font-family="&quot;Helvetica&quot;" text-anchor="middle" font-size="12px"><text x="709.5" y="84.5">validate.sh</text></g></g></g><g data-cell-id="e30_80"><g><path d="M 600 20 L 700 20 Q 710 20 710 30 L 710 48.63" fill="none" stroke="rgb(0, 0, 0)" stroke-miterlimit="10" pointer-events="stroke"/><path d="M 710 53.88 L 706.5 46.88 L 710 48.63 L 713.5 46.88 Z" fill="rgb(0, 0, 0)" stroke="rgb(0, 0, 0)" stroke-miterlimit="10" pointer-events="all"/></g></g><g data-cell-id="e31_80"><g><path d="M 600 75 L 610 75 Q 620 75 620 77.5 L 620 78.75 Q 620 80 626.82 80 L 633.63 80" fill="none" stroke="rgb(0, 0, 0)" stroke-miterlimit="10" pointer-events="stroke"/><path d="M 638.88 80 L 631.88 83.5 L 633.63 80 L 631.88 76.5 Z" fill="rgb(0, 0, 0)" stroke="rgb(0, 0, 0)" stroke-miterlimit="10" pointer-events="all"/></g></g><g data-cell-id="e32_80"><g><path d="M 600 130 L 700 130 Q 710 130 710 120.68 L 710 111.37" fill="none" stroke="rgb(0, 0, 0)" stroke-miterlimit="10" pointer-events="stroke"/><path d="M 710 106.12 L 713.5 113.12 L 710 111.37 L 706.5 113.12 Z" fill="rgb(0, 0, 0)" stroke="rgb(0, 0, 0)" stroke-miterlimit="10" pointer-events="all"/></g></g><g data-cell-id="90"><g><rect x="640" y="160" width="160" height="50" rx="7.5" ry="7.5" fill="#fff2cc" stroke="#d6b656" pointer-events="all"/></g><g><g fill="rgb(0, 0, 0)" font-family="&quot;Helvetica&quot;" text-anchor="middle" font-size="12px"><text x="719.5" y="189.5">package_client.sh</text></g></g></g><g data-cell-id="91"><g><path d="M 840 165 L 990 165 L 1020 195 L 1020 205 L 840 205 L 840 165 Z" fill="#f8cecc" stroke="#b85450" stroke-miterlimit="10" pointer-events="all"/><path d="M 990 165 L 990 195 L 1020 195" fill="none" stroke="#b85450" stroke-miterlimit="10" pointer-events="all"/></g><g><g fill="rgb(0, 0, 0)" font-family="&quot;Helvetica&quot;" text-anchor="middle" font-size="12px"><text x="929.5" y="182.5">dist/pit-box-client.zip</text><text x="929.5" y="196.5">(gitignored)</text></g></g></g><g data-cell-id="e31_90"><g><path d="M 510 95 L 510 109 Q 510 119 520 119 L 705 119 C 705 112.5 715 112.5 715 119 L 715 119 L 802 119 Q 812 119 812 127.5 L 812 131.75 Q 812 136 802 136 L 730 136 Q 720 136 720 144.82 L 720 153.63" fill="none" stroke="rgb(0, 0, 0)" stroke-miterlimit="10" pointer-events="stroke"/><path d="M 720 158.88 L 716.5 151.88 L 720 153.63 L 723.5 151.88 Z" fill="rgb(0, 0, 0)" stroke="rgb(0, 0, 0)" stroke-miterlimit="10" pointer-events="all"/></g></g><g data-cell-id="e90_91"><g><path d="M 800 185 L 833.63 185" fill="none" stroke="rgb(0, 0, 0)" stroke-miterlimit="10" pointer-events="stroke"/><path d="M 838.88 185 L 831.88 188.5 L 833.63 185 L 831.88 181.5 Z" fill="rgb(0, 0, 0)" stroke="rgb(0, 0, 0)" stroke-miterlimit="10" pointer-events="all"/></g></g><g data-cell-id="100"><g><rect x="420" y="410" width="200" height="50" rx="7.5" ry="7.5" fill="#dae8fc" stroke="#6c8ebf" pointer-events="all"/></g><g><g fill="rgb(0, 0, 0)" font-family="&quot;Helvetica&quot;" text-anchor="middle" font-size="12px"><text x="519.5" y="432.5">WireGuard Tunnel</text><text x="519.5" y="446.5">(UDP, public interface)</text></g></g></g><g data-cell-id="101"><g><rect x="660" y="390" width="180" height="50" rx="7.5" ry="7.5" fill="#dae8fc" stroke="#6c8ebf" pointer-events="all"/></g><g><g fill="rgb(0, 0, 0)" font-family="&quot;Helvetica&quot;" text-anchor="middle" font-size="12px"><text x="749.5" y="412.5">SSH</text><text x="749.5" y="426.5">(WireGuard interface only)</text></g></g></g><g data-cell-id="102"><g><rect x="660" y="455" width="180" height="50" rx="7.5" ry="7.5" fill="#dae8fc" stroke="#6c8ebf" pointer-events="all"/></g><g><g fill="rgb(0, 0, 0)" font-family="&quot;Helvetica&quot;" text-anchor="middle" font-size="12px"><text x="749.5" y="477.5">Optional LAN Services</text><text x="749.5" y="491.5">(lan / full-tunnel mode)</text></g></g></g><g data-cell-id="e50_100"><g><path d="M 160 310 L 174 310 Q 184 310 184 320 L 184 360 C 190.5 360 190.5 370 184 370 L 184 370 L 184 416 Q 184 426 194 426 L 386 426 Q 396 426 396 433 L 396 436.5 Q 396 440 404.82 440 L 413.63 440" fill="none" stroke="rgb(0, 0, 0)" stroke-miterlimit="10" pointer-events="stroke"/><path d="M 418.88 440 L 411.88 443.5 L 413.63 440 L 411.88 436.5 Z" fill="rgb(0, 0, 0)" stroke="rgb(0, 0, 0)" stroke-miterlimit="10" pointer-events="all"/></g></g><g data-cell-id="e60_100"><g><path d="M 290 330 L 290 344 Q 290 354 300 354 L 402 354 Q 412 354 412 364 L 412 376 Q 412 386 422 386 L 510 386 Q 520 386 520 394.82 L 520 403.63" fill="none" stroke="rgb(0, 0, 0)" stroke-miterlimit="10" pointer-events="stroke"/><path d="M 520 408.88 L 516.5 401.88 L 520 403.63 L 523.5 401.88 Z" fill="rgb(0, 0, 0)" stroke="rgb(0, 0, 0)" stroke-miterlimit="10" pointer-events="all"/></g></g><g data-cell-id="e61_100"><g><path d="M 380 365 L 407 365 C 407 358.5 417 358.5 417 365 L 417 365 L 510 365 Q 520 365 520 375 L 520 403.63" fill="none" stroke="rgb(0, 0, 0)" stroke-miterlimit="10" pointer-events="stroke"/><path d="M 520 408.88 L 516.5 401.88 L 520 403.63 L 523.5 401.88 Z" fill="rgb(0, 0, 0)" stroke="rgb(0, 0, 0)" stroke-miterlimit="10" pointer-events="all"/></g></g><g data-cell-id="e70_101"><g><path d="M 500 210 L 500 224 Q 500 234 510 234 L 615 234 Q 625 234 625 244 L 625 356 Q 625 366 635 366 L 740 366 Q 750 366 750 374.82 L 750 383.63" fill="none" stroke="rgb(0, 0, 0)" stroke-miterlimit="10" pointer-events="stroke"/><path d="M 750 388.88 L 746.5 381.88 L 750 383.63 L 753.5 381.88 Z" fill="rgb(0, 0, 0)" stroke="rgb(0, 0, 0)" stroke-miterlimit="10" pointer-events="all"/></g></g><g data-cell-id="e100_101"><g><path d="M 620 435 L 630 435 Q 640 435 640 425 L 640 420 Q 640 415 646.82 415 L 653.63 415" fill="none" stroke="rgb(0, 0, 0)" stroke-miterlimit="10" pointer-events="stroke"/><path d="M 658.88 415 L 651.88 418.5 L 653.63 415 L 651.88 411.5 Z" fill="rgb(0, 0, 0)" stroke="rgb(0, 0, 0)" stroke-miterlimit="10" pointer-events="all"/></g><g><g fill="rgb(0, 0, 0)" font-family="&quot;Helvetica&quot;" text-anchor="middle" font-size="11px"><rect fill="rgb(255, 255, 255)" stroke="none" x="600" y="419" width="82" height="14" stroke-width="0"/><text x="639.5" y="429">tunneled access</text></g></g></g><g data-cell-id="e100_102"><g><path d="M 620 435 L 630 435 Q 640 435 640 445 L 640 470 Q 640 480 646.82 480 L 653.63 480" fill="none" stroke="rgb(0, 0, 0)" stroke-miterlimit="10" stroke-dasharray="3 3" pointer-events="stroke"/><path d="M 658.88 480 L 651.88 483.5 L 653.63 480 L 651.88 476.5 Z" fill="rgb(0, 0, 0)" stroke="rgb(0, 0, 0)" stroke-miterlimit="10" pointer-events="all"/></g><g><g fill="rgb(0, 0, 0)" font-family="&quot;Helvetica&quot;" text-anchor="middle" font-size="11px"><rect fill="rgb(255, 255, 255)" stroke="none" x="620" y="452" width="41" height="14" stroke-width="0"/><text x="639.5" y="462">optional</text></g></g></g></g></g></g></svg>
