<?plantuml 1.2026.2?><svg xmlns="http://www.w3.org/2000/svg" xmlns:xlink="http://www.w3.org/1999/xlink" contentStyleType="text/css" data-diagram-type="DESCRIPTION" height="553px" preserveAspectRatio="none" style="width:1699px;height:553px;background:#FFFFFF;" version="1.1" viewBox="0 0 1699 553" width="1699px" zoomAndPan="magnify"><title>pit-box &#8212; Repository Architecture</title><defs/><g><g class="title" data-source-line="3"><text fill="#000000" font-family="sans-serif" font-size="14" font-weight="bold" lengthAdjust="spacing" textLength="235.5282" x="724.2359" y="24.9659">pit-box &#8212; Repository Architecture</text></g><!--cluster Config Input--><g class="cluster" data-qualified-name="Config Input" data-source-line="5" id="ent0002"><rect fill="none" height="77" rx="2.5" ry="2.5" style="stroke:#181818;stroke-width:1;" width="116" x="283" y="44.0679"/><text fill="#000000" font-family="sans-serif" font-size="14" font-weight="bold" lengthAdjust="spacing" textLength="87.1742" x="297.4129" y="61.0339">Config Input</text></g><!--cluster Script Pipeline--><g class="cluster" data-qualified-name="Script Pipeline" data-source-line="9" id="ent0004"><rect fill="none" height="125" rx="2.5" ry="2.5" style="stroke:#181818;stroke-width:1;" width="1397" x="124" y="140.0679"/><text fill="#000000" font-family="sans-serif" font-size="14" font-weight="bold" lengthAdjust="spacing" textLength="99.5886" x="772.7057" y="157.0339">Script Pipeline</text></g><!--cluster Build Outputs (gitignored)--><g class="cluster" data-qualified-name="Build Outputs .gitignored." data-source-line="20" id="ent0013"><rect fill="none" height="80" rx="2.5" ry="2.5" style="stroke:#181818;stroke-width:1;" width="642" x="14" y="323.0679"/><text fill="#000000" font-family="sans-serif" font-size="14" font-weight="bold" lengthAdjust="spacing" textLength="182.3353" x="243.8323" y="340.0339">Build Outputs (gitignored)</text></g><!--cluster Distribution (gitignored)--><g class="cluster" data-qualified-name="Distribution .gitignored." data-source-line="26" id="ent0017"><rect fill="none" height="80" rx="2.5" ry="2.5" style="stroke:#181818;stroke-width:1;" width="185" x="1508" y="323.0679"/><text fill="#000000" font-family="sans-serif" font-size="14" font-weight="bold" lengthAdjust="spacing" textLength="169.4834" x="1515.7583" y="340.0339">Distribution (gitignored)</text></g><!--cluster Secrets (gitignored)--><g class="cluster" data-qualified-name="Secrets .gitignored." data-source-line="30" id="ent0019"><rect fill="none" height="118" rx="2.5" ry="2.5" style="stroke:#181818;stroke-width:1;" width="196" x="664" y="304.0679"/><text fill="#000000" font-family="sans-serif" font-size="14" font-weight="bold" lengthAdjust="spacing" textLength="137" x="693.5" y="321.0339">Secrets (gitignored)</text></g><!--cluster Running System--><g class="cluster" data-qualified-name="Running System" data-source-line="34" id="ent0021"><rect fill="none" height="237" rx="2.5" ry="2.5" style="stroke:#181818;stroke-width:1;" width="461" x="969" y="310.0679"/><text fill="#000000" font-family="sans-serif" font-size="14" font-weight="bold" lengthAdjust="spacing" textLength="112.4371" x="1143.2815" y="327.0339">Running System</text></g><!--entity ENV--><g class="entity" data-qualified-name="Config Input.ENV" data-source-line="6" id="ent0003"><path d="M291,76.5679 L291,110.6358 A2.5,2.5 0 0 0 293.5,113.1358 L388.2017,113.1358 A2.5,2.5 0 0 0 390.7017,110.6358 L390.7017,84.0679 L380.7017,74.0679 L293.5,74.0679 A2.5,2.5 0 0 0 291,76.5679" fill="#F1F1F1" style="stroke:#181818;stroke-width:0.5;"/><path d="M380.7017,74.0679 L380.7017,81.5679 A2.5,2.5 0 0 0 383.2017,84.0679 L390.7017,84.0679" fill="#F1F1F1" style="stroke:#181818;stroke-width:0.5;"/><text fill="#000000" font-family="sans-serif" font-size="14" lengthAdjust="spacing" textLength="79.7017" x="301" y="99.0339">settings.env</text></g><!--entity RENDER--><g class="entity" data-qualified-name="Script Pipeline.RENDER" data-source-line="10" id="ent0005"><rect fill="#F1F1F1" height="49.0679" rx="2.5" ry="2.5" style="stroke:#181818;stroke-width:0.5;" width="157.5295" x="262" y="189.0679"/><rect fill="#F1F1F1" height="10" style="stroke:#181818;stroke-width:0.5;" width="15" x="399.5295" y="194.0679"/><rect fill="#F1F1F1" height="2" style="stroke:#181818;stroke-width:0.5;" width="4" x="397.5295" y="196.0679"/><rect fill="#F1F1F1" height="2" style="stroke:#181818;stroke-width:0.5;" width="4" x="397.5295" y="200.0679"/><text fill="#000000" font-family="sans-serif" font-size="14" lengthAdjust="spacing" textLength="117.5295" x="277" y="224.0339">render_configs.sh</text></g><!--entity KEYGEN--><g class="entity" data-qualified-name="Script Pipeline.KEYGEN" data-source-line="11" id="ent0006"><rect fill="#F1F1F1" height="49.0679" rx="2.5" ry="2.5" style="stroke:#181818;stroke-width:0.5;" width="154.1835" x="438" y="189.0679"/><rect fill="#F1F1F1" height="10" style="stroke:#181818;stroke-width:0.5;" width="15" x="572.1835" y="194.0679"/><rect fill="#F1F1F1" height="2" style="stroke:#181818;stroke-width:0.5;" width="4" x="570.1835" y="196.0679"/><rect fill="#F1F1F1" height="2" style="stroke:#181818;stroke-width:0.5;" width="4" x="570.1835" y="200.0679"/><text fill="#000000" font-family="sans-serif" font-size="14" lengthAdjust="spacing" textLength="114.1835" x="453" y="224.0339">generate_keys.sh</text></g><!--entity INSTALL--><g class="entity" data-qualified-name="Script Pipeline.INSTALL" data-source-line="12" id="ent0007"><rect fill="#F1F1F1" height="87.2038" rx="2.5" ry="2.5" style="stroke:#181818;stroke-width:0.5;" width="152.6996" x="937.5" y="170.0679"/><rect fill="#F1F1F1" height="10" style="stroke:#181818;stroke-width:0.5;" width="15" x="1070.1996" y="175.0679"/><rect fill="#F1F1F1" height="2" style="stroke:#181818;stroke-width:0.5;" width="4" x="1068.1996" y="177.0679"/><rect fill="#F1F1F1" height="2" style="stroke:#181818;stroke-width:0.5;" width="4" x="1068.1996" y="181.0679"/><text fill="#000000" font-family="sans-serif" font-size="14" lengthAdjust="spacing" textLength="58.2118" x="952.5" y="205.0339">install.sh</text><text fill="#000000" font-family="sans-serif" font-size="14" lengthAdjust="spacing" textLength="112.6996" x="952.5" y="224.1018">install_ubuntu.sh</text><text fill="#000000" font-family="sans-serif" font-size="14" lengthAdjust="spacing" textLength="107.8556" x="952.5" y="243.1697">install_fedora.sh</text></g><!--entity IPFWD--><g class="entity" data-qualified-name="Script Pipeline.IPFWD" data-source-line="13" id="ent0008"><rect fill="#F1F1F1" height="49.0679" rx="2.5" ry="2.5" style="stroke:#181818;stroke-width:0.5;" width="201.4754" x="1108.5" y="189.0679"/><rect fill="#F1F1F1" height="10" style="stroke:#181818;stroke-width:0.5;" width="15" x="1289.9754" y="194.0679"/><rect fill="#F1F1F1" height="2" style="stroke:#181818;stroke-width:0.5;" width="4" x="1287.9754" y="196.0679"/><rect fill="#F1F1F1" height="2" style="stroke:#181818;stroke-width:0.5;" width="4" x="1287.9754" y="200.0679"/><text fill="#000000" font-family="sans-serif" font-size="14" lengthAdjust="spacing" textLength="161.4754" x="1123.5" y="224.0339">enable_ip_forwarding.sh</text></g><!--entity FIREWALL--><g class="entity" data-qualified-name="Script Pipeline.FIREWALL" data-source-line="14" id="ent0009"><rect fill="#F1F1F1" height="68.1358" rx="2.5" ry="2.5" style="stroke:#181818;stroke-width:0.5;" width="185.3334" x="1327.5" y="179.5679"/><rect fill="#F1F1F1" height="10" style="stroke:#181818;stroke-width:0.5;" width="15" x="1492.8334" y="184.5679"/><rect fill="#F1F1F1" height="2" style="stroke:#181818;stroke-width:0.5;" width="4" x="1490.8334" y="186.5679"/><rect fill="#F1F1F1" height="2" style="stroke:#181818;stroke-width:0.5;" width="4" x="1490.8334" y="190.5679"/><text fill="#000000" font-family="sans-serif" font-size="14" lengthAdjust="spacing" textLength="113.0075" x="1342.5" y="214.5339">configure_ufw.sh</text><text fill="#000000" font-family="sans-serif" font-size="14" lengthAdjust="spacing" textLength="145.3334" x="1342.5" y="233.6018">configure_firewalld.sh</text></g><!--entity HARDEN--><g class="entity" data-qualified-name="Script Pipeline.HARDEN" data-source-line="15" id="ent0010"><rect fill="#F1F1F1" height="49.0679" rx="2.5" ry="2.5" style="stroke:#181818;stroke-width:0.5;" width="134.8356" x="784.5" y="189.0679"/><rect fill="#F1F1F1" height="10" style="stroke:#181818;stroke-width:0.5;" width="15" x="899.3356" y="194.0679"/><rect fill="#F1F1F1" height="2" style="stroke:#181818;stroke-width:0.5;" width="4" x="897.3356" y="196.0679"/><rect fill="#F1F1F1" height="2" style="stroke:#181818;stroke-width:0.5;" width="4" x="897.3356" y="200.0679"/><text fill="#000000" font-family="sans-serif" font-size="14" lengthAdjust="spacing" textLength="94.8356" x="799.5" y="224.0339">harden_ssh.sh</text></g><!--entity PACKAGE--><g class="entity" data-qualified-name="Script Pipeline.PACKAGE" data-source-line="16" id="ent0011"><rect fill="#F1F1F1" height="49.0679" rx="2.5" ry="2.5" style="stroke:#181818;stroke-width:0.5;" width="155.8915" x="610" y="189.0679"/><rect fill="#F1F1F1" height="10" style="stroke:#181818;stroke-width:0.5;" width="15" x="745.8915" y="194.0679"/><rect fill="#F1F1F1" height="2" style="stroke:#181818;stroke-width:0.5;" width="4" x="743.8915" y="196.0679"/><rect fill="#F1F1F1" height="2" style="stroke:#181818;stroke-width:0.5;" width="4" x="743.8915" y="200.0679"/><text fill="#000000" font-family="sans-serif" font-size="14" lengthAdjust="spacing" textLength="115.8915" x="625" y="224.0339">package_client.sh</text></g><!--entity VALIDATE--><g class="entity" data-qualified-name="Script Pipeline.VALIDATE" data-source-line="17" id="ent0012"><rect fill="#F1F1F1" height="49.0679" rx="2.5" ry="2.5" style="stroke:#181818;stroke-width:0.5;" width="110.7137" x="132.5" y="189.0679"/><rect fill="#F1F1F1" height="10" style="stroke:#181818;stroke-width:0.5;" width="15" x="223.2137" y="194.0679"/><rect fill="#F1F1F1" height="2" style="stroke:#181818;stroke-width:0.5;" width="4" x="221.2137" y="196.0679"/><rect fill="#F1F1F1" height="2" style="stroke:#181818;stroke-width:0.5;" width="4" x="221.2137" y="200.0679"/><text fill="#000000" font-family="sans-serif" font-size="14" lengthAdjust="spacing" textLength="70.7137" x="147.5" y="224.0339">validate.sh</text></g><!--entity WG_SERVER--><g class="entity" data-qualified-name="Build Outputs .gitignored..WG_SERVER" data-source-line="21" id="ent0014"><rect fill="#F1F1F1" height="42.0679" rx="2.5" ry="2.5" style="stroke:#181818;stroke-width:0.5;" width="174.7174" x="22.5" y="353.0679"/><polygon fill="#F1F1F1" points="180.2174,358.0679,180.2174,372.0679,192.2174,372.0679,192.2174,364.0679,186.2174,358.0679,180.2174,358.0679" style="stroke:#181818;stroke-width:0.5;"/><line style="stroke:#181818;stroke-width:0.5;" x1="186.2174" x2="186.2174" y1="358.0679" y2="364.0679"/><line style="stroke:#181818;stroke-width:0.5;" x1="192.2174" x2="186.2174" y1="364.0679" y2="364.0679"/><text fill="#000000" font-family="sans-serif" font-size="14" lengthAdjust="spacing" textLength="144.7174" x="32.5" y="381.0339">build/server/wg0.conf</text></g><!--entity WG_CLIENT--><g class="entity" data-qualified-name="Build Outputs .gitignored..WG_CLIENT" data-source-line="22" id="ent0015"><rect fill="#F1F1F1" height="42.0679" rx="2.5" ry="2.5" style="stroke:#181818;stroke-width:0.5;" width="187.6674" x="216" y="353.0679"/><polygon fill="#F1F1F1" points="386.6674,358.0679,386.6674,372.0679,398.6674,372.0679,398.6674,364.0679,392.6674,358.0679,386.6674,358.0679" style="stroke:#181818;stroke-width:0.5;"/><line style="stroke:#181818;stroke-width:0.5;" x1="392.6674" x2="392.6674" y1="358.0679" y2="364.0679"/><line style="stroke:#181818;stroke-width:0.5;" x1="398.6674" x2="392.6674" y1="364.0679" y2="364.0679"/><text fill="#000000" font-family="sans-serif" font-size="14" lengthAdjust="spacing" textLength="157.6674" x="226" y="381.0339">build/client/&lt;peer&gt;.conf</text></g><!--entity SSH_SNIPPET--><g class="entity" data-qualified-name="Build Outputs .gitignored..SSH_SNIPPET" data-source-line="23" id="ent0016"><rect fill="#F1F1F1" height="42.0679" rx="2.5" ry="2.5" style="stroke:#181818;stroke-width:0.5;" width="226.2372" x="422" y="353.0679"/><polygon fill="#F1F1F1" points="631.2372,358.0679,631.2372,372.0679,643.2372,372.0679,643.2372,364.0679,637.2372,358.0679,631.2372,358.0679" style="stroke:#181818;stroke-width:0.5;"/><line style="stroke:#181818;stroke-width:0.5;" x1="637.2372" x2="637.2372" y1="358.0679" y2="364.0679"/><line style="stroke:#181818;stroke-width:0.5;" x1="643.2372" x2="637.2372" y1="364.0679" y2="364.0679"/><text fill="#000000" font-family="sans-serif" font-size="14" lengthAdjust="spacing" textLength="196.2372" x="432" y="381.0339">build/ssh/sshd_config.snippet</text></g><!--entity DIST--><g class="entity" data-qualified-name="Distribution .gitignored..DIST" data-source-line="27" id="ent0018"><rect fill="#F1F1F1" height="42.0679" rx="2.5" ry="2.5" style="stroke:#181818;stroke-width:0.5;" width="168.0675" x="1517" y="353.0679"/><polygon fill="#F1F1F1" points="1668.0675,358.0679,1668.0675,372.0679,1680.0675,372.0679,1680.0675,364.0679,1674.0675,358.0679,1668.0675,358.0679" style="stroke:#181818;stroke-width:0.5;"/><line style="stroke:#181818;stroke-width:0.5;" x1="1674.0675" x2="1674.0675" y1="358.0679" y2="364.0679"/><line style="stroke:#181818;stroke-width:0.5;" x1="1680.0675" x2="1674.0675" y1="364.0679" y2="364.0679"/><text fill="#000000" font-family="sans-serif" font-size="14" lengthAdjust="spacing" textLength="138.0675" x="1527" y="381.0339">dist/pit-box-client.zip</text></g><!--entity KEYS--><g class="entity" data-qualified-name="Secrets .gitignored..KEYS" data-source-line="31" id="ent0020"><rect fill="#F1F1F1" height="80.2038" rx="2.5" ry="2.5" style="stroke:#181818;stroke-width:0.5;" width="180.3034" x="672" y="334.0679"/><polygon fill="#F1F1F1" points="835.3034,339.0679,835.3034,353.0679,847.3034,353.0679,847.3034,345.0679,841.3034,339.0679,835.3034,339.0679" style="stroke:#181818;stroke-width:0.5;"/><line style="stroke:#181818;stroke-width:0.5;" x1="841.3034" x2="841.3034" y1="339.0679" y2="345.0679"/><line style="stroke:#181818;stroke-width:0.5;" x1="847.3034" x2="841.3034" y1="345.0679" y2="345.0679"/><text fill="#000000" font-family="sans-serif" font-size="14" lengthAdjust="spacing" textLength="149.5474" x="682" y="362.0339">secrets/&lt;peer&gt;.privkey</text><text fill="#000000" font-family="sans-serif" font-size="14" lengthAdjust="spacing" textLength="150.3034" x="682" y="381.1018">secrets/&lt;peer&gt;.pubkey</text><text fill="#000000" font-family="sans-serif" font-size="14" lengthAdjust="spacing" textLength="74.7597" x="682" y="400.1697">secrets/psk</text></g><!--entity WG_SVC--><g class="entity" data-qualified-name="Running System.WG_SVC" data-source-line="35" id="ent0022"><rect fill="#F1F1F1" height="68.1358" rx="2.5" ry="2.5" style="stroke:#181818;stroke-width:0.5;" width="186.4534" x="1060" y="340.0679"/><rect fill="#F1F1F1" height="10" style="stroke:#181818;stroke-width:0.5;" width="15" x="1226.4534" y="345.0679"/><rect fill="#F1F1F1" height="2" style="stroke:#181818;stroke-width:0.5;" width="4" x="1224.4534" y="347.0679"/><rect fill="#F1F1F1" height="2" style="stroke:#181818;stroke-width:0.5;" width="4" x="1224.4534" y="351.0679"/><text fill="#000000" font-family="sans-serif" font-size="14" lengthAdjust="spacing" textLength="120.2875" x="1075" y="375.0339">WireGuard Tunnel</text><text fill="#000000" font-family="sans-serif" font-size="14" lengthAdjust="spacing" textLength="146.4534" x="1075" y="394.1018">(UDP, public interface)</text></g><!--entity SSH_SVC--><g class="entity" data-qualified-name="Running System.SSH_SVC" data-source-line="36" id="ent0023"><rect fill="#F1F1F1" height="68.1358" rx="2.5" ry="2.5" style="stroke:#181818;stroke-width:0.5;" width="213.2353" x="1208.5" y="471.0679"/><rect fill="#F1F1F1" height="10" style="stroke:#181818;stroke-width:0.5;" width="15" x="1401.7353" y="476.0679"/><rect fill="#F1F1F1" height="2" style="stroke:#181818;stroke-width:0.5;" width="4" x="1399.7353" y="478.0679"/><rect fill="#F1F1F1" height="2" style="stroke:#181818;stroke-width:0.5;" width="4" x="1399.7353" y="482.0679"/><text fill="#000000" font-family="sans-serif" font-size="14" lengthAdjust="spacing" textLength="25.7459" x="1223.5" y="506.0339">SSH</text><text fill="#000000" font-family="sans-serif" font-size="14" lengthAdjust="spacing" textLength="173.2353" x="1223.5" y="525.1018">(WireGuard interface only)</text></g><!--entity LAN_SVC--><g class="entity" data-qualified-name="Running System.LAN_SVC" data-source-line="37" id="ent0024"><rect fill="#F1F1F1" height="68.1358" rx="2.5" ry="2.5" style="stroke:#181818;stroke-width:0.5;" width="213.2353" x="977.5" y="471.0679"/><rect fill="#F1F1F1" height="10" style="stroke:#181818;stroke-width:0.5;" width="15" x="1170.7353" y="476.0679"/><rect fill="#F1F1F1" height="2" style="stroke:#181818;stroke-width:0.5;" width="4" x="1168.7353" y="478.0679"/><rect fill="#F1F1F1" height="2" style="stroke:#181818;stroke-width:0.5;" width="4" x="1168.7353" y="482.0679"/><text fill="#000000" font-family="sans-serif" font-size="14" lengthAdjust="spacing" textLength="144.4094" x="992.5" y="506.0339">Optional LAN Services</text><text fill="#000000" font-family="sans-serif" font-size="14" lengthAdjust="spacing" textLength="173.2353" x="992.5" y="525.1018">(WireGuard interface only)</text></g><g class="link" data-entity-1="ent0003" data-entity-2="ent0005" data-link-type="dependency" id="lnk25"><polygon fill="#181818" points="341,188.6567,345,179.6567,341,183.6567,337,179.6567,341,188.6567" style="stroke:#181818;stroke-width:1;"/><path d="M341,113.2654 C341,133.671 341,160.3969 341,182.6567" fill="none" style="stroke:#181818;stroke-width:1;"/></g><g class="link" data-entity-1="ent0005" data-entity-2="ent0014" data-link-type="dependency" id="lnk26"><polygon fill="#181818" points="133.6428,352.829,143.1081,350.1075,137.4728,349.6148,137.9654,343.9794,133.6428,352.829" style="stroke:#181818;stroke-width:1;"/><path d="M299.4075,238.1218 C271.0791,254.1946 238.1545,272.9477 235,275.0679 C198.1526,299.834 162.808,328.3533 138.2388,348.972" fill="none" style="stroke:#181818;stroke-width:1;"/></g><g class="link" data-entity-1="ent0005" data-entity-2="ent0015" data-link-type="dependency" id="lnk27"><polygon fill="#181818" points="313.9823,352.7067,319.6355,344.6418,314.9421,347.7996,311.7842,343.1062,313.9823,352.7067" style="stroke:#181818;stroke-width:1;"/><path d="M336.359,238.297 C330.2784,269.3865 320.8688,317.4966 315.134,346.8182" fill="none" style="stroke:#181818;stroke-width:1;"/></g><g class="link" data-entity-1="ent0005" data-entity-2="ent0016" data-link-type="dependency" id="lnk28"><polygon fill="#181818" points="521.0508,352.9803,518.9717,343.3534,518.1013,348.9429,512.5118,348.0725,521.0508,352.9803" style="stroke:#181818;stroke-width:1;"/><path d="M381.0328,238.1859 C395.9804,246.8335 413.1668,256.5755 429,265.0679 C437.7578,269.7653 441.1313,268.9976 449,275.0679 C478.3933,297.7432 501.8815,326.7401 517.5114,348.1354" fill="none" style="stroke:#181818;stroke-width:1;"/></g><g class="link" data-entity-1="ent0006" data-entity-2="ent0020" data-link-type="dependency" id="lnk29"><polygon fill="#181818" points="740.5213,333.7565,738.9769,324.0295,737.7992,329.5624,732.2663,328.3847,740.5213,333.7565" style="stroke:#181818;stroke-width:1;"/><path d="M547.7678,238.1064 C563.203,248.0376 582.3022,258.7436 601,265.0679 C635.7789,276.8314 650.9012,257.246 683,275.0679 C707.2649,288.5403 723.6307,307.7313 737.2548,328.7236" fill="none" style="stroke:#181818;stroke-width:1;"/></g><g class="link" data-entity-1="ent0020" data-entity-2="ent0005" data-link-type="dependency" id="lnk30"><polygon fill="#181818" points="376.0696,238.2772,381.6434,246.397,380.3296,240.8949,385.8317,239.581,376.0696,238.2772" style="stroke:#181818;stroke-width:1;"/><path d="M714.3107,333.9007 C697.9996,322.452 679.0435,311.1294 660,304.0679 C631.0539,293.3344 621.515,300.75 591,296.0679 C581.9427,294.6782 437.5919,268.2532 429,265.0679 C410.667,258.2712 396.7999,251.0156 381.1816,241.4184" fill="none" style="stroke:#181818;stroke-width:1;stroke-dasharray:7,7;"/><text fill="#000000" font-family="sans-serif" font-size="13" lengthAdjust="spacing" textLength="84.8121" x="593" y="290.9649">referenced by</text></g><g class="link" data-entity-1="ent0007" data-entity-2="ent0022" data-link-type="dependency" id="lnk31"><polygon fill="#181818" points="1077.5012,339.9173,1071.9613,331.7743,1073.2522,337.2819,1067.7446,338.5728,1077.5012,339.9173" style="stroke:#181818;stroke-width:1;"/><path d="M1015.1983,257.3294 C1017.2479,270.6419 1021.299,284.7764 1029,296.0679 C1041.2079,313.9675 1053.9941,325.3372 1072.4024,336.7548" fill="none" style="stroke:#181818;stroke-width:1;"/><text fill="#000000" font-family="sans-serif" font-size="13" lengthAdjust="spacing" textLength="112.2161" x="1031" y="290.9649">installs WireGuard</text></g><g class="link" data-entity-1="ent0008" data-entity-2="ent0022" data-link-type="dependency" id="lnk32"><polygon fill="#181818" points="1147.5734,339.7274,1150.7371,330.4005,1147.118,334.7482,1142.7703,331.1292,1147.5734,339.7274" style="stroke:#181818;stroke-width:1;"/><path d="M1180.142,238.1136 C1169.8718,248.2814 1159.4973,261.0614 1154,275.0679 C1145.9809,295.4996 1145.2431,314.2493 1147.0269,333.7524" fill="none" style="stroke:#181818;stroke-width:1;"/><text fill="#000000" font-family="sans-serif" font-size="13" lengthAdjust="spacing" textLength="118.9111" x="1156" y="290.9649">enables forwarding</text></g><g class="link" data-entity-1="ent0009" data-entity-2="ent0022" data-link-type="dependency" id="lnk33"><polygon fill="#181818" points="1209.0342,339.8042,1218.8152,338.6496,1213.3337,337.2518,1214.7315,331.7704,1209.0342,339.8042" style="stroke:#181818;stroke-width:1;"/><path d="M1364.3531,247.6018 C1318.8091,274.6382 1259.8425,309.6427 1214.1936,336.7414" fill="none" style="stroke:#181818;stroke-width:1;"/><text fill="#000000" font-family="sans-serif" font-size="13" lengthAdjust="spacing" textLength="96.9931" x="1313" y="290.9649">opens UDP port</text></g><g class="link" data-entity-1="ent0016" data-entity-2="ent0010" data-link-type="dependency" id="lnk34"><polygon fill="#181818" points="823.9242,238.2115,814.3084,240.3417,819.9025,241.1824,819.0618,246.7764,823.9242,238.2115" style="stroke:#181818;stroke-width:1;"/><path d="M535.7053,352.717 C537.7071,329.7394 544.7813,293.2008 569,275.0679 C587.344,261.3335 753.2081,272.1565 775,265.0679 C792.6349,259.3315 805.272,251.99 819.0981,241.7766" fill="none" style="stroke:#181818;stroke-width:1;"/></g><g class="link" data-entity-1="ent0010" data-entity-2="ent0023" data-link-type="dependency" id="lnk35"><polygon fill="#181818" points="1382.3603,470.9761,1391.7133,467.8905,1386.0631,467.6161,1386.3374,461.9659,1382.3603,470.9761" style="stroke:#181818;stroke-width:1;"/><path d="M879.2443,238.16 C892.9197,248.4974 910.3143,259.5223 928,265.0679 C952.9736,272.8988 1380.6907,256.3657 1399,275.0679 C1402.0954,278.2298 1419.7958,412.6534 1397,453.0679 C1393.2113,459.7849 1392.5799,461.7028 1386.8037,466.9442" fill="none" style="stroke:#181818;stroke-width:1;"/><text fill="#000000" font-family="sans-serif" font-size="13" lengthAdjust="spacing" textLength="82.1471" x="1410" y="379.4649">hardens sshd</text></g><g class="link" data-entity-1="ent0015" data-entity-2="ent0011" data-link-type="dependency" id="lnk36"><polygon fill="#181818" points="655.8445,238.25,646.119,239.8037,651.653,240.976,650.4807,246.5101,655.8445,238.25" style="stroke:#181818;stroke-width:1;"/><path d="M316.6145,352.7074 C325.4009,329.3543 343.3639,292.1012 373,275.0679 C394.9851,262.432 576.6643,272.1945 601,265.0679 C620.4421,259.3744 635.0981,251.7431 650.8147,241.5213" fill="none" style="stroke:#181818;stroke-width:1;"/></g><g class="link" data-entity-1="ent0011" data-entity-2="ent0018" data-link-type="dependency" id="lnk37"><polygon fill="#181818" points="1573.0998,352.943,1567.9256,344.5628,1568.9715,350.1221,1563.4122,351.1681,1573.0998,352.943" style="stroke:#181818;stroke-width:1;"/><path d="M719.68,238.2309 C735.4469,248.5844 755.3113,259.6025 775,265.0679 C843.5284,284.091 1346.0959,257.4538 1415,275.0679 C1475.4699,290.526 1533.1917,325.6739 1568.1459,349.558" fill="none" style="stroke:#181818;stroke-width:1;"/></g><g class="link" data-entity-1="ent0012" data-entity-2="ent0014" data-link-type="dependency" id="lnk38"><polygon fill="#181818" points="110.5622,352.8104,115.1287,344.0842,110.8815,347.8206,107.145,343.5734,110.5622,352.8104" style="stroke:#181818;stroke-width:1;"/><path d="M158.3968,238.3486 C147.5662,248.5488 136.2113,261.2895 129,275.0679 C116.0615,299.7892 112.2653,326.1892 110.9453,346.8227" fill="none" style="stroke:#181818;stroke-width:1;"/><text fill="#000000" font-family="sans-serif" font-size="13" lengthAdjust="spacing" textLength="41.015" x="131" y="290.9649">checks</text></g><g class="link" data-entity-1="ent0012" data-entity-2="ent0015" data-link-type="dependency" id="lnk39"><polygon fill="#181818" points="294.3276,352.7067,292.0078,343.1349,291.2779,348.7445,285.6683,348.0145,294.3276,352.7067" style="stroke:#181818;stroke-width:1;"/><path d="M206.2646,238.297 C230.1947,269.3865 268.0986,318.6304 290.6679,347.952" fill="none" style="stroke:#181818;stroke-width:1;"/><text fill="#000000" font-family="sans-serif" font-size="13" lengthAdjust="spacing" textLength="41.015" x="251" y="290.9649">checks</text></g><g class="link" data-entity-1="ent0012" data-entity-2="ent0016" data-link-type="dependency" id="lnk40"><polygon fill="#181818" points="504.5551,352.7981,499.0951,344.6012,500.3321,350.1212,494.8121,351.3581,504.5551,352.7981" style="stroke:#181818;stroke-width:1;"/><path d="M213.1215,238.3217 C224.5192,247.9268 238.6459,258.3175 253,265.0679 C271.54,273.7869 278.065,270.3404 298,275.0679 C349.2887,287.2309 364.0661,284.4736 413,304.0679 C445.7551,317.1839 475.4767,334.3659 499.4874,349.5858" fill="none" style="stroke:#181818;stroke-width:1;"/><text fill="#000000" font-family="sans-serif" font-size="13" lengthAdjust="spacing" textLength="41.015" x="392" y="290.9649">checks</text></g><g class="link" data-entity-1="ent0022" data-entity-2="ent0023" data-link-type="dependency" id="lnk41"><polygon fill="#181818" points="1302.0352,470.9906,1301.6885,461.1478,1299.8449,466.4958,1294.4969,464.6523,1302.0352,470.9906" style="stroke:#181818;stroke-width:1;"/><path d="M1241.5662,408.1989 C1253.5976,414.9767 1265.1678,422.9012 1275,432.0679 C1286.5049,442.7942 1292.8797,452.2023 1299.4069,465.5969" fill="none" style="stroke:#181818;stroke-width:1;"/><text fill="#000000" font-family="sans-serif" font-size="13" lengthAdjust="spacing" textLength="97.7471" x="1294" y="447.9649">tunneled access</text></g><g class="link" data-entity-1="ent0022" data-entity-2="ent0024" data-link-type="dependency" id="lnk42"><polygon fill="#181818" points="1078.754,470.8441,1082.3477,461.6743,1078.5305,465.8491,1074.3557,462.0319,1078.754,470.8441" style="stroke:#181818;stroke-width:1;"/><path d="M1102.7644,408.1345 C1095.5961,415.148 1089.2307,423.163 1085,432.0679 C1079.3671,443.9241 1077.9185,452.173 1078.4858,464.8501" fill="none" style="stroke:#181818;stroke-width:1;"/><text fill="#000000" font-family="sans-serif" font-size="13" lengthAdjust="spacing" textLength="186.7582" x="1087" y="447.9649">optional (lan/full-tunnel mode)</text></g><?plantuml-src XLJXYjf04Fw_Jp7rrmbL-xkKWrHpdfnuOgnIE0XhCecBSRFiRhpQKkX3z0dx91qtYPgSS88cpdxppSxCD_D1QPxkEMJyc1SMp1ujbvmnAso6e8JjRV8VyE_FNrYWoesmkJw2fwEji1ZPGYDZcbwuJ0dU6UOo4IbCf2fi1tune4yYJYS6hHKoDNsKXmvm0_vinNutd8D82sLXBXHcGcBj7-LxbKkK5ZeQPOmwZ5mKqpTRnxJmPoD_qSQcA55pY-4EZsVea_zzxC_QK26DvLb6e1TPlOV5ff2sQ9WIZ7FDQwh9B5XwqscR2oNVP1WA5IQvVkKwfgJFBlE7zQZjK2P3XGoBvDN5krWIeV6LGiSrmyDauQzlHDrI89IXCTiQ-UWjHcypLJpQyHJ3A1FqlyRElU6JD_RRu0FFH4mLh64hRpePUKk_rRQlXSXYU2uizTp0NIgiI6MkCUxM7UJQYeH7HBavOGS6zG7ru3Nzr3_bwiZNup3m5wkgZssFyhw3BmfHtpUSXjE9FrlU3cEsfszSwQLlf50AhVCCWiSmc4tcSt_PIcSaZDLYKrYHotUoYGawg4QaLvNqfr0km6WIj9a3Z3I-Mo9JekfSbHO7Kl2BRDkBJSEipAvMUD2AkoWaQJY5u6Wixc-CrPfaDYv8Gh0aA6OlykxRQFuHA4Oc8X3IegRBOVVSgTMmpK459RSBqza9SfaTkvUYltLzLgTQymoctWm2qeQ8qBnBHc17HhdIAe5UxxvU1EN3MIwgQXehrLmPhmN1oZNXxAwUfn_ez-i8y1aq9aZRAC8ODaV6gcLmZhaQ4gRQ6rInEX7cDa0JLIuC0vTrmUefRm9pXT80DGPKhYsxkh33LGDVFYufETToFHWuJGDZv_mTgXx-wkbiJhoidlTc9OakscAqCs_EAzBRvzVNFIDObLppjjQ9a2hB8nA2kGPLJNVLg4Hpbt4vI8eiwvL-iCzZxBB_?></g></svg>
