<?plantuml 1.2026.2?><svg xmlns="http://www.w3.org/2000/svg" xmlns:xlink="http://www.w3.org/1999/xlink" contentStyleType="text/css" data-diagram-type="DESCRIPTION" height="1864px" preserveAspectRatio="none" style="width:510px;height:1864px;background:#FFFFFF;" version="1.1" viewBox="0 0 510 1864" width="510px" zoomAndPan="magnify"><title>pit-box Shell Script Flow</title><defs/><g><g class="title" data-source-line="1"><text fill="#000000" font-family="Monospace" font-size="14" font-weight="bold" lengthAdjust="spacing" textLength="166.0884" x="165.0184" y="24.9659">pit-box&#160;Shell&#160;Script&#160;Flow</text></g><!--entity shell_scripts_configure_firewalld_sh--><g class="entity" data-qualified-name="shell_scripts_configure_firewalld_sh" data-source-line="7" id="ent0002"><rect fill="#DBEAFE" height="77.2038" rx="2.5" ry="2.5" style="stroke:#181818;stroke-width:0.5;" width="213.7312" x="21.28" y="299.1162"/><text fill="#000000" font-family="Monospace" font-size="14" lengthAdjust="spacing" textLength="193.7312" x="31.28" y="324.0821">scripts/configure_firewalld.sh</text><text fill="#000000" font-family="Monospace" font-size="14" lengthAdjust="spacing" textLength="119.3915" x="31.28" y="343.1501">0&#160;local&#160;shell&#160;edges</text><text fill="#000000" font-family="Monospace" font-size="14" lengthAdjust="spacing" textLength="101.7516" x="31.28" y="362.218">2&#160;external&#160;tools</text></g><!--entity shell_scripts_configure_ufw_sh--><g class="entity" data-qualified-name="shell_scripts_configure_ufw_sh" data-source-line="8" id="ent0003"><rect fill="#DBEAFE" height="77.2038" rx="2.5" ry="2.5" style="stroke:#181818;stroke-width:0.5;" width="181.4054" x="37.44" y="1321.1162"/><text fill="#000000" font-family="Monospace" font-size="14" lengthAdjust="spacing" textLength="161.4054" x="47.44" y="1346.0821">scripts/configure_ufw.sh</text><text fill="#000000" font-family="Monospace" font-size="14" lengthAdjust="spacing" textLength="119.3915" x="47.44" y="1365.1501">0&#160;local&#160;shell&#160;edges</text><text fill="#000000" font-family="Monospace" font-size="14" lengthAdjust="spacing" textLength="101.7516" x="47.44" y="1384.218">4&#160;external&#160;tools</text></g><!--entity shell_scripts_enable_ip_forwarding_sh--><g class="entity" data-qualified-name="shell_scripts_enable_ip_forwarding_sh" data-source-line="9" id="ent0004"><rect fill="#DBEAFE" height="77.2038" rx="2.5" ry="2.5" style="stroke:#181818;stroke-width:0.5;" width="229.8732" x="13.21" y="1512.1162"/><text fill="#000000" font-family="Monospace" font-size="14" lengthAdjust="spacing" textLength="209.8732" x="23.21" y="1537.0821">scripts/enable_ip_forwarding.sh</text><text fill="#000000" font-family="Monospace" font-size="14" lengthAdjust="spacing" textLength="119.3915" x="23.21" y="1556.1501">0&#160;local&#160;shell&#160;edges</text><text fill="#000000" font-family="Monospace" font-size="14" lengthAdjust="spacing" textLength="101.7516" x="23.21" y="1575.218">2&#160;external&#160;tools</text></g><!--entity shell_scripts_generate_keys_sh--><g class="entity" data-qualified-name="shell_scripts_generate_keys_sh" data-source-line="10" id="ent0005"><rect fill="#DBEAFE" height="77.2038" rx="2.5" ry="2.5" style="stroke:#181818;stroke-width:0.5;" width="182.5814" x="36.85" y="607.1162"/><text fill="#000000" font-family="Monospace" font-size="14" lengthAdjust="spacing" textLength="162.5814" x="46.85" y="632.0821">scripts/generate_keys.sh</text><text fill="#000000" font-family="Monospace" font-size="14" lengthAdjust="spacing" textLength="119.3915" x="46.85" y="651.1501">0&#160;local&#160;shell&#160;edges</text><text fill="#000000" font-family="Monospace" font-size="14" lengthAdjust="spacing" textLength="101.7516" x="46.85" y="670.218">3&#160;external&#160;tools</text></g><!--entity shell_scripts_harden_ssh_sh--><g class="entity" data-qualified-name="shell_scripts_harden_ssh_sh" data-source-line="11" id="ent0006"><rect fill="#DBEAFE" height="77.2038" rx="2.5" ry="2.5" style="stroke:#181818;stroke-width:0.5;" width="163.2335" x="46.53" y="873.1162"/><text fill="#000000" font-family="Monospace" font-size="14" lengthAdjust="spacing" textLength="143.2335" x="56.53" y="898.0821">scripts/harden_ssh.sh</text><text fill="#000000" font-family="Monospace" font-size="14" lengthAdjust="spacing" textLength="119.3915" x="56.53" y="917.1501">0&#160;local&#160;shell&#160;edges</text><text fill="#000000" font-family="Monospace" font-size="14" lengthAdjust="spacing" textLength="101.7516" x="56.53" y="936.218">5&#160;external&#160;tools</text></g><!--entity shell_scripts_install_sh--><g class="entity" data-qualified-name="shell_scripts_install_sh" data-source-line="12" id="ent0007"><rect fill="#DBEAFE" height="77.2038" rx="2.5" ry="2.5" style="stroke:#181818;stroke-width:0.5;" width="139.3915" x="58.45" y="1669.1162"/><text fill="#000000" font-family="Monospace" font-size="14" lengthAdjust="spacing" textLength="106.6096" x="68.45" y="1694.0821">scripts/install.sh</text><text fill="#000000" font-family="Monospace" font-size="14" lengthAdjust="spacing" textLength="119.3915" x="68.45" y="1713.1501">0&#160;local&#160;shell&#160;edges</text><text fill="#000000" font-family="Monospace" font-size="14" lengthAdjust="spacing" textLength="101.7516" x="68.45" y="1732.218">0&#160;external&#160;tools</text></g><!--entity shell_scripts_install_fedora_sh--><g class="entity" data-qualified-name="shell_scripts_install_fedora_sh" data-source-line="13" id="ent0008"><rect fill="#DBEAFE" height="77.2038" rx="2.5" ry="2.5" style="stroke:#181818;stroke-width:0.5;" width="176.2534" x="40.02" y="439.1162"/><text fill="#000000" font-family="Monospace" font-size="14" lengthAdjust="spacing" textLength="156.2534" x="50.02" y="464.0821">scripts/install_fedora.sh</text><text fill="#000000" font-family="Monospace" font-size="14" lengthAdjust="spacing" textLength="119.3915" x="50.02" y="483.1501">0&#160;local&#160;shell&#160;edges</text><text fill="#000000" font-family="Monospace" font-size="14" lengthAdjust="spacing" textLength="101.7516" x="50.02" y="502.218">2&#160;external&#160;tools</text></g><!--entity shell_scripts_install_ubuntu_sh--><g class="entity" data-qualified-name="shell_scripts_install_ubuntu_sh" data-source-line="14" id="ent0009"><rect fill="#DBEAFE" height="77.2038" rx="2.5" ry="2.5" style="stroke:#181818;stroke-width:0.5;" width="181.0974" x="37.6" y="719.1162"/><text fill="#000000" font-family="Monospace" font-size="14" lengthAdjust="spacing" textLength="161.0974" x="47.6" y="744.0821">scripts/install_ubuntu.sh</text><text fill="#000000" font-family="Monospace" font-size="14" lengthAdjust="spacing" textLength="119.3915" x="47.6" y="763.1501">0&#160;local&#160;shell&#160;edges</text><text fill="#000000" font-family="Monospace" font-size="14" lengthAdjust="spacing" textLength="101.7516" x="47.6" y="782.218">3&#160;external&#160;tools</text></g><!--entity shell_scripts_package_client_sh--><g class="entity" data-qualified-name="shell_scripts_package_client_sh" data-source-line="15" id="ent0010"><rect fill="#DBEAFE" height="77.2038" rx="2.5" ry="2.5" style="stroke:#181818;stroke-width:0.5;" width="184.2894" x="36" y="1055.1162"/><text fill="#000000" font-family="Monospace" font-size="14" lengthAdjust="spacing" textLength="164.2894" x="46" y="1080.0821">scripts/package_client.sh</text><text fill="#000000" font-family="Monospace" font-size="14" lengthAdjust="spacing" textLength="119.3915" x="46" y="1099.1501">0&#160;local&#160;shell&#160;edges</text><text fill="#000000" font-family="Monospace" font-size="14" lengthAdjust="spacing" textLength="101.7516" x="46" y="1118.218">4&#160;external&#160;tools</text></g><!--entity shell_scripts_render_configs_sh--><g class="entity" data-qualified-name="shell_scripts_render_configs_sh" data-source-line="16" id="ent0011"><rect fill="#DBEAFE" height="77.2038" rx="2.5" ry="2.5" style="stroke:#181818;stroke-width:0.5;" width="185.9274" x="35.18" y="1181.1162"/><text fill="#000000" font-family="Monospace" font-size="14" lengthAdjust="spacing" textLength="165.9274" x="45.18" y="1206.0821">scripts/render_configs.sh</text><text fill="#000000" font-family="Monospace" font-size="14" lengthAdjust="spacing" textLength="119.3915" x="45.18" y="1225.1501">0&#160;local&#160;shell&#160;edges</text><text fill="#000000" font-family="Monospace" font-size="14" lengthAdjust="spacing" textLength="101.7516" x="45.18" y="1244.218">2&#160;external&#160;tools</text></g><!--entity shell_scripts_run_tachometer_profile_sh--><g class="entity" data-qualified-name="shell_scripts_run_tachometer_profile_sh" data-source-line="17" id="ent0012"><rect fill="#DBEAFE" height="77.2038" rx="2.5" ry="2.5" style="stroke:#181818;stroke-width:0.5;" width="242.2912" x="7" y="117.1162"/><text fill="#000000" font-family="Monospace" font-size="14" lengthAdjust="spacing" textLength="222.2912" x="17" y="142.0821">scripts/run_tachometer_profile.sh</text><text fill="#000000" font-family="Monospace" font-size="14" lengthAdjust="spacing" textLength="119.3915" x="17" y="161.1501">0&#160;local&#160;shell&#160;edges</text><text fill="#000000" font-family="Monospace" font-size="14" lengthAdjust="spacing" textLength="101.7516" x="17" y="180.218">3&#160;external&#160;tools</text></g><!--entity shell_scripts_validate_sh--><g class="entity" data-qualified-name="shell_scripts_validate_sh" data-source-line="18" id="ent0013"><rect fill="#DBEAFE" height="77.2038" rx="2.5" ry="2.5" style="stroke:#181818;stroke-width:0.5;" width="139.3915" x="58.45" y="1781.1162"/><text fill="#000000" font-family="Monospace" font-size="14" lengthAdjust="spacing" textLength="119.1116" x="68.45" y="1806.0821">scripts/validate.sh</text><text fill="#000000" font-family="Monospace" font-size="14" lengthAdjust="spacing" textLength="119.3915" x="68.45" y="1825.1501">0&#160;local&#160;shell&#160;edges</text><text fill="#000000" font-family="Monospace" font-size="14" lengthAdjust="spacing" textLength="101.7516" x="68.45" y="1844.218">0&#160;external&#160;tools</text></g><!--entity tool_apt_get--><g class="entity" data-qualified-name="tool_apt_get" data-source-line="19" id="ent0014"><path d="M377.1803,728.6441 C380.6983,722.3193 387.6557,722.1235 391.8359,727.8379 C395.5291,720.5177 401.5103,719.7435 406.9876,725.8202 C412.419,718.9154 420.347,719.1596 423.1912,728.4144 C426.8093,721.8712 434.0087,720.3832 438.5322,727.3892 C449.3069,728.4878 453.3252,734.0457 447.321,744.0144 C452.2488,753.6534 448.1456,761.2425 437.0182,761.3271 C434.8307,769.0519 428.5999,770.4483 423.0592,764.8369 C420.803,773.096 415.4874,774.9453 408.2366,770.8101 C400.5616,776.6694 394.2058,775.8652 391.0936,765.875 C384.1179,772.4693 377.4548,769.0372 375.7016,760.5462 C368.7724,755.6181 367.175,751.01 375.0713,745.4624 C368.3773,739.3942 369.3543,732.8914 377.1803,728.6441" fill="#FEF3C7" style="stroke:#181818;stroke-width:0.5;"/><text fill="#000000" font-family="Monospace" font-size="14" lengthAdjust="spacing" textLength="47.5858" x="382.42" y="749.1421">apt-get</text></g><!--entity tool_cat--><g class="entity" data-qualified-name="tool_cat" data-source-line="20" id="ent0015"><path d="M390.3082,1400.1903 C394.1919,1390.0803 401.0592,1390.4852 407.8221,1397.1916 C415.3059,1390.4992 419.6646,1393.3588 423.2738,1401.2866 C431.8892,1404.4394 432.3773,1409.9316 427.0719,1416.5486 C433.0194,1422.7057 432.6412,1430.6028 423.1911,1433.1635 C420.8683,1442.9792 413.5867,1443.9785 406.2282,1438.8979 C398.4132,1444.9897 393.1619,1442.2646 390.7527,1433.3305 C379.9925,1432.0809 378.5803,1426.6348 383.2037,1417.8726 C377.494,1409.8018 379.0407,1401.4398 390.3082,1400.1903" fill="#FEF3C7" style="stroke:#181818;stroke-width:0.5;"/><text fill="#000000" font-family="Monospace" font-size="14" lengthAdjust="spacing" textLength="19.6279" x="396.39" y="1421.1421">cat</text></g><!--entity tool_cp--><g class="entity" data-qualified-name="tool_cp" data-source-line="21" id="ent0016"><path d="M391.9022,1064.1206 C395.2814,1055.5211 402.1668,1055.1814 407.6115,1062.0186 C412.5942,1055.504 419.308,1057.1205 421.5624,1064.7161 C429.7703,1068.5382 430.4238,1074.7457 423.3157,1080.2919 C430.0578,1086.5282 430.4658,1093.069 421.3102,1097.4467 C420.4066,1105.9949 415.5832,1109.1491 407.3971,1106.4774 C397.245,1111.9503 392.4023,1107.5222 391.9154,1097.077 C382.0519,1093.4226 382.4594,1086.2537 389.3354,1080.0611 C383.7439,1074.0906 382.6032,1067.6935 391.9022,1064.1206" fill="#FEF3C7" style="stroke:#181818;stroke-width:0.5;"/><text fill="#000000" font-family="Monospace" font-size="14" lengthAdjust="spacing" textLength="15.3299" x="398.54" y="1085.1421">cp</text></g><!--entity tool_firewall_cmd--><g class="entity" data-qualified-name="tool_firewall_cmd" data-source-line="22" id="ent0017"><path d="M360.6002,308.8837 C364.1402,303.0585 368.6669,302.7578 372.5894,308.4867 C375.185,302.3359 379.9489,302.3931 383.6149,307.432 C386.906,302.1859 392.471,302.6837 395.1318,308.112 C397.5346,300.7867 403.7852,300.5593 407.9806,306.3568 C411.9252,300.6733 417.3166,301.7624 419.5393,308.0231 C423.885,301.8254 427.5287,303.4903 431.3852,308.5384 C433.8253,302.2531 438.4916,303.0281 442.2879,307.1127 C446.1521,301.8843 451.7648,303.5526 453.9085,308.9876 C463.9265,310.9625 467.6361,315.3964 461.955,325.175 C468.8783,334.3943 464.9931,339.3483 455.4344,342.2871 C451.3656,347.9914 445.7394,347.7767 442.3851,341.5084 C439.3469,347.3211 434.6968,348.6445 430.3235,342.9021 C427.3172,348.0405 423.4896,348.2734 419.7902,343.65 C415.6203,349.1416 411.5866,349.6323 407.0827,344.0327 C403.2771,348.5763 399.9243,348.8866 396.1015,344.0527 C392.1921,350.791 387.4705,350.102 383.5935,344.021 C378.4752,349.9257 374.5347,348.8869 370.6316,342.7166 C366.6115,347.4972 362.6065,346.8491 359.7677,341.4553 C349.5829,338.0368 349.2235,331.1591 355.9262,324.02 C350.8075,317.1762 352.1813,311.5471 360.6002,308.8837" fill="#FEF3C7" style="stroke:#181818;stroke-width:0.5;"/><text fill="#000000" font-family="Monospace" font-size="14" lengthAdjust="spacing" textLength="81.1157" x="365.65" y="329.1421">firewall-cmd</text></g><!--entity tool_firewalld--><g class="entity" data-qualified-name="tool_firewalld" data-source-line="23" id="ent0018"><path d="M372.7913,392.387 C374.9515,386.861 380.0822,385.7339 383.6457,390.9719 C387.5199,385.9491 393.2127,386.4062 396.3353,391.8805 C399.0257,385.7761 403.6308,384.8967 407.8665,390.3369 C411.3455,385.5419 416.2384,386.7821 418.0671,392.0155 C421.2153,386.2371 425.7738,385.7316 429.9589,390.8877 C434.5651,384.2892 440.0787,385.7055 443.4042,392.2025 C452.4228,395.9061 451.7053,403.9742 444.3954,408.661 C452.1206,414.1211 452.2546,421.5125 442.8409,425.3789 C440.9808,430.8437 435.8526,432.4423 431.5948,428.1396 C429.5209,434.4321 424.9711,435.6768 419.9652,431.3509 C416.6169,438.0618 411.8328,438.8732 406.5725,433.4636 C402.3209,437.5952 399.0151,437.0455 396.5134,431.6215 C390.9397,436.7917 385.0752,433.88 383.2947,427.3398 C379.0402,431.9518 374.9765,432.6206 371.878,426.1491 C360.9342,425.1953 356.8055,417.1317 363.3931,407.9875 C360.0402,398.6522 361.4716,392.8831 372.7913,392.387" fill="#FEF3C7" style="stroke:#181818;stroke-width:0.5;"/><text fill="#000000" font-family="Monospace" font-size="14" lengthAdjust="spacing" textLength="56.7978" x="377.81" y="413.1421">firewalld</text></g><!--entity tool_grep--><g class="entity" data-qualified-name="tool_grep" data-source-line="24" id="ent0019"><path d="M385.0892,1148.1729 C387.766,1143.7644 392.2881,1142.6236 395.4497,1147.6399 C398.6803,1140.6643 402.6301,1139.7497 408.1939,1145.2581 C411.3321,1140.4939 416.5802,1141.663 418.8512,1146.2468 C423.2309,1142.2826 427.0913,1142.965 429.4298,1148.5162 C439.3474,1151.287 439.2425,1157.6635 433.7452,1164.5764 C440.5646,1172.4552 437.7241,1177.6547 429.1845,1181.36 C427.0251,1187.5115 423.468,1189.3305 417.9064,1185.0317 C416.1257,1189.9135 411.3278,1191.9611 407.3685,1187.4849 C401.4688,1191.0539 397.4793,1190.3411 395.0992,1183.3829 C391.166,1187.9467 386.0225,1186.1351 384.4588,1180.8286 C374.744,1178.707 372.1577,1170.9688 379.508,1163.8664 C373.7633,1156.9393 376.2203,1149.9029 385.0892,1148.1729" fill="#FEF3C7" style="stroke:#181818;stroke-width:0.5;"/><text fill="#000000" font-family="Monospace" font-size="14" lengthAdjust="spacing" textLength="30.8979" x="390.76" y="1169.1421">grep</text></g><!--entity tool_mkdir--><g class="entity" data-qualified-name="tool_mkdir" data-source-line="25" id="ent0020"><path d="M381.2313,895.7335 C385.0559,889.8975 390.3833,889.8964 393.7087,896.2448 C397.2358,889.3814 402.8026,889.6589 407.5347,894.8644 C411.4726,888.8314 415.7204,889.3555 420.0156,894.4641 C424.3627,889.1221 429.6154,888.6796 432.7207,895.7367 C445.3244,895.9563 447.8608,903.1456 443.4645,913.5935 C448.0529,922.3468 442.5585,928.7773 433.6493,928.8426 C430.7107,935.106 426.8379,937.3596 420.9934,932.0093 C418.1457,938.6956 411.9546,940.3398 406.6339,934.9497 C401.2032,939.4676 397.3174,937.3158 395.245,931.3139 C389.5631,938.536 383.1504,936.558 380.0983,928.6766 C370.7484,926.6137 366.3733,922.1181 372.2315,912.6091 C366.7752,902.1748 371.0396,897.8227 381.2313,895.7335" fill="#FEF3C7" style="stroke:#181818;stroke-width:0.5;"/><text fill="#000000" font-family="Monospace" font-size="14" lengthAdjust="spacing" textLength="38.5699" x="386.92" y="917.1421">mkdir</text></g><!--entity tool_qrencode--><g class="entity" data-qualified-name="tool_qrencode" data-source-line="26" id="ent0021"><path d="M368.4173,1232.6963 C372.5826,1227.19 376.4827,1226.0615 380.7407,1232.6014 C385.1662,1227.1503 389.1501,1225.4778 393.922,1232.2271 C396.7066,1225.6762 403.4186,1224.5234 407.6676,1230.6377 C411.1107,1224.3562 415.2931,1225.2347 419.0208,1230.3543 C423.0291,1224.3524 430.001,1224.1543 432.8659,1231.537 C437.2861,1224.7905 442.0339,1225.447 446.6268,1231.3491 C456.6946,1232.1995 460.6351,1240.0337 456.0622,1248.8 C462.3652,1259.1529 456.4881,1266.926 445.158,1266.2775 C442.1775,1271.9656 436.2715,1272.4464 432.7389,1266.887 C430.4816,1274.9894 426.2422,1275.99 420.0131,1270.6459 C417.8161,1276.8271 412.0458,1278.0116 407.9053,1272.6921 C402.9994,1278.1147 397.2647,1278.8099 393.9783,1270.9889 C389.0178,1274.8813 384.016,1274.5721 381.8838,1267.7856 C376.5031,1274.6335 371.9814,1272.3175 368.0588,1266.2275 C357.6131,1264.275 355.1431,1256.9646 359.8822,1248.1455 C355.2031,1239.4983 358.4453,1233.2493 368.4173,1232.6963" fill="#FEF3C7" style="stroke:#181818;stroke-width:0.5;"/><text fill="#000000" font-family="Monospace" font-size="14" lengthAdjust="spacing" textLength="62.6358" x="374.89" y="1253.1421">qrencode</text></g><!--entity tool_run--><g class="entity" data-qualified-name="tool_run" data-source-line="27" id="ent0022"><path d="M387.8802,56.8089 C392.7518,47.6676 401.0548,46.0679 408.1151,54.2526 C413.9787,46.4887 422.3035,48.2266 425.7027,56.8908 C435.2923,57.5996 440.9816,62.3527 435.4944,72.5119 C440.7285,81.9585 437.2265,87.3783 426.853,88.2611 C426.6146,100.9858 420.2831,105.9804 408.2897,99.8092 C397.383,104.8419 390.2206,103.3559 389.5202,89.6085 C379.8593,88.7738 376.0711,80.6823 381.4239,72.6709 C376.3685,64.544 378.7847,59.176 387.8802,56.8089" fill="#FEF3C7" style="stroke:#181818;stroke-width:0.5;"/><text fill="#000000" font-family="Monospace" font-size="14" lengthAdjust="spacing" textLength="23.0859" x="394.67" y="77.1421">run</text></g><!--entity tool_sed--><g class="entity" data-qualified-name="tool_sed" data-source-line="28" id="ent0023"><path d="M387.8102,1484.8089 C392.7002,1475.6415 401.0293,1474.0401 408.1081,1482.2526 C413.9881,1474.4584 422.343,1476.198 425.7587,1484.8908 C435.3483,1485.5996 441.0376,1490.3527 435.5504,1500.5119 C440.7845,1509.9585 437.2825,1515.3783 426.909,1516.2611 C426.6507,1529.0166 420.2961,1534.0137 408.2827,1527.8092 C397.3548,1532.8703 390.1718,1531.3905 389.4502,1517.6085 C379.7893,1516.7738 376.0011,1508.6823 381.3539,1500.6709 C376.2985,1492.544 378.7147,1487.176 387.8102,1484.8089" fill="#FEF3C7" style="stroke:#181818;stroke-width:0.5;"/><text fill="#000000" font-family="Monospace" font-size="14" lengthAdjust="spacing" textLength="23.2119" x="394.6" y="1505.1421">sed</text></g><!--entity tool_sshd--><g class="entity" data-qualified-name="tool_sshd" data-source-line="29" id="ent0024"><path d="M385.1992,812.1729 C387.8604,807.7874 392.3577,806.6515 395.5037,811.6399 C398.715,804.6914 402.6473,803.7775 408.1919,809.2581 C411.3161,804.5202 416.5363,805.6858 418.7932,810.2468 C423.1551,806.3074 426.9952,806.9906 429.3158,812.5162 C439.2334,815.287 439.1285,821.6635 433.6312,828.5764 C440.4506,836.4552 437.6101,841.6547 429.0705,845.36 C426.9298,851.487 423.3913,853.303 417.8484,849.0317 C416.0824,853.891 411.3111,855.9338 407.3665,851.4849 C401.4861,855.0312 397.514,854.3158 395.1532,847.3829 C391.2341,851.9193 386.1184,850.1106 384.5688,844.8286 C374.854,842.707 372.2677,834.9688 379.618,827.8664 C373.8733,820.9393 376.3303,813.9029 385.1992,812.1729" fill="#FEF3C7" style="stroke:#181818;stroke-width:0.5;"/><text fill="#000000" font-family="Monospace" font-size="14" lengthAdjust="spacing" textLength="30.6739" x="390.87" y="833.1421">sshd</text></g><!--entity tool_summarize--><g class="entity" data-qualified-name="tool_summarize" data-source-line="30" id="ent0025"><path d="M363.7462,139.6465 C368.9405,132.0263 374.1779,133.5999 378.6054,140.4346 C382.2219,133.2835 387.9294,133.5178 392.0102,139.9772 C396.8442,132.5137 401.6109,131.2437 407.8159,138.5056 C411.8767,131.138 418.9765,131.4039 422.6006,138.9389 C427.1851,132.0796 434.0765,132.3567 437.2924,140.2976 C440.9289,134.483 447.629,133.9206 450.7917,140.8014 C460.1594,140.872 464.2694,148.6889 459.1793,156.4895 C465.1239,165.1026 461.4513,171.1051 451.8564,172.6972 C448.0744,180.5488 440.4845,180.4567 435.5662,173.9901 C432.2599,182.1072 426.9783,181.5982 421.7195,175.9548 C418.9274,183.3357 412.0439,182.8228 407.9846,177.3042 C403.1556,182.8809 398.1855,183.8601 393.8481,176.7562 C388.2902,182.4241 381.9688,181.7329 378.8719,174.0048 C374.682,181.7246 368.1919,181.7647 364.3176,173.7135 C353.7576,172.8582 351.8251,163.5559 357.2671,156.2427 C351.9533,149.0589 353.0192,140.5681 363.7462,139.6465" fill="#FEF3C7" style="stroke:#181818;stroke-width:0.5;"/><text fill="#000000" font-family="Monospace" font-size="14" lengthAdjust="spacing" textLength="73.2617" x="369.58" y="161.1421">summarize</text></g><!--entity tool_sysctl--><g class="entity" data-qualified-name="tool_sysctl" data-source-line="31" id="ent0026"><path d="M382.9243,1568.9882 C385.4971,1562.8241 389.3148,1562.6978 393.8917,1566.8597 C397.9185,1559.9377 401.9444,1560.9675 406.8191,1565.9379 C410.852,1561.1255 415.7765,1561.3668 419.2626,1566.6142 C423.5581,1561.3807 428.806,1562.4264 431.6776,1568.2176 C441.3361,1568.0537 447.3761,1574.948 442.4403,1584.4567 C449.0926,1594.5272 443.9484,1603.1709 431.9106,1602.0645 C427.5406,1607.1616 423.6579,1608.8363 419.309,1602.0422 C415.578,1607.3302 411.6193,1608.7065 407.4375,1602.5082 C403.8786,1607.7499 397.5209,1607.8814 394.4066,1601.9879 C390.1637,1608.4078 384.8806,1607.5632 381.257,1601.3435 C371.3179,1598.9427 369.2191,1591.6776 375.3007,1583.8286 C369.9952,1575.3725 374.0282,1570.1488 382.9243,1568.9882" fill="#FEF3C7" style="stroke:#181818;stroke-width:0.5;"/><text fill="#000000" font-family="Monospace" font-size="14" lengthAdjust="spacing" textLength="35.9379" x="388.24" y="1589.1421">sysctl</text></g><!--entity tool_systemctl--><g class="entity" data-qualified-name="tool_systemctl" data-source-line="32" id="ent0027"><path d="M368.3743,475.4417 C371.8148,469.5229 378.3393,468.8411 381.44,475.7866 C385.1816,469.0759 390.2185,468.9992 394.7523,474.9538 C398.7841,468.7067 403.3224,469.1993 407.7676,474.4873 C411.3115,468.4532 414.9775,469.036 418.9213,474.0849 C423.8821,467.4255 428.3537,468.3864 432.1666,475.2124 C435.754,469.852 441.9925,468.9443 445.0465,475.7758 C453.7428,478.5085 456.7391,486.7159 450.2598,493.8305 C455.5952,499.6352 453.812,506.4172 446.2304,508.7282 C443.661,517.2667 438.1283,517.9379 431.821,512.6133 C429.1589,518.2134 425.0198,518.961 420.3665,514.9984 C417.5041,521.6214 412.1862,523.6139 407.2394,517.0778 C401.798,522.6479 397.3652,521.3197 394.8695,514.2052 C390.4727,519.4988 384.7529,519.8737 381.8361,512.6627 C376.9175,516.7319 372.498,517.4614 369.9384,510.1883 C359.1743,507.07 359.0323,501.2025 364.9076,493.1665 C358.1274,485.9083 358.4147,479.4258 368.3743,475.4417" fill="#FEF3C7" style="stroke:#181818;stroke-width:0.5;"/><text fill="#000000" font-family="Monospace" font-size="14" lengthAdjust="spacing" textLength="61.9778" x="375.22" y="497.1421">systemctl</text></g><!--entity tool_tachometer--><g class="entity" data-qualified-name="tool_tachometer" data-source-line="33" id="ent0028"><path d="M362.5472,223.629 C365.3207,218.5557 369.876,218.9158 372.6074,223.6721 C376.6884,217.4475 382.0357,218.8729 385.4926,224.3589 C388.8105,218.8727 392.0663,218.4461 395.8078,223.9618 C398.6986,217.0578 403.2521,217.0194 407.9858,222.0871 C411.8008,216.8496 416.1924,218.9488 418.4733,223.6981 C421.6061,218.5688 425.6349,218.3543 429.156,223.2857 C432.9974,217.4443 437.9007,218.5666 440.9676,224.0906 C444.036,218.3871 448.6769,219.686 451.6523,224.188 C459.8808,227.9993 460.5621,235.013 453.3996,240.4754 C461.42,245.4389 460.901,251.1205 453.5684,256.2484 C450.3861,261.6503 446.0987,262.391 442.1712,257.038 C439.5129,263.7037 434.4521,263.9621 429.938,258.9885 C425.9725,264.3721 422.6546,263.636 418.9371,258.7235 C416.5291,264.4108 411.2653,264.5531 408.2616,259.3049 C404.8525,264.0415 399.755,264.4584 396.6393,258.9715 C392.6147,262.7504 387.9051,263.0303 385.7726,256.8972 C382.773,263.9161 376.6363,263.1549 372.5972,258.0246 C369.0531,262.5022 363.427,262.1378 361.0747,256.647 C352.2679,255.498 349.3125,247.2526 354.1887,240.3294 C349.4721,230.9265 350.8916,224.8377 362.5472,223.629" fill="#FEF3C7" style="stroke:#181818;stroke-width:0.5;"/><text fill="#000000" font-family="Monospace" font-size="14" lengthAdjust="spacing" textLength="76.4677" x="367.97" y="245.1421">tachometer</text></g><!--entity tool_tee--><g class="entity" data-qualified-name="tool_tee" data-source-line="34" id="ent0029"><path d="M390.0812,559.2449 C394.4274,551.6141 401.8957,550.1511 407.3521,558.0068 C414.7624,549.8894 420.8735,551.8372 425.1645,561.1877 C434.5359,562.4397 438.5959,567.3324 433.761,576.5394 C439.8518,586.2662 434.1784,592.6903 424.2901,593.4879 C421.3778,603.4669 415.6845,605.8344 407.3003,599.0257 C398.9824,606.1414 391.1646,602.2379 389.1746,592.3 C381.362,588.0213 378.93,583.3991 386.4387,576.4722 C379.3708,569.2541 380.2557,562.891 390.0812,559.2449" fill="#FEF3C7" style="stroke:#181818;stroke-width:0.5;"/><text fill="#000000" font-family="Monospace" font-size="14" lengthAdjust="spacing" textLength="20.8459" x="395.79" y="581.1421">tee</text></g><!--entity tool_ufw--><g class="entity" data-qualified-name="tool_ufw" data-source-line="35" id="ent0030"><path d="M387.5532,979.8635 C392.4766,970.3702 401.9556,969.6344 407.6291,979.0678 C414.507,971.2798 420.2534,971.3085 425.4614,980.7919 C436.0169,981.4416 438.2677,988.0355 433.4515,996.5028 C438.2293,1005.3323 434.8264,1010.2969 425.8199,1012.5855 C420.6068,1022.6404 414.8541,1023.3427 407.1459,1015.1371 C400.4377,1022.8149 392.0669,1023.6338 387.8421,1012.5781 C378.8382,1011.2702 376.1161,1004.3121 382.359,997.4705 C375.039,990.2394 378.8046,982.3543 387.5532,979.8635" fill="#FEF3C7" style="stroke:#181818;stroke-width:0.5;"/><text fill="#000000" font-family="Monospace" font-size="14" lengthAdjust="spacing" textLength="24.4719" x="393.97" y="1001.1421">ufw</text></g><!--entity tool_wg--><g class="entity" data-qualified-name="tool_wg" data-source-line="36" id="ent0031"><path d="M390.3182,644.1903 C394.1997,634.084 401.0644,634.4882 407.8251,641.1916 C415.3065,634.5029 419.663,637.3617 423.2698,645.2866 C431.8852,648.4394 432.3733,653.9316 427.0678,660.5486 C433.0154,666.7057 432.6372,674.6028 423.1871,677.1635 C420.8664,686.9758 413.5876,687.9757 406.2312,682.8979 C398.4185,688.9861 393.1697,686.2614 390.7627,677.3305 C380.0025,676.0809 378.5903,670.6348 383.2137,661.8726 C377.504,653.8018 379.0507,645.4398 390.3182,644.1903" fill="#FEF3C7" style="stroke:#181818;stroke-width:0.5;"/><text fill="#000000" font-family="Monospace" font-size="14" lengthAdjust="spacing" textLength="19.6139" x="396.4" y="665.1421">wg</text></g><!--entity tool_zip--><g class="entity" data-qualified-name="tool_zip" data-source-line="37" id="ent0032"><path d="M391.9992,1317.0659 C395.2516,1308.4236 401.3827,1307.4204 408.0965,1313.2034 C414.4921,1305.6937 421.3645,1308.5614 424.2316,1316.815 C433.7775,1319.6023 433.2632,1326.0653 427.7865,1332.3011 C435.0019,1338.8225 432.8741,1345.3469 424.7712,1349.1223 C424.3769,1361.9963 415.929,1363.8421 406.34,1358.3495 C398.8512,1362.4156 391.1662,1359.826 391.1636,1350.1075 C381.6482,1347.7738 378.6574,1341.0453 385.9703,1333.4615 C379.271,1325.9115 383.7191,1319.1079 391.9992,1317.0659" fill="#FEF3C7" style="stroke:#181818;stroke-width:0.5;"/><text fill="#000000" font-family="Monospace" font-size="14" lengthAdjust="spacing" textLength="18.8019" x="396.81" y="1337.1421">zip</text></g><g class="entity" data-qualified-name="shellGraphSummary" data-source-line="69" id="ent0063"><path d="M309.29,1676.1562 L309.29,1739.2743 L503.1251,1739.2743 L503.1251,1686.1562 L493.1251,1676.1562 L309.29,1676.1562" fill="#FEFFDD" style="stroke:#181818;stroke-width:0.5;"/><path d="M493.1251,1676.1562 L493.1251,1686.1562 L503.1251,1686.1562 L493.1251,1676.1562" fill="#FEFFDD" style="stroke:#181818;stroke-width:1;"/><text fill="#000000" font-family="Monospace" font-size="13" lengthAdjust="spacing" textLength="148.9671" x="315.29" y="1695.0532">Scanned&#160;12&#160;shell&#160;scripts.</text><text fill="#000000" font-family="Monospace" font-size="13" lengthAdjust="spacing" textLength="172.8351" x="315.29" y="1712.7592">Detected&#160;0&#160;local&#160;shell&#160;edges.</text><text fill="#000000" font-family="Monospace" font-size="13" lengthAdjust="spacing" textLength="163.8911" x="315.29" y="1730.4652">Detected&#160;19&#160;external&#160;tools.</text></g><!--link shell_scripts_configure_firewalld_sh to tool_firewall_cmd--><g class="link" data-entity-1="ent0002" data-entity-2="ent0017" data-link-type="dependency" data-source-line="38" id="lnk33"><path d="M235.25,323.7162 C274.57,323.7162 311.49,323.7162 344.49,323.7162" fill="none" id="shell_scripts_configure_firewalld_sh-to-tool_firewall_cmd" style="stroke:#181818;stroke-width:1;"/><polygon fill="#181818" points="350.49,323.7162,341.49,319.7162,345.49,323.7162,341.49,327.7162,350.49,323.7162" style="stroke:#181818;stroke-width:1;"/></g><!--link shell_scripts_configure_firewalld_sh to tool_systemctl--><g class="link" data-entity-1="ent0002" data-entity-2="ent0027" data-link-type="dependency" data-source-line="39" id="lnk34"><path d="M232.13,376.7962 C232.13,419.9862 232.13,483.5362 232.13,483.5362 C232.13,483.5362 302.44,483.5362 354.01,483.5362" fill="none" id="shell_scripts_configure_firewalld_sh-to-tool_systemctl" style="stroke:#181818;stroke-width:1;"/><polygon fill="#181818" points="360.01,483.5362,351.01,479.5362,355.01,483.5362,351.01,487.5362,360.01,483.5362" style="stroke:#181818;stroke-width:1;"/></g><!--link shell_scripts_configure_ufw_sh to tool_cat--><g class="link" data-entity-1="ent0003" data-entity-2="ent0015" data-link-type="dependency" data-source-line="40" id="lnk35"><path d="M219.19,1395.9362 C275.9,1395.9362 338.74,1395.9362 375.02,1395.9362" fill="none" id="shell_scripts_configure_ufw_sh-to-tool_cat" style="stroke:#181818;stroke-width:1;"/><polygon fill="#181818" points="381.02,1395.9362,372.02,1391.9362,376.02,1395.9362,372.02,1399.9362,381.02,1395.9362" style="stroke:#181818;stroke-width:1;"/></g><!--link shell_scripts_configure_ufw_sh to tool_grep--><g class="link" data-entity-1="ent0003" data-entity-2="ent0019" data-link-type="dependency" data-source-line="41" id="lnk36"><path d="M219.29,1344.5362 C231.06,1344.5362 239.13,1344.5362 239.13,1344.5362 C239.13,1344.5362 239.13,1185.8662 239.13,1185.8662 C239.13,1185.8662 321.33,1185.8662 369.56,1185.8662" fill="none" id="shell_scripts_configure_ufw_sh-to-tool_grep" style="stroke:#181818;stroke-width:1;"/><polygon fill="#181818" points="375.56,1185.8662,366.56,1181.8662,370.56,1185.8662,366.56,1189.8662,375.56,1185.8662" style="stroke:#181818;stroke-width:1;"/></g><!--link shell_scripts_configure_ufw_sh to tool_sed--><g class="link" data-entity-1="ent0003" data-entity-2="ent0023" data-link-type="dependency" data-source-line="42" id="lnk37"><path d="M128.13,1398.8162 C128.13,1438.3462 128.13,1493.6462 128.13,1493.6462 C128.13,1493.6462 303.5,1493.6462 373.29,1493.6462" fill="none" id="shell_scripts_configure_ufw_sh-to-tool_sed" style="stroke:#181818;stroke-width:1;"/><polygon fill="#181818" points="379.29,1493.6462,370.29,1489.6462,374.29,1493.6462,370.29,1497.6462,379.29,1493.6462" style="stroke:#181818;stroke-width:1;"/></g><!--link shell_scripts_configure_ufw_sh to tool_ufw--><g class="link" data-entity-1="ent0003" data-entity-2="ent0030" data-link-type="dependency" data-source-line="43" id="lnk38"><path d="M219.25,1332.8262 C229.38,1332.8262 236.13,1332.8262 236.13,1332.8262 C236.13,1332.8262 236.13,1003.8962 236.13,1003.8962 C236.13,1003.8962 324.31,1003.8962 372.5,1003.8962" fill="none" id="shell_scripts_configure_ufw_sh-to-tool_ufw" style="stroke:#181818;stroke-width:1;"/><polygon fill="#181818" points="378.5,1003.8962,369.5,999.8962,373.5,1003.8962,369.5,1007.8962,378.5,1003.8962" style="stroke:#181818;stroke-width:1;"/></g><!--link shell_scripts_enable_ip_forwarding_sh to tool_cat--><g class="link" data-entity-1="ent0004" data-entity-2="ent0015" data-link-type="dependency" data-source-line="44" id="lnk39"><path d="M241.13,1511.6362 C241.13,1472.8962 241.13,1419.2862 241.13,1419.2862 C241.13,1419.2862 328.95,1419.2862 375.14,1419.2862" fill="none" id="shell_scripts_enable_ip_forwarding_sh-to-tool_cat" style="stroke:#181818;stroke-width:1;"/><polygon fill="#181818" points="381.14,1419.2862,372.14,1415.2862,376.14,1419.2862,372.14,1423.2862,381.14,1419.2862" style="stroke:#181818;stroke-width:1;"/></g><!--link shell_scripts_enable_ip_forwarding_sh to tool_sysctl--><g class="link" data-entity-1="ent0004" data-entity-2="ent0026" data-link-type="dependency" data-source-line="45" id="lnk40"><path d="M243.25,1574.2462 C290.17,1574.2462 334.83,1574.2462 366.99,1574.2462" fill="none" id="shell_scripts_enable_ip_forwarding_sh-to-tool_sysctl" style="stroke:#181818;stroke-width:1;"/><polygon fill="#181818" points="372.99,1574.2462,363.99,1570.2462,367.99,1574.2462,363.99,1578.2462,372.99,1574.2462" style="stroke:#181818;stroke-width:1;"/></g><!--link shell_scripts_generate_keys_sh to tool_mkdir--><g class="link" data-entity-1="ent0005" data-entity-2="ent0020" data-link-type="dependency" data-source-line="46" id="lnk41"><path d="M219.62,667.8962 C230.1,667.8962 237.13,667.8962 237.13,667.8962 C237.13,667.8962 237.13,896.9962 237.13,896.9962 C237.13,896.9962 316.12,896.9962 365.58,896.9962" fill="none" id="shell_scripts_generate_keys_sh-to-tool_mkdir" style="stroke:#181818;stroke-width:1;"/><polygon fill="#181818" points="371.58,896.9962,362.58,892.9962,366.58,896.9962,362.58,900.9962,371.58,896.9962" style="stroke:#181818;stroke-width:1;"/></g><!--link shell_scripts_generate_keys_sh to tool_tee--><g class="link" data-entity-1="ent0005" data-entity-2="ent0029" data-link-type="dependency" data-source-line="47" id="lnk42"><path d="M219.55,621.1462 C300.57,621.1462 406.13,621.1462 406.13,621.1462 C406.13,621.1462 406.13,617.1662 406.13,606.5562" fill="none" id="shell_scripts_generate_keys_sh-to-tool_tee" style="stroke:#181818;stroke-width:1;"/><polygon fill="#181818" points="406.13,600.5562,402.13,609.5562,406.13,605.5562,410.13,609.5562,406.13,600.5562" style="stroke:#181818;stroke-width:1;"/></g><!--link shell_scripts_generate_keys_sh to tool_wg--><g class="link" data-entity-1="ent0005" data-entity-2="ent0031" data-link-type="dependency" data-source-line="48" id="lnk43"><path d="M219.58,651.5362 C276.25,651.5362 338.91,651.5362 375.09,651.5362" fill="none" id="shell_scripts_generate_keys_sh-to-tool_wg" style="stroke:#181818;stroke-width:1;"/><polygon fill="#181818" points="381.09,651.5362,372.09,647.5362,376.09,651.5362,372.09,655.5362,381.09,651.5362" style="stroke:#181818;stroke-width:1;"/></g><!--link shell_scripts_harden_ssh_sh to tool_cp--><g class="link" data-entity-1="ent0006" data-entity-2="ent0016" data-link-type="dependency" data-source-line="49" id="lnk44"><path d="M210.13,940.9362 C221.36,940.9362 229.13,940.9362 229.13,940.9362 C229.13,940.9362 229.13,1071.5362 229.13,1071.5362 C229.13,1071.5362 329.06,1071.5362 377.06,1071.5362" fill="none" id="shell_scripts_harden_ssh_sh-to-tool_cp" style="stroke:#181818;stroke-width:1;"/><polygon fill="#181818" points="383.06,1071.5362,374.06,1067.5362,378.06,1071.5362,374.06,1075.5362,383.06,1071.5362" style="stroke:#181818;stroke-width:1;"/></g><!--link shell_scripts_harden_ssh_sh to tool_grep--><g class="link" data-entity-1="ent0006" data-entity-2="ent0019" data-link-type="dependency" data-source-line="50" id="lnk45"><path d="M209.89,945.6262 C220.14,945.6262 227.13,945.6262 227.13,945.6262 C227.13,945.6262 227.13,1160.1462 227.13,1160.1462 C227.13,1160.1462 318.22,1160.1462 369.42,1160.1462" fill="none" id="shell_scripts_harden_ssh_sh-to-tool_grep" style="stroke:#181818;stroke-width:1;"/><polygon fill="#181818" points="375.42,1160.1462,366.42,1156.1462,370.42,1160.1462,366.42,1164.1462,375.42,1160.1462" style="stroke:#181818;stroke-width:1;"/></g><!--link shell_scripts_harden_ssh_sh to tool_mkdir--><g class="link" data-entity-1="ent0006" data-entity-2="ent0020" data-link-type="dependency" data-source-line="51" id="lnk46"><path d="M210.07,906.8062 C263.9,906.8062 325.55,906.8062 365.69,906.8062" fill="none" id="shell_scripts_harden_ssh_sh-to-tool_mkdir" style="stroke:#181818;stroke-width:1;"/><polygon fill="#181818" points="371.69,906.8062,362.69,902.8062,366.69,906.8062,362.69,910.8062,371.69,906.8062" style="stroke:#181818;stroke-width:1;"/></g><!--link shell_scripts_harden_ssh_sh to tool_sshd--><g class="link" data-entity-1="ent0006" data-entity-2="ent0024" data-link-type="dependency" data-source-line="52" id="lnk47"><path d="M210.05,882.4862 C292.04,882.4862 406.13,882.4862 406.13,882.4862 C406.13,882.4862 406.13,873.0362 406.13,858.5362" fill="none" id="shell_scripts_harden_ssh_sh-to-tool_sshd" style="stroke:#181818;stroke-width:1;"/><polygon fill="#181818" points="406.13,852.5362,402.13,861.5362,406.13,857.5362,410.13,861.5362,406.13,852.5362" style="stroke:#181818;stroke-width:1;"/></g><!--link shell_scripts_harden_ssh_sh to tool_systemctl--><g class="link" data-entity-1="ent0006" data-entity-2="ent0027" data-link-type="dependency" data-source-line="53" id="lnk48"><path d="M210.02,877.8062 C278.17,877.8062 364.13,877.8062 364.13,877.8062 C364.13,877.8062 364.13,607.6662 364.13,522.4562" fill="none" id="shell_scripts_harden_ssh_sh-to-tool_systemctl" style="stroke:#181818;stroke-width:1;"/><polygon fill="#181818" points="364.13,516.4562,360.13,525.4562,364.13,521.4562,368.13,525.4562,364.13,516.4562" style="stroke:#181818;stroke-width:1;"/></g><!--link shell_scripts_install_fedora_sh to tool_firewalld--><g class="link" data-entity-1="ent0008" data-entity-2="ent0018" data-link-type="dependency" data-source-line="54" id="lnk49"><path d="M216.48,453.1462 C297.88,453.1462 406.13,453.1462 406.13,453.1462 C406.13,453.1462 406.13,449.1662 406.13,438.5562" fill="none" id="shell_scripts_install_fedora_sh-to-tool_firewalld" style="stroke:#181818;stroke-width:1;"/><polygon fill="#181818" points="406.13,432.5562,402.13,441.5562,406.13,437.5562,410.13,441.5562,406.13,432.5562" style="stroke:#181818;stroke-width:1;"/></g><!--link shell_scripts_install_fedora_sh to tool_systemctl--><g class="link" data-entity-1="ent0008" data-entity-2="ent0027" data-link-type="dependency" data-source-line="55" id="lnk50"><path d="M216.51,499.8962 C264.22,499.8962 315.14,499.8962 354.11,499.8962" fill="none" id="shell_scripts_install_fedora_sh-to-tool_systemctl" style="stroke:#181818;stroke-width:1;"/><polygon fill="#181818" points="360.11,499.8962,351.11,495.8962,355.11,499.8962,351.11,503.8962,360.11,499.8962" style="stroke:#181818;stroke-width:1;"/></g><!--link shell_scripts_install_ubuntu_sh to tool_apt_get--><g class="link" data-entity-1="ent0009" data-entity-2="ent0014" data-link-type="dependency" data-source-line="56" id="lnk51"><path d="M219.19,751.8962 C269.24,751.8962 322.75,751.8962 360.98,751.8962" fill="none" id="shell_scripts_install_ubuntu_sh-to-tool_apt_get" style="stroke:#181818;stroke-width:1;"/><polygon fill="#181818" points="366.98,751.8962,357.98,747.8962,361.98,751.8962,357.98,755.8962,366.98,751.8962" style="stroke:#181818;stroke-width:1;"/></g><!--link shell_scripts_install_ubuntu_sh to tool_systemctl--><g class="link" data-entity-1="ent0009" data-entity-2="ent0027" data-link-type="dependency" data-source-line="57" id="lnk52"><path d="M218.94,735.5362 C284.71,735.5362 362.13,735.5362 362.13,735.5362 C362.13,735.5362 362.13,584.4262 362.13,522.4362" fill="none" id="shell_scripts_install_ubuntu_sh-to-tool_systemctl" style="stroke:#181818;stroke-width:1;"/><polygon fill="#181818" points="362.13,516.4362,358.13,525.4362,362.13,521.4362,366.13,525.4362,362.13,516.4362" style="stroke:#181818;stroke-width:1;"/></g><!--link shell_scripts_install_ubuntu_sh to tool_ufw--><g class="link" data-entity-1="ent0009" data-entity-2="ent0030" data-link-type="dependency" data-source-line="58" id="lnk53"><path d="M213.13,796.6962 C213.13,862.2662 213.13,987.5362 213.13,987.5362 C213.13,987.5362 319.16,987.5362 372.54,987.5362" fill="none" id="shell_scripts_install_ubuntu_sh-to-tool_ufw" style="stroke:#181818;stroke-width:1;"/><polygon fill="#181818" points="378.54,987.5362,369.54,983.5362,373.54,987.5362,369.54,991.5362,378.54,987.5362" style="stroke:#181818;stroke-width:1;"/></g><!--link shell_scripts_package_client_sh to tool_cp--><g class="link" data-entity-1="ent0010" data-entity-2="ent0016" data-link-type="dependency" data-source-line="59" id="lnk54"><path d="M220.74,1087.8962 C278.24,1087.8962 341.73,1087.8962 377.09,1087.8962" fill="none" id="shell_scripts_package_client_sh-to-tool_cp" style="stroke:#181818;stroke-width:1;"/><polygon fill="#181818" points="383.09,1087.8962,374.09,1083.8962,378.09,1087.8962,374.09,1091.8962,383.09,1087.8962" style="stroke:#181818;stroke-width:1;"/></g><!--link shell_scripts_package_client_sh to tool_mkdir--><g class="link" data-entity-1="ent0010" data-entity-2="ent0020" data-link-type="dependency" data-source-line="60" id="lnk55"><path d="M216.13,1054.8462 C216.13,1002.7162 216.13,916.6162 216.13,916.6162 C216.13,916.6162 311.01,916.6162 365.79,916.6162" fill="none" id="shell_scripts_package_client_sh-to-tool_mkdir" style="stroke:#181818;stroke-width:1;"/><polygon fill="#181818" points="371.79,916.6162,362.79,912.6162,366.79,916.6162,362.79,920.6162,371.79,916.6162" style="stroke:#181818;stroke-width:1;"/></g><!--link shell_scripts_package_client_sh to tool_qrencode--><g class="link" data-entity-1="ent0010" data-entity-2="ent0021" data-link-type="dependency" data-source-line="61" id="lnk56"><path d="M220.79,1113.6062 C287.25,1113.6062 365.13,1113.6062 365.13,1113.6062 C365.13,1113.6062 365.13,1178.0162 365.13,1216.8062" fill="none" id="shell_scripts_package_client_sh-to-tool_qrencode" style="stroke:#181818;stroke-width:1;"/><polygon fill="#181818" points="365.13,1222.8062,369.13,1213.8062,365.13,1217.8062,361.13,1213.8062,365.13,1222.8062" style="stroke:#181818;stroke-width:1;"/></g><!--link shell_scripts_package_client_sh to tool_zip--><g class="link" data-entity-1="ent0010" data-entity-2="ent0032" data-link-type="dependency" data-source-line="62" id="lnk57"><path d="M220.48,1122.9562 C222.81,1122.9562 224.13,1122.9562 224.13,1122.9562 C224.13,1122.9562 224.13,1314.1462 224.13,1314.1462 C224.13,1314.1462 325.95,1314.1462 375.65,1314.1462" fill="none" id="shell_scripts_package_client_sh-to-tool_zip" style="stroke:#181818;stroke-width:1;"/><polygon fill="#181818" points="381.65,1314.1462,372.65,1310.1462,376.65,1314.1462,372.65,1318.1462,381.65,1314.1462" style="stroke:#181818;stroke-width:1;"/></g><!--link shell_scripts_render_configs_sh to tool_cat--><g class="link" data-entity-1="ent0011" data-entity-2="ent0015" data-link-type="dependency" data-source-line="63" id="lnk58"><path d="M221.42,1240.7462 C231.47,1240.7462 238.13,1240.7462 238.13,1240.7462 C238.13,1240.7462 238.13,1393.5562 238.13,1393.5562 C238.13,1393.5562 328.16,1393.5562 375.05,1393.5562" fill="none" id="shell_scripts_render_configs_sh-to-tool_cat" style="stroke:#181818;stroke-width:1;"/><polygon fill="#181818" points="381.05,1393.5562,372.05,1389.5562,376.05,1393.5562,372.05,1397.5562,381.05,1393.5562" style="stroke:#181818;stroke-width:1;"/></g><!--link shell_scripts_render_configs_sh to tool_mkdir--><g class="link" data-entity-1="ent0011" data-entity-2="ent0020" data-link-type="dependency" data-source-line="64" id="lnk59"><path d="M221.19,1183.4862 C252.25,1183.4862 279.13,1183.4862 279.13,1183.4862 C279.13,1183.4862 279.13,926.4362 279.13,926.4362 C279.13,926.4362 327.86,926.4362 365.48,926.4362" fill="none" id="shell_scripts_render_configs_sh-to-tool_mkdir" style="stroke:#181818;stroke-width:1;"/><polygon fill="#181818" points="371.48,926.4362,362.48,922.4362,366.48,926.4362,362.48,930.4362,371.48,926.4362" style="stroke:#181818;stroke-width:1;"/></g><!--link shell_scripts_run_tachometer_profile_sh to tool_run--><g class="link" data-entity-1="ent0012" data-entity-2="ent0022" data-link-type="dependency" data-source-line="65" id="lnk60"><path d="M249.67,124.1462 C324.47,124.1462 406.13,124.1462 406.13,124.1462 C406.13,124.1462 406.13,116.2062 406.13,102.7062" fill="none" id="shell_scripts_run_tachometer_profile_sh-to-tool_run" style="stroke:#181818;stroke-width:1;"/><polygon fill="#181818" points="406.13,96.7062,402.13,105.7062,406.13,101.7062,410.13,105.7062,406.13,96.7062" style="stroke:#181818;stroke-width:1;"/></g><!--link shell_scripts_run_tachometer_profile_sh to tool_summarize--><g class="link" data-entity-1="ent0012" data-entity-2="ent0025" data-link-type="dependency" data-source-line="66" id="lnk61"><path d="M249.7,155.7162 C286.38,155.7162 318.71,155.7162 348.26,155.7162" fill="none" id="shell_scripts_run_tachometer_profile_sh-to-tool_summarize" style="stroke:#181818;stroke-width:1;"/><polygon fill="#181818" points="354.26,155.7162,345.26,151.7162,349.26,155.7162,345.26,159.7162,354.26,155.7162" style="stroke:#181818;stroke-width:1;"/></g><!--link shell_scripts_run_tachometer_profile_sh to tool_tachometer--><g class="link" data-entity-1="ent0012" data-entity-2="ent0028" data-link-type="dependency" data-source-line="67" id="lnk62"><path d="M242.13,194.7662 C242.13,216.6962 242.13,239.7162 242.13,239.7162 C242.13,239.7162 298.63,239.7162 346.48,239.7162" fill="none" id="shell_scripts_run_tachometer_profile_sh-to-tool_tachometer" style="stroke:#181818;stroke-width:1;"/><polygon fill="#181818" points="352.48,239.7162,343.48,235.7162,347.48,239.7162,343.48,243.7162,352.48,239.7162" style="stroke:#181818;stroke-width:1;"/></g><?plantuml-src fPPDSziW48Rl-XLCSdQQZtOwlNIcRUAUseklcM48MacC4QY0gZY_lcl7bh2-mDLnsMVtNOa5rWadWLJ2hLxqAzaK82NPS2CgHzPIDuc4p16dYH5vuKWg370dj4hiLgYA6LOIMx1KDqBb96FIWkT98MErT6kjt6zM0lcbbROLupx3TLbf1Sfjt0uBsQTdAfS-8eK2jwk0QECAdRG8kRA7Gkq7hbKcyje0pR30XacPtjZYMTqIgJcJMEB-io3DmJwhUmAl3ep2TQUrj5U4sNU27lFHaNpK5kJwyVlJj_NJV0LrranhVxn46pC5L46n5mbKL3JJfc4cnLrOzE5Z2GCrvA30C0Tq2pixBVuG5Z_B550ji3PGrDfYMl9JMB9B4z0JoZfiWscnsx3OCKUS4iqWrOOjsitpL96wzKkjNBre8yzJ1NJnFjYo72YN0c-1HKVdF5L0ru1AmHoFcrtqdyzJXNHhHHtZXIu1qzBAw4n8MFI_nrC6wlZBf4Znj2rgwLCINujBNQVaYbLkbOCx1Et3AIxW4NVaUlsqVlZn-SHnvZ5e3FoLvwxwtjFzlE9bsd6dLOghKn4Z-83D3NZgUwjFb5jy4ZlaOFQPFzWVNAVGOQULFeaRsK5ezFqMlAhH6FXjuGDe3OYwB9aHRrunxTA0tLdkf0SUx17AGTa7tvVwRDUa7Toj3MZmgaIZxyVtiVEZqVStUUTkyhxtJNXRYqRhZne5LgklmrQxCBJzJKbW0cWZy7X4i_jkZOQnbw9Pj9EugM6cxc38UxCbWGcXnGy7Bvh6PefccpoPcncwRwpYk95zcI37lca2tH_rI7AYwOQpmg35q_YGa4et6RGXn-SXFk0_D8QjEnmPfZTqXXtRgXdyTF_7H-05bOI6ZfdZDWEFbJuzKBHXY5mUr3urbuTsxaHf1-qeyjEmgjWSykwI3MTAuRDuTt-SP8u2DyaZHdA7hf59n_FUVUdDF3S9_ZcoL_m7?></g></svg>
