<?plantuml 1.2026.2?><svg xmlns="http://www.w3.org/2000/svg" xmlns:xlink="http://www.w3.org/1999/xlink" contentStyleType="text/css" data-diagram-type="DESCRIPTION" height="2570px" preserveAspectRatio="none" style="width:521px;height:2570px;background:#FFFFFF;" version="1.1" viewBox="0 0 521 2570" width="521px" zoomAndPan="magnify"><title>pit-box Shell Script Flow</title><defs/><g><g class="title" data-source-line="1"><text fill="#000000" font-family="Monospace" font-size="14" font-weight="bold" lengthAdjust="spacing" textLength="166.0884" x="170.8611" y="24.9659">pit-box&#160;Shell&#160;Script&#160;Flow</text></g><!--entity shell_scripts_configure_firewalld_sh--><g class="entity" data-qualified-name="shell_scripts_configure_firewalld_sh" data-source-line="7" id="ent0002"><rect fill="#DBEAFE" height="77.2038" rx="2.5" ry="2.5" style="stroke:#181818;stroke-width:0.5;" width="213.7312" x="21.28" y="718.0179"/><text fill="#000000" font-family="Monospace" font-size="14" lengthAdjust="spacing" textLength="193.7312" x="31.28" y="742.9839">scripts/configure_firewalld.sh</text><text fill="#000000" font-family="Monospace" font-size="14" lengthAdjust="spacing" textLength="119.3915" x="31.28" y="762.0518">0&#160;local&#160;shell&#160;edges</text><text fill="#000000" font-family="Monospace" font-size="14" lengthAdjust="spacing" textLength="101.7516" x="31.28" y="781.1197">2&#160;external&#160;tools</text></g><!--entity shell_scripts_configure_ufw_sh--><g class="entity" data-qualified-name="shell_scripts_configure_ufw_sh" data-source-line="8" id="ent0003"><rect fill="#DBEAFE" height="77.2038" rx="2.5" ry="2.5" style="stroke:#181818;stroke-width:0.5;" width="181.4054" x="37.44" y="1768.0179"/><text fill="#000000" font-family="Monospace" font-size="14" lengthAdjust="spacing" textLength="161.4054" x="47.44" y="1792.9839">scripts/configure_ufw.sh</text><text fill="#000000" font-family="Monospace" font-size="14" lengthAdjust="spacing" textLength="119.3915" x="47.44" y="1812.0518">0&#160;local&#160;shell&#160;edges</text><text fill="#000000" font-family="Monospace" font-size="14" lengthAdjust="spacing" textLength="101.7516" x="47.44" y="1831.1197">4&#160;external&#160;tools</text></g><!--entity shell_scripts_enable_ip_forwarding_sh--><g class="entity" data-qualified-name="shell_scripts_enable_ip_forwarding_sh" data-source-line="9" id="ent0004"><rect fill="#DBEAFE" height="77.2038" rx="2.5" ry="2.5" style="stroke:#181818;stroke-width:0.5;" width="229.8732" x="13.21" y="2286.0179"/><text fill="#000000" font-family="Monospace" font-size="14" lengthAdjust="spacing" textLength="209.8732" x="23.21" y="2310.9839">scripts/enable_ip_forwarding.sh</text><text fill="#000000" font-family="Monospace" font-size="14" lengthAdjust="spacing" textLength="119.3915" x="23.21" y="2330.0518">0&#160;local&#160;shell&#160;edges</text><text fill="#000000" font-family="Monospace" font-size="14" lengthAdjust="spacing" textLength="101.7516" x="23.21" y="2349.1197">2&#160;external&#160;tools</text></g><!--entity shell_scripts_generate_keys_sh--><g class="entity" data-qualified-name="shell_scripts_generate_keys_sh" data-source-line="10" id="ent0005"><rect fill="#DBEAFE" height="77.2038" rx="2.5" ry="2.5" style="stroke:#181818;stroke-width:0.5;" width="182.5814" x="36.85" y="2412.0179"/><text fill="#000000" font-family="Monospace" font-size="14" lengthAdjust="spacing" textLength="162.5814" x="46.85" y="2436.9839">scripts/generate_keys.sh</text><text fill="#000000" font-family="Monospace" font-size="14" lengthAdjust="spacing" textLength="119.3915" x="46.85" y="2456.0518">0&#160;local&#160;shell&#160;edges</text><text fill="#000000" font-family="Monospace" font-size="14" lengthAdjust="spacing" textLength="101.7516" x="46.85" y="2475.1197">3&#160;external&#160;tools</text></g><!--entity shell_scripts_harden_ssh_sh--><g class="entity" data-qualified-name="shell_scripts_harden_ssh_sh" data-source-line="11" id="ent0006"><rect fill="#DBEAFE" height="77.2038" rx="2.5" ry="2.5" style="stroke:#181818;stroke-width:0.5;" width="163.2335" x="46.53" y="1656.0179"/><text fill="#000000" font-family="Monospace" font-size="14" lengthAdjust="spacing" textLength="143.2335" x="56.53" y="1680.9839">scripts/harden_ssh.sh</text><text fill="#000000" font-family="Monospace" font-size="14" lengthAdjust="spacing" textLength="119.3915" x="56.53" y="1700.0518">0&#160;local&#160;shell&#160;edges</text><text fill="#000000" font-family="Monospace" font-size="14" lengthAdjust="spacing" textLength="101.7516" x="56.53" y="1719.1197">5&#160;external&#160;tools</text></g><!--entity shell_scripts_install_sh--><g class="entity" data-qualified-name="shell_scripts_install_sh" data-source-line="12" id="ent0007"><rect fill="#DBEAFE" height="77.2038" rx="2.5" ry="2.5" style="stroke:#181818;stroke-width:0.5;" width="139.3915" x="340.43" y="1390.0179"/><text fill="#000000" font-family="Monospace" font-size="14" lengthAdjust="spacing" textLength="106.6096" x="350.43" y="1414.9839">scripts/install.sh</text><text fill="#000000" font-family="Monospace" font-size="14" lengthAdjust="spacing" textLength="119.3915" x="350.43" y="1434.0518">0&#160;local&#160;shell&#160;edges</text><text fill="#000000" font-family="Monospace" font-size="14" lengthAdjust="spacing" textLength="101.7516" x="350.43" y="1453.1197">0&#160;external&#160;tools</text></g><!--entity shell_scripts_install_fedora_sh--><g class="entity" data-qualified-name="shell_scripts_install_fedora_sh" data-source-line="13" id="ent0008"><rect fill="#DBEAFE" height="77.2038" rx="2.5" ry="2.5" style="stroke:#181818;stroke-width:0.5;" width="176.2534" x="40.02" y="858.0179"/><text fill="#000000" font-family="Monospace" font-size="14" lengthAdjust="spacing" textLength="156.2534" x="50.02" y="882.9839">scripts/install_fedora.sh</text><text fill="#000000" font-family="Monospace" font-size="14" lengthAdjust="spacing" textLength="119.3915" x="50.02" y="902.0518">0&#160;local&#160;shell&#160;edges</text><text fill="#000000" font-family="Monospace" font-size="14" lengthAdjust="spacing" textLength="101.7516" x="50.02" y="921.1197">2&#160;external&#160;tools</text></g><!--entity shell_scripts_install_ubuntu_sh--><g class="entity" data-qualified-name="shell_scripts_install_ubuntu_sh" data-source-line="14" id="ent0009"><rect fill="#DBEAFE" height="77.2038" rx="2.5" ry="2.5" style="stroke:#181818;stroke-width:0.5;" width="181.0974" x="37.6" y="1040.0179"/><text fill="#000000" font-family="Monospace" font-size="14" lengthAdjust="spacing" textLength="161.0974" x="47.6" y="1064.9839">scripts/install_ubuntu.sh</text><text fill="#000000" font-family="Monospace" font-size="14" lengthAdjust="spacing" textLength="119.3915" x="47.6" y="1084.0518">0&#160;local&#160;shell&#160;edges</text><text fill="#000000" font-family="Monospace" font-size="14" lengthAdjust="spacing" textLength="101.7516" x="47.6" y="1103.1197">3&#160;external&#160;tools</text></g><!--entity shell_scripts_install_webterm_sh--><g class="entity" data-qualified-name="shell_scripts_install_webterm_sh" data-source-line="15" id="ent0010"><rect fill="#DBEAFE" height="77.2038" rx="2.5" ry="2.5" style="stroke:#181818;stroke-width:0.5;" width="192.1573" x="32.07" y="1467.0179"/><text fill="#000000" font-family="Monospace" font-size="14" lengthAdjust="spacing" textLength="172.1573" x="42.07" y="1491.9839">scripts/install_webterm.sh</text><text fill="#000000" font-family="Monospace" font-size="14" lengthAdjust="spacing" textLength="112.6855" x="42.07" y="1511.0518">1&#160;local&#160;shell&#160;edge</text><text fill="#000000" font-family="Monospace" font-size="14" lengthAdjust="spacing" textLength="101.7516" x="42.07" y="1530.1197">9&#160;external&#160;tools</text></g><!--entity shell_scripts_package_client_sh--><g class="entity" data-qualified-name="shell_scripts_package_client_sh" data-source-line="16" id="ent0011"><rect fill="#DBEAFE" height="77.2038" rx="2.5" ry="2.5" style="stroke:#181818;stroke-width:0.5;" width="184.2894" x="36" y="2132.0179"/><text fill="#000000" font-family="Monospace" font-size="14" lengthAdjust="spacing" textLength="164.2894" x="46" y="2156.9839">scripts/package_client.sh</text><text fill="#000000" font-family="Monospace" font-size="14" lengthAdjust="spacing" textLength="119.3915" x="46" y="2176.0518">0&#160;local&#160;shell&#160;edges</text><text fill="#000000" font-family="Monospace" font-size="14" lengthAdjust="spacing" textLength="101.7516" x="46" y="2195.1197">4&#160;external&#160;tools</text></g><!--entity shell_scripts_rebuild_webservices_sh--><g class="entity" data-qualified-name="shell_scripts_rebuild_webservices_sh" data-source-line="17" id="ent0012"><rect fill="#DBEAFE" height="77.2038" rx="2.5" ry="2.5" style="stroke:#181818;stroke-width:0.5;" width="220.4372" x="17.93" y="1313.0179"/><text fill="#000000" font-family="Monospace" font-size="14" lengthAdjust="spacing" textLength="200.4372" x="27.93" y="1337.9839">scripts/rebuild_webservices.sh</text><text fill="#000000" font-family="Monospace" font-size="14" lengthAdjust="spacing" textLength="112.6855" x="27.93" y="1357.0518">1&#160;local&#160;shell&#160;edge</text><text fill="#000000" font-family="Monospace" font-size="14" lengthAdjust="spacing" textLength="101.7516" x="27.93" y="1376.1197">9&#160;external&#160;tools</text></g><!--entity shell_scripts_render_configs_sh--><g class="entity" data-qualified-name="shell_scripts_render_configs_sh" data-source-line="18" id="ent0013"><rect fill="#DBEAFE" height="77.2038" rx="2.5" ry="2.5" style="stroke:#181818;stroke-width:0.5;" width="185.9274" x="35.18" y="1992.0179"/><text fill="#000000" font-family="Monospace" font-size="14" lengthAdjust="spacing" textLength="165.9274" x="45.18" y="2016.9839">scripts/render_configs.sh</text><text fill="#000000" font-family="Monospace" font-size="14" lengthAdjust="spacing" textLength="119.3915" x="45.18" y="2036.0518">0&#160;local&#160;shell&#160;edges</text><text fill="#000000" font-family="Monospace" font-size="14" lengthAdjust="spacing" textLength="101.7516" x="45.18" y="2055.1197">3&#160;external&#160;tools</text></g><!--entity shell_scripts_render_webterm_index_sh--><g class="entity" data-qualified-name="shell_scripts_render_webterm_index_sh" data-source-line="19" id="ent0014"><rect fill="#DBEAFE" height="77.2038" rx="2.5" ry="2.5" style="stroke:#181818;stroke-width:0.5;" width="240.0652" x="8.11" y="1880.0179"/><text fill="#000000" font-family="Monospace" font-size="14" lengthAdjust="spacing" textLength="220.0652" x="18.11" y="1904.9839">scripts/render_webterm_index.sh</text><text fill="#000000" font-family="Monospace" font-size="14" lengthAdjust="spacing" textLength="119.3915" x="18.11" y="1924.0518">0&#160;local&#160;shell&#160;edges</text><text fill="#000000" font-family="Monospace" font-size="14" lengthAdjust="spacing" textLength="101.7516" x="18.11" y="1943.1197">2&#160;external&#160;tools</text></g><!--entity shell_scripts_run_tachometer_profile_sh--><g class="entity" data-qualified-name="shell_scripts_run_tachometer_profile_sh" data-source-line="20" id="ent0015"><rect fill="#DBEAFE" height="77.2038" rx="2.5" ry="2.5" style="stroke:#181818;stroke-width:0.5;" width="242.2912" x="7" y="536.0179"/><text fill="#000000" font-family="Monospace" font-size="14" lengthAdjust="spacing" textLength="222.2912" x="17" y="560.9839">scripts/run_tachometer_profile.sh</text><text fill="#000000" font-family="Monospace" font-size="14" lengthAdjust="spacing" textLength="119.3915" x="17" y="580.0518">0&#160;local&#160;shell&#160;edges</text><text fill="#000000" font-family="Monospace" font-size="14" lengthAdjust="spacing" textLength="101.7516" x="17" y="599.1197">3&#160;external&#160;tools</text></g><!--entity shell_scripts_site_registry_sh--><g class="entity" data-qualified-name="shell_scripts_site_registry_sh" data-source-line="21" id="ent0016"><rect fill="#DBEAFE" height="77.2038" rx="2.5" ry="2.5" style="stroke:#181818;stroke-width:0.5;" width="167.5735" x="44.36" y="368.0179"/><text fill="#000000" font-family="Monospace" font-size="14" lengthAdjust="spacing" textLength="147.5735" x="54.36" y="392.9839">scripts/site_registry.sh</text><text fill="#000000" font-family="Monospace" font-size="14" lengthAdjust="spacing" textLength="119.3915" x="54.36" y="412.0518">0&#160;local&#160;shell&#160;edges</text><text fill="#000000" font-family="Monospace" font-size="14" lengthAdjust="spacing" textLength="95.0456" x="54.36" y="431.1197">1&#160;external&#160;tool</text></g><!--entity shell_scripts_ttyd_session_sh--><g class="entity" data-qualified-name="shell_scripts_ttyd_session_sh" data-source-line="22" id="ent0017"><rect fill="#DBEAFE" height="77.2038" rx="2.5" ry="2.5" style="stroke:#181818;stroke-width:0.5;" width="168.3295" x="43.98" y="256.0179"/><text fill="#000000" font-family="Monospace" font-size="14" lengthAdjust="spacing" textLength="148.3295" x="53.98" y="280.9839">scripts/ttyd_session.sh</text><text fill="#000000" font-family="Monospace" font-size="14" lengthAdjust="spacing" textLength="119.3915" x="53.98" y="300.0518">0&#160;local&#160;shell&#160;edges</text><text fill="#000000" font-family="Monospace" font-size="14" lengthAdjust="spacing" textLength="95.0456" x="53.98" y="319.1197">1&#160;external&#160;tool</text></g><!--entity shell_scripts_validate_sh--><g class="entity" data-qualified-name="shell_scripts_validate_sh" data-source-line="23" id="ent0018"><rect fill="#DBEAFE" height="77.2038" rx="2.5" ry="2.5" style="stroke:#181818;stroke-width:0.5;" width="139.3915" x="58.45" y="144.0179"/><text fill="#000000" font-family="Monospace" font-size="14" lengthAdjust="spacing" textLength="119.1116" x="68.45" y="168.9839">scripts/validate.sh</text><text fill="#000000" font-family="Monospace" font-size="14" lengthAdjust="spacing" textLength="119.3915" x="68.45" y="188.0518">0&#160;local&#160;shell&#160;edges</text><text fill="#000000" font-family="Monospace" font-size="14" lengthAdjust="spacing" textLength="101.7516" x="68.45" y="207.1197">0&#160;external&#160;tools</text></g><!--entity tool_all_services_ttyd--><g class="entity" data-qualified-name="tool_all_services_ttyd" data-source-line="24" id="ent0019"><path d="M335.1881,979.656 C338.2554,972.5638 344.8206,972.395 348.6059,978.9501 C352.5904,974.3634 356.6273,973.3031 360.0954,979.5003 C364.2216,973.3655 369.5705,972.9081 374.1097,979.028 C376.7372,973.4683 382.0733,971.8966 386.1259,977.4929 C389.5378,971.8028 395.7851,970.2149 399.4717,977.2038 C404.211,972.6886 407.9679,972.4024 411.659,978.417 C414.597,973.1522 419.5165,971.4011 423.4707,977.3462 C427.1039,972.0438 432.7834,971.1907 436.2116,977.5698 C440.5736,970.9995 444.4086,971.2968 448.4006,977.9118 C452.5955,971.7379 458.8179,972.3247 461.683,979.2592 C466.1885,971.8571 471.3481,972.8781 475.465,979.6374 C478.4504,972.8645 483.4046,972.9502 487.3615,978.7157 C496.6873,983.5603 496.3024,989.2851 489.2501,995.9268 C497.3787,1002.86 495.6677,1008.5778 486.5359,1012.7215 C483.2628,1019.0522 478.9599,1018.6527 475.0492,1013.3511 C471.7245,1019.4345 465.6959,1020.3814 461.8301,1013.9213 C458.0235,1020.2681 454.1171,1022.25 448.6154,1015.6517 C444.5137,1020.956 439.8475,1020.6679 436.0524,1015.2912 C432.5606,1022.746 428.3677,1022.9716 423.0299,1017.0943 C419.6675,1022.9385 414.6257,1023.076 410.7051,1017.7079 C406.695,1023.1475 401.7892,1022.8686 398.2486,1017.1822 C393.837,1024.1219 388.7532,1023.1355 385.1568,1016.4016 C380.7482,1022.1163 375.0812,1020.6779 372.7422,1014.2804 C369.1325,1019.6698 363.3742,1019.3139 360.8535,1013.159 C355.8226,1019.5205 351.3338,1018.4958 347.2496,1012.1457 C342.8601,1017.2291 339.1072,1017.7172 335.3026,1011.526 C326.0084,1009.7435 323.5242,1004.9124 328.5745,996.6445 C323.0421,987.9946 323.7456,981.6977 335.1881,979.656" fill="#FEF3C7" style="stroke:#181818;stroke-width:0.5;"/><text fill="#000000" font-family="Monospace" font-size="14" lengthAdjust="spacing" textLength="137.5495" x="341.35" y="1000.0539">ALL_SERVICES+=(ttyd</text></g><!--entity tool_apt_get--><g class="entity" data-qualified-name="tool_apt_get" data-source-line="25" id="ent0020"><path d="M381.0903,1063.5558 C384.6083,1057.231 391.5657,1057.0353 395.7459,1062.7497 C399.4391,1055.4294 405.4203,1054.6552 410.8976,1060.7319 C416.329,1053.8271 424.257,1054.0714 427.1012,1063.3261 C430.7193,1056.7829 437.9187,1055.2949 442.4422,1062.3009 C453.2169,1063.3995 457.2352,1068.9574 451.231,1078.9261 C456.1588,1088.5651 452.0556,1096.1542 440.9282,1096.2388 C438.7407,1103.9637 432.5099,1105.36 426.9692,1099.7486 C424.713,1108.0077 419.3974,1109.857 412.1466,1105.7219 C404.4716,1111.5811 398.1158,1110.777 395.0036,1100.7867 C388.0279,1107.381 381.3648,1103.9489 379.6116,1095.4579 C372.6824,1090.5298 371.085,1085.9217 378.9813,1080.3741 C372.2873,1074.306 373.2643,1067.8031 381.0903,1063.5558" fill="#FEF3C7" style="stroke:#181818;stroke-width:0.5;"/><text fill="#000000" font-family="Monospace" font-size="14" lengthAdjust="spacing" textLength="47.5858" x="386.33" y="1084.0539">apt-get</text></g><!--entity tool_caddy--><g class="entity" data-qualified-name="tool_caddy" data-source-line="26" id="ent0021"><path d="M384.9713,1146.6453 C388.822,1140.7656 394.1882,1140.7629 397.5397,1147.1565 C401.0943,1140.2506 406.6972,1140.5336 411.4567,1145.7761 C415.4247,1139.7001 419.7033,1140.229 424.0286,1145.3759 C428.4027,1139.9928 433.6924,1139.5435 436.8247,1146.6484 C449.4283,1146.868 451.9648,1154.0573 447.5685,1164.5053 C452.1569,1173.2585 446.6625,1179.689 437.7532,1179.7543 C434.7842,1186.0551 430.8814,1188.3174 425.0064,1182.921 C422.133,1189.6445 415.9022,1191.291 410.5559,1185.8614 C405.0963,1190.4246 401.1773,1188.2662 399.076,1182.2257 C393.3683,1189.4956 386.9162,1187.5125 383.8383,1179.5884 C374.4884,1177.5254 370.1133,1173.0298 375.9715,1163.5208 C370.5152,1153.0865 374.7796,1148.7344 384.9713,1146.6453" fill="#FEF3C7" style="stroke:#181818;stroke-width:0.5;"/><text fill="#000000" font-family="Monospace" font-size="14" lengthAdjust="spacing" textLength="38.9339" x="390.66" y="1168.0539">caddy</text></g><!--entity tool_cat--><g class="entity" data-qualified-name="tool_cat" data-source-line="27" id="ent0022"><path d="M394.2282,2099.102 C398.1119,2088.992 404.9792,2089.3969 411.7421,2096.1033 C419.2259,2089.411 423.5846,2092.2705 427.1938,2100.1983 C435.8092,2103.3511 436.2973,2108.8433 430.9919,2115.4603 C436.9394,2121.6174 436.5612,2129.5145 427.1111,2132.0752 C424.7883,2141.8909 417.5067,2142.8902 410.1482,2137.8096 C402.3332,2143.9014 397.0819,2141.1764 394.6727,2132.2422 C383.9125,2130.9926 382.5003,2125.5466 387.1237,2116.7843 C381.414,2108.7136 382.9607,2100.3515 394.2282,2099.102" fill="#FEF3C7" style="stroke:#181818;stroke-width:0.5;"/><text fill="#000000" font-family="Monospace" font-size="14" lengthAdjust="spacing" textLength="19.6279" x="400.31" y="2120.0539">cat</text></g><!--entity tool_cp--><g class="entity" data-qualified-name="tool_cp" data-source-line="28" id="ent0023"><path d="M395.8222,1679.0323 C399.2014,1670.4328 406.0868,1670.0931 411.5315,1676.9303 C416.5142,1670.4157 423.228,1672.0322 425.4824,1679.6278 C433.6903,1683.45 434.3438,1689.6574 427.2357,1695.2036 C433.9778,1701.44 434.3858,1707.9807 425.2302,1712.3585 C424.3266,1720.9066 419.5032,1724.0609 411.3171,1721.3891 C401.165,1726.862 396.3223,1722.434 395.8354,1711.9888 C385.9719,1708.3344 386.3794,1701.1654 393.2554,1694.9728 C387.6639,1689.0023 386.5232,1682.6052 395.8222,1679.0323" fill="#FEF3C7" style="stroke:#181818;stroke-width:0.5;"/><text fill="#000000" font-family="Monospace" font-size="14" lengthAdjust="spacing" textLength="15.3299" x="402.46" y="1700.0539">cp</text></g><!--entity tool_dnf--><g class="entity" data-qualified-name="tool_dnf" data-source-line="29" id="ent0024"><path d="M392.6352,1316.0473 C398.0975,1305.8448 404.144,1303.6363 412.2261,1313.488 C417.1128,1304.4778 425.1111,1304.9258 429.3511,1314.0973 C440.5245,1316.8493 441.9984,1322.8441 434.9507,1331.4695 C441.4099,1338.0237 438.4277,1345.6503 430.0601,1347.7508 C426.7858,1357.6715 417.9903,1358.7963 411.29,1351.4817 C405.0218,1360.8771 396.2876,1358.9566 392.2308,1349.2726 C381.3334,1347.2889 377.491,1342.1089 384.2686,1331.9847 C378.4762,1321.9395 381.0618,1316.9761 392.6352,1316.0473" fill="#FEF3C7" style="stroke:#181818;stroke-width:0.5;"/><text fill="#000000" font-family="Monospace" font-size="14" lengthAdjust="spacing" textLength="22.0779" x="399.09" y="1336.0539">dnf</text></g><!--entity tool_firewall_cmd--><g class="entity" data-qualified-name="tool_firewall_cmd" data-source-line="30" id="ent0025"><path d="M364.5202,727.7954 C368.0602,721.9702 372.5869,721.6695 376.5094,727.3985 C379.105,721.2476 383.8689,721.3048 387.5349,726.3437 C390.826,721.0977 396.391,721.5954 399.0518,727.0237 C401.4546,719.6984 407.7052,719.471 411.9006,725.2685 C415.8452,719.585 421.2366,720.6741 423.4593,726.9348 C427.805,720.7371 431.4487,722.402 435.3052,727.4501 C437.7453,721.1648 442.4116,721.9398 446.2079,726.0244 C450.0721,720.796 455.6848,722.4643 457.8285,727.8993 C467.8465,729.8742 471.5561,734.3081 465.875,744.0867 C472.7983,753.306 468.9131,758.26 459.3544,761.1988 C455.2856,766.9031 449.6594,766.6884 446.3051,760.4201 C443.2669,766.2328 438.6168,767.5562 434.2435,761.8138 C431.2372,766.9522 427.4096,767.1851 423.7102,762.5617 C419.5403,768.0534 415.5066,768.544 411.0027,762.9444 C407.1971,767.488 403.8443,767.7983 400.0215,762.9644 C396.1121,769.7027 391.3905,769.0137 387.5135,762.9327 C382.3952,768.8374 378.4547,767.7986 374.5516,761.6283 C370.5315,766.409 366.5265,765.7608 363.6877,760.367 C353.5029,756.9486 353.1435,750.0709 359.8462,742.9317 C354.7275,736.0879 356.1013,730.4588 364.5202,727.7954" fill="#FEF3C7" style="stroke:#181818;stroke-width:0.5;"/><text fill="#000000" font-family="Monospace" font-size="14" lengthAdjust="spacing" textLength="81.1157" x="369.57" y="748.0539">firewall-cmd</text></g><!--entity tool_firewalld--><g class="entity" data-qualified-name="tool_firewalld" data-source-line="31" id="ent0026"><path d="M376.7113,811.2987 C378.8715,805.7727 384.0022,804.6456 387.5657,809.8836 C391.4399,804.8608 397.1327,805.3179 400.2553,810.7923 C402.9457,804.6878 407.5508,803.8084 411.7865,809.2486 C415.2655,804.4536 420.1584,805.6939 421.9871,810.9272 C425.1353,805.1488 429.6938,804.6433 433.8789,809.7994 C438.4851,803.2009 443.9987,804.6172 447.3242,811.1142 C456.3428,814.8178 455.6253,822.8859 448.3154,827.5727 C456.0406,833.0328 456.1746,840.4242 446.7609,844.2906 C444.9008,849.7554 439.7726,851.354 435.5148,847.0513 C433.4409,853.3438 428.8911,854.5885 423.8852,850.2626 C420.5369,856.9735 415.7528,857.785 410.4925,852.3753 C406.2409,856.5069 402.9351,855.9572 400.4334,850.5332 C394.8597,855.7034 388.9952,852.7917 387.2147,846.2515 C382.9602,850.8635 378.8965,851.5323 375.798,845.0608 C364.8542,844.107 360.7255,836.0434 367.3131,826.8992 C363.9602,817.5639 365.3916,811.7948 376.7113,811.2987" fill="#FEF3C7" style="stroke:#181818;stroke-width:0.5;"/><text fill="#000000" font-family="Monospace" font-size="14" lengthAdjust="spacing" textLength="56.7978" x="381.73" y="832.0539">firewalld</text></g><!--entity tool_grep--><g class="entity" data-qualified-name="tool_grep" data-source-line="32" id="ent0027"><path d="M389.0092,1595.0846 C391.686,1590.6761 396.2081,1589.5353 399.3697,1594.5516 C402.6003,1587.576 406.5501,1586.6614 412.1139,1592.1698 C415.2521,1587.4056 420.5002,1588.5747 422.7712,1593.1585 C427.1509,1589.1943 431.0113,1589.8767 433.3498,1595.4279 C443.2674,1598.1987 443.1625,1604.5752 437.6652,1611.4881 C444.4846,1619.3669 441.6441,1624.5664 433.1045,1628.2717 C430.9451,1634.4232 427.388,1636.2422 421.8264,1631.9434 C420.0457,1636.8253 415.2478,1638.8728 411.2885,1634.3966 C405.3888,1637.9656 401.3993,1637.2529 399.0192,1630.2946 C395.086,1634.8584 389.9425,1633.0468 388.3788,1627.7403 C378.664,1625.6187 376.0777,1617.8805 383.428,1610.7781 C377.6833,1603.851 380.1403,1596.8146 389.0092,1595.0846" fill="#FEF3C7" style="stroke:#181818;stroke-width:0.5;"/><text fill="#000000" font-family="Monospace" font-size="14" lengthAdjust="spacing" textLength="30.8979" x="394.68" y="1616.0539">grep</text></g><!--entity tool_mkdir--><g class="entity" data-qualified-name="tool_mkdir" data-source-line="33" id="ent0028"><path d="M385.1513,2014.6453 C388.9759,2008.8092 394.3033,2008.8081 397.6287,2015.1565 C401.1558,2008.2931 406.7226,2008.5706 411.4547,2013.7761 C415.3926,2007.7431 419.6404,2008.2672 423.9356,2013.3759 C428.2827,2008.0338 433.5354,2007.5913 436.6407,2014.6484 C449.2444,2014.868 451.7808,2022.0573 447.3845,2032.5053 C451.9729,2041.2585 446.4785,2047.689 437.5693,2047.7543 C434.6307,2054.0177 430.7579,2056.2713 424.9134,2050.921 C422.0657,2057.6074 415.8746,2059.2515 410.5539,2053.8614 C405.1232,2058.3793 401.2374,2056.2275 399.165,2050.2257 C393.4831,2057.4477 387.0704,2055.4697 384.0183,2047.5884 C374.6684,2045.5254 370.2933,2041.0298 376.1515,2031.5208 C370.6952,2021.0865 374.9596,2016.7344 385.1513,2014.6453" fill="#FEF3C7" style="stroke:#181818;stroke-width:0.5;"/><text fill="#000000" font-family="Monospace" font-size="14" lengthAdjust="spacing" textLength="38.5699" x="390.84" y="2036.0539">mkdir</text></g><!--entity tool_populate_site_hostname--><g class="entity" data-qualified-name="tool_populate_site_hostname" data-source-line="34" id="ent0029"><path d="M323.982,1764.1424 C327.4219,1758.3999 333.1004,1757.4539 337.1732,1763.43 C341.6614,1758.1576 345.7328,1758.0297 349.7301,1763.9794 C351.728,1757.8421 356.7016,1757.0743 360.3551,1762.4518 C363.9027,1756.8731 370.6358,1756.6009 374.077,1762.5781 C377.5428,1756.5119 383.0934,1756.276 387.0703,1762.0155 C389.6617,1756.8965 394.5096,1755.237 398.3084,1760.7378 C402.5611,1755.5442 407.36,1755.6094 410.8308,1761.6122 C415.2224,1756.0393 419.9802,1754.7498 424.3279,1761.6595 C428.6446,1757.2371 432.5153,1757.6844 435.9588,1762.7321 C440.3282,1755.109 444.9029,1756.4821 449.6973,1762.2977 C452.5762,1756.4009 456.8602,1757.2424 460.1912,1761.846 C465.332,1756.5263 470.7076,1757.0057 474.2139,1763.7466 C476.9243,1757.5613 480.6623,1757.1604 485.1948,1761.9181 C490.0064,1756.6541 495.52,1758.4068 498.1548,1764.4197 C508.0582,1765.0996 512.9894,1770.3079 508.4861,1780.3381 C513.4792,1788.4021 508.7571,1796.7283 499.5949,1797.4277 C495.481,1803.0068 490.4177,1802.2257 486.936,1796.7065 C483.8794,1803.7696 477.9204,1802.8813 473.7893,1797.8772 C469.275,1803.6717 463.9052,1803.479 460.7656,1796.4781 C457.5868,1801.7778 454.0879,1802.1224 449.8965,1797.5985 C445.4627,1804.339 439.3422,1803.0044 435.9099,1796.5379 C432.5101,1802.6497 428.0692,1802.8862 423.4034,1797.9742 C420.0352,1803.5615 414.7148,1803.3743 411.9367,1797.3896 C407.1337,1802.859 402.1764,1803.4476 398.0307,1796.6448 C395.1206,1802.204 390.9478,1801.3852 387.4829,1797.2483 C383.1111,1803.5009 378.5341,1802.1415 375.0065,1796.3721 C370.9519,1803.0673 366.2478,1803.8606 361.5757,1796.9832 C358.2466,1802.3232 351.9696,1802.5647 348.4339,1797.2377 C345.037,1802.6409 339.8635,1802.2385 337.2218,1796.4791 C332.2121,1802.6928 327.6583,1803.5737 323.3273,1795.8047 C313.4876,1796.3331 308.9128,1789.9419 312.6241,1780.8024 C307.0745,1770.6125 313.9444,1763.7059 323.982,1764.1424" fill="#FEF3C7" style="stroke:#181818;stroke-width:0.5;"/><text fill="#000000" font-family="Monospace" font-size="14" lengthAdjust="spacing" textLength="160.8314" x="329.71" y="1784.0539">populate_site_hostname</text></g><!--entity tool_python3--><g class="entity" data-qualified-name="tool_python3" data-source-line="35" id="ent0030"><path d="M377.7734,390.3708 C381.8631,386.084 385.9639,385.9813 388.9709,391.5953 C391.1535,385.8978 396.5435,384.092 400.5357,389.7527 C404.1095,385.5251 407.3466,385.7093 410.1742,390.5461 C412.8398,385.456 417.8656,383.8293 421.6675,389.3107 C425.6479,383.5198 431.3566,383.7976 434.6498,390.0514 C438.3388,385.4517 443.016,385.5483 445.2984,391.4744 C452.1984,395.2126 453.8093,401.6647 447.3567,407.1556 C455.4133,413.7798 455.066,419.4319 445.2513,423.7948 C443.5795,429.6322 439.0171,429.8947 434.9739,426.409 C432.8631,434.3277 427.507,434.4637 421.8827,430.1777 C420.3608,435.9695 416.5603,439.0208 410.8852,434.6899 C404.6969,438.6896 400.8446,437.6009 398.8791,430.2308 C394.9634,433.6044 389.6645,432.9935 388.5376,427.1139 C383.9277,431.451 379.8867,430.8037 377.3953,424.8255 C369.639,421.5454 367.8933,414.411 374.5859,408.6252 C367.5764,402.2412 368.0426,393.8317 377.7734,390.3708" fill="#FEF3C7" style="stroke:#181818;stroke-width:0.5;"/><text fill="#000000" font-family="Monospace" font-size="14" lengthAdjust="spacing" textLength="54.5858" x="382.83" y="412.0539">python3</text></g><!--entity tool_qrencode--><g class="entity" data-qualified-name="tool_qrencode" data-source-line="36" id="ent0031"><path d="M372.3373,2183.608 C376.5026,2178.1018 380.4027,2176.9732 384.6607,2183.5131 C389.0862,2178.062 393.0701,2176.3895 397.842,2183.1388 C400.6266,2176.5879 407.3386,2175.4351 411.5876,2181.5494 C415.0307,2175.2679 419.2131,2176.1465 422.9408,2181.266 C426.9491,2175.2641 433.921,2175.066 436.7859,2182.4487 C441.2061,2175.7022 445.9539,2176.3588 450.5468,2182.2608 C460.6146,2183.1112 464.5551,2190.9454 459.9822,2199.7118 C466.2852,2210.0646 460.4081,2217.8377 449.078,2217.1892 C446.0975,2222.8773 440.1915,2223.3581 436.6589,2217.7987 C434.4016,2225.9011 430.1622,2226.9018 423.9331,2221.5576 C421.7361,2227.7389 415.9658,2228.9233 411.8253,2223.6038 C406.9194,2229.0264 401.1847,2229.7216 397.8983,2221.9007 C392.9378,2225.793 387.936,2225.4838 385.8038,2218.6973 C380.4231,2225.5452 375.9014,2223.2292 371.9788,2217.1392 C361.5331,2215.1867 359.0631,2207.8763 363.8022,2199.0572 C359.1231,2190.41 362.3653,2184.161 372.3373,2183.608" fill="#FEF3C7" style="stroke:#181818;stroke-width:0.5;"/><text fill="#000000" font-family="Monospace" font-size="14" lengthAdjust="spacing" textLength="62.6358" x="378.81" y="2204.0539">qrencode</text></g><!--entity tool_render_webterm_index_sh--><g class="entity" data-qualified-name="tool_render_webterm_index_sh" data-source-line="37" id="ent0032"><path d="M318.3494,1511.0659 C322.4261,1505.275 327.7648,1505.0532 331.0622,1511.8527 C334.939,1505.708 340.9166,1504.0592 345.1487,1511.4838 C348.9891,1504.9848 355.1031,1505.2506 358.7292,1511.7084 C361.8916,1505.9937 367.192,1504.0236 371.55,1510.4454 C374.3894,1503.7952 379.9375,1503.9743 384.2019,1508.8861 C389.7009,1502.1191 393.759,1504.0775 397.7437,1510.447 C400.5742,1502.7992 407.1305,1502.9208 411.6542,1508.6918 C416.0002,1503.1505 420.8904,1503.1167 424.6151,1509.3742 C429.7259,1503.2787 435.0834,1503.818 439.0282,1510.6719 C442.4523,1504.6924 446.181,1505.5582 450.2893,1509.9272 C455.8551,1504.1692 460.8368,1503.6865 465.1408,1511.3259 C468.5716,1505.7328 472.8048,1506.2253 476.7456,1510.7403 C482.0591,1503.9985 486.5743,1505.0813 491.2771,1511.4188 C496.1228,1503.7974 500.3404,1504.1328 505.2689,1511.3407 C514.8107,1517.2382 514.6039,1523.4444 504.9093,1528.9491 C511.3425,1533.9477 513.4822,1540.2088 504.7515,1545.0588 C501.7782,1552.0558 495.5628,1552.7435 491.5277,1546.0873 C487.6053,1554.0818 482.6619,1555.0682 476.9546,1547.7905 C472.2491,1553.4351 467.5074,1554.3121 463.2474,1547.3077 C461.3087,1552.7661 456.5098,1553.8691 452.2486,1550.0656 C449.1818,1557.5723 442.4619,1556.2976 438.6457,1550.8527 C434.6112,1556.9134 429.6748,1557.9589 425.4324,1551.0647 C421.8262,1557.462 416.7143,1559.4553 411.451,1552.8461 C406.6465,1558.271 400.8876,1559.4292 397.5422,1551.344 C392.3721,1555.755 388.4911,1555.2973 385.1278,1549.2079 C380.3816,1556.1137 374.7409,1556.8417 370.4826,1548.732 C366.7895,1553.7469 361.1574,1554.7534 358.2249,1547.9435 C354.3067,1553.7129 348.3962,1552.3019 346.0992,1546.2768 C341.3451,1552.9175 337.0058,1553.1722 331.8111,1546.759 C327.0582,1553.0262 322.3645,1552.7394 318.9556,1545.4815 C308.4567,1542.0523 308.6518,1534.9551 315.1525,1527.8576 C307.2641,1521.8624 310.6059,1514.0849 318.3494,1511.0659" fill="#FEF3C7" style="stroke:#181818;stroke-width:0.5;"/><text fill="#000000" font-family="Monospace" font-size="14" lengthAdjust="spacing" textLength="171.6673" x="324.29" y="1532.0539">render_webterm_index.sh</text></g><!--entity tool_run--><g class="entity" data-qualified-name="tool_run" data-source-line="38" id="ent0033"><path d="M391.7902,475.7206 C396.6618,466.5793 404.9648,464.9796 412.0251,473.1643 C417.8887,465.4004 426.2135,467.1383 429.6127,475.8025 C439.2023,476.5113 444.8916,481.2644 439.4044,491.4237 C444.6385,500.8702 441.1365,506.29 430.763,507.1728 C430.5246,519.8975 424.1931,524.8921 412.1997,518.7209 C401.293,523.7536 394.1306,522.2676 393.4302,508.5203 C383.7693,507.6856 379.9811,499.594 385.3339,491.5827 C380.2785,483.4557 382.6947,478.0877 391.7902,475.7206" fill="#FEF3C7" style="stroke:#181818;stroke-width:0.5;"/><text fill="#000000" font-family="Monospace" font-size="14" lengthAdjust="spacing" textLength="23.0859" x="398.58" y="496.0539">run</text></g><!--entity tool_sed--><g class="entity" data-qualified-name="tool_sed" data-source-line="39" id="ent0034"><path d="M391.7302,1931.7206 C396.6202,1922.5532 404.9493,1920.9518 412.0281,1929.1643 C417.9081,1921.3701 426.263,1923.1097 429.6787,1931.8025 C439.2683,1932.5113 444.9576,1937.2644 439.4704,1947.4237 C444.7045,1956.8702 441.2025,1962.29 430.829,1963.1728 C430.5707,1975.9283 424.2161,1980.9254 412.2027,1974.7209 C401.2748,1979.782 394.0918,1978.3022 393.3702,1964.5203 C383.7093,1963.6856 379.9211,1955.594 385.2739,1947.5827 C380.2185,1939.4557 382.6347,1934.0877 391.7302,1931.7206" fill="#FEF3C7" style="stroke:#181818;stroke-width:0.5;"/><text fill="#000000" font-family="Monospace" font-size="14" lengthAdjust="spacing" textLength="23.2119" x="398.52" y="1952.0539">sed</text></g><!--entity tool_sshd--><g class="entity" data-qualified-name="tool_sshd" data-source-line="40" id="ent0035"><path d="M389.1192,1847.0846 C391.7804,1842.6992 396.2777,1841.5632 399.4237,1846.5516 C402.635,1839.6031 406.5673,1838.6892 412.1119,1844.1698 C415.2361,1839.4319 420.4563,1840.5975 422.7132,1845.1585 C427.0751,1841.2191 430.9152,1841.9023 433.2358,1847.4279 C443.1534,1850.1987 443.0485,1856.5752 437.5512,1863.4881 C444.3706,1871.3669 441.5301,1876.5664 432.9905,1880.2717 C430.8498,1886.3987 427.3113,1888.2148 421.7684,1883.9434 C420.0024,1888.8027 415.2311,1890.8456 411.2865,1886.3966 C405.4061,1889.9429 401.434,1889.2276 399.0732,1882.2946 C395.1541,1886.831 390.0384,1885.0223 388.4888,1879.7403 C378.774,1877.6187 376.1877,1869.8805 383.538,1862.7781 C377.7933,1855.851 380.2503,1848.8146 389.1192,1847.0846" fill="#FEF3C7" style="stroke:#181818;stroke-width:0.5;"/><text fill="#000000" font-family="Monospace" font-size="14" lengthAdjust="spacing" textLength="30.6739" x="394.79" y="1868.0539">sshd</text></g><!--entity tool_summarize--><g class="entity" data-qualified-name="tool_summarize" data-source-line="41" id="ent0036"><path d="M367.6562,558.5582 C372.8505,550.938 378.0879,552.5117 382.5154,559.3463 C386.1319,552.1952 391.8394,552.4295 395.9202,558.8889 C400.7542,551.4254 405.5209,550.1554 411.7259,557.4173 C415.7867,550.0497 422.8865,550.3157 426.5106,557.8507 C431.0951,550.9913 437.9865,551.2684 441.2024,559.2093 C444.8389,553.3947 451.539,552.8323 454.7017,559.7131 C464.0694,559.7838 468.1794,567.6006 463.0893,575.4012 C469.0339,584.0143 465.3613,590.0168 455.7664,591.6089 C451.9844,599.4605 444.3945,599.3684 439.4762,592.9018 C436.1699,601.0189 430.8883,600.5099 425.6295,594.8665 C422.8374,602.2474 415.9539,601.7345 411.8946,596.2159 C407.0656,601.7927 402.0955,602.7718 397.7581,595.6679 C392.2002,601.3358 385.8788,600.6447 382.7819,592.9165 C378.592,600.6363 372.1019,600.6764 368.2276,592.6253 C357.6676,591.7699 355.7351,582.4676 361.1771,575.1545 C355.8633,567.9706 356.9292,559.4798 367.6562,558.5582" fill="#FEF3C7" style="stroke:#181818;stroke-width:0.5;"/><text fill="#000000" font-family="Monospace" font-size="14" lengthAdjust="spacing" textLength="73.2617" x="373.49" y="580.0539">summarize</text></g><!--entity tool_sysctl--><g class="entity" data-qualified-name="tool_sysctl" data-source-line="42" id="ent0037"><path d="M386.8443,2351.8999 C389.4171,2345.7358 393.2348,2345.6095 397.8117,2349.7714 C401.8385,2342.8494 405.8644,2343.8792 410.7391,2348.8496 C414.772,2344.0372 419.6965,2344.2785 423.1826,2349.5259 C427.4781,2344.2925 432.726,2345.3382 435.5976,2351.1293 C445.2561,2350.9654 451.2961,2357.8597 446.3603,2367.3684 C453.0126,2377.4389 447.8684,2386.0827 435.8306,2384.9762 C431.4606,2390.0734 427.5779,2391.748 423.229,2384.9539 C419.498,2390.2419 415.5393,2391.6182 411.3575,2385.4199 C407.7986,2390.6616 401.4409,2390.7931 398.3266,2384.8996 C394.0837,2391.3195 388.8006,2390.4749 385.177,2384.2552 C375.2379,2381.8544 373.1391,2374.5894 379.2207,2366.7403 C373.9152,2358.2842 377.9482,2353.0605 386.8443,2351.8999" fill="#FEF3C7" style="stroke:#181818;stroke-width:0.5;"/><text fill="#000000" font-family="Monospace" font-size="14" lengthAdjust="spacing" textLength="35.9379" x="392.16" y="2372.0539">sysctl</text></g><!--entity tool_systemctl--><g class="entity" data-qualified-name="tool_systemctl" data-source-line="43" id="ent0038"><path d="M372.2943,894.3534 C375.7348,888.4346 382.2593,887.7528 385.36,894.6983 C389.1016,887.9876 394.1385,887.9109 398.6723,893.8655 C402.7041,887.6184 407.2424,888.111 411.6876,893.399 C415.2315,887.3649 418.8975,887.9477 422.8413,892.9966 C427.8021,886.3373 432.2737,887.2981 436.0866,894.1241 C439.674,888.7637 445.9125,887.856 448.9665,894.6875 C457.6628,897.4202 460.6591,905.6276 454.1798,912.7422 C459.5152,918.5469 457.732,925.3289 450.1504,927.6399 C447.581,936.1785 442.0483,936.8496 435.741,931.525 C433.0789,937.1251 428.9398,937.8727 424.2865,933.9101 C421.4241,940.5331 416.1062,942.5256 411.1594,935.9895 C405.718,941.5597 401.2852,940.2314 398.7895,933.1169 C394.3927,938.4105 388.6729,938.7854 385.7561,931.5744 C380.8375,935.6436 376.418,936.3731 373.8584,929.1 C363.0943,925.9817 362.9523,920.1142 368.8276,912.0782 C362.0474,904.82 362.3347,898.3375 372.2943,894.3534" fill="#FEF3C7" style="stroke:#181818;stroke-width:0.5;"/><text fill="#000000" font-family="Monospace" font-size="14" lengthAdjust="spacing" textLength="61.9778" x="379.14" y="916.0539">systemctl</text></g><!--entity tool_tachometer--><g class="entity" data-qualified-name="tool_tachometer" data-source-line="44" id="ent0039"><path d="M366.4672,642.5407 C369.2407,637.4674 373.796,637.8275 376.5274,642.5838 C380.6084,636.3592 385.9557,637.7847 389.4126,643.2706 C392.7305,637.7844 395.9863,637.3578 399.7278,642.8735 C402.6186,635.9695 407.1721,635.9311 411.9058,640.9988 C415.7208,635.7614 420.1124,637.8605 422.3933,642.6099 C425.5261,637.4805 429.5549,637.266 433.076,642.1974 C436.9174,636.356 441.8207,637.4784 444.8876,643.0023 C447.956,637.2988 452.5969,638.5977 455.5723,643.0997 C463.8008,646.911 464.4821,653.9247 457.3196,659.3871 C465.34,664.3506 464.821,670.0323 457.4884,675.1601 C454.3061,680.562 450.0187,681.3027 446.0912,675.9498 C443.4329,682.6154 438.3721,682.8738 433.858,677.9002 C429.8925,683.2838 426.5746,682.5477 422.8571,677.6352 C420.4491,683.3225 415.1853,683.4648 412.1816,678.2166 C408.7725,682.9532 403.675,683.3701 400.5593,677.8832 C396.5347,681.6621 391.8251,681.9421 389.6926,675.809 C386.693,682.8278 380.5563,682.0666 376.5172,676.9363 C372.9731,681.4139 367.347,681.0496 364.9947,675.5587 C356.1879,674.4097 353.2325,666.1643 358.1087,659.2411 C353.3921,649.8382 354.8116,643.7494 366.4672,642.5407" fill="#FEF3C7" style="stroke:#181818;stroke-width:0.5;"/><text fill="#000000" font-family="Monospace" font-size="14" lengthAdjust="spacing" textLength="76.4677" x="371.89" y="664.0539">tachometer</text></g><!--entity tool_tee--><g class="entity" data-qualified-name="tool_tee" data-source-line="45" id="ent0040"><path d="M393.9912,2434.1566 C398.3374,2426.5258 405.8057,2425.0628 411.2621,2432.9186 C418.6724,2424.8011 424.7835,2426.7489 429.0745,2436.0994 C438.4459,2437.3515 442.5059,2442.2441 437.671,2451.4512 C443.7618,2461.1779 438.0884,2467.602 428.2001,2468.3996 C425.2878,2478.3786 419.5945,2480.7461 411.2103,2473.9374 C402.8924,2481.0531 395.0746,2477.1497 393.0846,2467.2117 C385.272,2462.933 382.84,2458.3108 390.3487,2451.3839 C383.2808,2444.1659 384.1657,2437.8028 393.9912,2434.1566" fill="#FEF3C7" style="stroke:#181818;stroke-width:0.5;"/><text fill="#000000" font-family="Monospace" font-size="14" lengthAdjust="spacing" textLength="20.8459" x="399.7" y="2456.0539">tee</text></g><!--entity tool_tmux--><g class="entity" data-qualified-name="tool_tmux" data-source-line="46" id="ent0041"><path d="M386.6412,279.7032 C388.6585,273.2173 394.6945,272.6968 398.8198,277.4111 C402.6849,270.7951 407.0054,270.6495 411.4274,276.8639 C415.8311,271.3781 419.6755,271.5949 423.1934,277.7586 C427.4337,272.0087 433.2192,272.0529 436.0693,279.1517 C444.0622,283.0133 444.7831,289.5147 438.2601,295.3406 C444.7722,301.4582 443.891,309.2689 435.2417,312.7592 C433.5197,318.9891 428.2685,321.4923 422.9225,316.875 C421.9312,323.124 416.6275,324.2317 412.2789,320.4306 C405.7395,325.9085 400.3308,324.031 398.7836,315.5903 C392.9936,321.4814 388.1973,320.0932 386.0737,312.2078 C375.4535,310.3328 373.9682,304.2157 379.9649,296.056 C374.0482,287.73 377.8406,282.0207 386.6412,279.7032" fill="#FEF3C7" style="stroke:#181818;stroke-width:0.5;"/><text fill="#000000" font-family="Monospace" font-size="14" lengthAdjust="spacing" textLength="34.2019" x="393.02" y="300.0539">tmux</text></g><!--entity tool_ufw--><g class="entity" data-qualified-name="tool_ufw" data-source-line="47" id="ent0042"><path d="M391.4732,1230.7753 C396.3966,1221.2819 405.8756,1220.5461 411.5491,1229.9796 C418.427,1222.1915 424.1734,1222.2202 429.3814,1231.7036 C439.9369,1232.3533 442.1877,1238.9472 437.3715,1247.4145 C442.1493,1256.244 438.7464,1261.2086 429.7399,1263.4972 C424.5268,1273.5522 418.7741,1274.2544 411.0659,1266.0488 C404.3577,1273.7266 395.9869,1274.5455 391.7621,1263.4898 C382.7582,1262.1819 380.0361,1255.2238 386.279,1248.3823 C378.959,1241.1511 382.7246,1233.266 391.4732,1230.7753" fill="#FEF3C7" style="stroke:#181818;stroke-width:0.5;"/><text fill="#000000" font-family="Monospace" font-size="14" lengthAdjust="spacing" textLength="24.4719" x="397.89" y="1252.0539">ufw</text></g><!--entity tool_wg--><g class="entity" data-qualified-name="tool_wg" data-source-line="48" id="ent0043"><path d="M394.2382,2519.102 C398.1197,2508.9957 404.9844,2509.4 411.7451,2516.1033 C419.2265,2509.4146 423.583,2512.2735 427.1898,2520.1983 C435.8052,2523.3511 436.2933,2528.8433 430.9878,2535.4603 C436.9354,2541.6174 436.5572,2549.5145 427.1071,2552.0752 C424.7864,2561.8875 417.5076,2562.8874 410.1512,2557.8096 C402.3385,2563.8978 397.0897,2561.1731 394.6827,2552.2422 C383.9225,2550.9926 382.5103,2545.5466 387.1337,2536.7843 C381.424,2528.7136 382.9707,2520.3515 394.2382,2519.102" fill="#FEF3C7" style="stroke:#181818;stroke-width:0.5;"/><text fill="#000000" font-family="Monospace" font-size="14" lengthAdjust="spacing" textLength="19.6139" x="400.32" y="2540.0539">wg</text></g><!--entity tool_zip--><g class="entity" data-qualified-name="tool_zip" data-source-line="49" id="ent0044"><path d="M395.9092,2267.9777 C399.1616,2259.3353 405.2927,2258.3321 412.0065,2264.1151 C418.4021,2256.6054 425.2745,2259.4732 428.1416,2267.7267 C437.6875,2270.514 437.1732,2276.9771 431.6965,2283.2128 C438.9119,2289.7342 436.7841,2296.2586 428.6812,2300.034 C428.2869,2312.908 419.839,2314.7538 410.25,2309.2612 C402.7612,2313.3274 395.0762,2310.7377 395.0736,2301.0192 C385.5582,2298.6856 382.5674,2291.957 389.8803,2284.3733 C383.181,2276.8233 387.6291,2270.0196 395.9092,2267.9777" fill="#FEF3C7" style="stroke:#181818;stroke-width:0.5;"/><text fill="#000000" font-family="Monospace" font-size="14" lengthAdjust="spacing" textLength="18.8019" x="400.72" y="2288.0539">zip</text></g><g class="entity" data-qualified-name="shellGraphSummary" data-source-line="106" id="ent0100"><path d="M31.23,46.0679 L31.23,109.186 L225.0651,109.186 L225.0651,56.0679 L215.0651,46.0679 L31.23,46.0679" fill="#FEFFDD" style="stroke:#181818;stroke-width:0.5;"/><path d="M215.0651,46.0679 L215.0651,56.0679 L225.0651,56.0679 L215.0651,46.0679" fill="#FEFFDD" style="stroke:#181818;stroke-width:1;"/><text fill="#000000" font-family="Monospace" font-size="13" lengthAdjust="spacing" textLength="148.9671" x="37.23" y="64.9649">Scanned&#160;17&#160;shell&#160;scripts.</text><text fill="#000000" font-family="Monospace" font-size="13" lengthAdjust="spacing" textLength="172.8351" x="37.23" y="82.6709">Detected&#160;2&#160;local&#160;shell&#160;edges.</text><text fill="#000000" font-family="Monospace" font-size="13" lengthAdjust="spacing" textLength="163.8911" x="37.23" y="100.377">Detected&#160;26&#160;external&#160;tools.</text></g><!--link shell_scripts_install_webterm_sh to shell_scripts_install_sh--><g class="link" data-entity-1="ent0010" data-entity-2="ent0007" data-link-type="dependency" data-source-line="50" id="lnk45"><path d="M224.34,1496.2779 C305.98,1496.2779 409.96,1496.2779 409.96,1496.2779 C409.96,1496.2779 409.96,1488.6279 409.96,1473.5879" fill="none" id="shell_scripts_install_webterm_sh-to-shell_scripts_install_sh" style="stroke:#181818;stroke-width:1;"/><polygon fill="#181818" points="409.96,1467.5879,405.96,1476.5879,409.96,1472.5879,413.96,1476.5879,409.96,1467.5879" style="stroke:#181818;stroke-width:1;"/><text fill="#000000" font-family="Monospace" font-size="13" lengthAdjust="spacing" textLength="20.241" x="310.5" y="1492.1749">call</text></g><!--link shell_scripts_rebuild_webservices_sh to shell_scripts_install_sh--><g class="link" data-entity-1="ent0012" data-entity-2="ent0007" data-link-type="dependency" data-source-line="51" id="lnk46"><path d="M238.72,1363.8779 C296.76,1363.8779 355.96,1363.8779 355.96,1363.8779 C355.96,1363.8779 355.96,1370.0479 355.96,1383.8379" fill="none" id="shell_scripts_rebuild_webservices_sh-to-shell_scripts_install_sh" style="stroke:#181818;stroke-width:1;"/><polygon fill="#181818" points="355.96,1389.8379,359.96,1380.8379,355.96,1384.8379,351.96,1380.8379,355.96,1389.8379" style="stroke:#181818;stroke-width:1;"/><text fill="#000000" font-family="Monospace" font-size="13" lengthAdjust="spacing" textLength="20.241" x="289.32" y="1378.7749">call</text></g><!--link shell_scripts_configure_firewalld_sh to tool_firewall_cmd--><g class="link" data-entity-1="ent0002" data-entity-2="ent0025" data-link-type="dependency" data-source-line="52" id="lnk47"><path d="M235.15,742.6279 C275.66,742.6279 314.15,742.6279 348.13,742.6279" fill="none" id="shell_scripts_configure_firewalld_sh-to-tool_firewall_cmd" style="stroke:#181818;stroke-width:1;"/><polygon fill="#181818" points="354.13,742.6279,345.13,738.6279,349.13,742.6279,345.13,746.6279,354.13,742.6279" style="stroke:#181818;stroke-width:1;"/></g><!--link shell_scripts_configure_firewalld_sh to tool_systemctl--><g class="link" data-entity-1="ent0002" data-entity-2="ent0038" data-link-type="dependency" data-source-line="53" id="lnk48"><path d="M231.96,795.3679 C231.96,835.7179 231.96,893.0979 231.96,893.0979 C231.96,893.0979 304.99,893.0979 357.78,893.0979" fill="none" id="shell_scripts_configure_firewalld_sh-to-tool_systemctl" style="stroke:#181818;stroke-width:1;"/><polygon fill="#181818" points="363.78,893.0979,354.78,889.0979,358.78,893.0979,354.78,897.0979,363.78,893.0979" style="stroke:#181818;stroke-width:1;"/></g><!--link shell_scripts_configure_ufw_sh to tool_cat--><g class="link" data-entity-1="ent0003" data-entity-2="ent0022" data-link-type="dependency" data-source-line="54" id="lnk49"><path d="M219.03,1843.4379 C254.11,1843.4379 285.96,1843.4379 285.96,1843.4379 C285.96,1843.4379 285.96,2111.0579 285.96,2111.0579 C285.96,2111.0579 342.72,2111.0579 379,2111.0579" fill="none" id="shell_scripts_configure_ufw_sh-to-tool_cat" style="stroke:#181818;stroke-width:1;"/><polygon fill="#181818" points="385,2111.0579,376,2107.0579,380,2111.0579,376,2115.0579,385,2111.0579" style="stroke:#181818;stroke-width:1;"/></g><!--link shell_scripts_configure_ufw_sh to tool_grep--><g class="link" data-entity-1="ent0003" data-entity-2="ent0027" data-link-type="dependency" data-source-line="55" id="lnk50"><path d="M212.96,1767.6579 C212.96,1713.7279 212.96,1622.8879 212.96,1622.8879 C212.96,1622.8879 317.86,1622.8879 373.32,1622.8879" fill="none" id="shell_scripts_configure_ufw_sh-to-tool_grep" style="stroke:#181818;stroke-width:1;"/><polygon fill="#181818" points="379.32,1622.8879,370.32,1618.8879,374.32,1622.8879,370.32,1626.8879,379.32,1622.8879" style="stroke:#181818;stroke-width:1;"/></g><!--link shell_scripts_configure_ufw_sh to tool_sed--><g class="link" data-entity-1="ent0003" data-entity-2="ent0034" data-link-type="dependency" data-source-line="56" id="lnk51"><path d="M219.14,1841.6579 C262.47,1841.6579 304.96,1841.6579 304.96,1841.6579 C304.96,1841.6579 304.96,1939.6579 304.96,1939.6579 C304.96,1939.6579 345.88,1939.6579 377.04,1939.6579" fill="none" id="shell_scripts_configure_ufw_sh-to-tool_sed" style="stroke:#181818;stroke-width:1;"/><polygon fill="#181818" points="383.04,1939.6579,374.04,1935.6579,378.04,1939.6579,374.04,1943.6579,383.04,1939.6579" style="stroke:#181818;stroke-width:1;"/></g><!--link shell_scripts_configure_ufw_sh to tool_ufw--><g class="link" data-entity-1="ent0003" data-entity-2="ent0042" data-link-type="dependency" data-source-line="57" id="lnk52"><path d="M219.22,1785.5879 C247.77,1785.5879 271.96,1785.5879 271.96,1785.5879 C271.96,1785.5879 271.96,1254.7979 271.96,1254.7979 C271.96,1254.7979 336.18,1254.7979 376.5,1254.7979" fill="none" id="shell_scripts_configure_ufw_sh-to-tool_ufw" style="stroke:#181818;stroke-width:1;"/><polygon fill="#181818" points="382.5,1254.7979,373.5,1250.7979,377.5,1254.7979,373.5,1258.7979,382.5,1254.7979" style="stroke:#181818;stroke-width:1;"/></g><!--link shell_scripts_enable_ip_forwarding_sh to tool_cat--><g class="link" data-entity-1="ent0004" data-entity-2="ent0022" data-link-type="dependency" data-source-line="58" id="lnk53"><path d="M227.96,2285.6979 C227.96,2230.6779 227.96,2136.7779 227.96,2136.7779 C227.96,2136.7779 329.29,2136.7779 379.18,2136.7779" fill="none" id="shell_scripts_enable_ip_forwarding_sh-to-tool_cat" style="stroke:#181818;stroke-width:1;"/><polygon fill="#181818" points="385.18,2136.7779,376.18,2132.7779,380.18,2136.7779,376.18,2140.7779,385.18,2136.7779" style="stroke:#181818;stroke-width:1;"/></g><!--link shell_scripts_enable_ip_forwarding_sh to tool_sysctl--><g class="link" data-entity-1="ent0004" data-entity-2="ent0037" data-link-type="dependency" data-source-line="59" id="lnk54"><path d="M243.24,2352.6579 C291.52,2352.6579 337.99,2352.6579 370.95,2352.6579" fill="none" id="shell_scripts_enable_ip_forwarding_sh-to-tool_sysctl" style="stroke:#181818;stroke-width:1;"/><polygon fill="#181818" points="376.95,2352.6579,367.95,2348.6579,371.95,2352.6579,367.95,2356.6579,376.95,2352.6579" style="stroke:#181818;stroke-width:1;"/></g><!--link shell_scripts_generate_keys_sh to tool_mkdir--><g class="link" data-entity-1="ent0005" data-entity-2="ent0028" data-link-type="dependency" data-source-line="60" id="lnk55"><path d="M219.84,2419.0579 C252.78,2419.0579 281.96,2419.0579 281.96,2419.0579 C281.96,2419.0579 281.96,2048.1479 281.96,2048.1479 C281.96,2048.1479 331.48,2048.1479 369.44,2048.1479" fill="none" id="shell_scripts_generate_keys_sh-to-tool_mkdir" style="stroke:#181818;stroke-width:1;"/><polygon fill="#181818" points="375.44,2048.1479,366.44,2044.1479,370.44,2048.1479,366.44,2052.1479,375.44,2048.1479" style="stroke:#181818;stroke-width:1;"/></g><!--link shell_scripts_generate_keys_sh to tool_tee--><g class="link" data-entity-1="ent0005" data-entity-2="ent0040" data-link-type="dependency" data-source-line="61" id="lnk56"><path d="M219.7,2450.6279 C277.27,2450.6279 341.43,2450.6279 378.43,2450.6279" fill="none" id="shell_scripts_generate_keys_sh-to-tool_tee" style="stroke:#181818;stroke-width:1;"/><polygon fill="#181818" points="384.43,2450.6279,375.43,2446.6279,379.43,2450.6279,375.43,2454.6279,384.43,2450.6279" style="stroke:#181818;stroke-width:1;"/></g><!--link shell_scripts_generate_keys_sh to tool_wg--><g class="link" data-entity-1="ent0005" data-entity-2="ent0043" data-link-type="dependency" data-source-line="62" id="lnk57"><path d="M219.64,2482.1879 C301.93,2482.1879 409.96,2482.1879 409.96,2482.1879 C409.96,2482.1879 409.96,2490.1279 409.96,2503.6379" fill="none" id="shell_scripts_generate_keys_sh-to-tool_wg" style="stroke:#181818;stroke-width:1;"/><polygon fill="#181818" points="409.96,2509.6379,413.96,2500.6379,409.96,2504.6379,405.96,2500.6379,409.96,2509.6379" style="stroke:#181818;stroke-width:1;"/></g><!--link shell_scripts_harden_ssh_sh to tool_cp--><g class="link" data-entity-1="ent0006" data-entity-2="ent0023" data-link-type="dependency" data-source-line="63" id="lnk58"><path d="M210.08,1694.6279 C270.57,1694.6279 342.76,1694.6279 381,1694.6279" fill="none" id="shell_scripts_harden_ssh_sh-to-tool_cp" style="stroke:#181818;stroke-width:1;"/><polygon fill="#181818" points="387,1694.6279,378,1690.6279,382,1694.6279,378,1698.6279,387,1694.6279" style="stroke:#181818;stroke-width:1;"/></g><!--link shell_scripts_harden_ssh_sh to tool_grep--><g class="link" data-entity-1="ent0006" data-entity-2="ent0027" data-link-type="dependency" data-source-line="64" id="lnk59"><path d="M210.14,1665.3979 C284.97,1665.3979 383.96,1665.3979 383.96,1665.3979 C383.96,1665.3979 383.96,1655.9379 383.96,1641.4479" fill="none" id="shell_scripts_harden_ssh_sh-to-tool_grep" style="stroke:#181818;stroke-width:1;"/><polygon fill="#181818" points="383.96,1635.4479,379.96,1644.4479,383.96,1640.4479,387.96,1644.4479,383.96,1635.4479" style="stroke:#181818;stroke-width:1;"/></g><!--link shell_scripts_harden_ssh_sh to tool_mkdir--><g class="link" data-entity-1="ent0006" data-entity-2="ent0028" data-link-type="dependency" data-source-line="65" id="lnk60"><path d="M210.03,1723.8479 C250.57,1723.8479 290.96,1723.8479 290.96,1723.8479 C290.96,1723.8479 290.96,2027.1179 290.96,2027.1179 C290.96,2027.1179 334.46,2027.1179 369.66,2027.1179" fill="none" id="shell_scripts_harden_ssh_sh-to-tool_mkdir" style="stroke:#181818;stroke-width:1;"/><polygon fill="#181818" points="375.66,2027.1179,366.66,2023.1179,370.66,2027.1179,366.66,2031.1179,375.66,2027.1179" style="stroke:#181818;stroke-width:1;"/></g><!--link shell_scripts_harden_ssh_sh to tool_sshd--><g class="link" data-entity-1="ent0006" data-entity-2="ent0035" data-link-type="dependency" data-source-line="66" id="lnk61"><path d="M210.18,1728.5379 C224.53,1728.5379 234.96,1728.5379 234.96,1728.5379 C234.96,1728.5379 234.96,1839.8779 234.96,1839.8779 C234.96,1839.8779 323.43,1839.8779 373.61,1839.8779" fill="none" id="shell_scripts_harden_ssh_sh-to-tool_sshd" style="stroke:#181818;stroke-width:1;"/><polygon fill="#181818" points="379.61,1839.8779,370.61,1835.8779,374.61,1839.8779,370.61,1843.8779,379.61,1839.8779" style="stroke:#181818;stroke-width:1;"/></g><!--link shell_scripts_harden_ssh_sh to tool_systemctl--><g class="link" data-entity-1="ent0006" data-entity-2="ent0038" data-link-type="dependency" data-source-line="67" id="lnk62"><path d="M210.25,1660.7079 C236.53,1660.7079 258.96,1660.7079 258.96,1660.7079 C258.96,1660.7079 258.96,928.1479 258.96,928.1479 C258.96,928.1479 313.49,928.1479 357.95,928.1479" fill="none" id="shell_scripts_harden_ssh_sh-to-tool_systemctl" style="stroke:#181818;stroke-width:1;"/><polygon fill="#181818" points="363.95,928.1479,354.95,924.1479,358.95,928.1479,354.95,932.1479,363.95,928.1479" style="stroke:#181818;stroke-width:1;"/></g><!--link shell_scripts_install_fedora_sh to tool_firewalld--><g class="link" data-entity-1="ent0008" data-entity-2="ent0026" data-link-type="dependency" data-source-line="68" id="lnk63"><path d="M216.54,872.0579 C299.19,872.0579 409.96,872.0579 409.96,872.0579 C409.96,872.0579 409.96,868.0779 409.96,857.4679" fill="none" id="shell_scripts_install_fedora_sh-to-tool_firewalld" style="stroke:#181818;stroke-width:1;"/><polygon fill="#181818" points="409.96,851.4679,405.96,860.4679,409.96,856.4679,413.96,860.4679,409.96,851.4679" style="stroke:#181818;stroke-width:1;"/></g><!--link shell_scripts_install_fedora_sh to tool_systemctl--><g class="link" data-entity-1="ent0008" data-entity-2="ent0038" data-link-type="dependency" data-source-line="69" id="lnk64"><path d="M216.59,900.1079 C265.37,900.1079 317.94,900.1079 357.78,900.1079" fill="none" id="shell_scripts_install_fedora_sh-to-tool_systemctl" style="stroke:#181818;stroke-width:1;"/><polygon fill="#181818" points="363.78,900.1079,354.78,896.1079,358.78,900.1079,354.78,904.1079,363.78,900.1079" style="stroke:#181818;stroke-width:1;"/></g><!--link shell_scripts_install_ubuntu_sh to tool_apt_get--><g class="link" data-entity-1="ent0009" data-entity-2="ent0020" data-link-type="dependency" data-source-line="70" id="lnk65"><path d="M218.92,1066.3579 C270.28,1066.3579 325.86,1066.3579 364.99,1066.3579" fill="none" id="shell_scripts_install_ubuntu_sh-to-tool_apt_get" style="stroke:#181818;stroke-width:1;"/><polygon fill="#181818" points="370.99,1066.3579,361.99,1062.3579,365.99,1066.3579,361.99,1070.3579,370.99,1066.3579" style="stroke:#181818;stroke-width:1;"/></g><!--link shell_scripts_install_ubuntu_sh to tool_systemctl--><g class="link" data-entity-1="ent0009" data-entity-2="ent0038" data-link-type="dependency" data-source-line="71" id="lnk66"><path d="M218.84,1047.0579 C220.84,1047.0579 221.96,1047.0579 221.96,1047.0579 C221.96,1047.0579 221.96,907.1179 221.96,907.1179 C221.96,907.1179 302.39,907.1179 358.09,907.1179" fill="none" id="shell_scripts_install_ubuntu_sh-to-tool_systemctl" style="stroke:#181818;stroke-width:1;"/><polygon fill="#181818" points="364.09,907.1179,355.09,903.1179,359.09,907.1179,355.09,911.1179,364.09,907.1179" style="stroke:#181818;stroke-width:1;"/></g><!--link shell_scripts_install_ubuntu_sh to tool_ufw--><g class="link" data-entity-1="ent0009" data-entity-2="ent0042" data-link-type="dependency" data-source-line="72" id="lnk67"><path d="M127.96,1117.7179 C127.96,1165.0379 127.96,1238.4479 127.96,1238.4479 C127.96,1238.4479 305.56,1238.4479 376.56,1238.4479" fill="none" id="shell_scripts_install_ubuntu_sh-to-tool_ufw" style="stroke:#181818;stroke-width:1;"/><polygon fill="#181818" points="382.56,1238.4479,373.56,1234.4479,377.56,1238.4479,373.56,1242.4479,382.56,1238.4479" style="stroke:#181818;stroke-width:1;"/></g><!--link shell_scripts_install_webterm_sh to tool_apt_get--><g class="link" data-entity-1="ent0010" data-entity-2="ent0020" data-link-type="dependency" data-source-line="73" id="lnk68"><path d="M224.69,1478.8479 C246.3,1478.8479 262.96,1478.8479 262.96,1478.8479 C262.96,1478.8479 262.96,1090.8879 262.96,1090.8879 C262.96,1090.8879 321.47,1090.8879 365.07,1090.8879" fill="none" id="shell_scripts_install_webterm_sh-to-tool_apt_get" style="stroke:#181818;stroke-width:1;"/><polygon fill="#181818" points="371.07,1090.8879,362.07,1086.8879,366.07,1090.8879,362.07,1094.8879,371.07,1090.8879" style="stroke:#181818;stroke-width:1;"/></g><!--link shell_scripts_install_webterm_sh to tool_caddy--><g class="link" data-entity-1="ent0010" data-entity-2="ent0021" data-link-type="dependency" data-source-line="74" id="lnk69"><path d="M224.49,1484.6579 C248.7,1484.6579 267.96,1484.6579 267.96,1484.6579 C267.96,1484.6579 267.96,1162.6279 267.96,1162.6279 C267.96,1162.6279 327.26,1162.6279 369.35,1162.6279" fill="none" id="shell_scripts_install_webterm_sh-to-tool_caddy" style="stroke:#181818;stroke-width:1;"/><polygon fill="#181818" points="375.35,1162.6279,366.35,1158.6279,370.35,1162.6279,366.35,1166.6279,375.35,1162.6279" style="stroke:#181818;stroke-width:1;"/></g><!--link shell_scripts_install_webterm_sh to tool_cp--><g class="link" data-entity-1="ent0010" data-entity-2="ent0023" data-link-type="dependency" data-source-line="75" id="lnk70"><path d="M214.96,1544.4179 C214.96,1597.5479 214.96,1686.4479 214.96,1686.4479 C214.96,1686.4479 329.27,1686.4479 380.97,1686.4479" fill="none" id="shell_scripts_install_webterm_sh-to-tool_cp" style="stroke:#181818;stroke-width:1;"/><polygon fill="#181818" points="386.97,1686.4479,377.97,1682.4479,381.97,1686.4479,377.97,1690.4479,386.97,1686.4479" style="stroke:#181818;stroke-width:1;"/></g><!--link shell_scripts_install_webterm_sh to tool_dnf--><g class="link" data-entity-1="ent0010" data-entity-2="ent0024" data-link-type="dependency" data-source-line="76" id="lnk71"><path d="M224.55,1490.4679 C272.76,1490.4679 320.96,1490.4679 320.96,1490.4679 C320.96,1490.4679 320.96,1346.7279 320.96,1346.7279 C320.96,1346.7279 351.55,1346.7279 377.85,1346.7279" fill="none" id="shell_scripts_install_webterm_sh-to-tool_dnf" style="stroke:#181818;stroke-width:1;"/><polygon fill="#181818" points="383.85,1346.7279,374.85,1342.7279,378.85,1346.7279,374.85,1350.7279,383.85,1346.7279" style="stroke:#181818;stroke-width:1;"/></g><!--link shell_scripts_install_webterm_sh to tool_grep--><g class="link" data-entity-1="ent0010" data-entity-2="ent0027" data-link-type="dependency" data-source-line="77" id="lnk72"><path d="M216.96,1544.7179 C216.96,1574.5779 216.96,1610.6279 216.96,1610.6279 C216.96,1610.6279 319.05,1610.6279 373.52,1610.6279" fill="none" id="shell_scripts_install_webterm_sh-to-tool_grep" style="stroke:#181818;stroke-width:1;"/><polygon fill="#181818" points="379.52,1610.6279,370.52,1606.6279,374.52,1610.6279,370.52,1614.6279,379.52,1610.6279" style="stroke:#181818;stroke-width:1;"/></g><!--link shell_scripts_install_webterm_sh to tool_mkdir--><g class="link" data-entity-1="ent0010" data-entity-2="ent0028" data-link-type="dependency" data-source-line="78" id="lnk73"><path d="M224.7,1530.1779 C261.59,1530.1779 294.96,1530.1779 294.96,1530.1779 C294.96,1530.1779 294.96,2020.1079 294.96,2020.1079 C294.96,2020.1079 335.65,2020.1079 369.57,2020.1079" fill="none" id="shell_scripts_install_webterm_sh-to-tool_mkdir" style="stroke:#181818;stroke-width:1;"/><polygon fill="#181818" points="375.57,2020.1079,366.57,2016.1079,370.57,2020.1079,366.57,2024.1079,375.57,2020.1079" style="stroke:#181818;stroke-width:1;"/></g><!--link shell_scripts_install_webterm_sh to tool_populate_site_hostname--><g class="link" data-entity-1="ent0010" data-entity-2="ent0029" data-link-type="dependency" data-source-line="79" id="lnk74"><path d="M211.96,1544.6979 C211.96,1616.2479 211.96,1761.0579 211.96,1761.0579 C211.96,1761.0579 257.65,1761.0579 308.23,1761.0579" fill="none" id="shell_scripts_install_webterm_sh-to-tool_populate_site_hostname" style="stroke:#181818;stroke-width:1;"/><polygon fill="#181818" points="314.23,1761.0579,305.23,1757.0579,309.23,1761.0579,305.23,1765.0579,314.23,1761.0579" style="stroke:#181818;stroke-width:1;"/></g><!--link shell_scripts_install_webterm_sh to tool_render_webterm_index_sh--><g class="link" data-entity-1="ent0010" data-entity-2="ent0032" data-link-type="dependency" data-source-line="80" id="lnk75"><path d="M224.4,1516.1379 C251.68,1516.1379 275.46,1516.1379 303.02,1516.1379" fill="none" id="shell_scripts_install_webterm_sh-to-tool_render_webterm_index_sh" style="stroke:#181818;stroke-width:1;"/><polygon fill="#181818" points="309.02,1516.1379,300.02,1512.1379,304.02,1516.1379,300.02,1520.1379,309.02,1516.1379" style="stroke:#181818;stroke-width:1;"/></g><!--link shell_scripts_install_webterm_sh to tool_systemctl--><g class="link" data-entity-1="ent0010" data-entity-2="ent0038" data-link-type="dependency" data-source-line="81" id="lnk76"><path d="M224.46,1473.0379 C241.52,1473.0379 253.96,1473.0379 253.96,1473.0379 C253.96,1473.0379 253.96,921.1379 253.96,921.1379 C253.96,921.1379 311.66,921.1379 357.69,921.1379" fill="none" id="shell_scripts_install_webterm_sh-to-tool_systemctl" style="stroke:#181818;stroke-width:1;"/><polygon fill="#181818" points="363.69,921.1379,354.69,917.1379,358.69,921.1379,354.69,925.1379,363.69,921.1379" style="stroke:#181818;stroke-width:1;"/></g><!--link shell_scripts_package_client_sh to tool_cp--><g class="link" data-entity-1="ent0011" data-entity-2="ent0023" data-link-type="dependency" data-source-line="82" id="lnk77"><path d="M220.7,2156.6279 C250.96,2156.6279 276.96,2156.6279 276.96,2156.6279 C276.96,2156.6279 276.96,1710.9779 276.96,1710.9779 C276.96,1710.9779 343.16,1710.9779 381.23,1710.9779" fill="none" id="shell_scripts_package_client_sh-to-tool_cp" style="stroke:#181818;stroke-width:1;"/><polygon fill="#181818" points="387.23,1710.9779,378.23,1706.9779,382.23,1710.9779,378.23,1714.9779,387.23,1710.9779" style="stroke:#181818;stroke-width:1;"/></g><!--link shell_scripts_package_client_sh to tool_mkdir--><g class="link" data-entity-1="ent0011" data-entity-2="ent0028" data-link-type="dependency" data-source-line="83" id="lnk78"><path d="M220.49,2134.3979 C292.71,2134.3979 380.96,2134.3979 380.96,2134.3979 C380.96,2134.3979 380.96,2092.1779 380.96,2061.4779" fill="none" id="shell_scripts_package_client_sh-to-tool_mkdir" style="stroke:#181818;stroke-width:1;"/><polygon fill="#181818" points="380.96,2055.4779,376.96,2064.4779,380.96,2060.4779,384.96,2064.4779,380.96,2055.4779" style="stroke:#181818;stroke-width:1;"/></g><!--link shell_scripts_package_client_sh to tool_qrencode--><g class="link" data-entity-1="ent0011" data-entity-2="ent0031" data-link-type="dependency" data-source-line="84" id="lnk79"><path d="M220.48,2191.6579 C268.34,2191.6579 318.73,2191.6579 357.51,2191.6579" fill="none" id="shell_scripts_package_client_sh-to-tool_qrencode" style="stroke:#181818;stroke-width:1;"/><polygon fill="#181818" points="363.51,2191.6579,354.51,2187.6579,358.51,2191.6579,354.51,2195.6579,363.51,2191.6579" style="stroke:#181818;stroke-width:1;"/></g><!--link shell_scripts_package_client_sh to tool_zip--><g class="link" data-entity-1="ent0011" data-entity-2="ent0044" data-link-type="dependency" data-source-line="85" id="lnk80"><path d="M127.96,2209.5479 C127.96,2238.1579 127.96,2272.0579 127.96,2272.0579 C127.96,2272.0579 310.93,2272.0579 379.58,2272.0579" fill="none" id="shell_scripts_package_client_sh-to-tool_zip" style="stroke:#181818;stroke-width:1;"/><polygon fill="#181818" points="385.58,2272.0579,376.58,2268.0579,380.58,2272.0579,376.58,2276.0579,385.58,2272.0579" style="stroke:#181818;stroke-width:1;"/></g><!--link shell_scripts_rebuild_webservices_sh to tool_all_services_ttyd--><g class="link" data-entity-1="ent0012" data-entity-2="ent0019" data-link-type="dependency" data-source-line="86" id="lnk81"><path d="M238.65,1321.4479 C287.01,1321.4479 332.96,1321.4479 332.96,1321.4479 C332.96,1321.4479 332.96,1101.7279 332.96,1025.4579" fill="none" id="shell_scripts_rebuild_webservices_sh-to-tool_all_services_ttyd" style="stroke:#181818;stroke-width:1;"/><polygon fill="#181818" points="332.96,1019.4579,328.96,1028.4579,332.96,1024.4579,336.96,1028.4579,332.96,1019.4579" style="stroke:#181818;stroke-width:1;"/></g><!--link shell_scripts_rebuild_webservices_sh to tool_apt_get--><g class="link" data-entity-1="ent0012" data-entity-2="ent0020" data-link-type="dependency" data-source-line="87" id="lnk82"><path d="M228.96,1312.7979 C228.96,1237.4279 228.96,1078.6279 228.96,1078.6279 C228.96,1078.6279 312.03,1078.6279 365.26,1078.6279" fill="none" id="shell_scripts_rebuild_webservices_sh-to-tool_apt_get" style="stroke:#181818;stroke-width:1;"/><polygon fill="#181818" points="371.26,1078.6279,362.26,1074.6279,366.26,1078.6279,362.26,1082.6279,371.26,1078.6279" style="stroke:#181818;stroke-width:1;"/></g><!--link shell_scripts_rebuild_webservices_sh to tool_caddy--><g class="link" data-entity-1="ent0012" data-entity-2="ent0021" data-link-type="dependency" data-source-line="88" id="lnk83"><path d="M238.52,1329.8779 C305.81,1329.8779 378.96,1329.8779 378.96,1329.8779 C378.96,1329.8779 378.96,1239.8279 378.96,1193.2979" fill="none" id="shell_scripts_rebuild_webservices_sh-to-tool_caddy" style="stroke:#181818;stroke-width:1;"/><polygon fill="#181818" points="378.96,1187.2979,374.96,1196.2979,378.96,1192.2979,382.96,1196.2979,378.96,1187.2979" style="stroke:#181818;stroke-width:1;"/></g><!--link shell_scripts_rebuild_webservices_sh to tool_cp--><g class="link" data-entity-1="ent0012" data-entity-2="ent0023" data-link-type="dependency" data-source-line="89" id="lnk84"><path d="M227.96,1390.6979 C227.96,1477.3979 227.96,1678.2679 227.96,1678.2679 C227.96,1678.2679 332.03,1678.2679 381.05,1678.2679" fill="none" id="shell_scripts_rebuild_webservices_sh-to-tool_cp" style="stroke:#181818;stroke-width:1;"/><polygon fill="#181818" points="387.05,1678.2679,378.05,1674.2679,382.05,1678.2679,378.05,1682.2679,387.05,1678.2679" style="stroke:#181818;stroke-width:1;"/></g><!--link shell_scripts_rebuild_webservices_sh to tool_dnf--><g class="link" data-entity-1="ent0012" data-entity-2="ent0024" data-link-type="dependency" data-source-line="90" id="lnk85"><path d="M238.78,1338.3079 C291.7,1338.3079 344.62,1338.3079 377.74,1338.3079" fill="none" id="shell_scripts_rebuild_webservices_sh-to-tool_dnf" style="stroke:#181818;stroke-width:1;"/><polygon fill="#181818" points="383.74,1338.3079,374.74,1334.3079,378.74,1338.3079,374.74,1342.3079,383.74,1338.3079" style="stroke:#181818;stroke-width:1;"/></g><!--link shell_scripts_rebuild_webservices_sh to tool_grep--><g class="link" data-entity-1="ent0012" data-entity-2="ent0027" data-link-type="dependency" data-source-line="91" id="lnk86"><path d="M230.96,1390.7179 C230.96,1460.2879 230.96,1598.3579 230.96,1598.3579 C230.96,1598.3579 322.1,1598.3579 373.33,1598.3579" fill="none" id="shell_scripts_rebuild_webservices_sh-to-tool_grep" style="stroke:#181818;stroke-width:1;"/><polygon fill="#181818" points="379.33,1598.3579,370.33,1594.3579,374.33,1598.3579,370.33,1602.3579,379.33,1598.3579" style="stroke:#181818;stroke-width:1;"/></g><!--link shell_scripts_rebuild_webservices_sh to tool_mkdir--><g class="link" data-entity-1="ent0012" data-entity-2="ent0028" data-link-type="dependency" data-source-line="92" id="lnk87"><path d="M238.42,1381.3079 C271.87,1381.3079 299.96,1381.3079 299.96,1381.3079 C299.96,1381.3079 299.96,2013.0979 299.96,2013.0979 C299.96,2013.0979 337.26,2013.0979 369.57,2013.0979" fill="none" id="shell_scripts_rebuild_webservices_sh-to-tool_mkdir" style="stroke:#181818;stroke-width:1;"/><polygon fill="#181818" points="375.57,2013.0979,366.57,2009.0979,370.57,2013.0979,366.57,2017.0979,375.57,2013.0979" style="stroke:#181818;stroke-width:1;"/></g><!--link shell_scripts_rebuild_webservices_sh to tool_render_webterm_index_sh--><g class="link" data-entity-1="ent0012" data-entity-2="ent0032" data-link-type="dependency" data-source-line="93" id="lnk88"><path d="M238.71,1372.5879 C279.04,1372.5879 314.96,1372.5879 314.96,1372.5879 C314.96,1372.5879 314.96,1452.3379 314.96,1495.8779" fill="none" id="shell_scripts_rebuild_webservices_sh-to-tool_render_webterm_index_sh" style="stroke:#181818;stroke-width:1;"/><polygon fill="#181818" points="314.96,1501.8779,318.96,1492.8779,314.96,1496.8779,310.96,1492.8779,314.96,1501.8779" style="stroke:#181818;stroke-width:1;"/></g><!--link shell_scripts_rebuild_webservices_sh to tool_systemctl--><g class="link" data-entity-1="ent0012" data-entity-2="ent0038" data-link-type="dependency" data-source-line="94" id="lnk89"><path d="M224.96,1312.7979 C224.96,1205.7279 224.96,914.1279 224.96,914.1279 C224.96,914.1279 303.03,914.1279 357.88,914.1279" fill="none" id="shell_scripts_rebuild_webservices_sh-to-tool_systemctl" style="stroke:#181818;stroke-width:1;"/><polygon fill="#181818" points="363.88,914.1279,354.88,910.1279,358.88,914.1279,354.88,918.1279,363.88,914.1279" style="stroke:#181818;stroke-width:1;"/></g><!--link shell_scripts_render_configs_sh to tool_cat--><g class="link" data-entity-1="ent0013" data-entity-2="ent0022" data-link-type="dependency" data-source-line="95" id="lnk90"><path d="M221.59,2062.1879 C303.63,2062.1879 409.96,2062.1879 409.96,2062.1879 C409.96,2062.1879 409.96,2070.1279 409.96,2083.6379" fill="none" id="shell_scripts_render_configs_sh-to-tool_cat" style="stroke:#181818;stroke-width:1;"/><polygon fill="#181818" points="409.96,2089.6379,413.96,2080.6379,409.96,2084.6379,405.96,2080.6379,409.96,2089.6379" style="stroke:#181818;stroke-width:1;"/></g><!--link shell_scripts_render_configs_sh to tool_mkdir--><g class="link" data-entity-1="ent0013" data-entity-2="ent0028" data-link-type="dependency" data-source-line="96" id="lnk91"><path d="M221.26,2041.1379 C274.2,2041.1379 331.35,2041.1379 369.56,2041.1379" fill="none" id="shell_scripts_render_configs_sh-to-tool_mkdir" style="stroke:#181818;stroke-width:1;"/><polygon fill="#181818" points="375.56,2041.1379,366.56,2037.1379,370.56,2041.1379,366.56,2045.1379,375.56,2041.1379" style="stroke:#181818;stroke-width:1;"/></g><!--link shell_scripts_render_configs_sh to tool_populate_site_hostname--><g class="link" data-entity-1="ent0013" data-entity-2="ent0029" data-link-type="dependency" data-source-line="97" id="lnk92"><path d="M221.53,1999.0579 C277.92,1999.0579 338.96,1999.0579 338.96,1999.0579 C338.96,1999.0579 338.96,1867.1279 338.96,1809.4779" fill="none" id="shell_scripts_render_configs_sh-to-tool_populate_site_hostname" style="stroke:#181818;stroke-width:1;"/><polygon fill="#181818" points="338.96,1803.4779,334.96,1812.4779,338.96,1808.4779,342.96,1812.4779,338.96,1803.4779" style="stroke:#181818;stroke-width:1;"/></g><!--link shell_scripts_render_webterm_index_sh to tool_cp--><g class="link" data-entity-1="ent0014" data-entity-2="ent0023" data-link-type="dependency" data-source-line="98" id="lnk93"><path d="M241.96,1879.5379 C241.96,1817.3479 241.96,1702.7979 241.96,1702.7979 C241.96,1702.7979 335.04,1702.7979 381.09,1702.7979" fill="none" id="shell_scripts_render_webterm_index_sh-to-tool_cp" style="stroke:#181818;stroke-width:1;"/><polygon fill="#181818" points="387.09,1702.7979,378.09,1698.7979,382.09,1702.7979,378.09,1706.7979,387.09,1702.7979" style="stroke:#181818;stroke-width:1;"/></g><!--link shell_scripts_render_webterm_index_sh to tool_mkdir--><g class="link" data-entity-1="ent0014" data-entity-2="ent0028" data-link-type="dependency" data-source-line="99" id="lnk94"><path d="M235.96,1957.4079 C235.96,1990.9579 235.96,2034.1279 235.96,2034.1279 C235.96,2034.1279 318.96,2034.1279 369.72,2034.1279" fill="none" id="shell_scripts_render_webterm_index_sh-to-tool_mkdir" style="stroke:#181818;stroke-width:1;"/><polygon fill="#181818" points="375.72,2034.1279,366.72,2030.1279,370.72,2034.1279,366.72,2038.1279,375.72,2034.1279" style="stroke:#181818;stroke-width:1;"/></g><!--link shell_scripts_run_tachometer_profile_sh to tool_run--><g class="link" data-entity-1="ent0015" data-entity-2="ent0033" data-link-type="dependency" data-source-line="100" id="lnk95"><path d="M249.7,543.0579 C325.98,543.0579 409.96,543.0579 409.96,543.0579 C409.96,543.0579 409.96,535.1179 409.96,521.6079" fill="none" id="shell_scripts_run_tachometer_profile_sh-to-tool_run" style="stroke:#181818;stroke-width:1;"/><polygon fill="#181818" points="409.96,515.6079,405.96,524.6079,409.96,520.6079,413.96,524.6079,409.96,515.6079" style="stroke:#181818;stroke-width:1;"/></g><!--link shell_scripts_run_tachometer_profile_sh to tool_summarize--><g class="link" data-entity-1="ent0015" data-entity-2="ent0036" data-link-type="dependency" data-source-line="101" id="lnk96"><path d="M249.78,574.6279 C287.79,574.6279 321.71,574.6279 352.21,574.6279" fill="none" id="shell_scripts_run_tachometer_profile_sh-to-tool_summarize" style="stroke:#181818;stroke-width:1;"/><polygon fill="#181818" points="358.21,574.6279,349.21,570.6279,353.21,574.6279,349.21,578.6279,358.21,574.6279" style="stroke:#181818;stroke-width:1;"/></g><!--link shell_scripts_run_tachometer_profile_sh to tool_tachometer--><g class="link" data-entity-1="ent0015" data-entity-2="ent0039" data-link-type="dependency" data-source-line="102" id="lnk97"><path d="M244.96,613.6779 C244.96,635.6079 244.96,658.6279 244.96,658.6279 C244.96,658.6279 302.27,658.6279 350.5,658.6279" fill="none" id="shell_scripts_run_tachometer_profile_sh-to-tool_tachometer" style="stroke:#181818;stroke-width:1;"/><polygon fill="#181818" points="356.5,658.6279,347.5,654.6279,351.5,658.6279,347.5,662.6279,356.5,658.6279" style="stroke:#181818;stroke-width:1;"/></g><!--link shell_scripts_site_registry_sh to tool_python3--><g class="link" data-entity-1="ent0016" data-entity-2="ent0030" data-link-type="dependency" data-source-line="103" id="lnk98"><path d="M212.37,406.6279 C263.49,406.6279 320.56,406.6279 361.53,406.6279" fill="none" id="shell_scripts_site_registry_sh-to-tool_python3" style="stroke:#181818;stroke-width:1;"/><polygon fill="#181818" points="367.53,406.6279,358.53,402.6279,362.53,406.6279,358.53,410.6279,367.53,406.6279" style="stroke:#181818;stroke-width:1;"/></g><!--link shell_scripts_ttyd_session_sh to tool_tmux--><g class="link" data-entity-1="ent0017" data-entity-2="ent0041" data-link-type="dependency" data-source-line="104" id="lnk99"><path d="M212.75,294.6279 C268.23,294.6279 331.66,294.6279 371.64,294.6279" fill="none" id="shell_scripts_ttyd_session_sh-to-tool_tmux" style="stroke:#181818;stroke-width:1;"/><polygon fill="#181818" points="377.64,294.6279,368.64,290.6279,372.64,294.6279,368.64,298.6279,377.64,294.6279" style="stroke:#181818;stroke-width:1;"/></g><?plantuml-src fLTDZ-Gq4BtdLrYp5oGqmyuEi089f6Mt6o4j76Y9qqYHEwaarZXsi9tjwVtrLD8VSITsx92ZNQ_UAyULSfLXXWDfcBdVorUogu1piiiKQmpPSdb8E1I664aKAoj3SgOWCqoAHBymqL15Qw8hcii34oKfADTWMN8eQClDLWhp5ws1_2c5r0tDR4mcwqOA46PdZXX8Hqz5oMq8PmBCiG4YbQbaSeMGEzq7gh_Bf2XOsIf82mpmG3dF7tJrBDuIBZFACSJkM92Ne9_5EmAl1fJ0VICbrtU4wXCYFVEb3hvKL-JDfzys7xQR-GZQuk3N_dw9DZ85L47GFOUKDMaXrO6g76zXrS5TX84OIX2Wg87q1OxQB_uK5hzX2gXM61k8LElAB_b3M7AW2UWneGscWL_iRLZip16db1QGIqLNtUOjLQHkks-5QLTTv2rLfEu1zaXRzyAF4-5dyLEyxfag88o5w8MMa6QSOVbPzS_UKWLq5UnRXWK5ezIWlh0Cz9f3E-Y20OWSrBdGhFjbRwdYT2-tmt3rkYg_NOIX65gH6ffLiWRqIHib2yPXtJTmKWRYq0phd8AIQQEEVld7Mtc7-WrHGDIO8xvZe3K-u6iqRPw0v1VAMOurVLNXl93OMXcNRKxkFdp-dEusV__pnyVDxjjVlkaYwmawghGljfT_eZEHDzlDzkdZ-uitRSnz2SRoQ0m-GsQCosYU7mTKlvnYZ8sOSZIMkHbRSr4CPboCxPS-v3whhGDUTbFSzNauu1DigS2AhbkD4VKBjdu3f5-ECOriMjvVKvUJbTH6ODStEBdj4vOZDddYoN8xROnn_-BVdydSuh_iZ96UkZCuUkl8YASLbayhndODrhV6nSIkAnk0gmcYhMkgs5VhKDUj2VQeCyCjOBzse0pKO-1fQumTYjW07lOcQB2YnCN4NhUl5W1NOmJsjmC05sFxeHpCXt9i_SgibCN5rHxi2UxlV_LtPZyJh50yYNfZbnDv1ekEQF93BtIzNciIc2Uk7bYaeh5TJOW6O-v7Ot6TnCqWCt47NKu_HnAODwxmlhn5ep7vex67CfcRG8OpDd4unxruaAupUQ1TQOf4Uf9kEdbCKZoFTmcf37F6rUNyaCSx_0-DQUfwYar4H2wFlirOWcyMWB77M81sfDaSt9LhStXtPx20mFE2Bs3mtVzqjFD_xnciwulCm2-jJBm7le3nZvQxErxgxqpea9ShgOC-IuysJUwGXoF1GowkAmtvnELfYCMNgzDfVERDd06xJ-Q5H_szlXvxxf837iumlSFuS0UjMEvqRSENkmxc932w3r_qDF8aysFte83DTIAaWUle_BkYJRNhOpuckumAWUF8u_lpv7qcV4W-OLIPGTExwMHkMtySpUWF2TuDwHJ_0m00?></g></svg>
