<?plantuml 1.2026.2?><svg xmlns="http://www.w3.org/2000/svg" xmlns:xlink="http://www.w3.org/1999/xlink" contentStyleType="text/css" data-diagram-type="DESCRIPTION" height="2376px" preserveAspectRatio="none" style="width:521px;height:2376px;background:#FFFFFF;" version="1.1" viewBox="0 0 521 2376" width="521px" zoomAndPan="magnify"><title>pit-box Shell Script Flow</title><defs/><g><g class="title" data-source-line="1"><text fill="#000000" font-family="Monospace" font-size="14" font-weight="bold" lengthAdjust="spacing" textLength="166.0884" x="170.8611" y="24.9659">pit-box&#160;Shell&#160;Script&#160;Flow</text></g><!--entity shell_scripts_configure_firewalld_sh--><g class="entity" data-qualified-name="shell_scripts_configure_firewalld_sh" data-source-line="7" id="ent0002"><rect fill="#DBEAFE" height="77.2038" rx="2.5" ry="2.5" style="stroke:#181818;stroke-width:0.5;" width="213.7312" x="21.28" y="606.0179"/><text fill="#000000" font-family="Monospace" font-size="14" lengthAdjust="spacing" textLength="193.7312" x="31.28" y="630.9839">scripts/configure_firewalld.sh</text><text fill="#000000" font-family="Monospace" font-size="14" lengthAdjust="spacing" textLength="119.3915" x="31.28" y="650.0518">0&#160;local&#160;shell&#160;edges</text><text fill="#000000" font-family="Monospace" font-size="14" lengthAdjust="spacing" textLength="101.7516" x="31.28" y="669.1197">2&#160;external&#160;tools</text></g><!--entity shell_scripts_configure_ufw_sh--><g class="entity" data-qualified-name="shell_scripts_configure_ufw_sh" data-source-line="8" id="ent0003"><rect fill="#DBEAFE" height="77.2038" rx="2.5" ry="2.5" style="stroke:#181818;stroke-width:0.5;" width="181.4054" x="37.44" y="1614.0179"/><text fill="#000000" font-family="Monospace" font-size="14" lengthAdjust="spacing" textLength="161.4054" x="47.44" y="1638.9839">scripts/configure_ufw.sh</text><text fill="#000000" font-family="Monospace" font-size="14" lengthAdjust="spacing" textLength="119.3915" x="47.44" y="1658.0518">0&#160;local&#160;shell&#160;edges</text><text fill="#000000" font-family="Monospace" font-size="14" lengthAdjust="spacing" textLength="101.7516" x="47.44" y="1677.1197">4&#160;external&#160;tools</text></g><!--entity shell_scripts_enable_ip_forwarding_sh--><g class="entity" data-qualified-name="shell_scripts_enable_ip_forwarding_sh" data-source-line="9" id="ent0004"><rect fill="#DBEAFE" height="77.2038" rx="2.5" ry="2.5" style="stroke:#181818;stroke-width:0.5;" width="229.8732" x="13.21" y="1950.0179"/><text fill="#000000" font-family="Monospace" font-size="14" lengthAdjust="spacing" textLength="209.8732" x="23.21" y="1974.9839">scripts/enable_ip_forwarding.sh</text><text fill="#000000" font-family="Monospace" font-size="14" lengthAdjust="spacing" textLength="119.3915" x="23.21" y="1994.0518">0&#160;local&#160;shell&#160;edges</text><text fill="#000000" font-family="Monospace" font-size="14" lengthAdjust="spacing" textLength="101.7516" x="23.21" y="2013.1197">2&#160;external&#160;tools</text></g><!--entity shell_scripts_generate_keys_sh--><g class="entity" data-qualified-name="shell_scripts_generate_keys_sh" data-source-line="10" id="ent0005"><rect fill="#DBEAFE" height="77.2038" rx="2.5" ry="2.5" style="stroke:#181818;stroke-width:0.5;" width="182.5814" x="36.85" y="2062.0179"/><text fill="#000000" font-family="Monospace" font-size="14" lengthAdjust="spacing" textLength="162.5814" x="46.85" y="2086.9839">scripts/generate_keys.sh</text><text fill="#000000" font-family="Monospace" font-size="14" lengthAdjust="spacing" textLength="119.3915" x="46.85" y="2106.0518">0&#160;local&#160;shell&#160;edges</text><text fill="#000000" font-family="Monospace" font-size="14" lengthAdjust="spacing" textLength="101.7516" x="46.85" y="2125.1197">3&#160;external&#160;tools</text></g><!--entity shell_scripts_harden_ssh_sh--><g class="entity" data-qualified-name="shell_scripts_harden_ssh_sh" data-source-line="11" id="ent0006"><rect fill="#DBEAFE" height="77.2038" rx="2.5" ry="2.5" style="stroke:#181818;stroke-width:0.5;" width="163.2335" x="46.53" y="1502.0179"/><text fill="#000000" font-family="Monospace" font-size="14" lengthAdjust="spacing" textLength="143.2335" x="56.53" y="1526.9839">scripts/harden_ssh.sh</text><text fill="#000000" font-family="Monospace" font-size="14" lengthAdjust="spacing" textLength="119.3915" x="56.53" y="1546.0518">0&#160;local&#160;shell&#160;edges</text><text fill="#000000" font-family="Monospace" font-size="14" lengthAdjust="spacing" textLength="101.7516" x="56.53" y="1565.1197">5&#160;external&#160;tools</text></g><!--entity shell_scripts_install_sh--><g class="entity" data-qualified-name="shell_scripts_install_sh" data-source-line="12" id="ent0007"><rect fill="#DBEAFE" height="77.2038" rx="2.5" ry="2.5" style="stroke:#181818;stroke-width:0.5;" width="139.3915" x="340.43" y="1362.0179"/><text fill="#000000" font-family="Monospace" font-size="14" lengthAdjust="spacing" textLength="106.6096" x="350.43" y="1386.9839">scripts/install.sh</text><text fill="#000000" font-family="Monospace" font-size="14" lengthAdjust="spacing" textLength="119.3915" x="350.43" y="1406.0518">0&#160;local&#160;shell&#160;edges</text><text fill="#000000" font-family="Monospace" font-size="14" lengthAdjust="spacing" textLength="101.7516" x="350.43" y="1425.1197">0&#160;external&#160;tools</text></g><!--entity shell_scripts_install_fedora_sh--><g class="entity" data-qualified-name="shell_scripts_install_fedora_sh" data-source-line="13" id="ent0008"><rect fill="#DBEAFE" height="77.2038" rx="2.5" ry="2.5" style="stroke:#181818;stroke-width:0.5;" width="176.2534" x="40.02" y="746.0179"/><text fill="#000000" font-family="Monospace" font-size="14" lengthAdjust="spacing" textLength="156.2534" x="50.02" y="770.9839">scripts/install_fedora.sh</text><text fill="#000000" font-family="Monospace" font-size="14" lengthAdjust="spacing" textLength="119.3915" x="50.02" y="790.0518">0&#160;local&#160;shell&#160;edges</text><text fill="#000000" font-family="Monospace" font-size="14" lengthAdjust="spacing" textLength="101.7516" x="50.02" y="809.1197">2&#160;external&#160;tools</text></g><!--entity shell_scripts_install_ubuntu_sh--><g class="entity" data-qualified-name="shell_scripts_install_ubuntu_sh" data-source-line="14" id="ent0009"><rect fill="#DBEAFE" height="77.2038" rx="2.5" ry="2.5" style="stroke:#181818;stroke-width:0.5;" width="181.0974" x="37.6" y="928.0179"/><text fill="#000000" font-family="Monospace" font-size="14" lengthAdjust="spacing" textLength="161.0974" x="47.6" y="952.9839">scripts/install_ubuntu.sh</text><text fill="#000000" font-family="Monospace" font-size="14" lengthAdjust="spacing" textLength="119.3915" x="47.6" y="972.0518">0&#160;local&#160;shell&#160;edges</text><text fill="#000000" font-family="Monospace" font-size="14" lengthAdjust="spacing" textLength="101.7516" x="47.6" y="991.1197">3&#160;external&#160;tools</text></g><!--entity shell_scripts_install_webterm_sh--><g class="entity" data-qualified-name="shell_scripts_install_webterm_sh" data-source-line="15" id="ent0010"><rect fill="#DBEAFE" height="77.2038" rx="2.5" ry="2.5" style="stroke:#181818;stroke-width:0.5;" width="192.1573" x="32.07" y="1292.0179"/><text fill="#000000" font-family="Monospace" font-size="14" lengthAdjust="spacing" textLength="172.1573" x="42.07" y="1316.9839">scripts/install_webterm.sh</text><text fill="#000000" font-family="Monospace" font-size="14" lengthAdjust="spacing" textLength="112.6855" x="42.07" y="1336.0518">1&#160;local&#160;shell&#160;edge</text><text fill="#000000" font-family="Monospace" font-size="14" lengthAdjust="spacing" textLength="101.7516" x="42.07" y="1355.1197">8&#160;external&#160;tools</text></g><!--entity shell_scripts_package_client_sh--><g class="entity" data-qualified-name="shell_scripts_package_client_sh" data-source-line="16" id="ent0011"><rect fill="#DBEAFE" height="77.2038" rx="2.5" ry="2.5" style="stroke:#181818;stroke-width:0.5;" width="184.2894" x="36" y="2202.0179"/><text fill="#000000" font-family="Monospace" font-size="14" lengthAdjust="spacing" textLength="164.2894" x="46" y="2226.9839">scripts/package_client.sh</text><text fill="#000000" font-family="Monospace" font-size="14" lengthAdjust="spacing" textLength="119.3915" x="46" y="2246.0518">0&#160;local&#160;shell&#160;edges</text><text fill="#000000" font-family="Monospace" font-size="14" lengthAdjust="spacing" textLength="101.7516" x="46" y="2265.1197">4&#160;external&#160;tools</text></g><!--entity shell_scripts_rebuild_webservices_sh--><g class="entity" data-qualified-name="shell_scripts_rebuild_webservices_sh" data-source-line="17" id="ent0012"><rect fill="#DBEAFE" height="77.2038" rx="2.5" ry="2.5" style="stroke:#181818;stroke-width:0.5;" width="220.4372" x="17.93" y="1180.0179"/><text fill="#000000" font-family="Monospace" font-size="14" lengthAdjust="spacing" textLength="200.4372" x="27.93" y="1204.9839">scripts/rebuild_webservices.sh</text><text fill="#000000" font-family="Monospace" font-size="14" lengthAdjust="spacing" textLength="112.6855" x="27.93" y="1224.0518">1&#160;local&#160;shell&#160;edge</text><text fill="#000000" font-family="Monospace" font-size="14" lengthAdjust="spacing" textLength="101.7516" x="27.93" y="1243.1197">9&#160;external&#160;tools</text></g><!--entity shell_scripts_render_configs_sh--><g class="entity" data-qualified-name="shell_scripts_render_configs_sh" data-source-line="18" id="ent0013"><rect fill="#DBEAFE" height="77.2038" rx="2.5" ry="2.5" style="stroke:#181818;stroke-width:0.5;" width="185.9274" x="35.18" y="1838.0179"/><text fill="#000000" font-family="Monospace" font-size="14" lengthAdjust="spacing" textLength="165.9274" x="45.18" y="1862.9839">scripts/render_configs.sh</text><text fill="#000000" font-family="Monospace" font-size="14" lengthAdjust="spacing" textLength="119.3915" x="45.18" y="1882.0518">0&#160;local&#160;shell&#160;edges</text><text fill="#000000" font-family="Monospace" font-size="14" lengthAdjust="spacing" textLength="101.7516" x="45.18" y="1901.1197">2&#160;external&#160;tools</text></g><!--entity shell_scripts_render_webterm_index_sh--><g class="entity" data-qualified-name="shell_scripts_render_webterm_index_sh" data-source-line="19" id="ent0014"><rect fill="#DBEAFE" height="77.2038" rx="2.5" ry="2.5" style="stroke:#181818;stroke-width:0.5;" width="240.0652" x="8.11" y="1726.0179"/><text fill="#000000" font-family="Monospace" font-size="14" lengthAdjust="spacing" textLength="220.0652" x="18.11" y="1750.9839">scripts/render_webterm_index.sh</text><text fill="#000000" font-family="Monospace" font-size="14" lengthAdjust="spacing" textLength="119.3915" x="18.11" y="1770.0518">0&#160;local&#160;shell&#160;edges</text><text fill="#000000" font-family="Monospace" font-size="14" lengthAdjust="spacing" textLength="101.7516" x="18.11" y="1789.1197">2&#160;external&#160;tools</text></g><!--entity shell_scripts_run_tachometer_profile_sh--><g class="entity" data-qualified-name="shell_scripts_run_tachometer_profile_sh" data-source-line="20" id="ent0015"><rect fill="#DBEAFE" height="77.2038" rx="2.5" ry="2.5" style="stroke:#181818;stroke-width:0.5;" width="242.2912" x="7" y="424.0179"/><text fill="#000000" font-family="Monospace" font-size="14" lengthAdjust="spacing" textLength="222.2912" x="17" y="448.9839">scripts/run_tachometer_profile.sh</text><text fill="#000000" font-family="Monospace" font-size="14" lengthAdjust="spacing" textLength="119.3915" x="17" y="468.0518">0&#160;local&#160;shell&#160;edges</text><text fill="#000000" font-family="Monospace" font-size="14" lengthAdjust="spacing" textLength="101.7516" x="17" y="487.1197">3&#160;external&#160;tools</text></g><!--entity shell_scripts_ttyd_session_sh--><g class="entity" data-qualified-name="shell_scripts_ttyd_session_sh" data-source-line="21" id="ent0016"><rect fill="#DBEAFE" height="77.2038" rx="2.5" ry="2.5" style="stroke:#181818;stroke-width:0.5;" width="168.3295" x="43.98" y="256.0179"/><text fill="#000000" font-family="Monospace" font-size="14" lengthAdjust="spacing" textLength="148.3295" x="53.98" y="280.9839">scripts/ttyd_session.sh</text><text fill="#000000" font-family="Monospace" font-size="14" lengthAdjust="spacing" textLength="119.3915" x="53.98" y="300.0518">0&#160;local&#160;shell&#160;edges</text><text fill="#000000" font-family="Monospace" font-size="14" lengthAdjust="spacing" textLength="95.0456" x="53.98" y="319.1197">1&#160;external&#160;tool</text></g><!--entity shell_scripts_validate_sh--><g class="entity" data-qualified-name="shell_scripts_validate_sh" data-source-line="22" id="ent0017"><rect fill="#DBEAFE" height="77.2038" rx="2.5" ry="2.5" style="stroke:#181818;stroke-width:0.5;" width="139.3915" x="58.45" y="144.0179"/><text fill="#000000" font-family="Monospace" font-size="14" lengthAdjust="spacing" textLength="119.1116" x="68.45" y="168.9839">scripts/validate.sh</text><text fill="#000000" font-family="Monospace" font-size="14" lengthAdjust="spacing" textLength="119.3915" x="68.45" y="188.0518">0&#160;local&#160;shell&#160;edges</text><text fill="#000000" font-family="Monospace" font-size="14" lengthAdjust="spacing" textLength="101.7516" x="68.45" y="207.1197">0&#160;external&#160;tools</text></g><!--entity tool_all_services_ttyd--><g class="entity" data-qualified-name="tool_all_services_ttyd" data-source-line="23" id="ent0018"><path d="M335.1881,867.656 C338.2554,860.5638 344.8206,860.395 348.6059,866.9501 C352.5904,862.3634 356.6273,861.3031 360.0954,867.5003 C364.2216,861.3655 369.5705,860.9081 374.1097,867.028 C376.7372,861.4683 382.0733,859.8966 386.1259,865.4929 C389.5378,859.8028 395.7851,858.2149 399.4717,865.2038 C404.211,860.6886 407.9679,860.4024 411.659,866.417 C414.597,861.1522 419.5165,859.4011 423.4707,865.3462 C427.1039,860.0438 432.7834,859.1907 436.2116,865.5698 C440.5736,858.9995 444.4086,859.2968 448.4006,865.9118 C452.5955,859.7379 458.8179,860.3247 461.683,867.2592 C466.1885,859.8571 471.3481,860.8781 475.465,867.6374 C478.4504,860.8645 483.4046,860.9502 487.3615,866.7157 C496.6873,871.5603 496.3024,877.2851 489.2501,883.9268 C497.3787,890.86 495.6677,896.5778 486.5359,900.7215 C483.2628,907.0522 478.9599,906.6527 475.0492,901.3511 C471.7245,907.4345 465.6959,908.3814 461.8301,901.9213 C458.0235,908.2681 454.1171,910.25 448.6154,903.6517 C444.5137,908.956 439.8475,908.6679 436.0524,903.2912 C432.5606,910.746 428.3677,910.9716 423.0299,905.0943 C419.6675,910.9385 414.6257,911.076 410.7051,905.7079 C406.695,911.1475 401.7892,910.8686 398.2486,905.1822 C393.837,912.1219 388.7532,911.1355 385.1568,904.4016 C380.7482,910.1163 375.0812,908.6779 372.7422,902.2804 C369.1325,907.6698 363.3742,907.3139 360.8535,901.159 C355.8226,907.5205 351.3338,906.4958 347.2496,900.1457 C342.8601,905.2291 339.1072,905.7172 335.3026,899.526 C326.0084,897.7435 323.5242,892.9124 328.5745,884.6445 C323.0421,875.9946 323.7456,869.6977 335.1881,867.656" fill="#FEF3C7" style="stroke:#181818;stroke-width:0.5;"/><text fill="#000000" font-family="Monospace" font-size="14" lengthAdjust="spacing" textLength="137.5495" x="341.35" y="888.0539">ALL_SERVICES+=(ttyd</text></g><!--entity tool_apt_get--><g class="entity" data-qualified-name="tool_apt_get" data-source-line="24" id="ent0019"><path d="M381.0903,951.5558 C384.6083,945.231 391.5657,945.0353 395.7459,950.7497 C399.4391,943.4294 405.4203,942.6552 410.8976,948.7319 C416.329,941.8271 424.257,942.0714 427.1012,951.3261 C430.7193,944.7829 437.9187,943.2949 442.4422,950.3009 C453.2169,951.3995 457.2352,956.9574 451.231,966.9261 C456.1588,976.5651 452.0556,984.1542 440.9282,984.2388 C438.7407,991.9637 432.5099,993.36 426.9692,987.7486 C424.713,996.0077 419.3974,997.857 412.1466,993.7219 C404.4716,999.5811 398.1158,998.777 395.0036,988.7867 C388.0279,995.381 381.3648,991.9489 379.6116,983.4579 C372.6824,978.5298 371.085,973.9217 378.9813,968.3741 C372.2873,962.306 373.2643,955.8031 381.0903,951.5558" fill="#FEF3C7" style="stroke:#181818;stroke-width:0.5;"/><text fill="#000000" font-family="Monospace" font-size="14" lengthAdjust="spacing" textLength="47.5858" x="386.33" y="972.0539">apt-get</text></g><!--entity tool_caddy--><g class="entity" data-qualified-name="tool_caddy" data-source-line="25" id="ent0020"><path d="M384.9713,1202.6453 C388.822,1196.7656 394.1882,1196.7629 397.5397,1203.1565 C401.0943,1196.2506 406.6972,1196.5336 411.4567,1201.7761 C415.4247,1195.7001 419.7033,1196.229 424.0286,1201.3759 C428.4027,1195.9928 433.6924,1195.5435 436.8247,1202.6484 C449.4283,1202.868 451.9648,1210.0573 447.5685,1220.5053 C452.1569,1229.2585 446.6625,1235.689 437.7532,1235.7543 C434.7842,1242.0551 430.8814,1244.3174 425.0064,1238.921 C422.133,1245.6445 415.9022,1247.291 410.5559,1241.8614 C405.0963,1246.4246 401.1773,1244.2662 399.076,1238.2257 C393.3683,1245.4956 386.9162,1243.5125 383.8383,1235.5884 C374.4884,1233.5254 370.1133,1229.0298 375.9715,1219.5208 C370.5152,1209.0865 374.7796,1204.7344 384.9713,1202.6453" fill="#FEF3C7" style="stroke:#181818;stroke-width:0.5;"/><text fill="#000000" font-family="Monospace" font-size="14" lengthAdjust="spacing" textLength="38.9339" x="390.66" y="1224.0539">caddy</text></g><!--entity tool_cat--><g class="entity" data-qualified-name="tool_cat" data-source-line="26" id="ent0021"><path d="M394.2282,1903.102 C398.1119,1892.992 404.9792,1893.3969 411.7421,1900.1033 C419.2259,1893.411 423.5846,1896.2705 427.1938,1904.1983 C435.8092,1907.3511 436.2973,1912.8433 430.9919,1919.4603 C436.9394,1925.6174 436.5612,1933.5145 427.1111,1936.0752 C424.7883,1945.8909 417.5067,1946.8902 410.1482,1941.8096 C402.3332,1947.9014 397.0819,1945.1764 394.6727,1936.2422 C383.9125,1934.9926 382.5003,1929.5466 387.1237,1920.7843 C381.414,1912.7136 382.9607,1904.3515 394.2282,1903.102" fill="#FEF3C7" style="stroke:#181818;stroke-width:0.5;"/><text fill="#000000" font-family="Monospace" font-size="14" lengthAdjust="spacing" textLength="19.6279" x="400.31" y="1924.0539">cat</text></g><!--entity tool_cp--><g class="entity" data-qualified-name="tool_cp" data-source-line="27" id="ent0022"><path d="M395.8222,1651.0323 C399.2014,1642.4328 406.0868,1642.0931 411.5315,1648.9303 C416.5142,1642.4157 423.228,1644.0322 425.4824,1651.6278 C433.6903,1655.45 434.3438,1661.6574 427.2357,1667.2036 C433.9778,1673.44 434.3858,1679.9807 425.2302,1684.3585 C424.3266,1692.9066 419.5032,1696.0609 411.3171,1693.3891 C401.165,1698.862 396.3223,1694.434 395.8354,1683.9888 C385.9719,1680.3344 386.3794,1673.1654 393.2554,1666.9728 C387.6639,1661.0023 386.5232,1654.6052 395.8222,1651.0323" fill="#FEF3C7" style="stroke:#181818;stroke-width:0.5;"/><text fill="#000000" font-family="Monospace" font-size="14" lengthAdjust="spacing" textLength="15.3299" x="402.46" y="1672.0539">cp</text></g><!--entity tool_dnf--><g class="entity" data-qualified-name="tool_dnf" data-source-line="28" id="ent0023"><path d="M392.6352,1288.0473 C398.0975,1277.8448 404.144,1275.6363 412.2261,1285.488 C417.1128,1276.4778 425.1111,1276.9258 429.3511,1286.0973 C440.5245,1288.8493 441.9984,1294.8441 434.9507,1303.4695 C441.4099,1310.0237 438.4277,1317.6503 430.0601,1319.7508 C426.7858,1329.6715 417.9903,1330.7963 411.29,1323.4817 C405.0218,1332.8771 396.2876,1330.9566 392.2308,1321.2726 C381.3334,1319.2889 377.491,1314.1089 384.2686,1303.9847 C378.4762,1293.9395 381.0618,1288.9761 392.6352,1288.0473" fill="#FEF3C7" style="stroke:#181818;stroke-width:0.5;"/><text fill="#000000" font-family="Monospace" font-size="14" lengthAdjust="spacing" textLength="22.0779" x="399.09" y="1308.0539">dnf</text></g><!--entity tool_firewall_cmd--><g class="entity" data-qualified-name="tool_firewall_cmd" data-source-line="29" id="ent0024"><path d="M364.5202,615.7954 C368.0602,609.9702 372.5869,609.6695 376.5094,615.3985 C379.105,609.2476 383.8689,609.3048 387.5349,614.3437 C390.826,609.0977 396.391,609.5954 399.0518,615.0237 C401.4546,607.6984 407.7052,607.471 411.9006,613.2685 C415.8452,607.585 421.2366,608.6741 423.4593,614.9348 C427.805,608.7371 431.4487,610.402 435.3052,615.4501 C437.7453,609.1648 442.4116,609.9398 446.2079,614.0244 C450.0721,608.796 455.6848,610.4643 457.8285,615.8993 C467.8465,617.8742 471.5561,622.3081 465.875,632.0867 C472.7983,641.306 468.9131,646.26 459.3544,649.1988 C455.2856,654.9031 449.6594,654.6884 446.3051,648.4201 C443.2669,654.2328 438.6168,655.5562 434.2435,649.8138 C431.2372,654.9522 427.4096,655.1851 423.7102,650.5617 C419.5403,656.0534 415.5066,656.544 411.0027,650.9444 C407.1971,655.488 403.8443,655.7983 400.0215,650.9644 C396.1121,657.7027 391.3905,657.0137 387.5135,650.9327 C382.3952,656.8374 378.4547,655.7986 374.5516,649.6283 C370.5315,654.409 366.5265,653.7608 363.6877,648.367 C353.5029,644.9486 353.1435,638.0709 359.8462,630.9317 C354.7275,624.0879 356.1013,618.4588 364.5202,615.7954" fill="#FEF3C7" style="stroke:#181818;stroke-width:0.5;"/><text fill="#000000" font-family="Monospace" font-size="14" lengthAdjust="spacing" textLength="81.1157" x="369.57" y="636.0539">firewall-cmd</text></g><!--entity tool_firewalld--><g class="entity" data-qualified-name="tool_firewalld" data-source-line="30" id="ent0025"><path d="M376.7113,699.2987 C378.8715,693.7727 384.0022,692.6456 387.5657,697.8836 C391.4399,692.8608 397.1327,693.3179 400.2553,698.7923 C402.9457,692.6878 407.5508,691.8084 411.7865,697.2486 C415.2655,692.4536 420.1584,693.6939 421.9871,698.9272 C425.1353,693.1488 429.6938,692.6433 433.8789,697.7994 C438.4851,691.2009 443.9987,692.6172 447.3242,699.1142 C456.3428,702.8178 455.6253,710.8859 448.3154,715.5727 C456.0406,721.0328 456.1746,728.4242 446.7609,732.2906 C444.9008,737.7554 439.7726,739.354 435.5148,735.0513 C433.4409,741.3438 428.8911,742.5885 423.8852,738.2626 C420.5369,744.9735 415.7528,745.785 410.4925,740.3753 C406.2409,744.5069 402.9351,743.9572 400.4334,738.5332 C394.8597,743.7034 388.9952,740.7917 387.2147,734.2515 C382.9602,738.8635 378.8965,739.5323 375.798,733.0608 C364.8542,732.107 360.7255,724.0434 367.3131,714.8992 C363.9602,705.5639 365.3916,699.7948 376.7113,699.2987" fill="#FEF3C7" style="stroke:#181818;stroke-width:0.5;"/><text fill="#000000" font-family="Monospace" font-size="14" lengthAdjust="spacing" textLength="56.7978" x="381.73" y="720.0539">firewalld</text></g><!--entity tool_grep--><g class="entity" data-qualified-name="tool_grep" data-source-line="31" id="ent0026"><path d="M389.0092,1483.0846 C391.686,1478.6761 396.2081,1477.5353 399.3697,1482.5516 C402.6003,1475.576 406.5501,1474.6614 412.1139,1480.1698 C415.2521,1475.4056 420.5002,1476.5747 422.7712,1481.1585 C427.1509,1477.1943 431.0113,1477.8767 433.3498,1483.4279 C443.2674,1486.1987 443.1625,1492.5752 437.6652,1499.4881 C444.4846,1507.3669 441.6441,1512.5664 433.1045,1516.2717 C430.9451,1522.4232 427.388,1524.2422 421.8264,1519.9434 C420.0457,1524.8253 415.2478,1526.8728 411.2885,1522.3966 C405.3888,1525.9656 401.3993,1525.2529 399.0192,1518.2946 C395.086,1522.8584 389.9425,1521.0468 388.3788,1515.7403 C378.664,1513.6187 376.0777,1505.8805 383.428,1498.7781 C377.6833,1491.851 380.1403,1484.8146 389.0092,1483.0846" fill="#FEF3C7" style="stroke:#181818;stroke-width:0.5;"/><text fill="#000000" font-family="Monospace" font-size="14" lengthAdjust="spacing" textLength="30.8979" x="394.68" y="1504.0539">grep</text></g><!--entity tool_mkdir--><g class="entity" data-qualified-name="tool_mkdir" data-source-line="32" id="ent0027"><path d="M385.1513,1818.6453 C388.9759,1812.8092 394.3033,1812.8081 397.6287,1819.1565 C401.1558,1812.2931 406.7226,1812.5706 411.4547,1817.7761 C415.3926,1811.7431 419.6404,1812.2672 423.9356,1817.3759 C428.2827,1812.0338 433.5354,1811.5913 436.6407,1818.6484 C449.2444,1818.868 451.7808,1826.0573 447.3845,1836.5053 C451.9729,1845.2585 446.4785,1851.689 437.5693,1851.7543 C434.6307,1858.0177 430.7579,1860.2713 424.9134,1854.921 C422.0657,1861.6074 415.8746,1863.2515 410.5539,1857.8614 C405.1232,1862.3793 401.2374,1860.2275 399.165,1854.2257 C393.4831,1861.4477 387.0704,1859.4697 384.0183,1851.5884 C374.6684,1849.5254 370.2933,1845.0298 376.1515,1835.5208 C370.6952,1825.0865 374.9596,1820.7344 385.1513,1818.6453" fill="#FEF3C7" style="stroke:#181818;stroke-width:0.5;"/><text fill="#000000" font-family="Monospace" font-size="14" lengthAdjust="spacing" textLength="38.5699" x="390.84" y="1840.0539">mkdir</text></g><!--entity tool_qrencode--><g class="entity" data-qualified-name="tool_qrencode" data-source-line="33" id="ent0028"><path d="M372.3373,2323.608 C376.5026,2318.1018 380.4027,2316.9732 384.6607,2323.5131 C389.0862,2318.062 393.0701,2316.3895 397.842,2323.1388 C400.6266,2316.5879 407.3386,2315.4351 411.5876,2321.5494 C415.0307,2315.2679 419.2131,2316.1465 422.9408,2321.266 C426.9491,2315.2641 433.921,2315.066 436.7859,2322.4487 C441.2061,2315.7022 445.9539,2316.3588 450.5468,2322.2608 C460.6146,2323.1112 464.5551,2330.9454 459.9822,2339.7118 C466.2852,2350.0646 460.4081,2357.8377 449.078,2357.1892 C446.0975,2362.8773 440.1915,2363.3581 436.6589,2357.7987 C434.4016,2365.9011 430.1622,2366.9018 423.9331,2361.5576 C421.7361,2367.7389 415.9658,2368.9233 411.8253,2363.6038 C406.9194,2369.0264 401.1847,2369.7216 397.8983,2361.9007 C392.9378,2365.793 387.936,2365.4838 385.8038,2358.6973 C380.4231,2365.5452 375.9014,2363.2292 371.9788,2357.1392 C361.5331,2355.1867 359.0631,2347.8763 363.8022,2339.0572 C359.1231,2330.41 362.3653,2324.161 372.3373,2323.608" fill="#FEF3C7" style="stroke:#181818;stroke-width:0.5;"/><text fill="#000000" font-family="Monospace" font-size="14" lengthAdjust="spacing" textLength="62.6358" x="378.81" y="2344.0539">qrencode</text></g><!--entity tool_render_webterm_index_sh--><g class="entity" data-qualified-name="tool_render_webterm_index_sh" data-source-line="34" id="ent0029"><path d="M318.3494,1119.0659 C322.4261,1113.275 327.7648,1113.0532 331.0622,1119.8527 C334.939,1113.708 340.9166,1112.0592 345.1487,1119.4838 C348.9891,1112.9848 355.1031,1113.2506 358.7292,1119.7084 C361.8916,1113.9937 367.192,1112.0236 371.55,1118.4454 C374.3894,1111.7952 379.9375,1111.9743 384.2019,1116.8861 C389.7009,1110.1191 393.759,1112.0775 397.7437,1118.447 C400.5742,1110.7992 407.1305,1110.9208 411.6542,1116.6918 C416.0002,1111.1505 420.8904,1111.1167 424.6151,1117.3742 C429.7259,1111.2787 435.0834,1111.818 439.0282,1118.6719 C442.4523,1112.6924 446.181,1113.5582 450.2893,1117.9272 C455.8551,1112.1692 460.8368,1111.6865 465.1408,1119.3259 C468.5716,1113.7328 472.8048,1114.2253 476.7456,1118.7403 C482.0591,1111.9985 486.5743,1113.0813 491.2771,1119.4188 C496.1228,1111.7974 500.3404,1112.1328 505.2689,1119.3407 C514.8107,1125.2382 514.6039,1131.4444 504.9093,1136.9491 C511.3425,1141.9477 513.4822,1148.2088 504.7515,1153.0588 C501.7782,1160.0558 495.5628,1160.7435 491.5277,1154.0873 C487.6053,1162.0818 482.6619,1163.0682 476.9546,1155.7905 C472.2491,1161.4351 467.5074,1162.3121 463.2474,1155.3077 C461.3087,1160.7661 456.5098,1161.8691 452.2486,1158.0656 C449.1818,1165.5723 442.4619,1164.2976 438.6457,1158.8527 C434.6112,1164.9134 429.6748,1165.9589 425.4324,1159.0647 C421.8262,1165.462 416.7143,1167.4553 411.451,1160.8461 C406.6465,1166.271 400.8876,1167.4292 397.5422,1159.344 C392.3721,1163.755 388.4911,1163.2973 385.1278,1157.2079 C380.3816,1164.1137 374.7409,1164.8417 370.4826,1156.732 C366.7895,1161.7469 361.1574,1162.7534 358.2249,1155.9435 C354.3067,1161.7129 348.3962,1160.3019 346.0992,1154.2768 C341.3451,1160.9175 337.0058,1161.1722 331.8111,1154.759 C327.0582,1161.0262 322.3645,1160.7394 318.9556,1153.4815 C308.4567,1150.0523 308.6518,1142.9551 315.1525,1135.8576 C307.2641,1129.8624 310.6059,1122.0849 318.3494,1119.0659" fill="#FEF3C7" style="stroke:#181818;stroke-width:0.5;"/><text fill="#000000" font-family="Monospace" font-size="14" lengthAdjust="spacing" textLength="171.6673" x="324.29" y="1140.0539">render_webterm_index.sh</text></g><!--entity tool_run--><g class="entity" data-qualified-name="tool_run" data-source-line="35" id="ent0030"><path d="M391.7902,363.7206 C396.6618,354.5793 404.9648,352.9796 412.0251,361.1643 C417.8887,353.4004 426.2135,355.1383 429.6127,363.8025 C439.2023,364.5113 444.8916,369.2644 439.4044,379.4237 C444.6385,388.8702 441.1365,394.29 430.763,395.1728 C430.5246,407.8975 424.1931,412.8921 412.1997,406.7209 C401.293,411.7536 394.1306,410.2676 393.4302,396.5203 C383.7693,395.6856 379.9811,387.594 385.3339,379.5827 C380.2785,371.4557 382.6947,366.0877 391.7902,363.7206" fill="#FEF3C7" style="stroke:#181818;stroke-width:0.5;"/><text fill="#000000" font-family="Monospace" font-size="14" lengthAdjust="spacing" textLength="23.0859" x="398.58" y="384.0539">run</text></g><!--entity tool_sed--><g class="entity" data-qualified-name="tool_sed" data-source-line="36" id="ent0031"><path d="M391.7302,1735.7206 C396.6202,1726.5532 404.9493,1724.9518 412.0281,1733.1643 C417.9081,1725.3701 426.263,1727.1097 429.6787,1735.8025 C439.2683,1736.5113 444.9576,1741.2644 439.4704,1751.4237 C444.7045,1760.8702 441.2025,1766.29 430.829,1767.1728 C430.5707,1779.9283 424.2161,1784.9254 412.2027,1778.7209 C401.2748,1783.782 394.0918,1782.3022 393.3702,1768.5203 C383.7093,1767.6856 379.9211,1759.594 385.2739,1751.5827 C380.2185,1743.4557 382.6347,1738.0877 391.7302,1735.7206" fill="#FEF3C7" style="stroke:#181818;stroke-width:0.5;"/><text fill="#000000" font-family="Monospace" font-size="14" lengthAdjust="spacing" textLength="23.2119" x="398.52" y="1756.0539">sed</text></g><!--entity tool_sshd--><g class="entity" data-qualified-name="tool_sshd" data-source-line="37" id="ent0032"><path d="M389.1192,1567.0846 C391.7804,1562.6992 396.2777,1561.5632 399.4237,1566.5516 C402.635,1559.6031 406.5673,1558.6892 412.1119,1564.1698 C415.2361,1559.4319 420.4563,1560.5975 422.7132,1565.1585 C427.0751,1561.2191 430.9152,1561.9023 433.2358,1567.4279 C443.1534,1570.1987 443.0485,1576.5752 437.5512,1583.4881 C444.3706,1591.3669 441.5301,1596.5664 432.9905,1600.2717 C430.8498,1606.3987 427.3113,1608.2148 421.7684,1603.9434 C420.0024,1608.8027 415.2311,1610.8456 411.2865,1606.3966 C405.4061,1609.9429 401.434,1609.2276 399.0732,1602.2946 C395.1541,1606.831 390.0384,1605.0223 388.4888,1599.7403 C378.774,1597.6187 376.1877,1589.8805 383.538,1582.7781 C377.7933,1575.851 380.2503,1568.8146 389.1192,1567.0846" fill="#FEF3C7" style="stroke:#181818;stroke-width:0.5;"/><text fill="#000000" font-family="Monospace" font-size="14" lengthAdjust="spacing" textLength="30.6739" x="394.79" y="1588.0539">sshd</text></g><!--entity tool_summarize--><g class="entity" data-qualified-name="tool_summarize" data-source-line="38" id="ent0033"><path d="M367.6562,446.5582 C372.8505,438.938 378.0879,440.5117 382.5154,447.3463 C386.1319,440.1952 391.8394,440.4295 395.9202,446.8889 C400.7542,439.4254 405.5209,438.1554 411.7259,445.4173 C415.7867,438.0497 422.8865,438.3157 426.5106,445.8507 C431.0951,438.9913 437.9865,439.2684 441.2024,447.2093 C444.8389,441.3947 451.539,440.8323 454.7017,447.7131 C464.0694,447.7838 468.1794,455.6006 463.0893,463.4012 C469.0339,472.0143 465.3613,478.0168 455.7664,479.6089 C451.9844,487.4605 444.3945,487.3684 439.4762,480.9018 C436.1699,489.0189 430.8883,488.5099 425.6295,482.8665 C422.8374,490.2474 415.9539,489.7345 411.8946,484.2159 C407.0656,489.7927 402.0955,490.7718 397.7581,483.6679 C392.2002,489.3358 385.8788,488.6447 382.7819,480.9165 C378.592,488.6363 372.1019,488.6764 368.2276,480.6253 C357.6676,479.7699 355.7351,470.4676 361.1771,463.1545 C355.8633,455.9706 356.9292,447.4798 367.6562,446.5582" fill="#FEF3C7" style="stroke:#181818;stroke-width:0.5;"/><text fill="#000000" font-family="Monospace" font-size="14" lengthAdjust="spacing" textLength="73.2617" x="373.49" y="468.0539">summarize</text></g><!--entity tool_sysctl--><g class="entity" data-qualified-name="tool_sysctl" data-source-line="39" id="ent0034"><path d="M386.8443,1987.8999 C389.4171,1981.7358 393.2348,1981.6095 397.8117,1985.7714 C401.8385,1978.8494 405.8644,1979.8792 410.7391,1984.8496 C414.772,1980.0372 419.6965,1980.2785 423.1826,1985.5259 C427.4781,1980.2925 432.726,1981.3382 435.5976,1987.1293 C445.2561,1986.9654 451.2961,1993.8597 446.3603,2003.3684 C453.0126,2013.4389 447.8684,2022.0827 435.8306,2020.9762 C431.4606,2026.0734 427.5779,2027.748 423.229,2020.9539 C419.498,2026.2419 415.5393,2027.6182 411.3575,2021.4199 C407.7986,2026.6616 401.4409,2026.7931 398.3266,2020.8996 C394.0837,2027.3195 388.8006,2026.4749 385.177,2020.2552 C375.2379,2017.8544 373.1391,2010.5894 379.2207,2002.7403 C373.9152,1994.2842 377.9482,1989.0605 386.8443,1987.8999" fill="#FEF3C7" style="stroke:#181818;stroke-width:0.5;"/><text fill="#000000" font-family="Monospace" font-size="14" lengthAdjust="spacing" textLength="35.9379" x="392.16" y="2008.0539">sysctl</text></g><!--entity tool_systemctl--><g class="entity" data-qualified-name="tool_systemctl" data-source-line="40" id="ent0035"><path d="M372.2943,782.3534 C375.7348,776.4346 382.2593,775.7528 385.36,782.6983 C389.1016,775.9876 394.1385,775.9109 398.6723,781.8655 C402.7041,775.6184 407.2424,776.111 411.6876,781.399 C415.2315,775.3649 418.8975,775.9477 422.8413,780.9966 C427.8021,774.3373 432.2737,775.2981 436.0866,782.1241 C439.674,776.7637 445.9125,775.856 448.9665,782.6875 C457.6628,785.4202 460.6591,793.6276 454.1798,800.7422 C459.5152,806.5469 457.732,813.3289 450.1504,815.6399 C447.581,824.1785 442.0483,824.8496 435.741,819.525 C433.0789,825.1251 428.9398,825.8727 424.2865,821.9101 C421.4241,828.5331 416.1062,830.5256 411.1594,823.9895 C405.718,829.5597 401.2852,828.2314 398.7895,821.1169 C394.3927,826.4105 388.6729,826.7854 385.7561,819.5744 C380.8375,823.6436 376.418,824.3731 373.8584,817.1 C363.0943,813.9817 362.9523,808.1142 368.8276,800.0782 C362.0474,792.82 362.3347,786.3375 372.2943,782.3534" fill="#FEF3C7" style="stroke:#181818;stroke-width:0.5;"/><text fill="#000000" font-family="Monospace" font-size="14" lengthAdjust="spacing" textLength="61.9778" x="379.14" y="804.0539">systemctl</text></g><!--entity tool_tachometer--><g class="entity" data-qualified-name="tool_tachometer" data-source-line="41" id="ent0036"><path d="M366.4672,530.5407 C369.2407,525.4674 373.796,525.8275 376.5274,530.5838 C380.6084,524.3592 385.9557,525.7847 389.4126,531.2706 C392.7305,525.7844 395.9863,525.3578 399.7278,530.8735 C402.6186,523.9695 407.1721,523.9311 411.9058,528.9988 C415.7208,523.7614 420.1124,525.8605 422.3933,530.6099 C425.5261,525.4805 429.5549,525.266 433.076,530.1974 C436.9174,524.356 441.8207,525.4784 444.8876,531.0023 C447.956,525.2988 452.5969,526.5977 455.5723,531.0997 C463.8008,534.911 464.4821,541.9247 457.3196,547.3871 C465.34,552.3506 464.821,558.0323 457.4884,563.1601 C454.3061,568.562 450.0187,569.3027 446.0912,563.9498 C443.4329,570.6154 438.3721,570.8738 433.858,565.9002 C429.8925,571.2838 426.5746,570.5477 422.8571,565.6352 C420.4491,571.3225 415.1853,571.4648 412.1816,566.2166 C408.7725,570.9532 403.675,571.3701 400.5593,565.8832 C396.5347,569.6621 391.8251,569.9421 389.6926,563.809 C386.693,570.8278 380.5563,570.0666 376.5172,564.9363 C372.9731,569.4139 367.347,569.0496 364.9947,563.5587 C356.1879,562.4097 353.2325,554.1643 358.1087,547.2411 C353.3921,537.8382 354.8116,531.7494 366.4672,530.5407" fill="#FEF3C7" style="stroke:#181818;stroke-width:0.5;"/><text fill="#000000" font-family="Monospace" font-size="14" lengthAdjust="spacing" textLength="76.4677" x="371.89" y="552.0539">tachometer</text></g><!--entity tool_tee--><g class="entity" data-qualified-name="tool_tee" data-source-line="42" id="ent0037"><path d="M393.9912,2154.1566 C398.3374,2146.5258 405.8057,2145.0628 411.2621,2152.9186 C418.6724,2144.8011 424.7835,2146.7489 429.0745,2156.0994 C438.4459,2157.3515 442.5059,2162.2441 437.671,2171.4512 C443.7618,2181.1779 438.0884,2187.602 428.2001,2188.3996 C425.2878,2198.3786 419.5945,2200.7461 411.2103,2193.9374 C402.8924,2201.0531 395.0746,2197.1497 393.0846,2187.2117 C385.272,2182.933 382.84,2178.3108 390.3487,2171.3839 C383.2808,2164.1659 384.1657,2157.8028 393.9912,2154.1566" fill="#FEF3C7" style="stroke:#181818;stroke-width:0.5;"/><text fill="#000000" font-family="Monospace" font-size="14" lengthAdjust="spacing" textLength="20.8459" x="399.7" y="2176.0539">tee</text></g><!--entity tool_tmux--><g class="entity" data-qualified-name="tool_tmux" data-source-line="43" id="ent0038"><path d="M386.6412,279.7032 C388.6585,273.2173 394.6945,272.6968 398.8198,277.4111 C402.6849,270.7951 407.0054,270.6495 411.4274,276.8639 C415.8311,271.3781 419.6755,271.5949 423.1934,277.7586 C427.4337,272.0087 433.2192,272.0529 436.0693,279.1517 C444.0622,283.0133 444.7831,289.5147 438.2601,295.3406 C444.7722,301.4582 443.891,309.2689 435.2417,312.7592 C433.5197,318.9891 428.2685,321.4923 422.9225,316.875 C421.9312,323.124 416.6275,324.2317 412.2789,320.4306 C405.7395,325.9085 400.3308,324.031 398.7836,315.5903 C392.9936,321.4814 388.1973,320.0932 386.0737,312.2078 C375.4535,310.3328 373.9682,304.2157 379.9649,296.056 C374.0482,287.73 377.8406,282.0207 386.6412,279.7032" fill="#FEF3C7" style="stroke:#181818;stroke-width:0.5;"/><text fill="#000000" font-family="Monospace" font-size="14" lengthAdjust="spacing" textLength="34.2019" x="393.02" y="300.0539">tmux</text></g><!--entity tool_ufw--><g class="entity" data-qualified-name="tool_ufw" data-source-line="44" id="ent0039"><path d="M391.4732,1034.7753 C396.3966,1025.2819 405.8756,1024.5461 411.5491,1033.9796 C418.427,1026.1915 424.1734,1026.2202 429.3814,1035.7036 C439.9369,1036.3533 442.1877,1042.9472 437.3715,1051.4145 C442.1493,1060.244 438.7464,1065.2086 429.7399,1067.4972 C424.5268,1077.5522 418.7741,1078.2544 411.0659,1070.0488 C404.3577,1077.7266 395.9869,1078.5455 391.7621,1067.4898 C382.7582,1066.1819 380.0361,1059.2238 386.279,1052.3823 C378.959,1045.1511 382.7246,1037.266 391.4732,1034.7753" fill="#FEF3C7" style="stroke:#181818;stroke-width:0.5;"/><text fill="#000000" font-family="Monospace" font-size="14" lengthAdjust="spacing" textLength="24.4719" x="397.89" y="1056.0539">ufw</text></g><!--entity tool_wg--><g class="entity" data-qualified-name="tool_wg" data-source-line="45" id="ent0040"><path d="M394.2382,2071.102 C398.1197,2060.9957 404.9844,2061.4 411.7451,2068.1033 C419.2265,2061.4146 423.583,2064.2735 427.1898,2072.1983 C435.8052,2075.3511 436.2933,2080.8433 430.9878,2087.4603 C436.9354,2093.6174 436.5572,2101.5145 427.1071,2104.0752 C424.7864,2113.8875 417.5076,2114.8874 410.1512,2109.8096 C402.3385,2115.8978 397.0897,2113.1731 394.6827,2104.2422 C383.9225,2102.9926 382.5103,2097.5466 387.1337,2088.7843 C381.424,2080.7136 382.9707,2072.3515 394.2382,2071.102" fill="#FEF3C7" style="stroke:#181818;stroke-width:0.5;"/><text fill="#000000" font-family="Monospace" font-size="14" lengthAdjust="spacing" textLength="19.6139" x="400.32" y="2092.0539">wg</text></g><!--entity tool_zip--><g class="entity" data-qualified-name="tool_zip" data-source-line="46" id="ent0041"><path d="M395.9092,2239.9777 C399.1616,2231.3353 405.2927,2230.3321 412.0065,2236.1151 C418.4021,2228.6054 425.2745,2231.4732 428.1416,2239.7267 C437.6875,2242.514 437.1732,2248.9771 431.6965,2255.2128 C438.9119,2261.7342 436.7841,2268.2586 428.6812,2272.034 C428.2869,2284.908 419.839,2286.7538 410.25,2281.2612 C402.7612,2285.3274 395.0762,2282.7377 395.0736,2273.0192 C385.5582,2270.6856 382.5674,2263.957 389.8803,2256.3733 C383.181,2248.8233 387.6291,2242.0196 395.9092,2239.9777" fill="#FEF3C7" style="stroke:#181818;stroke-width:0.5;"/><text fill="#000000" font-family="Monospace" font-size="14" lengthAdjust="spacing" textLength="18.8019" x="400.72" y="2260.0539">zip</text></g><g class="entity" data-qualified-name="shellGraphSummary" data-source-line="100" id="ent0094"><path d="M31.23,46.0679 L31.23,109.186 L225.0651,109.186 L225.0651,56.0679 L215.0651,46.0679 L31.23,46.0679" fill="#FEFFDD" style="stroke:#181818;stroke-width:0.5;"/><path d="M215.0651,46.0679 L215.0651,56.0679 L225.0651,56.0679 L215.0651,46.0679" fill="#FEFFDD" style="stroke:#181818;stroke-width:1;"/><text fill="#000000" font-family="Monospace" font-size="13" lengthAdjust="spacing" textLength="148.9671" x="37.23" y="64.9649">Scanned&#160;16&#160;shell&#160;scripts.</text><text fill="#000000" font-family="Monospace" font-size="13" lengthAdjust="spacing" textLength="172.8351" x="37.23" y="82.6709">Detected&#160;2&#160;local&#160;shell&#160;edges.</text><text fill="#000000" font-family="Monospace" font-size="13" lengthAdjust="spacing" textLength="163.8911" x="37.23" y="100.377">Detected&#160;24&#160;external&#160;tools.</text></g><!--link shell_scripts_install_webterm_sh to shell_scripts_install_sh--><g class="link" data-entity-1="ent0010" data-entity-2="ent0007" data-link-type="dependency" data-source-line="47" id="lnk42"><path d="M224.4,1364.9079 C262.37,1364.9079 299.17,1364.9079 334.11,1364.9079" fill="none" id="shell_scripts_install_webterm_sh-to-shell_scripts_install_sh" style="stroke:#181818;stroke-width:1;"/><polygon fill="#181818" points="340.11,1364.9079,331.11,1360.9079,335.11,1364.9079,331.11,1368.9079,340.11,1364.9079" style="stroke:#181818;stroke-width:1;"/><text fill="#000000" font-family="Monospace" font-size="13" lengthAdjust="spacing" textLength="20.241" x="261.25" y="1379.8049">call</text></g><!--link shell_scripts_rebuild_webservices_sh to shell_scripts_install_sh--><g class="link" data-entity-1="ent0012" data-entity-2="ent0007" data-link-type="dependency" data-source-line="48" id="lnk43"><path d="M233.96,1257.4379 C233.96,1300.3379 233.96,1363.4579 233.96,1363.4579 C233.96,1363.4579 284.87,1363.4579 333.99,1363.4579" fill="none" id="shell_scripts_rebuild_webservices_sh-to-shell_scripts_install_sh" style="stroke:#181818;stroke-width:1;"/><polygon fill="#181818" points="339.99,1363.4579,330.99,1359.4579,334.99,1363.4579,330.99,1367.4579,339.99,1363.4579" style="stroke:#181818;stroke-width:1;"/><text fill="#000000" font-family="Monospace" font-size="13" lengthAdjust="spacing" textLength="20.241" x="234.96" y="1378.3549">call</text></g><!--link shell_scripts_configure_firewalld_sh to tool_firewall_cmd--><g class="link" data-entity-1="ent0002" data-entity-2="ent0024" data-link-type="dependency" data-source-line="49" id="lnk44"><path d="M235.15,630.6279 C275.66,630.6279 314.15,630.6279 348.13,630.6279" fill="none" id="shell_scripts_configure_firewalld_sh-to-tool_firewall_cmd" style="stroke:#181818;stroke-width:1;"/><polygon fill="#181818" points="354.13,630.6279,345.13,626.6279,349.13,630.6279,345.13,634.6279,354.13,630.6279" style="stroke:#181818;stroke-width:1;"/></g><!--link shell_scripts_configure_firewalld_sh to tool_systemctl--><g class="link" data-entity-1="ent0002" data-entity-2="ent0035" data-link-type="dependency" data-source-line="50" id="lnk45"><path d="M231.96,683.3679 C231.96,723.7179 231.96,781.0979 231.96,781.0979 C231.96,781.0979 304.99,781.0979 357.78,781.0979" fill="none" id="shell_scripts_configure_firewalld_sh-to-tool_systemctl" style="stroke:#181818;stroke-width:1;"/><polygon fill="#181818" points="363.78,781.0979,354.78,777.0979,358.78,781.0979,354.78,785.0979,363.78,781.0979" style="stroke:#181818;stroke-width:1;"/></g><!--link shell_scripts_configure_ufw_sh to tool_cat--><g class="link" data-entity-1="ent0003" data-entity-2="ent0021" data-link-type="dependency" data-source-line="51" id="lnk46"><path d="M219.23,1678.8879 C253.33,1678.8879 283.96,1678.8879 283.96,1678.8879 C283.96,1678.8879 283.96,1901.1379 283.96,1901.1379 C283.96,1901.1379 342.08,1901.1379 378.9,1901.1379" fill="none" id="shell_scripts_configure_ufw_sh-to-tool_cat" style="stroke:#181818;stroke-width:1;"/><polygon fill="#181818" points="384.9,1901.1379,375.9,1897.1379,379.9,1901.1379,375.9,1905.1379,384.9,1901.1379" style="stroke:#181818;stroke-width:1;"/></g><!--link shell_scripts_configure_ufw_sh to tool_grep--><g class="link" data-entity-1="ent0003" data-entity-2="ent0026" data-link-type="dependency" data-source-line="52" id="lnk47"><path d="M215.96,1613.6479 C215.96,1573.8479 215.96,1517.8779 215.96,1517.8779 C215.96,1517.8779 318.61,1517.8779 373.36,1517.8779" fill="none" id="shell_scripts_configure_ufw_sh-to-tool_grep" style="stroke:#181818;stroke-width:1;"/><polygon fill="#181818" points="379.36,1517.8779,370.36,1513.8779,374.36,1517.8779,370.36,1521.8779,379.36,1517.8779" style="stroke:#181818;stroke-width:1;"/></g><!--link shell_scripts_configure_ufw_sh to tool_sed--><g class="link" data-entity-1="ent0003" data-entity-2="ent0031" data-link-type="dependency" data-source-line="53" id="lnk48"><path d="M219.05,1666.6279 C259.85,1666.6279 298.96,1666.6279 298.96,1666.6279 C298.96,1666.6279 298.96,1750.6279 298.96,1750.6279 C298.96,1750.6279 344.31,1750.6279 377.21,1750.6279" fill="none" id="shell_scripts_configure_ufw_sh-to-tool_sed" style="stroke:#181818;stroke-width:1;"/><polygon fill="#181818" points="383.21,1750.6279,374.21,1746.6279,378.21,1750.6279,374.21,1754.6279,383.21,1750.6279" style="stroke:#181818;stroke-width:1;"/></g><!--link shell_scripts_configure_ufw_sh to tool_ufw--><g class="link" data-entity-1="ent0003" data-entity-2="ent0039" data-link-type="dependency" data-source-line="54" id="lnk49"><path d="M219.21,1628.0579 C232.03,1628.0579 240.96,1628.0579 240.96,1628.0579 C240.96,1628.0579 240.96,1050.6279 240.96,1050.6279 C240.96,1050.6279 328.63,1050.6279 376.57,1050.6279" fill="none" id="shell_scripts_configure_ufw_sh-to-tool_ufw" style="stroke:#181818;stroke-width:1;"/><polygon fill="#181818" points="382.57,1050.6279,373.57,1046.6279,377.57,1050.6279,373.57,1054.6279,382.57,1050.6279" style="stroke:#181818;stroke-width:1;"/></g><!--link shell_scripts_enable_ip_forwarding_sh to tool_cat--><g class="link" data-entity-1="ent0004" data-entity-2="ent0021" data-link-type="dependency" data-source-line="55" id="lnk50"><path d="M235.96,1949.6479 C235.96,1938.4379 235.96,1929.1879 235.96,1929.1879 C235.96,1929.1879 331.01,1929.1879 379.17,1929.1879" fill="none" id="shell_scripts_enable_ip_forwarding_sh-to-tool_cat" style="stroke:#181818;stroke-width:1;"/><polygon fill="#181818" points="385.17,1929.1879,376.17,1925.1879,380.17,1929.1879,376.17,1933.1879,385.17,1929.1879" style="stroke:#181818;stroke-width:1;"/></g><!--link shell_scripts_enable_ip_forwarding_sh to tool_sysctl--><g class="link" data-entity-1="ent0004" data-entity-2="ent0034" data-link-type="dependency" data-source-line="56" id="lnk51"><path d="M243.24,2002.6279 C291.52,2002.6279 337.99,2002.6279 370.95,2002.6279" fill="none" id="shell_scripts_enable_ip_forwarding_sh-to-tool_sysctl" style="stroke:#181818;stroke-width:1;"/><polygon fill="#181818" points="376.95,2002.6279,367.95,1998.6279,371.95,2002.6279,367.95,2006.6279,376.95,2002.6279" style="stroke:#181818;stroke-width:1;"/></g><!--link shell_scripts_generate_keys_sh to tool_mkdir--><g class="link" data-entity-1="ent0005" data-entity-2="ent0027" data-link-type="dependency" data-source-line="57" id="lnk52"><path d="M219.66,2078.4479 C248.96,2078.4479 273.96,2078.4479 273.96,2078.4479 C273.96,2078.4479 273.96,1848.5879 273.96,1848.5879 C273.96,1848.5879 329.07,1848.5879 369.41,1848.5879" fill="none" id="shell_scripts_generate_keys_sh-to-tool_mkdir" style="stroke:#181818;stroke-width:1;"/><polygon fill="#181818" points="375.41,1848.5879,366.41,1844.5879,370.41,1848.5879,366.41,1852.5879,375.41,1848.5879" style="stroke:#181818;stroke-width:1;"/></g><!--link shell_scripts_generate_keys_sh to tool_tee--><g class="link" data-entity-1="ent0005" data-entity-2="ent0037" data-link-type="dependency" data-source-line="58" id="lnk53"><path d="M219.64,2125.1879 C301.93,2125.1879 409.96,2125.1879 409.96,2125.1879 C409.96,2125.1879 409.96,2129.1779 409.96,2139.7779" fill="none" id="shell_scripts_generate_keys_sh-to-tool_tee" style="stroke:#181818;stroke-width:1;"/><polygon fill="#181818" points="409.96,2145.7779,413.96,2136.7779,409.96,2140.7779,405.96,2136.7779,409.96,2145.7779" style="stroke:#181818;stroke-width:1;"/></g><!--link shell_scripts_generate_keys_sh to tool_wg--><g class="link" data-entity-1="ent0005" data-entity-2="ent0040" data-link-type="dependency" data-source-line="59" id="lnk54"><path d="M219.7,2094.7979 C277.59,2094.7979 342.21,2094.7979 379.05,2094.7979" fill="none" id="shell_scripts_generate_keys_sh-to-tool_wg" style="stroke:#181818;stroke-width:1;"/><polygon fill="#181818" points="385.05,2094.7979,376.05,2090.7979,380.05,2094.7979,376.05,2098.7979,385.05,2094.7979" style="stroke:#181818;stroke-width:1;"/></g><!--link shell_scripts_harden_ssh_sh to tool_cp--><g class="link" data-entity-1="ent0006" data-entity-2="ent0022" data-link-type="dependency" data-source-line="60" id="lnk55"><path d="M210.2,1573.9379 C220.19,1573.9379 226.96,1573.9379 226.96,1573.9379 C226.96,1573.9379 226.96,1660.4879 226.96,1660.4879 C226.96,1660.4879 332.2,1660.4879 381.3,1660.4879" fill="none" id="shell_scripts_harden_ssh_sh-to-tool_cp" style="stroke:#181818;stroke-width:1;"/><polygon fill="#181818" points="387.3,1660.4879,378.3,1656.4879,382.3,1660.4879,378.3,1664.4879,387.3,1660.4879" style="stroke:#181818;stroke-width:1;"/></g><!--link shell_scripts_harden_ssh_sh to tool_grep--><g class="link" data-entity-1="ent0006" data-entity-2="ent0026" data-link-type="dependency" data-source-line="61" id="lnk56"><path d="M210.08,1512.5879 C266.83,1512.5879 333.16,1512.5879 373.47,1512.5879" fill="none" id="shell_scripts_harden_ssh_sh-to-tool_grep" style="stroke:#181818;stroke-width:1;"/><polygon fill="#181818" points="379.47,1512.5879,370.47,1508.5879,374.47,1512.5879,370.47,1516.5879,379.47,1512.5879" style="stroke:#181818;stroke-width:1;"/></g><!--link shell_scripts_harden_ssh_sh to tool_mkdir--><g class="link" data-entity-1="ent0006" data-entity-2="ent0027" data-link-type="dependency" data-source-line="62" id="lnk57"><path d="M209.97,1568.6579 C249.69,1568.6579 288.96,1568.6579 288.96,1568.6579 C288.96,1568.6579 288.96,1826.8479 288.96,1826.8479 C288.96,1826.8479 333.6,1826.8479 369.4,1826.8479" fill="none" id="shell_scripts_harden_ssh_sh-to-tool_mkdir" style="stroke:#181818;stroke-width:1;"/><polygon fill="#181818" points="375.4,1826.8479,366.4,1822.8479,370.4,1826.8479,366.4,1830.8479,375.4,1826.8479" style="stroke:#181818;stroke-width:1;"/></g><!--link shell_scripts_harden_ssh_sh to tool_sshd--><g class="link" data-entity-1="ent0006" data-entity-2="ent0032" data-link-type="dependency" data-source-line="63" id="lnk58"><path d="M210.08,1563.3779 C266.83,1563.3779 333.16,1563.3779 373.47,1563.3779" fill="none" id="shell_scripts_harden_ssh_sh-to-tool_sshd" style="stroke:#181818;stroke-width:1;"/><polygon fill="#181818" points="379.47,1563.3779,370.47,1559.3779,374.47,1563.3779,370.47,1567.3779,379.47,1563.3779" style="stroke:#181818;stroke-width:1;"/></g><!--link shell_scripts_harden_ssh_sh to tool_systemctl--><g class="link" data-entity-1="ent0006" data-entity-2="ent0035" data-link-type="dependency" data-source-line="64" id="lnk59"><path d="M209.89,1507.3079 C238.65,1507.3079 263.96,1507.3079 263.96,1507.3079 C263.96,1507.3079 263.96,816.1479 263.96,816.1479 C263.96,816.1479 315.05,816.1479 357.88,816.1479" fill="none" id="shell_scripts_harden_ssh_sh-to-tool_systemctl" style="stroke:#181818;stroke-width:1;"/><polygon fill="#181818" points="363.88,816.1479,354.88,812.1479,358.88,816.1479,354.88,820.1479,363.88,816.1479" style="stroke:#181818;stroke-width:1;"/></g><!--link shell_scripts_install_fedora_sh to tool_firewalld--><g class="link" data-entity-1="ent0008" data-entity-2="ent0025" data-link-type="dependency" data-source-line="65" id="lnk60"><path d="M216.54,760.0579 C299.19,760.0579 409.96,760.0579 409.96,760.0579 C409.96,760.0579 409.96,756.0779 409.96,745.4679" fill="none" id="shell_scripts_install_fedora_sh-to-tool_firewalld" style="stroke:#181818;stroke-width:1;"/><polygon fill="#181818" points="409.96,739.4679,405.96,748.4679,409.96,744.4679,413.96,748.4679,409.96,739.4679" style="stroke:#181818;stroke-width:1;"/></g><!--link shell_scripts_install_fedora_sh to tool_systemctl--><g class="link" data-entity-1="ent0008" data-entity-2="ent0035" data-link-type="dependency" data-source-line="66" id="lnk61"><path d="M216.59,788.1079 C265.37,788.1079 317.94,788.1079 357.78,788.1079" fill="none" id="shell_scripts_install_fedora_sh-to-tool_systemctl" style="stroke:#181818;stroke-width:1;"/><polygon fill="#181818" points="363.78,788.1079,354.78,784.1079,358.78,788.1079,354.78,792.1079,363.78,788.1079" style="stroke:#181818;stroke-width:1;"/></g><!--link shell_scripts_install_ubuntu_sh to tool_apt_get--><g class="link" data-entity-1="ent0009" data-entity-2="ent0019" data-link-type="dependency" data-source-line="67" id="lnk62"><path d="M218.92,954.3579 C270.28,954.3579 325.86,954.3579 364.99,954.3579" fill="none" id="shell_scripts_install_ubuntu_sh-to-tool_apt_get" style="stroke:#181818;stroke-width:1;"/><polygon fill="#181818" points="370.99,954.3579,361.99,950.3579,365.99,954.3579,361.99,958.3579,370.99,954.3579" style="stroke:#181818;stroke-width:1;"/></g><!--link shell_scripts_install_ubuntu_sh to tool_systemctl--><g class="link" data-entity-1="ent0009" data-entity-2="ent0035" data-link-type="dependency" data-source-line="68" id="lnk63"><path d="M219.02,935.0579 C220.27,935.0579 220.96,935.0579 220.96,935.0579 C220.96,935.0579 220.96,795.1179 220.96,795.1179 C220.96,795.1179 301.85,795.1179 357.85,795.1179" fill="none" id="shell_scripts_install_ubuntu_sh-to-tool_systemctl" style="stroke:#181818;stroke-width:1;"/><polygon fill="#181818" points="363.85,795.1179,354.85,791.1179,358.85,795.1179,354.85,799.1179,363.85,795.1179" style="stroke:#181818;stroke-width:1;"/></g><!--link shell_scripts_install_ubuntu_sh to tool_ufw--><g class="link" data-entity-1="ent0009" data-entity-2="ent0039" data-link-type="dependency" data-source-line="69" id="lnk64"><path d="M218.86,998.1879 C301.25,998.1879 409.96,998.1879 409.96,998.1879 C409.96,998.1879 409.96,1006.1279 409.96,1019.6379" fill="none" id="shell_scripts_install_ubuntu_sh-to-tool_ufw" style="stroke:#181818;stroke-width:1;"/><polygon fill="#181818" points="409.96,1025.6379,413.96,1016.6379,409.96,1020.6379,405.96,1016.6379,409.96,1025.6379" style="stroke:#181818;stroke-width:1;"/></g><!--link shell_scripts_install_webterm_sh to tool_apt_get--><g class="link" data-entity-1="ent0010" data-entity-2="ent0019" data-link-type="dependency" data-source-line="70" id="lnk65"><path d="M224.4,1303.7379 C249.16,1303.7379 268.96,1303.7379 268.96,1303.7379 C268.96,1303.7379 268.96,978.8879 268.96,978.8879 C268.96,978.8879 323.39,978.8879 365.18,978.8879" fill="none" id="shell_scripts_install_webterm_sh-to-tool_apt_get" style="stroke:#181818;stroke-width:1;"/><polygon fill="#181818" points="371.18,978.8879,362.18,974.8879,366.18,978.8879,362.18,982.8879,371.18,978.8879" style="stroke:#181818;stroke-width:1;"/></g><!--link shell_scripts_install_webterm_sh to tool_caddy--><g class="link" data-entity-1="ent0010" data-entity-2="ent0020" data-link-type="dependency" data-source-line="71" id="lnk66"><path d="M224.42,1315.4479 C295.51,1315.4479 379.96,1315.4479 379.96,1315.4479 C379.96,1315.4479 379.96,1278.2479 379.96,1249.5579" fill="none" id="shell_scripts_install_webterm_sh-to-tool_caddy" style="stroke:#181818;stroke-width:1;"/><polygon fill="#181818" points="379.96,1243.5579,375.96,1252.5579,379.96,1248.5579,383.96,1252.5579,379.96,1243.5579" style="stroke:#181818;stroke-width:1;"/></g><!--link shell_scripts_install_webterm_sh to tool_cp--><g class="link" data-entity-1="ent0010" data-entity-2="ent0022" data-link-type="dependency" data-source-line="72" id="lnk67"><path d="M224.54,1367.7879 C265.49,1367.7879 303.96,1367.7879 303.96,1367.7879 C303.96,1367.7879 303.96,1648.2279 303.96,1648.2279 C303.96,1648.2279 349.86,1648.2279 381.09,1648.2279" fill="none" id="shell_scripts_install_webterm_sh-to-tool_cp" style="stroke:#181818;stroke-width:1;"/><polygon fill="#181818" points="387.09,1648.2279,378.09,1644.2279,382.09,1648.2279,378.09,1652.2279,387.09,1648.2279" style="stroke:#181818;stroke-width:1;"/></g><!--link shell_scripts_install_webterm_sh to tool_dnf--><g class="link" data-entity-1="ent0010" data-entity-2="ent0023" data-link-type="dependency" data-source-line="73" id="lnk68"><path d="M224.4,1321.2979 C280.72,1321.2979 341.66,1321.2979 377.81,1321.2979" fill="none" id="shell_scripts_install_webterm_sh-to-tool_dnf" style="stroke:#181818;stroke-width:1;"/><polygon fill="#181818" points="383.81,1321.2979,374.81,1317.2979,378.81,1321.2979,374.81,1325.2979,383.81,1321.2979" style="stroke:#181818;stroke-width:1;"/></g><!--link shell_scripts_install_webterm_sh to tool_grep--><g class="link" data-entity-1="ent0010" data-entity-2="ent0026" data-link-type="dependency" data-source-line="74" id="lnk69"><path d="M212.96,1369.4479 C212.96,1417.3979 212.96,1492.7079 212.96,1492.7079 C212.96,1492.7079 317.86,1492.7079 373.32,1492.7079" fill="none" id="shell_scripts_install_webterm_sh-to-tool_grep" style="stroke:#181818;stroke-width:1;"/><polygon fill="#181818" points="379.32,1492.7079,370.32,1488.7079,374.32,1492.7079,370.32,1496.7079,379.32,1492.7079" style="stroke:#181818;stroke-width:1;"/></g><!--link shell_scripts_install_webterm_sh to tool_mkdir--><g class="link" data-entity-1="ent0010" data-entity-2="ent0027" data-link-type="dependency" data-source-line="75" id="lnk70"><path d="M224.49,1366.3479 C271.04,1366.3479 316.96,1366.3479 316.96,1366.3479 C316.96,1366.3479 316.96,1815.6779 316.96,1815.6779 C316.96,1815.6779 342.94,1815.6779 369.43,1815.6779" fill="none" id="shell_scripts_install_webterm_sh-to-tool_mkdir" style="stroke:#181818;stroke-width:1;"/><polygon fill="#181818" points="375.43,1815.6779,366.43,1811.6779,370.43,1815.6779,366.43,1819.6779,375.43,1815.6779" style="stroke:#181818;stroke-width:1;"/></g><!--link shell_scripts_install_webterm_sh to tool_render_webterm_index_sh--><g class="link" data-entity-1="ent0010" data-entity-2="ent0029" data-link-type="dependency" data-source-line="76" id="lnk71"><path d="M224.55,1309.5879 C277.68,1309.5879 332.96,1309.5879 332.96,1309.5879 C332.96,1309.5879 332.96,1213.5479 332.96,1165.3179" fill="none" id="shell_scripts_install_webterm_sh-to-tool_render_webterm_index_sh" style="stroke:#181818;stroke-width:1;"/><polygon fill="#181818" points="332.96,1159.3179,328.96,1168.3179,332.96,1164.3179,336.96,1168.3179,332.96,1159.3179" style="stroke:#181818;stroke-width:1;"/></g><!--link shell_scripts_install_webterm_sh to tool_systemctl--><g class="link" data-entity-1="ent0010" data-entity-2="ent0035" data-link-type="dependency" data-source-line="77" id="lnk72"><path d="M224.59,1297.8779 C244.2,1297.8779 258.96,1297.8779 258.96,1297.8779 C258.96,1297.8779 258.96,809.1379 258.96,809.1379 C258.96,809.1379 313.49,809.1379 357.95,809.1379" fill="none" id="shell_scripts_install_webterm_sh-to-tool_systemctl" style="stroke:#181818;stroke-width:1;"/><polygon fill="#181818" points="363.95,809.1379,354.95,805.1379,358.95,809.1379,354.95,813.1379,363.95,809.1379" style="stroke:#181818;stroke-width:1;"/></g><!--link shell_scripts_package_client_sh to tool_cp--><g class="link" data-entity-1="ent0011" data-entity-2="ent0022" data-link-type="dependency" data-source-line="78" id="lnk73"><path d="M220.57,2211.3779 C239.59,2211.3779 253.96,2211.3779 253.96,2211.3779 C253.96,2211.3779 253.96,1685.0279 253.96,1685.0279 C253.96,1685.0279 337.64,1685.0279 381.08,1685.0279" fill="none" id="shell_scripts_package_client_sh-to-tool_cp" style="stroke:#181818;stroke-width:1;"/><polygon fill="#181818" points="387.08,1685.0279,378.08,1681.0279,382.08,1685.0279,378.08,1689.0279,387.08,1685.0279" style="stroke:#181818;stroke-width:1;"/></g><!--link shell_scripts_package_client_sh to tool_mkdir--><g class="link" data-entity-1="ent0011" data-entity-2="ent0027" data-link-type="dependency" data-source-line="79" id="lnk74"><path d="M220.65,2220.7379 C251.87,2220.7379 278.96,2220.7379 278.96,2220.7379 C278.96,2220.7379 278.96,1853.8779 278.96,1853.8779 C278.96,1853.8779 330.8,1853.8779 369.66,1853.8779" fill="none" id="shell_scripts_package_client_sh-to-tool_mkdir" style="stroke:#181818;stroke-width:1;"/><polygon fill="#181818" points="375.66,1853.8779,366.66,1849.8779,370.66,1853.8779,366.66,1857.8779,375.66,1853.8779" style="stroke:#181818;stroke-width:1;"/></g><!--link shell_scripts_package_client_sh to tool_qrencode--><g class="link" data-entity-1="ent0011" data-entity-2="ent0028" data-link-type="dependency" data-source-line="80" id="lnk75"><path d="M220.6,2262.7979 C288.86,2262.7979 369.96,2262.7979 369.96,2262.7979 C369.96,2262.7979 369.96,2285.6879 369.96,2307.7979" fill="none" id="shell_scripts_package_client_sh-to-tool_qrencode" style="stroke:#181818;stroke-width:1;"/><polygon fill="#181818" points="369.96,2313.7979,373.96,2304.7979,369.96,2308.7979,365.96,2304.7979,369.96,2313.7979" style="stroke:#181818;stroke-width:1;"/></g><!--link shell_scripts_package_client_sh to tool_zip--><g class="link" data-entity-1="ent0011" data-entity-2="ent0041" data-link-type="dependency" data-source-line="81" id="lnk76"><path d="M220.48,2246.4479 C278.46,2246.4479 342.96,2246.4479 379.5,2246.4479" fill="none" id="shell_scripts_package_client_sh-to-tool_zip" style="stroke:#181818;stroke-width:1;"/><polygon fill="#181818" points="385.5,2246.4479,376.5,2242.4479,380.5,2246.4479,376.5,2250.4479,385.5,2246.4479" style="stroke:#181818;stroke-width:1;"/></g><!--link shell_scripts_rebuild_webservices_sh to tool_all_services_ttyd--><g class="link" data-entity-1="ent0012" data-entity-2="ent0018" data-link-type="dependency" data-source-line="82" id="lnk77"><path d="M226.96,1179.7479 C226.96,1091.3079 226.96,882.6279 226.96,882.6279 C226.96,882.6279 271.9,882.6279 320.05,882.6279" fill="none" id="shell_scripts_rebuild_webservices_sh-to-tool_all_services_ttyd" style="stroke:#181818;stroke-width:1;"/><polygon fill="#181818" points="326.05,882.6279,317.05,878.6279,321.05,882.6279,317.05,886.6279,326.05,882.6279" style="stroke:#181818;stroke-width:1;"/></g><!--link shell_scripts_rebuild_webservices_sh to tool_apt_get--><g class="link" data-entity-1="ent0012" data-entity-2="ent0019" data-link-type="dependency" data-source-line="83" id="lnk78"><path d="M229.96,1179.5279 C229.96,1108.7479 229.96,966.6279 229.96,966.6279 C229.96,966.6279 312.04,966.6279 365.03,966.6279" fill="none" id="shell_scripts_rebuild_webservices_sh-to-tool_apt_get" style="stroke:#181818;stroke-width:1;"/><polygon fill="#181818" points="371.03,966.6279,362.03,962.6279,366.03,966.6279,362.03,970.6279,371.03,966.6279" style="stroke:#181818;stroke-width:1;"/></g><!--link shell_scripts_rebuild_webservices_sh to tool_caddy--><g class="link" data-entity-1="ent0012" data-entity-2="ent0020" data-link-type="dependency" data-source-line="84" id="lnk79"><path d="M238.78,1218.6279 C287.54,1218.6279 335.38,1218.6279 369.46,1218.6279" fill="none" id="shell_scripts_rebuild_webservices_sh-to-tool_caddy" style="stroke:#181818;stroke-width:1;"/><polygon fill="#181818" points="375.46,1218.6279,366.46,1214.6279,370.46,1218.6279,366.46,1222.6279,375.46,1218.6279" style="stroke:#181818;stroke-width:1;"/></g><!--link shell_scripts_rebuild_webservices_sh to tool_cp--><g class="link" data-entity-1="ent0012" data-entity-2="ent0022" data-link-type="dependency" data-source-line="85" id="lnk80"><path d="M228.96,1257.6779 C228.96,1364.6279 228.96,1654.3579 228.96,1654.3579 C228.96,1654.3579 332.43,1654.3579 381.18,1654.3579" fill="none" id="shell_scripts_rebuild_webservices_sh-to-tool_cp" style="stroke:#181818;stroke-width:1;"/><polygon fill="#181818" points="387.18,1654.3579,378.18,1650.3579,382.18,1654.3579,378.18,1658.3579,387.18,1654.3579" style="stroke:#181818;stroke-width:1;"/></g><!--link shell_scripts_rebuild_webservices_sh to tool_dnf--><g class="link" data-entity-1="ent0012" data-entity-2="ent0023" data-link-type="dependency" data-source-line="86" id="lnk81"><path d="M235.96,1257.6479 C235.96,1272.1079 235.96,1285.0579 235.96,1285.0579 C235.96,1285.0579 328.95,1285.0579 377.67,1285.0579" fill="none" id="shell_scripts_rebuild_webservices_sh-to-tool_dnf" style="stroke:#181818;stroke-width:1;"/><polygon fill="#181818" points="383.67,1285.0579,374.67,1281.0579,378.67,1285.0579,374.67,1289.0579,383.67,1285.0579" style="stroke:#181818;stroke-width:1;"/></g><!--link shell_scripts_rebuild_webservices_sh to tool_grep--><g class="link" data-entity-1="ent0012" data-entity-2="ent0026" data-link-type="dependency" data-source-line="87" id="lnk82"><path d="M230.96,1257.6879 C230.96,1331.3479 230.96,1483.3979 230.96,1483.3979 C230.96,1483.3979 322.1,1483.3979 373.33,1483.3979" fill="none" id="shell_scripts_rebuild_webservices_sh-to-tool_grep" style="stroke:#181818;stroke-width:1;"/><polygon fill="#181818" points="379.33,1483.3979,370.33,1479.3979,374.33,1483.3979,370.33,1487.3979,379.33,1483.3979" style="stroke:#181818;stroke-width:1;"/></g><!--link shell_scripts_rebuild_webservices_sh to tool_mkdir--><g class="link" data-entity-1="ent0012" data-entity-2="ent0027" data-link-type="dependency" data-source-line="88" id="lnk83"><path d="M238.75,1250.1879 C269.16,1250.1879 293.96,1250.1879 293.96,1250.1879 C293.96,1250.1879 293.96,1821.2579 293.96,1821.2579 C293.96,1821.2579 335.34,1821.2579 369.59,1821.2579" fill="none" id="shell_scripts_rebuild_webservices_sh-to-tool_mkdir" style="stroke:#181818;stroke-width:1;"/><polygon fill="#181818" points="375.59,1821.2579,366.59,1817.2579,370.59,1821.2579,366.59,1825.2579,375.59,1821.2579" style="stroke:#181818;stroke-width:1;"/></g><!--link shell_scripts_rebuild_webservices_sh to tool_render_webterm_index_sh--><g class="link" data-entity-1="ent0012" data-entity-2="ent0029" data-link-type="dependency" data-source-line="89" id="lnk84"><path d="M238.63,1187.0579 C283.5,1187.0579 324.96,1187.0579 324.96,1187.0579 C324.96,1187.0579 324.96,1179.1179 324.96,1165.6079" fill="none" id="shell_scripts_rebuild_webservices_sh-to-tool_render_webterm_index_sh" style="stroke:#181818;stroke-width:1;"/><polygon fill="#181818" points="324.96,1159.6079,320.96,1168.6079,324.96,1164.6079,328.96,1168.6079,324.96,1159.6079" style="stroke:#181818;stroke-width:1;"/></g><!--link shell_scripts_rebuild_webservices_sh to tool_systemctl--><g class="link" data-entity-1="ent0012" data-entity-2="ent0035" data-link-type="dependency" data-source-line="90" id="lnk85"><path d="M223.96,1179.8179 C223.96,1076.4179 223.96,802.1279 223.96,802.1279 C223.96,802.1279 302.98,802.1279 358.11,802.1279" fill="none" id="shell_scripts_rebuild_webservices_sh-to-tool_systemctl" style="stroke:#181818;stroke-width:1;"/><polygon fill="#181818" points="364.11,802.1279,355.11,798.1279,359.11,802.1279,355.11,806.1279,364.11,802.1279" style="stroke:#181818;stroke-width:1;"/></g><!--link shell_scripts_render_configs_sh to tool_cat--><g class="link" data-entity-1="ent0013" data-entity-2="ent0021" data-link-type="dependency" data-source-line="91" id="lnk86"><path d="M221.26,1908.1779 C278.85,1908.1779 342.53,1908.1779 379.04,1908.1779" fill="none" id="shell_scripts_render_configs_sh-to-tool_cat" style="stroke:#181818;stroke-width:1;"/><polygon fill="#181818" points="385.04,1908.1779,376.04,1904.1779,380.04,1908.1779,376.04,1912.1779,385.04,1908.1779" style="stroke:#181818;stroke-width:1;"/></g><!--link shell_scripts_render_configs_sh to tool_mkdir--><g class="link" data-entity-1="ent0013" data-entity-2="ent0027" data-link-type="dependency" data-source-line="92" id="lnk87"><path d="M221.26,1843.3079 C274.2,1843.3079 331.35,1843.3079 369.56,1843.3079" fill="none" id="shell_scripts_render_configs_sh-to-tool_mkdir" style="stroke:#181818;stroke-width:1;"/><polygon fill="#181818" points="375.56,1843.3079,366.56,1839.3079,370.56,1843.3079,366.56,1847.3079,375.56,1843.3079" style="stroke:#181818;stroke-width:1;"/></g><!--link shell_scripts_render_webterm_index_sh to tool_cp--><g class="link" data-entity-1="ent0014" data-entity-2="ent0022" data-link-type="dependency" data-source-line="93" id="lnk88"><path d="M242.96,1725.6679 C242.96,1700.6279 242.96,1672.7579 242.96,1672.7579 C242.96,1672.7579 335.45,1672.7579 381.23,1672.7579" fill="none" id="shell_scripts_render_webterm_index_sh-to-tool_cp" style="stroke:#181818;stroke-width:1;"/><polygon fill="#181818" points="387.23,1672.7579,378.23,1668.7579,382.23,1672.7579,378.23,1676.7579,387.23,1672.7579" style="stroke:#181818;stroke-width:1;"/></g><!--link shell_scripts_render_webterm_index_sh to tool_mkdir--><g class="link" data-entity-1="ent0014" data-entity-2="ent0027" data-link-type="dependency" data-source-line="94" id="lnk89"><path d="M227.96,1803.6779 C227.96,1818.7479 227.96,1832.4379 227.96,1832.4379 C227.96,1832.4379 316.58,1832.4379 369.43,1832.4379" fill="none" id="shell_scripts_render_webterm_index_sh-to-tool_mkdir" style="stroke:#181818;stroke-width:1;"/><polygon fill="#181818" points="375.43,1832.4379,366.43,1828.4379,370.43,1832.4379,366.43,1836.4379,375.43,1832.4379" style="stroke:#181818;stroke-width:1;"/></g><!--link shell_scripts_run_tachometer_profile_sh to tool_run--><g class="link" data-entity-1="ent0015" data-entity-2="ent0030" data-link-type="dependency" data-source-line="95" id="lnk90"><path d="M249.7,431.0579 C325.98,431.0579 409.96,431.0579 409.96,431.0579 C409.96,431.0579 409.96,423.1179 409.96,409.6079" fill="none" id="shell_scripts_run_tachometer_profile_sh-to-tool_run" style="stroke:#181818;stroke-width:1;"/><polygon fill="#181818" points="409.96,403.6079,405.96,412.6079,409.96,408.6079,413.96,412.6079,409.96,403.6079" style="stroke:#181818;stroke-width:1;"/></g><!--link shell_scripts_run_tachometer_profile_sh to tool_summarize--><g class="link" data-entity-1="ent0015" data-entity-2="ent0033" data-link-type="dependency" data-source-line="96" id="lnk91"><path d="M249.78,462.6279 C287.79,462.6279 321.71,462.6279 352.21,462.6279" fill="none" id="shell_scripts_run_tachometer_profile_sh-to-tool_summarize" style="stroke:#181818;stroke-width:1;"/><polygon fill="#181818" points="358.21,462.6279,349.21,458.6279,353.21,462.6279,349.21,466.6279,358.21,462.6279" style="stroke:#181818;stroke-width:1;"/></g><!--link shell_scripts_run_tachometer_profile_sh to tool_tachometer--><g class="link" data-entity-1="ent0015" data-entity-2="ent0036" data-link-type="dependency" data-source-line="97" id="lnk92"><path d="M245.96,501.6779 C245.96,523.6079 245.96,546.6279 245.96,546.6279 C245.96,546.6279 302.89,546.6279 350.82,546.6279" fill="none" id="shell_scripts_run_tachometer_profile_sh-to-tool_tachometer" style="stroke:#181818;stroke-width:1;"/><polygon fill="#181818" points="356.82,546.6279,347.82,542.6279,351.82,546.6279,347.82,550.6279,356.82,546.6279" style="stroke:#181818;stroke-width:1;"/></g><!--link shell_scripts_ttyd_session_sh to tool_tmux--><g class="link" data-entity-1="ent0016" data-entity-2="ent0038" data-link-type="dependency" data-source-line="98" id="lnk93"><path d="M212.75,294.6279 C268.23,294.6279 331.66,294.6279 371.64,294.6279" fill="none" id="shell_scripts_ttyd_session_sh-to-tool_tmux" style="stroke:#181818;stroke-width:1;"/><polygon fill="#181818" points="377.64,294.6279,368.64,290.6279,372.64,294.6279,368.64,298.6279,377.64,294.6279" style="stroke:#181818;stroke-width:1;"/></g><?plantuml-src hLXDZzis4BthLn2RIu72sspIRw05qiGk2gGzr41F2mYqD9A8fKYLfE9rVdr6MbkY9LAawXv7y-QzeJaS3csOuK0QPZO7-Kps5N1EzfbYZI4xBey9Xy8G8ubYPML8pXHaXacHw2Sc6gfeJNH5StbaeYG5vHeiJmu5RRdPIM7-eZMGFwMGkg6PZSbatKW1mkpD2HFfwAaekGtXJ80vDK2aCfLC1WYvqtsY-fjCYeALhOAqm0IFbFFyNbUFuZNXCgCSK-oM1Na9-b6y8V1iG0dyRgJa-evG_O98ptofWo_L5NdruRVjkzrsEOEsEFgrlrsZZKm1LH3qm25bJLf8TQGgnrsuQU4kma0E9GXGr43w12Vj5tyR5hzY2gXMc1k8LElAB_bTM7Aa2UWneGsMWL_iTLZip16db1QGIqLlsirhgaZTzj0AqzwqaTTKaRf7E21jtGi_p8GVnO_nkcUgW30seYTQGffnXktdfZDxJHNGLN1e6JOKp5A3-iGoqDv5_nJMTj054n0vg7EZqJTLs3LLdEvbTnXQp_-7-XLXA8TMf8PcbQm1Oz96oO9nkAdQtPI1F8mvuPK2MkDTwbT_k5PtYDiy0SbFbBCSs-jDFUn2OcjbNBOvkNltyMEwt_xzpn_lj_klV_cgowmdwAZIlkzTohDpaLUxxUxj-nykqRGncnAC5T4Ol17C59VHF3-DgDwSOuoDc7CqbhkPUdDHZ6uqflxBIB39Qck1bwyfVlL5EE0pRAd0ogwpfeZw2QUm4TARKyo_U3GocSC8ktoP8Zs7SWpq7h89Jokic5PC_HgirQCny-lA1g0rGxHrJHNxR2rg-3J3ddHck0NiRGVAG3q5ldoQOiSJFeB7RpCqM5cYCVFNxRC5G6kAmE5l1A0nzH_BqNqifzxFp2eYD0P_yCBSR7xrZoq_4-mPF8cwWDOJUQRkZcXsn5Q63jkQ18Rj8GBRHZIsEwNHOApzQ2pQITo0lf1tCEJbS2I1ONo0zmqd6et57uqzbidIU3wkiOd3EVR5WtIjoGFjMbCaqbDqyx5yLk9vV4X8PHp2Xv3prHeVy1yqvgNhQJOH6RaY-ej_3RvP0SPRVmNQKMPBS5UjBU4z5_0A1j_spPyj_fzh0UjQq0ByCed4H-055d_dkCVDjV7EUWn5kMeo6BDsQVFQ34KuwZCKujhIK4nSdOPOVBKwVsakN7aBOFVAt2FkqYO58fmoteVY-1ksOdtGC0Ml3ntToVAxSep0MJKHqi3mDlnTqQRQzpcSadr6XS3f_k7xyzFoJ7YVV42LpA3hpVpfQNkdVxVS9_XRaqxn2m00?></g></svg>
