<?plantuml 1.2026.2?><svg xmlns="http://www.w3.org/2000/svg" xmlns:xlink="http://www.w3.org/1999/xlink" contentStyleType="text/css" data-diagram-type="DESCRIPTION" height="1579px" preserveAspectRatio="none" style="width:497px;height:1579px;background:#FFFFFF;" version="1.1" viewBox="0 0 497 1579" width="497px" zoomAndPan="magnify"><title>pit-box Shell Script Flow</title><defs/><g><g class="title" data-source-line="1"><text fill="#000000" font-family="Monospace" font-size="14" font-weight="bold" lengthAdjust="spacing" textLength="166.0884" x="158.8084" y="24.9659">pit-box&#160;Shell&#160;Script&#160;Flow</text></g><!--entity shell_scripts_configure_firewalld_sh--><g class="entity" data-qualified-name="shell_scripts_configure_firewalld_sh" data-source-line="7" id="ent0002"><rect fill="#DBEAFE" height="77.2038" rx="2.5" ry="2.5" style="stroke:#181818;stroke-width:0.5;" width="213.7312" x="15.07" y="47.0679"/><text fill="#000000" font-family="Monospace" font-size="14" lengthAdjust="spacing" textLength="193.7312" x="25.07" y="72.0339">scripts/configure_firewalld.sh</text><text fill="#000000" font-family="Monospace" font-size="14" lengthAdjust="spacing" textLength="119.3915" x="25.07" y="91.1018">0&#160;local&#160;shell&#160;edges</text><text fill="#000000" font-family="Monospace" font-size="14" lengthAdjust="spacing" textLength="101.7516" x="25.07" y="110.1697">2&#160;external&#160;tools</text></g><!--entity shell_scripts_configure_ufw_sh--><g class="entity" data-qualified-name="shell_scripts_configure_ufw_sh" data-source-line="8" id="ent0003"><rect fill="#DBEAFE" height="77.2038" rx="2.5" ry="2.5" style="stroke:#181818;stroke-width:0.5;" width="181.4054" x="31.23" y="1069.0679"/><text fill="#000000" font-family="Monospace" font-size="14" lengthAdjust="spacing" textLength="161.4054" x="41.23" y="1094.0339">scripts/configure_ufw.sh</text><text fill="#000000" font-family="Monospace" font-size="14" lengthAdjust="spacing" textLength="119.3915" x="41.23" y="1113.1018">0&#160;local&#160;shell&#160;edges</text><text fill="#000000" font-family="Monospace" font-size="14" lengthAdjust="spacing" textLength="101.7516" x="41.23" y="1132.1697">4&#160;external&#160;tools</text></g><!--entity shell_scripts_enable_ip_forwarding_sh--><g class="entity" data-qualified-name="shell_scripts_enable_ip_forwarding_sh" data-source-line="9" id="ent0004"><rect fill="#DBEAFE" height="77.2038" rx="2.5" ry="2.5" style="stroke:#181818;stroke-width:0.5;" width="229.8732" x="7" y="1181.0679"/><text fill="#000000" font-family="Monospace" font-size="14" lengthAdjust="spacing" textLength="209.8732" x="17" y="1206.0339">scripts/enable_ip_forwarding.sh</text><text fill="#000000" font-family="Monospace" font-size="14" lengthAdjust="spacing" textLength="119.3915" x="17" y="1225.1018">0&#160;local&#160;shell&#160;edges</text><text fill="#000000" font-family="Monospace" font-size="14" lengthAdjust="spacing" textLength="101.7516" x="17" y="1244.1697">2&#160;external&#160;tools</text></g><!--entity shell_scripts_generate_keys_sh--><g class="entity" data-qualified-name="shell_scripts_generate_keys_sh" data-source-line="10" id="ent0005"><rect fill="#DBEAFE" height="77.2038" rx="2.5" ry="2.5" style="stroke:#181818;stroke-width:0.5;" width="182.5814" x="30.65" y="355.0679"/><text fill="#000000" font-family="Monospace" font-size="14" lengthAdjust="spacing" textLength="162.5814" x="40.65" y="380.0339">scripts/generate_keys.sh</text><text fill="#000000" font-family="Monospace" font-size="14" lengthAdjust="spacing" textLength="119.3915" x="40.65" y="399.1018">0&#160;local&#160;shell&#160;edges</text><text fill="#000000" font-family="Monospace" font-size="14" lengthAdjust="spacing" textLength="101.7516" x="40.65" y="418.1697">3&#160;external&#160;tools</text></g><!--entity shell_scripts_harden_ssh_sh--><g class="entity" data-qualified-name="shell_scripts_harden_ssh_sh" data-source-line="11" id="ent0006"><rect fill="#DBEAFE" height="77.2038" rx="2.5" ry="2.5" style="stroke:#181818;stroke-width:0.5;" width="163.2335" x="40.32" y="621.0679"/><text fill="#000000" font-family="Monospace" font-size="14" lengthAdjust="spacing" textLength="143.2335" x="50.32" y="646.0339">scripts/harden_ssh.sh</text><text fill="#000000" font-family="Monospace" font-size="14" lengthAdjust="spacing" textLength="119.3915" x="50.32" y="665.1018">0&#160;local&#160;shell&#160;edges</text><text fill="#000000" font-family="Monospace" font-size="14" lengthAdjust="spacing" textLength="101.7516" x="50.32" y="684.1697">5&#160;external&#160;tools</text></g><!--entity shell_scripts_install_sh--><g class="entity" data-qualified-name="shell_scripts_install_sh" data-source-line="12" id="ent0007"><rect fill="#DBEAFE" height="77.2038" rx="2.5" ry="2.5" style="stroke:#181818;stroke-width:0.5;" width="139.3915" x="52.24" y="1384.0679"/><text fill="#000000" font-family="Monospace" font-size="14" lengthAdjust="spacing" textLength="106.6096" x="62.24" y="1409.0339">scripts/install.sh</text><text fill="#000000" font-family="Monospace" font-size="14" lengthAdjust="spacing" textLength="119.3915" x="62.24" y="1428.1018">0&#160;local&#160;shell&#160;edges</text><text fill="#000000" font-family="Monospace" font-size="14" lengthAdjust="spacing" textLength="101.7516" x="62.24" y="1447.1697">0&#160;external&#160;tools</text></g><!--entity shell_scripts_install_fedora_sh--><g class="entity" data-qualified-name="shell_scripts_install_fedora_sh" data-source-line="13" id="ent0008"><rect fill="#DBEAFE" height="77.2038" rx="2.5" ry="2.5" style="stroke:#181818;stroke-width:0.5;" width="176.2534" x="33.81" y="173.0679"/><text fill="#000000" font-family="Monospace" font-size="14" lengthAdjust="spacing" textLength="156.2534" x="43.81" y="198.0339">scripts/install_fedora.sh</text><text fill="#000000" font-family="Monospace" font-size="14" lengthAdjust="spacing" textLength="119.3915" x="43.81" y="217.1018">0&#160;local&#160;shell&#160;edges</text><text fill="#000000" font-family="Monospace" font-size="14" lengthAdjust="spacing" textLength="101.7516" x="43.81" y="236.1697">2&#160;external&#160;tools</text></g><!--entity shell_scripts_install_ubuntu_sh--><g class="entity" data-qualified-name="shell_scripts_install_ubuntu_sh" data-source-line="14" id="ent0009"><rect fill="#DBEAFE" height="77.2038" rx="2.5" ry="2.5" style="stroke:#181818;stroke-width:0.5;" width="181.0974" x="31.39" y="467.0679"/><text fill="#000000" font-family="Monospace" font-size="14" lengthAdjust="spacing" textLength="161.0974" x="41.39" y="492.0339">scripts/install_ubuntu.sh</text><text fill="#000000" font-family="Monospace" font-size="14" lengthAdjust="spacing" textLength="119.3915" x="41.39" y="511.1018">0&#160;local&#160;shell&#160;edges</text><text fill="#000000" font-family="Monospace" font-size="14" lengthAdjust="spacing" textLength="101.7516" x="41.39" y="530.1697">3&#160;external&#160;tools</text></g><!--entity shell_scripts_package_client_sh--><g class="entity" data-qualified-name="shell_scripts_package_client_sh" data-source-line="15" id="ent0010"><rect fill="#DBEAFE" height="77.2038" rx="2.5" ry="2.5" style="stroke:#181818;stroke-width:0.5;" width="184.2894" x="29.79" y="845.0679"/><text fill="#000000" font-family="Monospace" font-size="14" lengthAdjust="spacing" textLength="164.2894" x="39.79" y="870.0339">scripts/package_client.sh</text><text fill="#000000" font-family="Monospace" font-size="14" lengthAdjust="spacing" textLength="119.3915" x="39.79" y="889.1018">0&#160;local&#160;shell&#160;edges</text><text fill="#000000" font-family="Monospace" font-size="14" lengthAdjust="spacing" textLength="101.7516" x="39.79" y="908.1697">4&#160;external&#160;tools</text></g><!--entity shell_scripts_render_configs_sh--><g class="entity" data-qualified-name="shell_scripts_render_configs_sh" data-source-line="16" id="ent0011"><rect fill="#DBEAFE" height="77.2038" rx="2.5" ry="2.5" style="stroke:#181818;stroke-width:0.5;" width="185.9274" x="28.97" y="957.0679"/><text fill="#000000" font-family="Monospace" font-size="14" lengthAdjust="spacing" textLength="165.9274" x="38.97" y="982.0339">scripts/render_configs.sh</text><text fill="#000000" font-family="Monospace" font-size="14" lengthAdjust="spacing" textLength="119.3915" x="38.97" y="1001.1018">0&#160;local&#160;shell&#160;edges</text><text fill="#000000" font-family="Monospace" font-size="14" lengthAdjust="spacing" textLength="101.7516" x="38.97" y="1020.1697">2&#160;external&#160;tools</text></g><!--entity shell_scripts_validate_sh--><g class="entity" data-qualified-name="shell_scripts_validate_sh" data-source-line="17" id="ent0012"><rect fill="#DBEAFE" height="77.2038" rx="2.5" ry="2.5" style="stroke:#181818;stroke-width:0.5;" width="139.3915" x="52.24" y="1496.0679"/><text fill="#000000" font-family="Monospace" font-size="14" lengthAdjust="spacing" textLength="119.1116" x="62.24" y="1521.0339">scripts/validate.sh</text><text fill="#000000" font-family="Monospace" font-size="14" lengthAdjust="spacing" textLength="119.3915" x="62.24" y="1540.1018">0&#160;local&#160;shell&#160;edges</text><text fill="#000000" font-family="Monospace" font-size="14" lengthAdjust="spacing" textLength="101.7516" x="62.24" y="1559.1697">0&#160;external&#160;tools</text></g><!--entity tool_apt_get--><g class="entity" data-qualified-name="tool_apt_get" data-source-line="18" id="ent0013"><path d="M364.7603,476.5958 C368.2783,470.271 375.2357,470.0753 379.4159,475.7897 C383.1091,468.4694 389.0903,467.6952 394.5676,473.7719 C399.999,466.8671 407.927,467.1114 410.7712,476.3661 C414.3893,469.8229 421.5887,468.3349 426.1122,475.3409 C436.8869,476.4395 440.9052,481.9974 434.901,491.9661 C439.8288,501.6051 435.7256,509.1942 424.5982,509.2788 C422.4107,517.0037 416.1799,518.4 410.6392,512.7886 C408.383,521.0477 403.0674,522.897 395.8166,518.7619 C388.1416,524.6211 381.7858,523.817 378.6736,513.8267 C371.6979,520.421 365.0348,516.9889 363.2816,508.4979 C356.3524,503.5698 354.755,498.9617 362.6513,493.4141 C355.9573,487.346 356.9343,480.8431 364.7603,476.5958" fill="#FEF3C7" style="stroke:#181818;stroke-width:0.5;"/><text fill="#000000" font-family="Monospace" font-size="14" lengthAdjust="spacing" textLength="47.5858" x="370" y="497.0939">apt-get</text></g><!--entity tool_cat--><g class="entity" data-qualified-name="tool_cat" data-source-line="19" id="ent0014"><path d="M377.8982,1148.142 C381.7819,1138.032 388.6492,1138.4369 395.4121,1145.1433 C402.8959,1138.451 407.2546,1141.3105 410.8638,1149.2383 C419.4792,1152.3911 419.9673,1157.8833 414.6619,1164.5003 C420.6094,1170.6574 420.2312,1178.5545 410.7811,1181.1152 C408.4583,1190.9309 401.1767,1191.9302 393.8182,1186.8496 C386.0032,1192.9414 380.7519,1190.2164 378.3427,1181.2822 C367.5825,1180.0326 366.1703,1174.5866 370.7937,1165.8243 C365.084,1157.7536 366.6307,1149.3915 377.8982,1148.142" fill="#FEF3C7" style="stroke:#181818;stroke-width:0.5;"/><text fill="#000000" font-family="Monospace" font-size="14" lengthAdjust="spacing" textLength="19.6279" x="383.98" y="1169.0939">cat</text></g><!--entity tool_cp--><g class="entity" data-qualified-name="tool_cp" data-source-line="20" id="ent0015"><path d="M379.4922,812.0723 C382.8714,803.4728 389.7568,803.1331 395.2015,809.9703 C400.1842,803.4557 406.898,805.0722 409.1524,812.6678 C417.3603,816.49 418.0138,822.6974 410.9057,828.2436 C417.6478,834.48 418.0558,841.0207 408.9002,845.3985 C407.9966,853.9466 403.1732,857.1009 394.9871,854.4291 C384.835,859.902 379.9923,855.474 379.5054,845.0288 C369.6419,841.3744 370.0494,834.2054 376.9254,828.0128 C371.3339,822.0423 370.1932,815.6452 379.4922,812.0723" fill="#FEF3C7" style="stroke:#181818;stroke-width:0.5;"/><text fill="#000000" font-family="Monospace" font-size="14" lengthAdjust="spacing" textLength="15.3299" x="386.13" y="833.0939">cp</text></g><!--entity tool_firewall_cmd--><g class="entity" data-qualified-name="tool_firewall_cmd" data-source-line="21" id="ent0016"><path d="M348.1802,56.8354 C351.7202,51.0102 356.2469,50.7095 360.1694,56.4385 C362.765,50.2876 367.5289,50.3448 371.1949,55.3837 C374.486,50.1377 380.051,50.6354 382.7118,56.0637 C385.1146,48.7384 391.3652,48.511 395.5606,54.3085 C399.5052,48.625 404.8966,49.7141 407.1193,55.9748 C411.465,49.7771 415.1087,51.442 418.9652,56.4901 C421.4053,50.2048 426.0716,50.9798 429.8679,55.0644 C433.7321,49.836 439.3448,51.5043 441.4885,56.9393 C451.5065,58.9142 455.2161,63.3481 449.535,73.1267 C456.4583,82.346 452.5731,87.3 443.0144,90.2388 C438.9456,95.9431 433.3194,95.7284 429.9651,89.4601 C426.9269,95.2728 422.2768,96.5962 417.9035,90.8538 C414.8972,95.9922 411.0696,96.2251 407.3702,91.6017 C403.2003,97.0934 399.1666,97.584 394.6627,91.9844 C390.8571,96.528 387.5043,96.8383 383.6815,92.0044 C379.7721,98.7427 375.0505,98.0537 371.1735,91.9727 C366.0552,97.8774 362.1147,96.8386 358.2116,90.6683 C354.1915,95.449 350.1865,94.8008 347.3477,89.407 C337.1629,85.9886 336.8035,79.1109 343.5062,71.9717 C338.3875,65.1279 339.7613,59.4988 348.1802,56.8354" fill="#FEF3C7" style="stroke:#181818;stroke-width:0.5;"/><text fill="#000000" font-family="Monospace" font-size="14" lengthAdjust="spacing" textLength="81.1157" x="353.23" y="77.0939">firewall-cmd</text></g><!--entity tool_firewalld--><g class="entity" data-qualified-name="tool_firewalld" data-source-line="22" id="ent0017"><path d="M360.3713,140.3387 C362.5315,134.8127 367.6622,133.6856 371.2257,138.9236 C375.0999,133.9008 380.7927,134.3579 383.9153,139.8323 C386.6057,133.7278 391.2108,132.8484 395.4465,138.2886 C398.9255,133.4936 403.8184,134.7339 405.6471,139.9672 C408.7953,134.1888 413.3538,133.6833 417.5389,138.8394 C422.1451,132.2409 427.6587,133.6572 430.9842,140.1542 C440.0028,143.8578 439.2853,151.9259 431.9754,156.6127 C439.7006,162.0728 439.8346,169.4642 430.4209,173.3306 C428.5608,178.7954 423.4326,180.394 419.1748,176.0913 C417.1009,182.3838 412.5511,183.6285 407.5452,179.3026 C404.1969,186.0135 399.4128,186.825 394.1525,181.4153 C389.9009,185.5469 386.5951,184.9972 384.0934,179.5732 C378.5197,184.7434 372.6552,181.8317 370.8747,175.2915 C366.6202,179.9035 362.5565,180.5723 359.458,174.1008 C348.5142,173.147 344.3855,165.0834 350.9731,155.9392 C347.6202,146.6039 349.0516,140.8348 360.3713,140.3387" fill="#FEF3C7" style="stroke:#181818;stroke-width:0.5;"/><text fill="#000000" font-family="Monospace" font-size="14" lengthAdjust="spacing" textLength="56.7978" x="365.39" y="161.0939">firewalld</text></g><!--entity tool_grep--><g class="entity" data-qualified-name="tool_grep" data-source-line="23" id="ent0018"><path d="M372.6692,896.1246 C375.346,891.7161 379.8681,890.5753 383.0297,895.5916 C386.2603,888.616 390.2101,887.7014 395.7739,893.2098 C398.9121,888.4456 404.1602,889.6147 406.4312,894.1985 C410.8109,890.2343 414.6713,890.9167 417.0098,896.4679 C426.9274,899.2387 426.8225,905.6152 421.3252,912.5281 C428.1446,920.4069 425.3041,925.6064 416.7645,929.3117 C414.6051,935.4632 411.048,937.2822 405.4864,932.9834 C403.7057,937.8653 398.9078,939.9128 394.9485,935.4366 C389.0488,939.0056 385.0593,938.2929 382.6792,931.3346 C378.746,935.8984 373.6025,934.0868 372.0388,928.7803 C362.324,926.6587 359.7377,918.9205 367.088,911.8181 C361.3433,904.891 363.8003,897.8546 372.6692,896.1246" fill="#FEF3C7" style="stroke:#181818;stroke-width:0.5;"/><text fill="#000000" font-family="Monospace" font-size="14" lengthAdjust="spacing" textLength="30.8979" x="378.34" y="917.0939">grep</text></g><!--entity tool_mkdir--><g class="entity" data-qualified-name="tool_mkdir" data-source-line="24" id="ent0019"><path d="M368.8213,643.6853 C372.6459,637.8492 377.9733,637.8481 381.2987,644.1965 C384.8258,637.3331 390.3926,637.6106 395.1247,642.8161 C399.0626,636.7831 403.3104,637.3072 407.6056,642.4159 C411.9527,637.0738 417.2054,636.6313 420.3107,643.6884 C432.9144,643.908 435.4508,651.0973 431.0545,661.5453 C435.6429,670.2985 430.1485,676.729 421.2393,676.7943 C418.3007,683.0577 414.4279,685.3113 408.5834,679.961 C405.7357,686.6474 399.5446,688.2915 394.2239,682.9014 C388.7932,687.4193 384.9074,685.2675 382.835,679.2657 C377.1531,686.4877 370.7404,684.5097 367.6883,676.6284 C358.3384,674.5654 353.9633,670.0698 359.8215,660.5608 C354.3652,650.1265 358.6296,645.7744 368.8213,643.6853" fill="#FEF3C7" style="stroke:#181818;stroke-width:0.5;"/><text fill="#000000" font-family="Monospace" font-size="14" lengthAdjust="spacing" textLength="38.5699" x="374.51" y="665.0939">mkdir</text></g><!--entity tool_qrencode--><g class="entity" data-qualified-name="tool_qrencode" data-source-line="25" id="ent0020"><path d="M355.9973,980.648 C360.1626,975.1418 364.0627,974.0132 368.3207,980.5531 C372.7462,975.102 376.7301,973.4295 381.502,980.1788 C384.2866,973.6279 390.9986,972.4751 395.2476,978.5894 C398.6907,972.3079 402.8731,973.1865 406.6008,978.306 C410.6091,972.3041 417.581,972.106 420.4459,979.4887 C424.8661,972.7422 429.6139,973.3988 434.2068,979.3008 C444.2746,980.1512 448.2151,987.9854 443.6422,996.7518 C449.9452,1007.1046 444.0681,1014.8777 432.738,1014.2292 C429.7575,1019.9173 423.8515,1020.3981 420.3189,1014.8387 C418.0616,1022.9411 413.8222,1023.9418 407.5931,1018.5976 C405.3961,1024.7789 399.6258,1025.9633 395.4853,1020.6438 C390.5794,1026.0664 384.8447,1026.7616 381.5583,1018.9407 C376.5978,1022.833 371.596,1022.5238 369.4638,1015.7373 C364.0831,1022.5852 359.5614,1020.2692 355.6388,1014.1792 C345.1931,1012.2267 342.7231,1004.9163 347.4622,996.0972 C342.7831,987.45 346.0253,981.201 355.9973,980.648" fill="#FEF3C7" style="stroke:#181818;stroke-width:0.5;"/><text fill="#000000" font-family="Monospace" font-size="14" lengthAdjust="spacing" textLength="62.6358" x="362.47" y="1001.0939">qrencode</text></g><!--entity tool_sed--><g class="entity" data-qualified-name="tool_sed" data-source-line="26" id="ent0021"><path d="M375.3902,1232.7606 C380.2802,1223.5932 388.6093,1221.9918 395.6881,1230.2043 C401.5681,1222.4101 409.923,1224.1497 413.3387,1232.8425 C422.9283,1233.5513 428.6176,1238.3044 423.1304,1248.4637 C428.3645,1257.9102 424.8625,1263.33 414.489,1264.2128 C414.2307,1276.9683 407.8761,1281.9654 395.8627,1275.7609 C384.9348,1280.822 377.7518,1279.3422 377.0302,1265.5603 C367.3693,1264.7256 363.5811,1256.634 368.9339,1248.6227 C363.8785,1240.4957 366.2947,1235.1277 375.3902,1232.7606" fill="#FEF3C7" style="stroke:#181818;stroke-width:0.5;"/><text fill="#000000" font-family="Monospace" font-size="14" lengthAdjust="spacing" textLength="23.2119" x="382.18" y="1253.0939">sed</text></g><!--entity tool_sshd--><g class="entity" data-qualified-name="tool_sshd" data-source-line="27" id="ent0022"><path d="M372.7792,560.1246 C375.4404,555.7392 379.9377,554.6032 383.0837,559.5916 C386.295,552.6431 390.2273,551.7292 395.7719,557.2098 C398.8961,552.4719 404.1163,553.6375 406.3732,558.1985 C410.7351,554.2591 414.5752,554.9423 416.8958,560.4679 C426.8134,563.2387 426.7085,569.6152 421.2112,576.5281 C428.0306,584.4069 425.1901,589.6064 416.6505,593.3117 C414.5098,599.4387 410.9713,601.2548 405.4284,596.9834 C403.6624,601.8427 398.8911,603.8856 394.9465,599.4366 C389.0661,602.9829 385.094,602.2676 382.7332,595.3346 C378.8141,599.871 373.6984,598.0623 372.1488,592.7803 C362.434,590.6587 359.8477,582.9205 367.198,575.8181 C361.4533,568.891 363.9103,561.8546 372.7792,560.1246" fill="#FEF3C7" style="stroke:#181818;stroke-width:0.5;"/><text fill="#000000" font-family="Monospace" font-size="14" lengthAdjust="spacing" textLength="30.6739" x="378.45" y="581.0939">sshd</text></g><!--entity tool_sysctl--><g class="entity" data-qualified-name="tool_sysctl" data-source-line="28" id="ent0023"><path d="M370.5043,1316.9399 C373.0771,1310.7758 376.8948,1310.6495 381.4717,1314.8114 C385.4985,1307.8894 389.5244,1308.9192 394.3991,1313.8896 C398.432,1309.0772 403.3565,1309.3185 406.8426,1314.5659 C411.1381,1309.3325 416.386,1310.3782 419.2576,1316.1693 C428.9161,1316.0054 434.9561,1322.8997 430.0203,1332.4084 C436.6726,1342.4789 431.5284,1351.1227 419.4906,1350.0162 C415.1206,1355.1134 411.2379,1356.788 406.889,1349.9939 C403.158,1355.2819 399.1993,1356.6582 395.0175,1350.4599 C391.4586,1355.7016 385.1009,1355.8331 381.9866,1349.9396 C377.7437,1356.3595 372.4606,1355.5149 368.837,1349.2952 C358.8979,1346.8944 356.7991,1339.6294 362.8807,1331.7803 C357.5752,1323.3242 361.6082,1318.1005 370.5043,1316.9399" fill="#FEF3C7" style="stroke:#181818;stroke-width:0.5;"/><text fill="#000000" font-family="Monospace" font-size="14" lengthAdjust="spacing" textLength="35.9379" x="375.82" y="1337.0939">sysctl</text></g><!--entity tool_systemctl--><g class="entity" data-qualified-name="tool_systemctl" data-source-line="29" id="ent0024"><path d="M355.9543,223.3934 C359.3948,217.4746 365.9193,216.7928 369.02,223.7383 C372.7616,217.0276 377.7985,216.9509 382.3323,222.9055 C386.3641,216.6584 390.9024,217.151 395.3476,222.439 C398.8915,216.4049 402.5575,216.9877 406.5013,222.0366 C411.4621,215.3773 415.9337,216.3381 419.7466,223.1641 C423.334,217.8037 429.5725,216.896 432.6265,223.7275 C441.3228,226.4602 444.3191,234.6676 437.8398,241.7822 C443.1752,247.5869 441.392,254.3689 433.8104,256.6799 C431.241,265.2185 425.7083,265.8896 419.401,260.565 C416.7389,266.1651 412.5998,266.9127 407.9465,262.9501 C405.0841,269.5731 399.7662,271.5656 394.8194,265.0295 C389.378,270.5997 384.9452,269.2714 382.4495,262.1569 C378.0527,267.4505 372.3329,267.8254 369.4161,260.6144 C364.4975,264.6836 360.078,265.4131 357.5184,258.14 C346.7543,255.0217 346.6123,249.1542 352.4876,241.1182 C345.7074,233.86 345.9947,227.3775 355.9543,223.3934" fill="#FEF3C7" style="stroke:#181818;stroke-width:0.5;"/><text fill="#000000" font-family="Monospace" font-size="14" lengthAdjust="spacing" textLength="61.9778" x="362.8" y="245.0939">systemctl</text></g><!--entity tool_tee--><g class="entity" data-qualified-name="tool_tee" data-source-line="30" id="ent0025"><path d="M377.6612,307.1966 C382.0074,299.5658 389.4757,298.1028 394.9321,305.9586 C402.3424,297.8411 408.4535,299.7889 412.7445,309.1394 C422.1159,310.3915 426.1759,315.2841 421.341,324.4912 C427.4318,334.2179 421.7584,340.642 411.8701,341.4396 C408.9578,351.4186 403.2645,353.7861 394.8803,346.9774 C386.5624,354.0931 378.7446,350.1897 376.7546,340.2517 C368.942,335.973 366.51,331.3508 374.0187,324.4239 C366.9508,317.2059 367.8357,310.8428 377.6612,307.1966" fill="#FEF3C7" style="stroke:#181818;stroke-width:0.5;"/><text fill="#000000" font-family="Monospace" font-size="14" lengthAdjust="spacing" textLength="20.8459" x="383.37" y="329.0939">tee</text></g><!--entity tool_ufw--><g class="entity" data-qualified-name="tool_ufw" data-source-line="31" id="ent0026"><path d="M375.1332,727.8153 C380.0566,718.3219 389.5356,717.5861 395.2091,727.0196 C402.087,719.2315 407.8334,719.2602 413.0414,728.7436 C423.5969,729.3933 425.8477,735.9872 421.0315,744.4545 C425.8093,753.284 422.4064,758.2486 413.3999,760.5372 C408.1868,770.5922 402.4341,771.2944 394.7259,763.0888 C388.0177,770.7666 379.6469,771.5855 375.4221,760.5298 C366.4182,759.2219 363.6961,752.2638 369.939,745.4223 C362.619,738.1911 366.3846,730.306 375.1332,727.8153" fill="#FEF3C7" style="stroke:#181818;stroke-width:0.5;"/><text fill="#000000" font-family="Monospace" font-size="14" lengthAdjust="spacing" textLength="24.4719" x="381.55" y="749.0939">ufw</text></g><!--entity tool_wg--><g class="entity" data-qualified-name="tool_wg" data-source-line="32" id="ent0027"><path d="M377.8982,392.142 C381.7797,382.0357 388.6444,382.44 395.4051,389.1433 C402.8865,382.4546 407.243,385.3135 410.8498,393.2383 C419.4652,396.3911 419.9533,401.8833 414.6478,408.5003 C420.5954,414.6574 420.2172,422.5545 410.7671,425.1152 C408.4464,434.9275 401.1676,435.9274 393.8112,430.8496 C385.9985,436.9378 380.7497,434.2131 378.3427,425.2822 C367.5825,424.0326 366.1703,418.5866 370.7937,409.8243 C365.084,401.7536 366.6307,393.3915 377.8982,392.142" fill="#FEF3C7" style="stroke:#181818;stroke-width:0.5;"/><text fill="#000000" font-family="Monospace" font-size="14" lengthAdjust="spacing" textLength="19.6139" x="383.98" y="413.0939">wg</text></g><!--entity tool_zip--><g class="entity" data-qualified-name="tool_zip" data-source-line="33" id="ent0028"><path d="M379.5792,1065.0177 C382.8316,1056.3753 388.9627,1055.3721 395.6765,1061.1551 C402.0721,1053.6454 408.9445,1056.5132 411.8116,1064.7667 C421.3575,1067.554 420.8432,1074.0171 415.3665,1080.2528 C422.5819,1086.7742 420.4541,1093.2986 412.3512,1097.074 C411.9569,1109.948 403.509,1111.7938 393.92,1106.3012 C386.4312,1110.3674 378.7462,1107.7777 378.7436,1098.0592 C369.2282,1095.7256 366.2374,1088.997 373.5503,1081.4133 C366.851,1073.8633 371.2991,1067.0596 379.5792,1065.0177" fill="#FEF3C7" style="stroke:#181818;stroke-width:0.5;"/><text fill="#000000" font-family="Monospace" font-size="14" lengthAdjust="spacing" textLength="18.8019" x="384.39" y="1085.0939">zip</text></g><g class="entity" data-qualified-name="shellGraphSummary" data-source-line="62" id="ent0056"><path d="M296.87,1391.1079 L296.87,1454.226 L490.7051,1454.226 L490.7051,1401.1079 L480.7051,1391.1079 L296.87,1391.1079" fill="#FEFFDD" style="stroke:#181818;stroke-width:0.5;"/><path d="M480.7051,1391.1079 L480.7051,1401.1079 L490.7051,1401.1079 L480.7051,1391.1079" fill="#FEFFDD" style="stroke:#181818;stroke-width:1;"/><text fill="#000000" font-family="Monospace" font-size="13" lengthAdjust="spacing" textLength="148.9671" x="302.87" y="1410.0049">Scanned&#160;11&#160;shell&#160;scripts.</text><text fill="#000000" font-family="Monospace" font-size="13" lengthAdjust="spacing" textLength="172.8351" x="302.87" y="1427.7109">Detected&#160;0&#160;local&#160;shell&#160;edges.</text><text fill="#000000" font-family="Monospace" font-size="13" lengthAdjust="spacing" textLength="163.8911" x="302.87" y="1445.417">Detected&#160;16&#160;external&#160;tools.</text></g><!--link shell_scripts_configure_firewalld_sh to tool_firewall_cmd--><g class="link" data-entity-1="ent0002" data-entity-2="ent0016" data-link-type="dependency" data-source-line="34" id="lnk29"><path d="M228.99,71.6679 C266.28,71.6679 300.62,71.6679 332.05,71.6679" fill="none" id="shell_scripts_configure_firewalld_sh-to-tool_firewall_cmd" style="stroke:#181818;stroke-width:1;"/><polygon fill="#181818" points="338.05,71.6679,329.05,67.6679,333.05,71.6679,329.05,75.6679,338.05,71.6679" style="stroke:#181818;stroke-width:1;"/></g><!--link shell_scripts_configure_firewalld_sh to tool_systemctl--><g class="link" data-entity-1="ent0002" data-entity-2="ent0024" data-link-type="dependency" data-source-line="35" id="lnk30"><path d="M225.71,124.6179 C225.71,166.4079 225.71,226.8479 225.71,226.8479 C225.71,226.8479 291.67,226.8479 341.42,226.8479" fill="none" id="shell_scripts_configure_firewalld_sh-to-tool_systemctl" style="stroke:#181818;stroke-width:1;"/><polygon fill="#181818" points="347.42,226.8479,338.42,222.8479,342.42,226.8479,338.42,230.8479,347.42,226.8479" style="stroke:#181818;stroke-width:1;"/></g><!--link shell_scripts_configure_ufw_sh to tool_cat--><g class="link" data-entity-1="ent0003" data-entity-2="ent0014" data-link-type="dependency" data-source-line="36" id="lnk31"><path d="M212.84,1142.6979 C267.63,1142.6979 327.44,1142.6979 362.64,1142.6979" fill="none" id="shell_scripts_configure_ufw_sh-to-tool_cat" style="stroke:#181818;stroke-width:1;"/><polygon fill="#181818" points="368.64,1142.6979,359.64,1138.6979,363.64,1142.6979,359.64,1146.6979,368.64,1142.6979" style="stroke:#181818;stroke-width:1;"/></g><!--link shell_scripts_configure_ufw_sh to tool_grep--><g class="link" data-entity-1="ent0003" data-entity-2="ent0018" data-link-type="dependency" data-source-line="37" id="lnk32"><path d="M212.8,1092.4879 C241.89,1092.4879 266.71,1092.4879 266.71,1092.4879 C266.71,1092.4879 266.71,929.2379 266.71,929.2379 C266.71,929.2379 319.42,929.2379 357.03,929.2379" fill="none" id="shell_scripts_configure_ufw_sh-to-tool_grep" style="stroke:#181818;stroke-width:1;"/><polygon fill="#181818" points="363.03,929.2379,354.03,925.2379,358.03,929.2379,354.03,933.2379,363.03,929.2379" style="stroke:#181818;stroke-width:1;"/></g><!--link shell_scripts_configure_ufw_sh to tool_sed--><g class="link" data-entity-1="ent0003" data-entity-2="ent0021" data-link-type="dependency" data-source-line="38" id="lnk33"><path d="M213.02,1144.4879 C248.9,1144.4879 281.71,1144.4879 281.71,1144.4879 C281.71,1144.4879 281.71,1240.6979 281.71,1240.6979 C281.71,1240.6979 327.79,1240.6979 360.94,1240.6979" fill="none" id="shell_scripts_configure_ufw_sh-to-tool_sed" style="stroke:#181818;stroke-width:1;"/><polygon fill="#181818" points="366.94,1240.6979,357.94,1236.6979,361.94,1240.6979,357.94,1244.6979,366.94,1240.6979" style="stroke:#181818;stroke-width:1;"/></g><!--link shell_scripts_configure_ufw_sh to tool_ufw--><g class="link" data-entity-1="ent0003" data-entity-2="ent0026" data-link-type="dependency" data-source-line="39" id="lnk34"><path d="M213.09,1080.7779 C224.19,1080.7779 231.71,1080.7779 231.71,1080.7779 C231.71,1080.7779 231.71,751.8479 231.71,751.8479 C231.71,751.8479 314.05,751.8479 360.3,751.8479" fill="none" id="shell_scripts_configure_ufw_sh-to-tool_ufw" style="stroke:#181818;stroke-width:1;"/><polygon fill="#181818" points="366.3,751.8479,357.3,747.8479,361.3,751.8479,357.3,755.8479,366.3,751.8479" style="stroke:#181818;stroke-width:1;"/></g><!--link shell_scripts_enable_ip_forwarding_sh to tool_cat--><g class="link" data-entity-1="ent0004" data-entity-2="ent0014" data-link-type="dependency" data-source-line="40" id="lnk35"><path d="M237.23,1184.6279 C286,1184.6279 332.39,1184.6279 362.51,1184.6279" fill="none" id="shell_scripts_enable_ip_forwarding_sh-to-tool_cat" style="stroke:#181818;stroke-width:1;"/><polygon fill="#181818" points="368.51,1184.6279,359.51,1180.6279,363.51,1184.6279,359.51,1188.6279,368.51,1184.6279" style="stroke:#181818;stroke-width:1;"/></g><!--link shell_scripts_enable_ip_forwarding_sh to tool_sysctl--><g class="link" data-entity-1="ent0004" data-entity-2="ent0023" data-link-type="dependency" data-source-line="41" id="lnk36"><path d="M214.71,1258.5279 C214.71,1290.8679 214.71,1331.6679 214.71,1331.6679 C214.71,1331.6679 302.74,1331.6679 354.53,1331.6679" fill="none" id="shell_scripts_enable_ip_forwarding_sh-to-tool_sysctl" style="stroke:#181818;stroke-width:1;"/><polygon fill="#181818" points="360.53,1331.6679,351.53,1327.6679,355.53,1331.6679,351.53,1335.6679,360.53,1331.6679" style="stroke:#181818;stroke-width:1;"/></g><!--link shell_scripts_generate_keys_sh to tool_mkdir--><g class="link" data-entity-1="ent0005" data-entity-2="ent0019" data-link-type="dependency" data-source-line="42" id="lnk37"><path d="M213.73,415.8479 C225.59,415.8479 233.71,415.8479 233.71,415.8479 C233.71,415.8479 233.71,644.9479 233.71,644.9479 C233.71,644.9479 305.97,644.9479 353.06,644.9479" fill="none" id="shell_scripts_generate_keys_sh-to-tool_mkdir" style="stroke:#181818;stroke-width:1;"/><polygon fill="#181818" points="359.06,644.9479,350.06,640.9479,354.06,644.9479,350.06,648.9479,359.06,644.9479" style="stroke:#181818;stroke-width:1;"/></g><!--link shell_scripts_generate_keys_sh to tool_tee--><g class="link" data-entity-1="ent0005" data-entity-2="ent0025" data-link-type="dependency" data-source-line="43" id="lnk38"><path d="M213.57,369.0979 C292.47,369.0979 393.71,369.0979 393.71,369.0979 C393.71,369.0979 393.71,365.1179 393.71,354.5079" fill="none" id="shell_scripts_generate_keys_sh-to-tool_tee" style="stroke:#181818;stroke-width:1;"/><polygon fill="#181818" points="393.71,348.5079,389.71,357.5079,393.71,353.5079,397.71,357.5079,393.71,348.5079" style="stroke:#181818;stroke-width:1;"/></g><!--link shell_scripts_generate_keys_sh to tool_wg--><g class="link" data-entity-1="ent0005" data-entity-2="ent0027" data-link-type="dependency" data-source-line="44" id="lnk39"><path d="M213.6,399.4879 C268.16,399.4879 327.41,399.4879 362.49,399.4879" fill="none" id="shell_scripts_generate_keys_sh-to-tool_wg" style="stroke:#181818;stroke-width:1;"/><polygon fill="#181818" points="368.49,399.4879,359.49,395.4879,363.49,399.4879,359.49,403.4879,368.49,399.4879" style="stroke:#181818;stroke-width:1;"/></g><!--link shell_scripts_harden_ssh_sh to tool_cp--><g class="link" data-entity-1="ent0006" data-entity-2="ent0015" data-link-type="dependency" data-source-line="45" id="lnk40"><path d="M121.71,698.6379 C121.71,747.2579 121.71,824.0979 121.71,824.0979 C121.71,824.0979 299.67,824.0979 365.06,824.0979" fill="none" id="shell_scripts_harden_ssh_sh-to-tool_cp" style="stroke:#181818;stroke-width:1;"/><polygon fill="#181818" points="371.06,824.0979,362.06,820.0979,366.06,824.0979,362.06,828.0979,371.06,824.0979" style="stroke:#181818;stroke-width:1;"/></g><!--link shell_scripts_harden_ssh_sh to tool_grep--><g class="link" data-entity-1="ent0006" data-entity-2="ent0018" data-link-type="dependency" data-source-line="46" id="lnk41"><path d="M203.95,691.2379 C213.94,691.2379 220.71,691.2379 220.71,691.2379 C220.71,691.2379 220.71,895.9179 220.71,895.9179 C220.71,895.9179 307.06,895.9179 356.85,895.9179" fill="none" id="shell_scripts_harden_ssh_sh-to-tool_grep" style="stroke:#181818;stroke-width:1;"/><polygon fill="#181818" points="362.85,895.9179,353.85,891.9179,357.85,895.9179,353.85,899.9179,362.85,895.9179" style="stroke:#181818;stroke-width:1;"/></g><!--link shell_scripts_harden_ssh_sh to tool_mkdir--><g class="link" data-entity-1="ent0006" data-entity-2="ent0019" data-link-type="dependency" data-source-line="47" id="lnk42"><path d="M203.87,654.7579 C255.77,654.7579 314.22,654.7579 353.12,654.7579" fill="none" id="shell_scripts_harden_ssh_sh-to-tool_mkdir" style="stroke:#181818;stroke-width:1;"/><polygon fill="#181818" points="359.12,654.7579,350.12,650.7579,354.12,654.7579,350.12,658.7579,359.12,654.7579" style="stroke:#181818;stroke-width:1;"/></g><!--link shell_scripts_harden_ssh_sh to tool_sshd--><g class="link" data-entity-1="ent0006" data-entity-2="ent0022" data-link-type="dependency" data-source-line="48" id="lnk43"><path d="M203.85,630.4379 C283.87,630.4379 393.71,630.4379 393.71,630.4379 C393.71,630.4379 393.71,620.9879 393.71,606.4879" fill="none" id="shell_scripts_harden_ssh_sh-to-tool_sshd" style="stroke:#181818;stroke-width:1;"/><polygon fill="#181818" points="393.71,600.4879,389.71,609.4879,393.71,605.4879,397.71,609.4879,393.71,600.4879" style="stroke:#181818;stroke-width:1;"/></g><!--link shell_scripts_harden_ssh_sh to tool_systemctl--><g class="link" data-entity-1="ent0006" data-entity-2="ent0024" data-link-type="dependency" data-source-line="49" id="lnk44"><path d="M203.92,625.7579 C269.9,625.7579 351.71,625.7579 351.71,625.7579 C351.71,625.7579 351.71,355.6179 351.71,270.4079" fill="none" id="shell_scripts_harden_ssh_sh-to-tool_systemctl" style="stroke:#181818;stroke-width:1;"/><polygon fill="#181818" points="351.71,264.4079,347.71,273.4079,351.71,269.4079,355.71,273.4079,351.71,264.4079" style="stroke:#181818;stroke-width:1;"/></g><!--link shell_scripts_install_fedora_sh to tool_firewalld--><g class="link" data-entity-1="ent0008" data-entity-2="ent0017" data-link-type="dependency" data-source-line="50" id="lnk45"><path d="M210.2,176.6279 C257.02,176.6279 306.48,176.6279 344.1,176.6279" fill="none" id="shell_scripts_install_fedora_sh-to-tool_firewalld" style="stroke:#181818;stroke-width:1;"/><polygon fill="#181818" points="350.1,176.6279,341.1,172.6279,345.1,176.6279,341.1,180.6279,350.1,176.6279" style="stroke:#181818;stroke-width:1;"/></g><!--link shell_scripts_install_fedora_sh to tool_systemctl--><g class="link" data-entity-1="ent0008" data-entity-2="ent0024" data-link-type="dependency" data-source-line="51" id="lnk46"><path d="M210.2,238.5579 C255.94,238.5579 303.92,238.5579 341.46,238.5579" fill="none" id="shell_scripts_install_fedora_sh-to-tool_systemctl" style="stroke:#181818;stroke-width:1;"/><polygon fill="#181818" points="347.46,238.5579,338.46,234.5579,342.46,238.5579,338.46,242.5579,347.46,238.5579" style="stroke:#181818;stroke-width:1;"/></g><!--link shell_scripts_install_ubuntu_sh to tool_apt_get--><g class="link" data-entity-1="ent0009" data-entity-2="ent0013" data-link-type="dependency" data-source-line="52" id="lnk47"><path d="M212.84,499.8479 C261,499.8479 311.66,499.8479 348.57,499.8479" fill="none" id="shell_scripts_install_ubuntu_sh-to-tool_apt_get" style="stroke:#181818;stroke-width:1;"/><polygon fill="#181818" points="354.57,499.8479,345.57,495.8479,349.57,499.8479,345.57,503.8479,354.57,499.8479" style="stroke:#181818;stroke-width:1;"/></g><!--link shell_scripts_install_ubuntu_sh to tool_systemctl--><g class="link" data-entity-1="ent0009" data-entity-2="ent0024" data-link-type="dependency" data-source-line="53" id="lnk48"><path d="M212.94,483.4879 C276.38,483.4879 349.71,483.4879 349.71,483.4879 C349.71,483.4879 349.71,332.3779 349.71,270.3879" fill="none" id="shell_scripts_install_ubuntu_sh-to-tool_systemctl" style="stroke:#181818;stroke-width:1;"/><polygon fill="#181818" points="349.71,264.3879,345.71,273.3879,349.71,269.3879,353.71,273.3879,349.71,264.3879" style="stroke:#181818;stroke-width:1;"/></g><!--link shell_scripts_install_ubuntu_sh to tool_ufw--><g class="link" data-entity-1="ent0009" data-entity-2="ent0026" data-link-type="dependency" data-source-line="54" id="lnk49"><path d="M206.71,544.6479 C206.71,610.2179 206.71,735.4879 206.71,735.4879 C206.71,735.4879 308.15,735.4879 360.19,735.4879" fill="none" id="shell_scripts_install_ubuntu_sh-to-tool_ufw" style="stroke:#181818;stroke-width:1;"/><polygon fill="#181818" points="366.19,735.4879,357.19,731.4879,361.19,735.4879,357.19,739.4879,366.19,735.4879" style="stroke:#181818;stroke-width:1;"/></g><!--link shell_scripts_package_client_sh to tool_cp--><g class="link" data-entity-1="ent0010" data-entity-2="ent0015" data-link-type="dependency" data-source-line="55" id="lnk50"><path d="M214.35,848.6279 C269.92,848.6279 330.33,848.6279 364.67,848.6279" fill="none" id="shell_scripts_package_client_sh-to-tool_cp" style="stroke:#181818;stroke-width:1;"/><polygon fill="#181818" points="370.67,848.6279,361.67,844.6279,365.67,848.6279,361.67,852.6279,370.67,848.6279" style="stroke:#181818;stroke-width:1;"/></g><!--link shell_scripts_package_client_sh to tool_mkdir--><g class="link" data-entity-1="ent0010" data-entity-2="ent0019" data-link-type="dependency" data-source-line="56" id="lnk51"><path d="M209.71,844.7479 C209.71,781.7879 209.71,664.5679 209.71,664.5679 C209.71,664.5679 299.84,664.5679 353.17,664.5679" fill="none" id="shell_scripts_package_client_sh-to-tool_mkdir" style="stroke:#181818;stroke-width:1;"/><polygon fill="#181818" points="359.17,664.5679,350.17,660.5679,354.17,664.5679,350.17,668.5679,359.17,664.5679" style="stroke:#181818;stroke-width:1;"/></g><!--link shell_scripts_package_client_sh to tool_qrencode--><g class="link" data-entity-1="ent0010" data-entity-2="ent0020" data-link-type="dependency" data-source-line="57" id="lnk52"><path d="M214.47,904.6979 C278.67,904.6979 352.71,904.6979 352.71,904.6979 C352.71,904.6979 352.71,937.8779 352.71,964.8079" fill="none" id="shell_scripts_package_client_sh-to-tool_qrencode" style="stroke:#181818;stroke-width:1;"/><polygon fill="#181818" points="352.71,970.8079,356.71,961.8079,352.71,965.8079,348.71,961.8079,352.71,970.8079" style="stroke:#181818;stroke-width:1;"/></g><!--link shell_scripts_package_client_sh to tool_zip--><g class="link" data-entity-1="ent0010" data-entity-2="ent0028" data-link-type="dependency" data-source-line="58" id="lnk53"><path d="M214.52,913.4879 C235.49,913.4879 251.71,913.4879 251.71,913.4879 C251.71,913.4879 251.71,1062.0979 251.71,1062.0979 C251.71,1062.0979 322.33,1062.0979 363.04,1062.0979" fill="none" id="shell_scripts_package_client_sh-to-tool_zip" style="stroke:#181818;stroke-width:1;"/><polygon fill="#181818" points="369.04,1062.0979,360.04,1058.0979,364.04,1062.0979,360.04,1066.0979,369.04,1062.0979" style="stroke:#181818;stroke-width:1;"/></g><!--link shell_scripts_render_configs_sh to tool_cat--><g class="link" data-entity-1="ent0011" data-entity-2="ent0014" data-link-type="dependency" data-source-line="59" id="lnk54"><path d="M215.38,1027.2379 C220.56,1027.2379 223.71,1027.2379 223.71,1027.2379 C223.71,1027.2379 223.71,1140.9179 223.71,1140.9179 C223.71,1140.9179 315.38,1140.9179 362.69,1140.9179" fill="none" id="shell_scripts_render_configs_sh-to-tool_cat" style="stroke:#181818;stroke-width:1;"/><polygon fill="#181818" points="368.69,1140.9179,359.69,1136.9179,363.69,1140.9179,359.69,1144.9179,368.69,1140.9179" style="stroke:#181818;stroke-width:1;"/></g><!--link shell_scripts_render_configs_sh to tool_mkdir--><g class="link" data-entity-1="ent0011" data-entity-2="ent0019" data-link-type="dependency" data-source-line="60" id="lnk55"><path d="M215.34,964.0979 C216.87,964.0979 217.71,964.0979 217.71,964.0979 C217.71,964.0979 217.71,674.3879 217.71,674.3879 C217.71,674.3879 302.18,674.3879 353.42,674.3879" fill="none" id="shell_scripts_render_configs_sh-to-tool_mkdir" style="stroke:#181818;stroke-width:1;"/><polygon fill="#181818" points="359.42,674.3879,350.42,670.3879,354.42,674.3879,350.42,678.3879,359.42,674.3879" style="stroke:#181818;stroke-width:1;"/></g><?plantuml-src fPLBSvmm3CVlV0fFSjuqs_HnwqpRP7jgBtlD3EE00CyQczgYPFlfA_O1NbvskaTPF-al8s6XG0ci4hXwqQziMu2KR9iOKI7RIDr44Z9ag9aHUO4i5GOI55f5TYTKnGqlcIrugXkXSfPnQS7nf93nMk96A_p5Is0_jTAsuedB9Bgij0A5MznJ8MrwhdBf8b8em7q5J1iiTDGXxCOU2hNl4gqoaTS6uemARBYKwPqjdjKzaphXaafihmLf3lPPlMVmYc0KdQFMqjumRez4VCeNJ-IBRS5k7xyzVTqyBLTGPysyzeUtQ5CcZoee_Y8X5bMSQTDmar8NhhhuL49F3JaeC1mXti7Upei_-CKlCdbK2weDL6njCI_vqI_Pf_7e2MMHnc1UxDulTieHfXHda6h3h-hcPQf0tVgbLbXVrSZBL1vTUWzsF8SuaO9UWQj-dSjK7bq3AWLp-jtiLT_vCfL7zm-N8gKflsgKpabShKJgEcKtlC9L3dW8QiDZEg1V2zdjvcdpyFtpcKkumv0nybUEknfwp-_YAYdJdZkVndGw5p61ZzZSWAFUMaEYtD4gwf63EMH-KryIdKAFdK-6f0MdAZ96Vbku05aZOcyJb0vpi2SeX7887e-6B89JE1b3Fss7ta_6qD_alRl9Xzw_mld0P7J-e4MuMdqPD_oDeTt58y_-wo9eI8FPTcQ2OUfuC4js5BOp5-hsXXp79_Binmu_Z7ymJSCKp3PvjBGn-pjMOTn4NsR8gJlDeEqF6KZE3DruKuv6F0qFyQdqUx4BEJtIuG7_eJ4UtV72d6_e0ZlLgWNy_0g7Hz035VbMxiBljW0VIrSQeLkoFmolYcrTbjpiest2bQA5i5wVTlGfvrtq24ZBdLmJEzpnhZyDjlbTHDMmLl4V?></g></svg>
