<?plantuml 1.2026.2?><svg xmlns="http://www.w3.org/2000/svg" xmlns:xlink="http://www.w3.org/1999/xlink" contentStyleType="text/css" data-diagram-type="DESCRIPTION" height="2638px" preserveAspectRatio="none" style="width:531px;height:2638px;background:#FFFFFF;" version="1.1" viewBox="0 0 531 2638" width="531px" zoomAndPan="magnify"><title>pit-box Tooling Integrations</title><defs/><g><g class="title" data-source-line="1"><text fill="#000000" font-family="Monospace" font-size="14" font-weight="bold" lengthAdjust="spacing" textLength="195.2223" x="161.0074" y="24.9659">pit-box&#160;Tooling&#160;Integrations</text></g><!--entity source_github_workflows_ci_yml--><g class="entity" data-qualified-name="source_github_workflows_ci_yml" data-source-line="7" id="ent0002"><rect fill="#E0F2FE" height="58.1358" rx="2.5" ry="2.5" style="stroke:#181818;stroke-width:0.5;" width="182.6234" x="36.83" y="2273.0679"/><text fill="#000000" font-family="Monospace" font-size="14" lengthAdjust="spacing" textLength="162.6234" x="46.83" y="2298.0339">.github/workflows/ci.yml</text><text fill="#000000" font-family="Monospace" font-size="14" lengthAdjust="spacing" textLength="105.3356" x="46.83" y="2317.1018">4&#160;detected&#160;tools</text></g><!--entity source_scripts_configure_firewalld_sh--><g class="entity" data-qualified-name="source_scripts_configure_firewalld_sh" data-source-line="8" id="ent0003"><rect fill="#E0F2FE" height="58.1358" rx="2.5" ry="2.5" style="stroke:#181818;stroke-width:0.5;" width="213.7312" x="21.28" y="512.0679"/><text fill="#000000" font-family="Monospace" font-size="14" lengthAdjust="spacing" textLength="193.7312" x="31.28" y="537.0339">scripts/configure_firewalld.sh</text><text fill="#000000" font-family="Monospace" font-size="14" lengthAdjust="spacing" textLength="105.3356" x="31.28" y="556.1018">2&#160;detected&#160;tools</text></g><!--entity source_scripts_configure_ufw_sh--><g class="entity" data-qualified-name="source_scripts_configure_ufw_sh" data-source-line="9" id="ent0004"><rect fill="#E0F2FE" height="58.1358" rx="2.5" ry="2.5" style="stroke:#181818;stroke-width:0.5;" width="181.4054" x="37.44" y="719.0679"/><text fill="#000000" font-family="Monospace" font-size="14" lengthAdjust="spacing" textLength="161.4054" x="47.44" y="744.0339">scripts/configure_ufw.sh</text><text fill="#000000" font-family="Monospace" font-size="14" lengthAdjust="spacing" textLength="105.3356" x="47.44" y="763.1018">4&#160;detected&#160;tools</text></g><!--entity source_scripts_enable_ip_forwarding_sh--><g class="entity" data-qualified-name="source_scripts_enable_ip_forwarding_sh" data-source-line="10" id="ent0005"><rect fill="#E0F2FE" height="58.1358" rx="2.5" ry="2.5" style="stroke:#181818;stroke-width:0.5;" width="229.8732" x="13.21" y="391.0679"/><text fill="#000000" font-family="Monospace" font-size="14" lengthAdjust="spacing" textLength="209.8732" x="23.21" y="416.0339">scripts/enable_ip_forwarding.sh</text><text fill="#000000" font-family="Monospace" font-size="14" lengthAdjust="spacing" textLength="105.3356" x="23.21" y="435.1018">2&#160;detected&#160;tools</text></g><!--entity source_scripts_generate_keys_sh--><g class="entity" data-qualified-name="source_scripts_generate_keys_sh" data-source-line="11" id="ent0006"><rect fill="#E0F2FE" height="58.1358" rx="2.5" ry="2.5" style="stroke:#181818;stroke-width:0.5;" width="182.5814" x="36.85" y="1979.0679"/><text fill="#000000" font-family="Monospace" font-size="14" lengthAdjust="spacing" textLength="162.5814" x="46.85" y="2004.0339">scripts/generate_keys.sh</text><text fill="#000000" font-family="Monospace" font-size="14" lengthAdjust="spacing" textLength="105.3356" x="46.85" y="2023.1018">3&#160;detected&#160;tools</text></g><!--entity source_scripts_harden_ssh_sh--><g class="entity" data-qualified-name="source_scripts_harden_ssh_sh" data-source-line="12" id="ent0007"><rect fill="#E0F2FE" height="58.1358" rx="2.5" ry="2.5" style="stroke:#181818;stroke-width:0.5;" width="163.2335" x="46.53" y="1192.0679"/><text fill="#000000" font-family="Monospace" font-size="14" lengthAdjust="spacing" textLength="143.2335" x="56.53" y="1217.0339">scripts/harden_ssh.sh</text><text fill="#000000" font-family="Monospace" font-size="14" lengthAdjust="spacing" textLength="105.3356" x="56.53" y="1236.1018">5&#160;detected&#160;tools</text></g><!--entity source_scripts_install_sh--><g class="entity" data-qualified-name="source_scripts_install_sh" data-source-line="13" id="ent0008"><rect fill="#E0F2FE" height="58.1358" rx="2.5" ry="2.5" style="stroke:#181818;stroke-width:0.5;" width="126.6096" x="64.84" y="2481.0679"/><text fill="#000000" font-family="Monospace" font-size="14" lengthAdjust="spacing" textLength="106.6096" x="74.84" y="2506.0339">scripts/install.sh</text><text fill="#000000" font-family="Monospace" font-size="14" lengthAdjust="spacing" textLength="105.3356" x="74.84" y="2525.1018">0&#160;detected&#160;tools</text></g><!--entity source_scripts_install_fedora_sh--><g class="entity" data-qualified-name="source_scripts_install_fedora_sh" data-source-line="14" id="ent0009"><rect fill="#E0F2FE" height="58.1358" rx="2.5" ry="2.5" style="stroke:#181818;stroke-width:0.5;" width="176.2534" x="40.02" y="619.0679"/><text fill="#000000" font-family="Monospace" font-size="14" lengthAdjust="spacing" textLength="156.2534" x="50.02" y="644.0339">scripts/install_fedora.sh</text><text fill="#000000" font-family="Monospace" font-size="14" lengthAdjust="spacing" textLength="105.3356" x="50.02" y="663.1018">2&#160;detected&#160;tools</text></g><!--entity source_scripts_install_ubuntu_sh--><g class="entity" data-qualified-name="source_scripts_install_ubuntu_sh" data-source-line="15" id="ent0010"><rect fill="#E0F2FE" height="58.1358" rx="2.5" ry="2.5" style="stroke:#181818;stroke-width:0.5;" width="181.0974" x="37.6" y="905.0679"/><text fill="#000000" font-family="Monospace" font-size="14" lengthAdjust="spacing" textLength="161.0974" x="47.6" y="930.0339">scripts/install_ubuntu.sh</text><text fill="#000000" font-family="Monospace" font-size="14" lengthAdjust="spacing" textLength="105.3356" x="47.6" y="949.1018">3&#160;detected&#160;tools</text></g><!--entity source_scripts_install_webterm_sh--><g class="entity" data-qualified-name="source_scripts_install_webterm_sh" data-source-line="16" id="ent0011"><rect fill="#E0F2FE" height="58.1358" rx="2.5" ry="2.5" style="stroke:#181818;stroke-width:0.5;" width="192.1573" x="32.07" y="1471.0679"/><text fill="#000000" font-family="Monospace" font-size="14" lengthAdjust="spacing" textLength="172.1573" x="42.07" y="1496.0339">scripts/install_webterm.sh</text><text fill="#000000" font-family="Monospace" font-size="14" lengthAdjust="spacing" textLength="105.3356" x="42.07" y="1515.1018">9&#160;detected&#160;tools</text></g><!--entity source_scripts_package_client_sh--><g class="entity" data-qualified-name="source_scripts_package_client_sh" data-source-line="17" id="ent0012"><rect fill="#E0F2FE" height="58.1358" rx="2.5" ry="2.5" style="stroke:#181818;stroke-width:0.5;" width="184.2894" x="36" y="1285.0679"/><text fill="#000000" font-family="Monospace" font-size="14" lengthAdjust="spacing" textLength="164.2894" x="46" y="1310.0339">scripts/package_client.sh</text><text fill="#000000" font-family="Monospace" font-size="14" lengthAdjust="spacing" textLength="105.3356" x="46" y="1329.1018">4&#160;detected&#160;tools</text></g><!--entity source_scripts_rebuild_webservices_sh--><g class="entity" data-qualified-name="source_scripts_rebuild_webservices_sh" data-source-line="18" id="ent0013"><rect fill="#E0F2FE" height="58.1358" rx="2.5" ry="2.5" style="stroke:#181818;stroke-width:0.5;" width="220.4372" x="17.93" y="1564.0679"/><text fill="#000000" font-family="Monospace" font-size="14" lengthAdjust="spacing" textLength="200.4372" x="27.93" y="1589.0339">scripts/rebuild_webservices.sh</text><text fill="#000000" font-family="Monospace" font-size="14" lengthAdjust="spacing" textLength="113.3436" x="27.93" y="1608.1018">10&#160;detected&#160;tools</text></g><!--entity source_scripts_render_configs_sh--><g class="entity" data-qualified-name="source_scripts_render_configs_sh" data-source-line="19" id="ent0014"><rect fill="#E0F2FE" height="58.1358" rx="2.5" ry="2.5" style="stroke:#181818;stroke-width:0.5;" width="185.9274" x="35.18" y="812.0679"/><text fill="#000000" font-family="Monospace" font-size="14" lengthAdjust="spacing" textLength="165.9274" x="45.18" y="837.0339">scripts/render_configs.sh</text><text fill="#000000" font-family="Monospace" font-size="14" lengthAdjust="spacing" textLength="105.3356" x="45.18" y="856.1018">2&#160;detected&#160;tools</text></g><!--entity source_scripts_render_webterm_index_sh--><g class="entity" data-qualified-name="source_scripts_render_webterm_index_sh" data-source-line="20" id="ent0015"><rect fill="#E0F2FE" height="58.1358" rx="2.5" ry="2.5" style="stroke:#181818;stroke-width:0.5;" width="240.0652" x="8.11" y="1378.0679"/><text fill="#000000" font-family="Monospace" font-size="14" lengthAdjust="spacing" textLength="220.0652" x="18.11" y="1403.0339">scripts/render_webterm_index.sh</text><text fill="#000000" font-family="Monospace" font-size="14" lengthAdjust="spacing" textLength="105.3356" x="18.11" y="1422.1018">2&#160;detected&#160;tools</text></g><!--entity source_scripts_run_tachometer_profile_sh--><g class="entity" data-qualified-name="source_scripts_run_tachometer_profile_sh" data-source-line="21" id="ent0016"><rect fill="#E0F2FE" height="58.1358" rx="2.5" ry="2.5" style="stroke:#181818;stroke-width:0.5;" width="242.2912" x="7" y="215.0679"/><text fill="#000000" font-family="Monospace" font-size="14" lengthAdjust="spacing" textLength="222.2912" x="17" y="240.0339">scripts/run_tachometer_profile.sh</text><text fill="#000000" font-family="Monospace" font-size="14" lengthAdjust="spacing" textLength="105.3356" x="17" y="259.1018">3&#160;detected&#160;tools</text></g><!--entity source_scripts_ttyd_session_sh--><g class="entity" data-qualified-name="source_scripts_ttyd_session_sh" data-source-line="22" id="ent0017"><rect fill="#E0F2FE" height="58.1358" rx="2.5" ry="2.5" style="stroke:#181818;stroke-width:0.5;" width="168.3295" x="43.98" y="47.0679"/><text fill="#000000" font-family="Monospace" font-size="14" lengthAdjust="spacing" textLength="148.3295" x="53.98" y="72.0339">scripts/ttyd_session.sh</text><text fill="#000000" font-family="Monospace" font-size="14" lengthAdjust="spacing" textLength="98.6296" x="53.98" y="91.1018">1&#160;detected&#160;tool</text></g><!--entity source_scripts_validate_sh--><g class="entity" data-qualified-name="source_scripts_validate_sh" data-source-line="23" id="ent0018"><rect fill="#E0F2FE" height="58.1358" rx="2.5" ry="2.5" style="stroke:#181818;stroke-width:0.5;" width="139.1116" x="58.59" y="2574.0679"/><text fill="#000000" font-family="Monospace" font-size="14" lengthAdjust="spacing" textLength="119.1116" x="68.59" y="2599.0339">scripts/validate.sh</text><text fill="#000000" font-family="Monospace" font-size="14" lengthAdjust="spacing" textLength="105.3356" x="68.59" y="2618.1018">0&#160;detected&#160;tools</text></g><!--entity tool_all_services_ttyd--><g class="entity" data-qualified-name="tool_all_services_ttyd" data-source-line="24" id="ent0019"><path d="M341.8281,1909.176 C344.8954,1902.0838 351.4606,1901.915 355.2459,1908.4701 C359.2304,1903.8834 363.2673,1902.8231 366.7354,1909.0203 C370.8616,1902.8855 376.2105,1902.4281 380.7497,1908.548 C383.3772,1902.9883 388.7133,1901.4166 392.7659,1907.0129 C396.1778,1901.3228 402.4251,1899.7349 406.1117,1906.7238 C410.851,1902.2086 414.6079,1901.9224 418.299,1907.937 C421.237,1902.6722 426.1565,1900.9211 430.1107,1906.8662 C433.7439,1901.5638 439.4234,1900.7107 442.8516,1907.0898 C447.2136,1900.5195 451.0486,1900.8168 455.0406,1907.4318 C459.2355,1901.2579 465.4579,1901.8447 468.323,1908.7792 C472.8285,1901.3771 477.9881,1902.3981 482.105,1909.1574 C485.0904,1902.3845 490.0446,1902.4702 494.0015,1908.2357 C503.3273,1913.0803 502.9424,1918.8051 495.8901,1925.4468 C504.0187,1932.38 502.3077,1938.0978 493.1759,1942.2415 C489.9028,1948.5722 485.5999,1948.1727 481.6892,1942.8711 C478.3645,1948.9545 472.3359,1949.9014 468.4701,1943.4413 C464.6635,1949.7881 460.7571,1951.77 455.2554,1945.1717 C451.1537,1950.476 446.4875,1950.1879 442.6924,1944.8112 C439.2006,1952.266 435.0077,1952.4916 429.6699,1946.6143 C426.3075,1952.4585 421.2657,1952.596 417.3451,1947.2279 C413.335,1952.6675 408.4292,1952.3886 404.8886,1946.7022 C400.477,1953.6419 395.3932,1952.6555 391.7968,1945.9216 C387.3882,1951.6363 381.7212,1950.1979 379.3822,1943.8004 C375.7725,1949.1898 370.0142,1948.8339 367.4935,1942.679 C362.4626,1949.0405 357.9738,1948.0158 353.8896,1941.6657 C349.5001,1946.7491 345.7472,1947.2372 341.9426,1941.046 C332.6484,1939.2635 330.1642,1934.4324 335.2145,1926.1645 C329.6821,1917.5146 330.3856,1911.2177 341.8281,1909.176" fill="#FEF3C7" style="stroke:#181818;stroke-width:0.5;"/><text fill="#000000" font-family="Monospace" font-size="14" lengthAdjust="spacing" textLength="137.5495" x="347.99" y="1929.5739">ALL_SERVICES+=(ttyd</text></g><!--entity tool_actions_checkout--><g class="entity" data-qualified-name="tool_actions_checkout" data-source-line="25" id="ent0020"><path d="M355.2421,2159.9736 C359.0939,2153.8146 363.8365,2153.9551 367.566,2160.0962 C370.8717,2153.3332 375.8734,2154.5822 379.912,2159.3087 C384.5323,2152.1613 388.7929,2152.2861 393.4339,2159.289 C397.7087,2153.0056 401.5413,2153.9936 405.6373,2159.4745 C408.9688,2154.7886 414.1824,2154.9422 416.9626,2160.1082 C419.6608,2154.4505 425.9273,2153.9586 429.5045,2159.0861 C433.5841,2153.0488 438.8819,2153.1084 443.255,2158.7402 C448.4296,2153.3047 453.1912,2153.8048 456.0416,2161.0785 C459.0126,2154.9545 464.4929,2155.0386 467.5315,2161.0143 C471.5003,2155.1808 475.8844,2155.9378 479.8944,2160.9674 C489.5757,2163.377 490.8859,2169.5367 485.8882,2177.325 C491.3331,2185.7822 489.868,2190.8855 479.9247,2193.7585 C477.6771,2199.4299 472.3173,2199.9012 469.1414,2194.6773 C465.5544,2201.1875 459.3923,2201.7768 454.8011,2195.8336 C452.0676,2201.7361 448.0971,2203.3515 442.8671,2198.6408 C439.5862,2205.1447 435.0901,2204.9688 431.0101,2199.4273 C428.4817,2206.8665 421.9643,2207.3334 417.956,2200.8111 C413.0527,2207.2089 407.5936,2205.1332 405.1065,2198.4395 C401.1706,2205.2175 395.2489,2205.0621 391.6781,2198.0831 C387.1434,2203.6015 382.4551,2202.1229 379.7815,2196.1555 C375.9043,2201.273 370.5453,2200.8951 368.0014,2194.7598 C363.5405,2200.2229 357.3186,2200.9587 354.0571,2193.4686 C346.9591,2189.4171 345.5577,2181.4342 354.1387,2177.4627 C345.8964,2171.4345 346.8435,2164.9519 355.2421,2159.9736" fill="#FEF3C7" style="stroke:#181818;stroke-width:0.5;"/><text fill="#000000" font-family="Monospace" font-size="14" lengthAdjust="spacing" textLength="111.9156" x="360.81" y="2181.5739">actions/checkout</text></g><!--entity tool_actions_setup_python--><g class="entity" data-qualified-name="tool_actions_setup_python" data-source-line="26" id="ent0021"><path d="M340.8791,2245.1586 C343.0916,2239.1038 347.3052,2239.042 351.1239,2243.6095 C355.9876,2238.2798 360.3269,2238.9286 363.7197,2245.2057 C365.6157,2240.6163 370.4136,2238.7621 373.8696,2243.5098 C377.2291,2237.2172 380.8366,2237.3238 384.9051,2242.8476 C388.4853,2237.3611 392.223,2238.2593 395.6727,2242.9852 C399.5114,2238.6436 403.1498,2238.972 405.926,2244.1318 C409.1014,2238.3273 414.1579,2236.6745 418.8998,2242.3636 C421.9456,2237.3928 424.884,2237.4513 428.005,2242.2938 C432.3381,2236.5512 436.6661,2237.1919 440.3953,2242.9448 C444.438,2238.0074 448.3071,2238.6712 451.3686,2243.9943 C454.1371,2238.6213 458.9005,2239.2976 462.0099,2243.6201 C465.0603,2237.976 469.8618,2238.6911 472.5925,2243.9309 C476.8174,2238.2887 480.6172,2238.9722 484.6537,2244.141 C488.4454,2238.8706 492.8972,2239.184 496.0976,2244.7645 C505.2426,2247.4658 507.0741,2255.489 500.554,2262.1952 C507.5889,2270.2909 505.1416,2276.8288 494.5514,2278.3928 C491.0694,2283.9835 487.291,2283.9111 484.1067,2278.1195 C482.0618,2283.9953 477.1228,2283.6188 473.6559,2279.6252 C470.909,2285.4879 466.2812,2285.6393 462.3838,2280.8419 C459.2627,2286.9577 453.5131,2286.6933 450.4438,2280.7904 C448.0205,2286.3561 444.7916,2285.735 440.8933,2282.3674 C437.7392,2287.5005 433.1785,2288.1364 429.6669,2282.7489 C427.2921,2288.1306 421.6319,2288.6046 418.2829,2283.8421 C414.7016,2289.8657 410.1583,2289.539 406.471,2283.9498 C402.8963,2288.5287 397.7035,2289.2175 395.0066,2283.0164 C391.3568,2287.4999 387.0518,2285.9887 385.3053,2281.0556 C380.8532,2285.0863 377.1224,2284.7505 373.9681,2279.4746 C369.8318,2285.5835 365.9178,2284.2796 362.0384,2279.2006 C359.811,2283.6265 355.1823,2283.493 352.5288,2279.6932 C348.7547,2285.3686 343.1749,2284.7549 340.6762,2278.4331 C330.9393,2277.1473 327.3689,2269.9795 331.9411,2261.3689 C326.9785,2252.4528 329.5067,2245.0679 340.8791,2245.1586" fill="#FEF3C7" style="stroke:#181818;stroke-width:0.5;"/><text fill="#000000" font-family="Monospace" font-size="14" lengthAdjust="spacing" textLength="140.2795" x="346.63" y="2265.5739">actions/setup-python</text></g><!--entity tool_apt_get--><g class="entity" data-qualified-name="tool_apt_get" data-source-line="27" id="ent0022"><path d="M387.7303,1489.0758 C391.2483,1482.751 398.2057,1482.5553 402.3859,1488.2697 C406.0791,1480.9494 412.0603,1480.1752 417.5376,1486.2519 C422.969,1479.3471 430.897,1479.5914 433.7412,1488.8461 C437.3593,1482.3029 444.5587,1480.8149 449.0822,1487.8209 C459.8569,1488.9195 463.8752,1494.4774 457.871,1504.4461 C462.7988,1514.0851 458.6956,1521.6742 447.5682,1521.7588 C445.3807,1529.4837 439.1499,1530.88 433.6092,1525.2686 C431.353,1533.5277 426.0374,1535.377 418.7866,1531.2419 C411.1116,1537.1011 404.7558,1536.297 401.6436,1526.3067 C394.6679,1532.901 388.0048,1529.4689 386.2516,1520.9779 C379.3224,1516.0498 377.725,1511.4417 385.6213,1505.8941 C378.9273,1499.826 379.9043,1493.3231 387.7303,1489.0758" fill="#FEF3C7" style="stroke:#181818;stroke-width:0.5;"/><text fill="#000000" font-family="Monospace" font-size="14" lengthAdjust="spacing" textLength="47.5858" x="392.97" y="1509.5739">apt-get</text></g><!--entity tool_caddy--><g class="entity" data-qualified-name="tool_caddy" data-source-line="28" id="ent0023"><path d="M391.6113,1572.1653 C395.462,1566.2856 400.8282,1566.2829 404.1797,1572.6765 C407.7343,1565.7706 413.3372,1566.0536 418.0967,1571.2961 C422.0647,1565.2201 426.3433,1565.749 430.6686,1570.8959 C435.0427,1565.5128 440.3324,1565.0635 443.4647,1572.1684 C456.0683,1572.388 458.6048,1579.5773 454.2085,1590.0253 C458.7969,1598.7785 453.3025,1605.209 444.3932,1605.2743 C441.4242,1611.5751 437.5214,1613.8374 431.6464,1608.441 C428.773,1615.1645 422.5422,1616.811 417.1959,1611.3814 C411.7363,1615.9446 407.8173,1613.7862 405.716,1607.7457 C400.0083,1615.0156 393.5562,1613.0325 390.4783,1605.1084 C381.1284,1603.0454 376.7533,1598.5498 382.6115,1589.0408 C377.1552,1578.6065 381.4196,1574.2544 391.6113,1572.1653" fill="#FEF3C7" style="stroke:#181818;stroke-width:0.5;"/><text fill="#000000" font-family="Monospace" font-size="14" lengthAdjust="spacing" textLength="38.9339" x="397.3" y="1593.5739">caddy</text></g><!--entity tool_cat--><g class="entity" data-qualified-name="tool_cat" data-source-line="29" id="ent0024"><path d="M400.8682,732.622 C404.7519,722.512 411.6192,722.9169 418.3821,729.6233 C425.8659,722.931 430.2246,725.7905 433.8338,733.7183 C442.4492,736.8711 442.9373,742.3633 437.6319,748.9803 C443.5794,755.1374 443.2012,763.0345 433.7511,765.5952 C431.4283,775.4109 424.1467,776.4102 416.7882,771.3296 C408.9732,777.4214 403.7219,774.6964 401.3127,765.7622 C390.5525,764.5126 389.1403,759.0666 393.7637,750.3043 C388.054,742.2336 389.6007,733.8715 400.8682,732.622" fill="#FEF3C7" style="stroke:#181818;stroke-width:0.5;"/><text fill="#000000" font-family="Monospace" font-size="14" lengthAdjust="spacing" textLength="19.6279" x="406.95" y="753.5739">cat</text></g><!--entity tool_cp--><g class="entity" data-qualified-name="tool_cp" data-source-line="30" id="ent0025"><path d="M402.4622,1404.5523 C405.8414,1395.9528 412.7268,1395.6131 418.1715,1402.4503 C423.1542,1395.9357 429.868,1397.5522 432.1224,1405.1478 C440.3303,1408.97 440.9838,1415.1774 433.8757,1420.7236 C440.6178,1426.96 441.0258,1433.5007 431.8702,1437.8785 C430.9666,1446.4266 426.1432,1449.5809 417.9571,1446.9091 C407.805,1452.382 402.9623,1447.954 402.4754,1437.5088 C392.6119,1433.8544 393.0194,1426.6854 399.8954,1420.4928 C394.3039,1414.5223 393.1632,1408.1252 402.4622,1404.5523" fill="#FEF3C7" style="stroke:#181818;stroke-width:0.5;"/><text fill="#000000" font-family="Monospace" font-size="14" lengthAdjust="spacing" textLength="15.3299" x="409.1" y="1425.5739">cp</text></g><!--entity tool_dnf--><g class="entity" data-qualified-name="tool_dnf" data-source-line="31" id="ent0026"><path d="M399.2752,1657.5673 C404.7375,1647.3648 410.784,1645.1563 418.8661,1655.008 C423.7528,1645.9978 431.7511,1646.4458 435.9911,1655.6173 C447.1645,1658.3693 448.6384,1664.3641 441.5907,1672.9895 C448.0499,1679.5437 445.0677,1687.1703 436.7001,1689.2708 C433.4258,1699.1915 424.6303,1700.3163 417.93,1693.0017 C411.6618,1702.3971 402.9276,1700.4766 398.8708,1690.7926 C387.9734,1688.8089 384.131,1683.6289 390.9086,1673.5047 C385.1162,1663.4595 387.7018,1658.4961 399.2752,1657.5673" fill="#FEF3C7" style="stroke:#181818;stroke-width:0.5;"/><text fill="#000000" font-family="Monospace" font-size="14" lengthAdjust="spacing" textLength="22.0779" x="405.73" y="1677.5739">dnf</text></g><!--entity tool_firewall_cmd--><g class="entity" data-qualified-name="tool_firewall_cmd" data-source-line="32" id="ent0027"><path d="M371.1602,481.3154 C374.7002,475.4902 379.2269,475.1895 383.1494,480.9185 C385.745,474.7676 390.5089,474.8248 394.1749,479.8637 C397.466,474.6177 403.031,475.1154 405.6918,480.5437 C408.0946,473.2184 414.3452,472.991 418.5406,478.7885 C422.4852,473.105 427.8766,474.1941 430.0993,480.4548 C434.445,474.2571 438.0887,475.922 441.9452,480.9701 C444.3853,474.6848 449.0516,475.4598 452.8479,479.5444 C456.7121,474.316 462.3248,475.9843 464.4685,481.4193 C474.4865,483.3942 478.1961,487.8281 472.515,497.6067 C479.4383,506.826 475.5531,511.78 465.9944,514.7188 C461.9256,520.4231 456.2994,520.2084 452.9451,513.9401 C449.9069,519.7528 445.2568,521.0762 440.8835,515.3338 C437.8772,520.4722 434.0496,520.7051 430.3502,516.0817 C426.1803,521.5734 422.1466,522.064 417.6427,516.4644 C413.8371,521.008 410.4843,521.3183 406.6615,516.4844 C402.7521,523.2227 398.0305,522.5337 394.1535,516.4527 C389.0352,522.3574 385.0947,521.3186 381.1916,515.1483 C377.1715,519.929 373.1665,519.2808 370.3277,513.887 C360.1429,510.4686 359.7835,503.5909 366.4862,496.4517 C361.3675,489.6079 362.7413,483.9788 371.1602,481.3154" fill="#FEF3C7" style="stroke:#181818;stroke-width:0.5;"/><text fill="#000000" font-family="Monospace" font-size="14" lengthAdjust="spacing" textLength="81.1157" x="376.21" y="501.5739">firewall-cmd</text></g><!--entity tool_firewalld--><g class="entity" data-qualified-name="tool_firewalld" data-source-line="33" id="ent0028"><path d="M383.3513,564.8187 C385.5115,559.2927 390.6422,558.1656 394.2057,563.4036 C398.0799,558.3808 403.7727,558.8379 406.8953,564.3123 C409.5857,558.2078 414.1908,557.3284 418.4265,562.7686 C421.9055,557.9736 426.7984,559.2139 428.6271,564.4472 C431.7753,558.6688 436.3338,558.1633 440.5189,563.3194 C445.1251,556.7209 450.6387,558.1372 453.9642,564.6342 C462.9828,568.3378 462.2653,576.4059 454.9554,581.0927 C462.6806,586.5528 462.8146,593.9442 453.4009,597.8106 C451.5408,603.2754 446.4126,604.874 442.1548,600.5713 C440.0809,606.8638 435.5311,608.1085 430.5252,603.7826 C427.1769,610.4935 422.3928,611.305 417.1325,605.8953 C412.8809,610.0269 409.5751,609.4772 407.0734,604.0532 C401.4997,609.2234 395.6352,606.3117 393.8547,599.7715 C389.6002,604.3835 385.5365,605.0523 382.438,598.5808 C371.4942,597.627 367.3655,589.5634 373.9531,580.4192 C370.6002,571.0839 372.0316,565.3148 383.3513,564.8187" fill="#FEF3C7" style="stroke:#181818;stroke-width:0.5;"/><text fill="#000000" font-family="Monospace" font-size="14" lengthAdjust="spacing" textLength="56.7978" x="388.37" y="585.5739">firewalld</text></g><!--entity tool_grep--><g class="entity" data-qualified-name="tool_grep" data-source-line="34" id="ent0029"><path d="M395.6492,1236.6046 C398.326,1232.1961 402.8481,1231.0553 406.0097,1236.0716 C409.2403,1229.096 413.1901,1228.1814 418.7539,1233.6898 C421.8921,1228.9256 427.1402,1230.0947 429.4112,1234.6785 C433.7909,1230.7143 437.6513,1231.3967 439.9898,1236.9479 C449.9074,1239.7187 449.8025,1246.0952 444.3052,1253.0081 C451.1246,1260.8869 448.2841,1266.0864 439.7445,1269.7917 C437.5851,1275.9432 434.028,1277.7622 428.4664,1273.4634 C426.6857,1278.3453 421.8878,1280.3928 417.9285,1275.9166 C412.0288,1279.4856 408.0393,1278.7729 405.6592,1271.8146 C401.726,1276.3784 396.5825,1274.5668 395.0188,1269.2603 C385.304,1267.1387 382.7177,1259.4005 390.068,1252.2981 C384.3233,1245.371 386.7803,1238.3346 395.6492,1236.6046" fill="#FEF3C7" style="stroke:#181818;stroke-width:0.5;"/><text fill="#000000" font-family="Monospace" font-size="14" lengthAdjust="spacing" textLength="30.8979" x="401.32" y="1257.5739">grep</text></g><!--entity tool_install--><g class="entity" data-qualified-name="tool_install" data-source-line="35" id="ent0030"><path d="M391.1863,1739.8385 C395.3349,1734.6302 400.2756,1733.427 403.9368,1740.3508 C408.2222,1731.8756 413.3742,1733.2109 418.8926,1739.0637 C422.4018,1734.425 427.2371,1733.8571 430.2098,1739.646 C435.6396,1732.6756 440.1747,1732.8658 444.8871,1740.3732 C455.0488,1740.2641 459.4949,1748.3367 453.5252,1756.741 C458.1427,1765.6214 453.8256,1771.6933 444.5378,1772.7838 C441.9824,1780.7729 436.2318,1781.6711 430.9301,1775.4055 C427.1111,1783.4235 422.2125,1783.4341 416.7879,1776.9739 C412.3833,1782.8312 407.8769,1782.2148 404.7659,1775.7153 C400.8378,1780.6544 394.5063,1779.9181 391.7819,1774.2428 C380.8109,1772.0938 379.9795,1766.3563 384.6676,1757.5382 C377.3476,1748.0274 379.4658,1742.3369 391.1863,1739.8385" fill="#FEF3C7" style="stroke:#181818;stroke-width:0.5;"/><text fill="#000000" font-family="Monospace" font-size="14" lengthAdjust="spacing" textLength="39.1019" x="397.21" y="1761.5739">install</text></g><!--entity tool_mkdir--><g class="entity" data-qualified-name="tool_mkdir" data-source-line="36" id="ent0031"><path d="M391.7913,1320.1653 C395.6159,1314.3292 400.9433,1314.3281 404.2687,1320.6765 C407.7958,1313.8131 413.3626,1314.0906 418.0947,1319.2961 C422.0326,1313.2631 426.2804,1313.7872 430.5756,1318.8959 C434.9227,1313.5538 440.1754,1313.1113 443.2807,1320.1684 C455.8844,1320.388 458.4208,1327.5773 454.0245,1338.0253 C458.6129,1346.7785 453.1185,1353.209 444.2093,1353.2743 C441.2707,1359.5377 437.3979,1361.7913 431.5534,1356.441 C428.7057,1363.1274 422.5146,1364.7715 417.1939,1359.3814 C411.7632,1363.8993 407.8774,1361.7475 405.805,1355.7457 C400.1231,1362.9677 393.7104,1360.9897 390.6583,1353.1084 C381.3084,1351.0454 376.9333,1346.5498 382.7915,1337.0408 C377.3352,1326.6065 381.5996,1322.2544 391.7913,1320.1653" fill="#FEF3C7" style="stroke:#181818;stroke-width:0.5;"/><text fill="#000000" font-family="Monospace" font-size="14" lengthAdjust="spacing" textLength="38.5699" x="397.48" y="1341.5739">mkdir</text></g><!--entity tool_pip--><g class="entity" data-qualified-name="tool_pip" data-source-line="37" id="ent0032"><path d="M400.6412,2327.6766 C404.9855,2320.0487 412.4507,2318.5861 417.9051,2326.4386 C425.3131,2318.3247 431.4218,2320.2722 435.7105,2329.6194 C445.0819,2330.8715 449.1419,2335.7641 444.307,2344.9712 C450.3978,2354.6979 444.7244,2361.122 434.8361,2361.9196 C431.9261,2371.8952 426.2352,2374.2625 417.8533,2367.4574 C409.5373,2374.5697 401.7226,2370.6665 399.7346,2360.7317 C391.922,2356.453 389.49,2351.8308 396.9987,2344.9039 C389.9308,2337.6859 390.8157,2331.3228 400.6412,2327.6766" fill="#FEF3C7" style="stroke:#181818;stroke-width:0.5;"/><text fill="#000000" font-family="Monospace" font-size="14" lengthAdjust="spacing" textLength="20.8319" x="406.35" y="2349.5739">pip</text></g><!--entity tool_pre_commit--><g class="entity" data-qualified-name="tool_pre_commit" data-source-line="38" id="ent0033"><path d="M372.9272,2412.0607 C375.7131,2406.9644 380.289,2407.3261 383.0329,2412.1038 C387.1271,2405.8565 392.4935,2407.286 395.9636,2412.7906 C399.297,2407.2808 402.5673,2406.8529 406.3243,2412.3935 C409.2295,2405.4659 413.7997,2405.43 418.5478,2410.5188 C422.3756,2405.2567 426.7872,2407.3619 429.0808,2412.1299 C432.2278,2406.9792 436.2737,2406.7645 439.809,2411.7174 C443.6636,2405.8526 448.586,2406.978 451.6661,2412.5223 C454.7473,2406.7944 459.4081,2408.0986 462.3963,2412.6197 C470.6248,2416.431 471.3061,2423.4447 464.1436,2428.9071 C472.164,2433.8706 471.645,2439.5523 464.3124,2444.6801 C461.116,2450.1026 456.8113,2450.845 452.8697,2445.4698 C450.1979,2452.1581 445.1186,2452.4145 440.591,2447.4202 C436.6097,2452.8265 433.278,2452.0876 429.5446,2447.1552 C427.125,2452.8661 421.8388,2453.0078 418.8236,2447.7366 C415.4017,2452.4921 410.2844,2452.9112 407.1558,2447.4032 C403.1178,2451.2005 398.3895,2451.4852 396.2436,2445.329 C393.2316,2452.371 387.0741,2451.6054 383.0227,2446.4563 C379.4668,2450.953 373.8187,2450.5898 371.4547,2445.0787 C362.6479,2443.9297 359.6925,2435.6843 364.5687,2428.7611 C359.8521,2419.3582 361.2716,2413.2694 372.9272,2412.0607" fill="#FEF3C7" style="stroke:#181818;stroke-width:0.5;"/><text fill="#000000" font-family="Monospace" font-size="14" lengthAdjust="spacing" textLength="76.8317" x="378.35" y="2433.5739">pre-commit</text></g><!--entity tool_qrencode--><g class="entity" data-qualified-name="tool_qrencode" data-source-line="39" id="ent0034"><path d="M378.9773,1069.128 C383.1426,1063.6218 387.0427,1062.4932 391.3007,1069.0331 C395.7262,1063.582 399.7101,1061.9095 404.482,1068.6588 C407.2666,1062.1079 413.9786,1060.9551 418.2276,1067.0694 C421.6707,1060.7879 425.8531,1061.6665 429.5808,1066.786 C433.5891,1060.7841 440.561,1060.586 443.4259,1067.9687 C447.8461,1061.2222 452.5939,1061.8788 457.1868,1067.7808 C467.2546,1068.6312 471.1951,1076.4654 466.6222,1085.2318 C472.9252,1095.5846 467.0481,1103.3577 455.718,1102.7092 C452.7375,1108.3973 446.8315,1108.8781 443.2989,1103.3187 C441.0416,1111.4211 436.8022,1112.4218 430.5731,1107.0776 C428.3761,1113.2589 422.6058,1114.4433 418.4653,1109.1238 C413.5594,1114.5464 407.8247,1115.2416 404.5383,1107.4207 C399.5778,1111.313 394.576,1111.0038 392.4438,1104.2173 C387.0631,1111.0652 382.5414,1108.7492 378.6188,1102.6592 C368.1731,1100.7067 365.7031,1093.3963 370.4422,1084.5772 C365.7631,1075.93 369.0053,1069.681 378.9773,1069.128" fill="#FEF3C7" style="stroke:#181818;stroke-width:0.5;"/><text fill="#000000" font-family="Monospace" font-size="14" lengthAdjust="spacing" textLength="62.6358" x="385.45" y="1089.5739">qrencode</text></g><!--entity tool_render_webterm_index_sh--><g class="entity" data-qualified-name="tool_render_webterm_index_sh" data-source-line="40" id="ent0035"><path d="M324.9894,1824.5859 C329.0661,1818.795 334.4048,1818.5732 337.7022,1825.3727 C341.579,1819.228 347.5566,1817.5792 351.7887,1825.0038 C355.6291,1818.5048 361.7431,1818.7706 365.3692,1825.2284 C368.5316,1819.5137 373.832,1817.5436 378.19,1823.9654 C381.0294,1817.3152 386.5775,1817.4943 390.8419,1822.4061 C396.3409,1815.6391 400.399,1817.5975 404.3837,1823.967 C407.2142,1816.3192 413.7705,1816.4408 418.2942,1822.2118 C422.6402,1816.6705 427.5304,1816.6367 431.2551,1822.8942 C436.3659,1816.7987 441.7234,1817.338 445.6682,1824.1919 C449.0923,1818.2124 452.821,1819.0782 456.9293,1823.4472 C462.4951,1817.6892 467.4768,1817.2065 471.7808,1824.8459 C475.2116,1819.2528 479.4448,1819.7453 483.3856,1824.2603 C488.6991,1817.5185 493.2143,1818.6013 497.9171,1824.9388 C502.7628,1817.3174 506.9804,1817.6528 511.9089,1824.8607 C521.4507,1830.7582 521.2439,1836.9644 511.5493,1842.4691 C517.9825,1847.4677 520.1222,1853.7288 511.3915,1858.5788 C508.4182,1865.5758 502.2028,1866.2635 498.1677,1859.6073 C494.2453,1867.6018 489.3019,1868.5882 483.5946,1861.3105 C478.8891,1866.9551 474.1474,1867.8321 469.8874,1860.8277 C467.9487,1866.2861 463.1498,1867.3891 458.8886,1863.5856 C455.8218,1871.0923 449.1019,1869.8176 445.2857,1864.3727 C441.2512,1870.4334 436.3148,1871.4789 432.0724,1864.5847 C428.4662,1870.982 423.3543,1872.9753 418.091,1866.3661 C413.2865,1871.791 407.5276,1872.9492 404.1822,1864.864 C399.0121,1869.275 395.1311,1868.8173 391.7678,1862.7279 C387.0216,1869.6337 381.3809,1870.3617 377.1226,1862.252 C373.4295,1867.2669 367.7974,1868.2734 364.8649,1861.4635 C360.9467,1867.2329 355.0362,1865.8219 352.7392,1859.7968 C347.9851,1866.4375 343.6458,1866.6922 338.4511,1860.279 C333.6982,1866.5462 329.0045,1866.2594 325.5956,1859.0015 C315.0967,1855.5723 315.2918,1848.4751 321.7925,1841.3776 C313.9041,1835.3824 317.2459,1827.6049 324.9894,1824.5859" fill="#FEF3C7" style="stroke:#181818;stroke-width:0.5;"/><text fill="#000000" font-family="Monospace" font-size="14" lengthAdjust="spacing" textLength="171.6673" x="330.93" y="1845.5739">render_webterm_index.sh</text></g><!--entity tool_run--><g class="entity" data-qualified-name="tool_run" data-source-line="41" id="ent0036"><path d="M398.4302,145.2406 C403.3018,136.0993 411.6048,134.4996 418.6651,142.6843 C424.5287,134.9204 432.8535,136.6583 436.2527,145.3225 C445.8423,146.0313 451.5316,150.7844 446.0444,160.9437 C451.2785,170.3902 447.7765,175.81 437.403,176.6928 C437.1646,189.4175 430.8331,194.4121 418.8397,188.2409 C407.933,193.2736 400.7706,191.7876 400.0702,178.0403 C390.4093,177.2056 386.6211,169.114 391.9739,161.1027 C386.9185,152.9757 389.3347,147.6077 398.4302,145.2406" fill="#FEF3C7" style="stroke:#181818;stroke-width:0.5;"/><text fill="#000000" font-family="Monospace" font-size="14" lengthAdjust="spacing" textLength="23.0859" x="405.22" y="165.5739">run</text></g><!--entity tool_sed--><g class="entity" data-qualified-name="tool_sed" data-source-line="42" id="ent0037"><path d="M398.3702,649.2406 C403.2602,640.0732 411.5893,638.4718 418.6681,646.6843 C424.5481,638.8901 432.903,640.6297 436.3187,649.3225 C445.9083,650.0313 451.5976,654.7844 446.1104,664.9437 C451.3445,674.3902 447.8425,679.81 437.469,680.6928 C437.2107,693.4483 430.8561,698.4454 418.8427,692.2409 C407.9148,697.302 400.7318,695.8222 400.0102,682.0403 C390.3493,681.2056 386.5611,673.114 391.9139,665.1027 C386.8585,656.9757 389.2747,651.6077 398.3702,649.2406" fill="#FEF3C7" style="stroke:#181818;stroke-width:0.5;"/><text fill="#000000" font-family="Monospace" font-size="14" lengthAdjust="spacing" textLength="23.2119" x="405.16" y="669.5739">sed</text></g><!--entity tool_sshd--><g class="entity" data-qualified-name="tool_sshd" data-source-line="43" id="ent0038"><path d="M395.7592,984.6046 C398.4204,980.2192 402.9177,979.0832 406.0637,984.0716 C409.275,977.1231 413.2073,976.2092 418.7519,981.6898 C421.8761,976.9519 427.0963,978.1175 429.3532,982.6785 C433.7151,978.7391 437.5552,979.4223 439.8758,984.9479 C449.7934,987.7187 449.6885,994.0952 444.1912,1001.0081 C451.0106,1008.8869 448.1701,1014.0864 439.6305,1017.7917 C437.4898,1023.9187 433.9513,1025.7348 428.4084,1021.4634 C426.6424,1026.3227 421.8711,1028.3656 417.9265,1023.9166 C412.0461,1027.4629 408.074,1026.7476 405.7132,1019.8146 C401.7941,1024.351 396.6784,1022.5423 395.1288,1017.2603 C385.414,1015.1387 382.8277,1007.4005 390.178,1000.2981 C384.4333,993.371 386.8903,986.3346 395.7592,984.6046" fill="#FEF3C7" style="stroke:#181818;stroke-width:0.5;"/><text fill="#000000" font-family="Monospace" font-size="14" lengthAdjust="spacing" textLength="30.6739" x="401.43" y="1005.5739">sshd</text></g><!--entity tool_summarize--><g class="entity" data-qualified-name="tool_summarize" data-source-line="44" id="ent0039"><path d="M374.2962,228.0782 C379.4905,220.458 384.7279,222.0317 389.1554,228.8663 C392.7719,221.7152 398.4794,221.9495 402.5602,228.4089 C407.3942,220.9454 412.1609,219.6754 418.3659,226.9373 C422.4267,219.5697 429.5265,219.8357 433.1506,227.3707 C437.7351,220.5113 444.6265,220.7884 447.8424,228.7293 C451.4789,222.9147 458.179,222.3523 461.3417,229.2331 C470.7094,229.3038 474.8194,237.1206 469.7293,244.9212 C475.6739,253.5343 472.0013,259.5368 462.4064,261.1289 C458.6244,268.9805 451.0345,268.8884 446.1162,262.4218 C442.8099,270.5389 437.5283,270.0299 432.2695,264.3865 C429.4774,271.7674 422.5939,271.2545 418.5346,265.7359 C413.7056,271.3127 408.7355,272.2918 404.3981,265.1879 C398.8402,270.8558 392.5188,270.1647 389.4219,262.4365 C385.232,270.1563 378.7419,270.1964 374.8676,262.1453 C364.3076,261.2899 362.3751,251.9876 367.8171,244.6745 C362.5033,237.4906 363.5692,228.9998 374.2962,228.0782" fill="#FEF3C7" style="stroke:#181818;stroke-width:0.5;"/><text fill="#000000" font-family="Monospace" font-size="14" lengthAdjust="spacing" textLength="73.2617" x="380.13" y="249.5739">summarize</text></g><!--entity tool_sysctl--><g class="entity" data-qualified-name="tool_sysctl" data-source-line="45" id="ent0040"><path d="M393.4843,397.4199 C396.0571,391.2558 399.8748,391.1295 404.4517,395.2914 C408.4785,388.3694 412.5044,389.3992 417.3791,394.3696 C421.412,389.5572 426.3365,389.7985 429.8226,395.0459 C434.1181,389.8125 439.366,390.8582 442.2376,396.6493 C451.8961,396.4854 457.9361,403.3797 453.0003,412.8884 C459.6526,422.9589 454.5084,431.6027 442.4706,430.4962 C438.1006,435.5934 434.2179,437.268 429.869,430.4739 C426.138,435.7619 422.1793,437.1382 417.9975,430.9399 C414.4386,436.1816 408.0809,436.3131 404.9666,430.4196 C400.7237,436.8395 395.4406,435.9949 391.817,429.7752 C381.8779,427.3744 379.7791,420.1094 385.8607,412.2603 C380.5552,403.8042 384.5882,398.5805 393.4843,397.4199" fill="#FEF3C7" style="stroke:#181818;stroke-width:0.5;"/><text fill="#000000" font-family="Monospace" font-size="14" lengthAdjust="spacing" textLength="35.9379" x="398.8" y="417.5739">sysctl</text></g><!--entity tool_systemctl--><g class="entity" data-qualified-name="tool_systemctl" data-source-line="46" id="ent0041"><path d="M378.9343,899.8734 C382.3748,893.9546 388.8993,893.2728 392,900.2183 C395.7416,893.5076 400.7785,893.4309 405.3123,899.3855 C409.3441,893.1384 413.8824,893.631 418.3276,898.919 C421.8715,892.8849 425.5375,893.4677 429.4813,898.5166 C434.4421,891.8573 438.9137,892.8181 442.7266,899.6441 C446.314,894.2837 452.5525,893.376 455.6065,900.2075 C464.3028,902.9402 467.2991,911.1476 460.8198,918.2622 C466.1552,924.0669 464.372,930.8489 456.7904,933.1599 C454.221,941.6985 448.6883,942.3696 442.381,937.045 C439.7189,942.6451 435.5798,943.3927 430.9265,939.4301 C428.0641,946.0531 422.7462,948.0456 417.7994,941.5095 C412.358,947.0797 407.9252,945.7514 405.4295,938.6369 C401.0327,943.9305 395.3129,944.3054 392.3961,937.0944 C387.4775,941.1636 383.058,941.8931 380.4984,934.62 C369.7343,931.5017 369.5923,925.6342 375.4676,917.5982 C368.6874,910.34 368.9747,903.8575 378.9343,899.8734" fill="#FEF3C7" style="stroke:#181818;stroke-width:0.5;"/><text fill="#000000" font-family="Monospace" font-size="14" lengthAdjust="spacing" textLength="61.9778" x="385.78" y="921.5739">systemctl</text></g><!--entity tool_tachometer--><g class="entity" data-qualified-name="tool_tachometer" data-source-line="47" id="ent0042"><path d="M373.1072,312.0607 C375.8807,306.9874 380.436,307.3475 383.1674,312.1038 C387.2484,305.8792 392.5957,307.3047 396.0526,312.7906 C399.3705,307.3044 402.6263,306.8778 406.3678,312.3935 C409.2586,305.4895 413.8121,305.4511 418.5458,310.5188 C422.3608,305.2814 426.7524,307.3805 429.0333,312.1299 C432.1661,307.0005 436.1949,306.786 439.716,311.7174 C443.5574,305.876 448.4607,306.9984 451.5276,312.5223 C454.596,306.8188 459.2369,308.1177 462.2123,312.6197 C470.4408,316.431 471.1221,323.4447 463.9596,328.9071 C471.98,333.8706 471.461,339.5523 464.1284,344.6801 C460.9461,350.082 456.6587,350.8227 452.7312,345.4698 C450.0729,352.1354 445.0121,352.3938 440.498,347.4202 C436.5325,352.8038 433.2146,352.0677 429.4971,347.1552 C427.0891,352.8425 421.8253,352.9848 418.8216,347.7366 C415.4125,352.4732 410.315,352.8901 407.1993,347.4032 C403.1747,351.1821 398.4651,351.4621 396.3326,345.329 C393.333,352.3478 387.1963,351.5866 383.1572,346.4563 C379.6131,350.9339 373.987,350.5696 371.6347,345.0787 C362.8279,343.9297 359.8725,335.6843 364.7487,328.7611 C360.0321,319.3582 361.4516,313.2694 373.1072,312.0607" fill="#FEF3C7" style="stroke:#181818;stroke-width:0.5;"/><text fill="#000000" font-family="Monospace" font-size="14" lengthAdjust="spacing" textLength="76.4677" x="378.53" y="333.5739">tachometer</text></g><!--entity tool_tee--><g class="entity" data-qualified-name="tool_tee" data-source-line="48" id="ent0043"><path d="M400.6312,2075.6766 C404.9774,2068.0458 412.4457,2066.5828 417.9021,2074.4386 C425.3124,2066.3211 431.4235,2068.2689 435.7145,2077.6194 C445.0859,2078.8715 449.1459,2083.7641 444.311,2092.9712 C450.4018,2102.6979 444.7284,2109.122 434.8401,2109.9196 C431.9278,2119.8986 426.2345,2122.2661 417.8503,2115.4574 C409.5324,2122.5731 401.7146,2118.6697 399.7246,2108.7317 C391.912,2104.453 389.48,2099.8308 396.9887,2092.9039 C389.9208,2085.6859 390.8057,2079.3228 400.6312,2075.6766" fill="#FEF3C7" style="stroke:#181818;stroke-width:0.5;"/><text fill="#000000" font-family="Monospace" font-size="14" lengthAdjust="spacing" textLength="20.8459" x="406.34" y="2097.5739">tee</text></g><!--entity tool_tmux--><g class="entity" data-qualified-name="tool_tmux" data-source-line="49" id="ent0044"><path d="M393.2812,61.2232 C395.2985,54.7373 401.3345,54.2168 405.4598,58.9311 C409.3249,52.3151 413.6454,52.1695 418.0674,58.3839 C422.4711,52.8981 426.3155,53.1149 429.8334,59.2786 C434.0737,53.5287 439.8592,53.5729 442.7093,60.6717 C450.7022,64.5333 451.4231,71.0347 444.9001,76.8606 C451.4122,82.9782 450.531,90.7889 441.8817,94.2792 C440.1597,100.5091 434.9085,103.0123 429.5625,98.395 C428.5712,104.644 423.2675,105.7517 418.9189,101.9506 C412.3795,107.4285 406.9708,105.551 405.4236,97.1103 C399.6336,103.0014 394.8373,101.6132 392.7137,93.7278 C382.0935,91.8528 380.6082,85.7357 386.6049,77.576 C380.6882,69.25 384.4806,63.5407 393.2812,61.2232" fill="#FEF3C7" style="stroke:#181818;stroke-width:0.5;"/><text fill="#000000" font-family="Monospace" font-size="14" lengthAdjust="spacing" textLength="34.2019" x="399.66" y="81.5739">tmux</text></g><!--entity tool_ufw--><g class="entity" data-qualified-name="tool_ufw" data-source-line="50" id="ent0045"><path d="M398.1132,816.2953 C403.0366,806.8019 412.5156,806.0661 418.1891,815.4996 C425.067,807.7115 430.8134,807.7402 436.0214,817.2236 C446.5769,817.8733 448.8277,824.4672 444.0115,832.9345 C448.7893,841.764 445.3864,846.7286 436.3799,849.0172 C431.1668,859.0722 425.4141,859.7744 417.7059,851.5688 C410.9977,859.2466 402.6269,860.0655 398.4021,849.0098 C389.3982,847.7019 386.6761,840.7438 392.919,833.9023 C385.599,826.6711 389.3646,818.786 398.1132,816.2953" fill="#FEF3C7" style="stroke:#181818;stroke-width:0.5;"/><text fill="#000000" font-family="Monospace" font-size="14" lengthAdjust="spacing" textLength="24.4719" x="404.53" y="837.5739">ufw</text></g><!--entity tool_wg--><g class="entity" data-qualified-name="tool_wg" data-source-line="51" id="ent0046"><path d="M400.8782,1992.622 C404.7597,1982.5157 411.6244,1982.92 418.3851,1989.6233 C425.8665,1982.9346 430.223,1985.7935 433.8298,1993.7183 C442.4452,1996.8711 442.9333,2002.3633 437.6278,2008.9803 C443.5754,2015.1374 443.1972,2023.0345 433.7471,2025.5952 C431.4264,2035.4075 424.1476,2036.4074 416.7912,2031.3296 C408.9785,2037.4178 403.7297,2034.6931 401.3227,2025.7622 C390.5625,2024.5126 389.1503,2019.0666 393.7737,2010.3043 C388.064,2002.2336 389.6107,1993.8715 400.8782,1992.622" fill="#FEF3C7" style="stroke:#181818;stroke-width:0.5;"/><text fill="#000000" font-family="Monospace" font-size="14" lengthAdjust="spacing" textLength="19.6139" x="406.96" y="2013.5739">wg</text></g><!--entity tool_zip--><g class="entity" data-qualified-name="tool_zip" data-source-line="52" id="ent0047"><path d="M402.5492,1153.4977 C405.8016,1144.8553 411.9327,1143.8521 418.6465,1149.6351 C425.0421,1142.1254 431.9145,1144.9932 434.7816,1153.2467 C444.3275,1156.034 443.8132,1162.4971 438.3365,1168.7328 C445.5519,1175.2542 443.4241,1181.7786 435.3212,1185.554 C434.9269,1198.428 426.479,1200.2738 416.89,1194.7812 C409.4012,1198.8474 401.7162,1196.2577 401.7136,1186.5392 C392.1982,1184.2056 389.2074,1177.477 396.5203,1169.8933 C389.821,1162.3433 394.2691,1155.5396 402.5492,1153.4977" fill="#FEF3C7" style="stroke:#181818;stroke-width:0.5;"/><text fill="#000000" font-family="Monospace" font-size="14" lengthAdjust="spacing" textLength="18.8019" x="407.36" y="1173.5739">zip</text></g><g class="entity" data-qualified-name="toolingGraphSummary" data-source-line="110" id="ent0104"><path d="M309.29,2487.4379 L309.29,2532.8499 L524.2372,2532.8499 L524.2372,2497.4379 L514.2372,2487.4379 L309.29,2487.4379" fill="#FEFFDD" style="stroke:#181818;stroke-width:0.5;"/><path d="M514.2372,2487.4379 L514.2372,2497.4379 L524.2372,2497.4379 L514.2372,2487.4379" fill="#FEFFDD" style="stroke:#181818;stroke-width:1;"/><text fill="#000000" font-family="Monospace" font-size="13" lengthAdjust="spacing" textLength="193.9472" x="315.29" y="2506.3349">Scanned&#160;17&#160;tooling&#160;entrypoints.</text><text fill="#000000" font-family="Monospace" font-size="13" lengthAdjust="spacing" textLength="179.2182" x="315.29" y="2524.0409">Detected&#160;29&#160;third-party&#160;tools.</text></g><!--link source_github_workflows_ci_yml to tool_actions_checkout--><g class="link" data-entity-1="ent0002" data-entity-2="ent0020" data-link-type="dependency" data-source-line="53" id="lnk48"><path d="M97.24,2272.5979 C97.24,2235.3579 97.24,2176.1379 97.24,2176.1379 C97.24,2176.1379 245.28,2176.1379 339.45,2176.1379" fill="none" id="source_github_workflows_ci_yml-to-tool_actions_checkout" style="stroke:#181818;stroke-width:1;"/><polygon fill="#181818" points="345.45,2176.1379,336.45,2172.1379,340.45,2176.1379,336.45,2180.1379,345.45,2176.1379" style="stroke:#181818;stroke-width:1;"/></g><!--link source_github_workflows_ci_yml to tool_actions_setup_python--><g class="link" data-entity-1="ent0002" data-entity-2="ent0021" data-link-type="dependency" data-source-line="54" id="lnk49"><path d="M219.86,2278.8779 C255.52,2278.8779 290.13,2278.8779 325.18,2278.8779" fill="none" id="source_github_workflows_ci_yml-to-tool_actions_setup_python" style="stroke:#181818;stroke-width:1;"/><polygon fill="#181818" points="331.18,2278.8779,322.18,2274.8779,326.18,2278.8779,322.18,2282.8779,331.18,2278.8779" style="stroke:#181818;stroke-width:1;"/></g><!--link source_github_workflows_ci_yml to tool_pip--><g class="link" data-entity-1="ent0002" data-entity-2="ent0032" data-link-type="dependency" data-source-line="55" id="lnk50"><path d="M219.86,2323.4779 C279.45,2323.4779 346.9,2323.4779 385.04,2323.4779" fill="none" id="source_github_workflows_ci_yml-to-tool_pip" style="stroke:#181818;stroke-width:1;"/><polygon fill="#181818" points="391.04,2323.4779,382.04,2319.4779,386.04,2323.4779,382.04,2327.4779,391.04,2323.4779" style="stroke:#181818;stroke-width:1;"/></g><!--link source_github_workflows_ci_yml to tool_pre_commit--><g class="link" data-entity-1="ent0002" data-entity-2="ent0033" data-link-type="dependency" data-source-line="56" id="lnk51"><path d="M219.84,2327.3379 C290.86,2327.3379 377.24,2327.3379 377.24,2327.3379 C377.24,2327.3379 377.24,2367.3779 377.24,2397.2279" fill="none" id="source_github_workflows_ci_yml-to-tool_pre_commit" style="stroke:#181818;stroke-width:1;"/><polygon fill="#181818" points="377.24,2403.2279,381.24,2394.2279,377.24,2398.2279,373.24,2394.2279,377.24,2403.2279" style="stroke:#181818;stroke-width:1;"/></g><!--link source_scripts_configure_firewalld_sh to tool_firewall_cmd--><g class="link" data-entity-1="ent0003" data-entity-2="ent0027" data-link-type="dependency" data-source-line="57" id="lnk52"><path d="M235.21,516.3779 C277.88,516.3779 319.22,516.3779 354.86,516.3779" fill="none" id="source_scripts_configure_firewalld_sh-to-tool_firewall_cmd" style="stroke:#181818;stroke-width:1;"/><polygon fill="#181818" points="360.86,516.3779,351.86,512.3779,355.86,516.3779,351.86,520.3779,360.86,516.3779" style="stroke:#181818;stroke-width:1;"/></g><!--link source_scripts_configure_firewalld_sh to tool_systemctl--><g class="link" data-entity-1="ent0003" data-entity-2="ent0041" data-link-type="dependency" data-source-line="58" id="lnk53"><path d="M228.24,570.6779 C228.24,656.2579 228.24,898.3379 228.24,898.3379 C228.24,898.3379 308.83,898.3379 364.65,898.3379" fill="none" id="source_scripts_configure_firewalld_sh-to-tool_systemctl" style="stroke:#181818;stroke-width:1;"/><polygon fill="#181818" points="370.65,898.3379,361.65,894.3379,365.65,898.3379,361.65,902.3379,370.65,898.3379" style="stroke:#181818;stroke-width:1;"/></g><!--link source_scripts_configure_ufw_sh to tool_cat--><g class="link" data-entity-1="ent0004" data-entity-2="ent0024" data-link-type="dependency" data-source-line="59" id="lnk54"><path d="M219.07,733.4179 C279.05,733.4179 347.35,733.4179 385.52,733.4179" fill="none" id="source_scripts_configure_ufw_sh-to-tool_cat" style="stroke:#181818;stroke-width:1;"/><polygon fill="#181818" points="391.52,733.4179,382.52,729.4179,386.52,733.4179,382.52,737.4179,391.52,733.4179" style="stroke:#181818;stroke-width:1;"/></g><!--link source_scripts_configure_ufw_sh to tool_grep--><g class="link" data-entity-1="ent0004" data-entity-2="ent0029" data-link-type="dependency" data-source-line="60" id="lnk55"><path d="M219.29,743.2379 C262.25,743.2379 304.24,743.2379 304.24,743.2379 C304.24,743.2379 304.24,1232.1279 304.24,1232.1279 C304.24,1232.1279 346.7,1232.1279 380.02,1232.1279" fill="none" id="source_scripts_configure_ufw_sh-to-tool_grep" style="stroke:#181818;stroke-width:1;"/><polygon fill="#181818" points="386.02,1232.1279,377.02,1228.1279,381.02,1232.1279,377.02,1236.1279,386.02,1232.1279" style="stroke:#181818;stroke-width:1;"/></g><!--link source_scripts_configure_ufw_sh to tool_sed--><g class="link" data-entity-1="ent0004" data-entity-2="ent0037" data-link-type="dependency" data-source-line="61" id="lnk56"><path d="M128.24,718.5879 C128.24,701.3379 128.24,682.9379 128.24,682.9379 C128.24,682.9379 312.25,682.9379 383.88,682.9379" fill="none" id="source_scripts_configure_ufw_sh-to-tool_sed" style="stroke:#181818;stroke-width:1;"/><polygon fill="#181818" points="389.88,682.9379,380.88,678.9379,384.88,682.9379,380.88,686.9379,389.88,682.9379" style="stroke:#181818;stroke-width:1;"/></g><!--link source_scripts_configure_ufw_sh to tool_ufw--><g class="link" data-entity-1="ent0004" data-entity-2="ent0045" data-link-type="dependency" data-source-line="62" id="lnk57"><path d="M219.15,753.0479 C232.71,753.0479 242.24,753.0479 242.24,753.0479 C242.24,753.0479 242.24,823.2179 242.24,823.2179 C242.24,823.2179 333.9,823.2179 383.11,823.2179" fill="none" id="source_scripts_configure_ufw_sh-to-tool_ufw" style="stroke:#181818;stroke-width:1;"/><polygon fill="#181818" points="389.11,823.2179,380.11,819.2179,384.11,823.2179,380.11,827.2179,389.11,823.2179" style="stroke:#181818;stroke-width:1;"/></g><!--link source_scripts_enable_ip_forwarding_sh to tool_cat--><g class="link" data-entity-1="ent0005" data-entity-2="ent0024" data-link-type="dependency" data-source-line="63" id="lnk58"><path d="M236.24,449.6979 C236.24,522.3679 236.24,703.8779 236.24,703.8779 C236.24,703.8779 417.24,703.8779 417.24,703.8779 C417.24,703.8779 417.24,707.1179 417.24,717.1579" fill="none" id="source_scripts_enable_ip_forwarding_sh-to-tool_cat" style="stroke:#181818;stroke-width:1;"/><polygon fill="#181818" points="417.24,723.1579,421.24,714.1579,417.24,718.1579,413.24,714.1579,417.24,723.1579" style="stroke:#181818;stroke-width:1;"/></g><!--link source_scripts_enable_ip_forwarding_sh to tool_sysctl--><g class="link" data-entity-1="ent0005" data-entity-2="ent0040" data-link-type="dependency" data-source-line="64" id="lnk59"><path d="M243.46,413.8779 C293.86,413.8779 343.19,413.8779 377.45,413.8779" fill="none" id="source_scripts_enable_ip_forwarding_sh-to-tool_sysctl" style="stroke:#181818;stroke-width:1;"/><polygon fill="#181818" points="383.45,413.8779,374.45,409.8779,378.45,413.8779,374.45,417.8779,383.45,413.8779" style="stroke:#181818;stroke-width:1;"/></g><!--link source_scripts_generate_keys_sh to tool_mkdir--><g class="link" data-entity-1="ent0006" data-entity-2="ent0031" data-link-type="dependency" data-source-line="65" id="lnk60"><path d="M219.59,1999.9579 C244.74,1999.9579 265.24,1999.9579 265.24,1999.9579 C265.24,1999.9579 265.24,1351.9379 265.24,1351.9379 C265.24,1351.9379 331.27,1351.9379 376,1351.9379" fill="none" id="source_scripts_generate_keys_sh-to-tool_mkdir" style="stroke:#181818;stroke-width:1;"/><polygon fill="#181818" points="382,1351.9379,373,1347.9379,377,1351.9379,373,1355.9379,382,1351.9379" style="stroke:#181818;stroke-width:1;"/></g><!--link source_scripts_generate_keys_sh to tool_tee--><g class="link" data-entity-1="ent0006" data-entity-2="ent0043" data-link-type="dependency" data-source-line="66" id="lnk61"><path d="M158.24,2037.5179 C158.24,2061.7379 158.24,2092.1379 158.24,2092.1379 C158.24,2092.1379 319.64,2092.1379 385.03,2092.1379" fill="none" id="source_scripts_generate_keys_sh-to-tool_tee" style="stroke:#181818;stroke-width:1;"/><polygon fill="#181818" points="391.03,2092.1379,382.03,2088.1379,386.03,2092.1379,382.03,2096.1379,391.03,2092.1379" style="stroke:#181818;stroke-width:1;"/></g><!--link source_scripts_generate_keys_sh to tool_wg--><g class="link" data-entity-1="ent0006" data-entity-2="ent0046" data-link-type="dependency" data-source-line="67" id="lnk62"><path d="M219.86,2016.3179 C279.78,2016.3179 347.71,2016.3179 385.67,2016.3179" fill="none" id="source_scripts_generate_keys_sh-to-tool_wg" style="stroke:#181818;stroke-width:1;"/><polygon fill="#181818" points="391.67,2016.3179,382.67,2012.3179,386.67,2016.3179,382.67,2020.3179,391.67,2016.3179" style="stroke:#181818;stroke-width:1;"/></g><!--link source_scripts_harden_ssh_sh to tool_cp--><g class="link" data-entity-1="ent0007" data-entity-2="ent0025" data-link-type="dependency" data-source-line="68" id="lnk63"><path d="M210.05,1241.1679 C274.41,1241.1679 353.24,1241.1679 353.24,1241.1679 C353.24,1241.1679 353.24,1405.7579 353.24,1405.7579 C353.24,1405.7579 369.63,1405.7579 387.83,1405.7579" fill="none" id="source_scripts_harden_ssh_sh-to-tool_cp" style="stroke:#181818;stroke-width:1;"/><polygon fill="#181818" points="393.83,1405.7579,384.83,1401.7579,388.83,1405.7579,384.83,1409.7579,393.83,1405.7579" style="stroke:#181818;stroke-width:1;"/></g><!--link source_scripts_harden_ssh_sh to tool_grep--><g class="link" data-entity-1="ent0007" data-entity-2="ent0029" data-link-type="dependency" data-source-line="69" id="lnk64"><path d="M210.08,1236.6479 C268.74,1236.6479 338.44,1236.6479 380.01,1236.6479" fill="none" id="source_scripts_harden_ssh_sh-to-tool_grep" style="stroke:#181818;stroke-width:1;"/><polygon fill="#181818" points="386.01,1236.6479,377.01,1232.6479,381.01,1236.6479,377.01,1240.6479,386.01,1236.6479" style="stroke:#181818;stroke-width:1;"/></g><!--link source_scripts_harden_ssh_sh to tool_mkdir--><g class="link" data-entity-1="ent0007" data-entity-2="ent0031" data-link-type="dependency" data-source-line="70" id="lnk65"><path d="M209.99,1245.6879 C225.63,1245.6879 237.24,1245.6879 237.24,1245.6879 C237.24,1245.6879 237.24,1324.2479 237.24,1324.2479 C237.24,1324.2479 323.98,1324.2479 376.15,1324.2479" fill="none" id="source_scripts_harden_ssh_sh-to-tool_mkdir" style="stroke:#181818;stroke-width:1;"/><polygon fill="#181818" points="382.15,1324.2479,373.15,1320.2479,377.15,1324.2479,373.15,1328.2479,382.15,1324.2479" style="stroke:#181818;stroke-width:1;"/></g><!--link source_scripts_harden_ssh_sh to tool_sshd--><g class="link" data-entity-1="ent0007" data-entity-2="ent0038" data-link-type="dependency" data-source-line="71" id="lnk66"><path d="M128.24,1191.7879 C128.24,1131.6779 128.24,1000.1379 128.24,1000.1379 C128.24,1000.1379 305.9,1000.1379 380.16,1000.1379" fill="none" id="source_scripts_harden_ssh_sh-to-tool_sshd" style="stroke:#181818;stroke-width:1;"/><polygon fill="#181818" points="386.16,1000.1379,377.16,996.1379,381.16,1000.1379,377.16,1004.1379,386.16,1000.1379" style="stroke:#181818;stroke-width:1;"/></g><!--link source_scripts_harden_ssh_sh to tool_systemctl--><g class="link" data-entity-1="ent0007" data-entity-2="ent0041" data-link-type="dependency" data-source-line="72" id="lnk67"><path d="M210.04,1210.1379 C227.72,1210.1379 241.24,1210.1379 241.24,1210.1379 C241.24,1210.1379 241.24,922.8779 241.24,922.8779 C241.24,922.8779 312.64,922.8779 364.65,922.8779" fill="none" id="source_scripts_harden_ssh_sh-to-tool_systemctl" style="stroke:#181818;stroke-width:1;"/><polygon fill="#181818" points="370.65,922.8779,361.65,918.8779,365.65,922.8779,361.65,926.8779,370.65,922.8779" style="stroke:#181818;stroke-width:1;"/></g><!--link source_scripts_install_fedora_sh to tool_firewalld--><g class="link" data-entity-1="ent0009" data-entity-2="ent0028" data-link-type="dependency" data-source-line="73" id="lnk68"><path d="M216.64,629.3379 C290.66,629.3379 384.24,629.3379 384.24,629.3379 C384.24,629.3379 384.24,623.2279 384.24,611.0279" fill="none" id="source_scripts_install_fedora_sh-to-tool_firewalld" style="stroke:#181818;stroke-width:1;"/><polygon fill="#181818" points="384.24,605.0279,380.24,614.0279,384.24,610.0279,388.24,614.0279,384.24,605.0279" style="stroke:#181818;stroke-width:1;"/></g><!--link source_scripts_install_fedora_sh to tool_systemctl--><g class="link" data-entity-1="ent0009" data-entity-2="ent0041" data-link-type="dependency" data-source-line="74" id="lnk69"><path d="M216.67,658.4079 C288.96,658.4079 379.24,658.4079 379.24,658.4079 C379.24,658.4079 379.24,820.9179 379.24,885.4279" fill="none" id="source_scripts_install_fedora_sh-to-tool_systemctl" style="stroke:#181818;stroke-width:1;"/><polygon fill="#181818" points="379.24,891.4279,383.24,882.4279,379.24,886.4279,375.24,882.4279,379.24,891.4279" style="stroke:#181818;stroke-width:1;"/></g><!--link source_scripts_install_ubuntu_sh to tool_apt_get--><g class="link" data-entity-1="ent0010" data-entity-2="ent0022" data-link-type="dependency" data-source-line="75" id="lnk70"><path d="M218.9,951.9379 C257.26,951.9379 293.24,951.9379 293.24,951.9379 C293.24,951.9379 293.24,1485.0579 293.24,1485.0579 C293.24,1485.0579 335.49,1485.0579 371.68,1485.0579" fill="none" id="source_scripts_install_ubuntu_sh-to-tool_apt_get" style="stroke:#181818;stroke-width:1;"/><polygon fill="#181818" points="377.68,1485.0579,368.68,1481.0579,372.68,1485.0579,368.68,1489.0579,377.68,1485.0579" style="stroke:#181818;stroke-width:1;"/></g><!--link source_scripts_install_ubuntu_sh to tool_systemctl--><g class="link" data-entity-1="ent0010" data-entity-2="ent0041" data-link-type="dependency" data-source-line="76" id="lnk71"><path d="M219.07,916.9379 C269.47,916.9379 323.97,916.9379 364.66,916.9379" fill="none" id="source_scripts_install_ubuntu_sh-to-tool_systemctl" style="stroke:#181818;stroke-width:1;"/><polygon fill="#181818" points="370.66,916.9379,361.66,912.9379,365.66,916.9379,361.66,920.9379,370.66,916.9379" style="stroke:#181818;stroke-width:1;"/></g><!--link source_scripts_install_ubuntu_sh to tool_ufw--><g class="link" data-entity-1="ent0010" data-entity-2="ent0045" data-link-type="dependency" data-source-line="77" id="lnk72"><path d="M219.12,911.0079 C231.05,911.0079 239.24,911.0079 239.24,911.0079 C239.24,911.0079 239.24,845.5279 239.24,845.5279 C239.24,845.5279 333.62,845.5279 383.42,845.5279" fill="none" id="source_scripts_install_ubuntu_sh-to-tool_ufw" style="stroke:#181818;stroke-width:1;"/><polygon fill="#181818" points="389.42,845.5279,380.42,841.5279,384.42,845.5279,380.42,849.5279,389.42,845.5279" style="stroke:#181818;stroke-width:1;"/></g><!--link source_scripts_install_webterm_sh to tool_apt_get--><g class="link" data-entity-1="ent0011" data-entity-2="ent0022" data-link-type="dependency" data-source-line="78" id="lnk73"><path d="M224.65,1495.9579 C276.93,1495.9579 332.64,1495.9579 371.74,1495.9579" fill="none" id="source_scripts_install_webterm_sh-to-tool_apt_get" style="stroke:#181818;stroke-width:1;"/><polygon fill="#181818" points="377.74,1495.9579,368.74,1491.9579,372.74,1495.9579,368.74,1499.9579,377.74,1495.9579" style="stroke:#181818;stroke-width:1;"/></g><!--link source_scripts_install_webterm_sh to tool_caddy--><g class="link" data-entity-1="ent0011" data-entity-2="ent0023" data-link-type="dependency" data-source-line="79" id="lnk74"><path d="M224.36,1506.8679 C257.86,1506.8679 287.24,1506.8679 287.24,1506.8679 C287.24,1506.8679 287.24,1573.7879 287.24,1573.7879 C287.24,1573.7879 337.69,1573.7879 376.05,1573.7879" fill="none" id="source_scripts_install_webterm_sh-to-tool_caddy" style="stroke:#181818;stroke-width:1;"/><polygon fill="#181818" points="382.05,1573.7879,373.05,1569.7879,377.05,1573.7879,373.05,1577.7879,382.05,1573.7879" style="stroke:#181818;stroke-width:1;"/></g><!--link source_scripts_install_webterm_sh to tool_cp--><g class="link" data-entity-1="ent0011" data-entity-2="ent0025" data-link-type="dependency" data-source-line="80" id="lnk75"><path d="M224.41,1477.4679 C308.51,1477.4679 417.24,1477.4679 417.24,1477.4679 C417.24,1477.4679 417.24,1466.5679 417.24,1451.1179" fill="none" id="source_scripts_install_webterm_sh-to-tool_cp" style="stroke:#181818;stroke-width:1;"/><polygon fill="#181818" points="417.24,1445.1179,413.24,1454.1179,417.24,1450.1179,421.24,1454.1179,417.24,1445.1179" style="stroke:#181818;stroke-width:1;"/></g><!--link source_scripts_install_webterm_sh to tool_dnf--><g class="link" data-entity-1="ent0011" data-entity-2="ent0026" data-link-type="dependency" data-source-line="81" id="lnk76"><path d="M224.44,1517.7679 C252.73,1517.7679 276.24,1517.7679 276.24,1517.7679 C276.24,1517.7679 276.24,1672.1379 276.24,1672.1379 C276.24,1672.1379 343.63,1672.1379 384.33,1672.1379" fill="none" id="source_scripts_install_webterm_sh-to-tool_dnf" style="stroke:#181818;stroke-width:1;"/><polygon fill="#181818" points="390.33,1672.1379,381.33,1668.1379,385.33,1672.1379,381.33,1676.1379,390.33,1672.1379" style="stroke:#181818;stroke-width:1;"/></g><!--link source_scripts_install_webterm_sh to tool_grep--><g class="link" data-entity-1="ent0011" data-entity-2="ent0029" data-link-type="dependency" data-source-line="82" id="lnk77"><path d="M224.55,1473.2079 C273.7,1473.2079 323.24,1473.2079 323.24,1473.2079 C323.24,1473.2079 323.24,1259.0279 323.24,1259.0279 C323.24,1259.0279 352.64,1259.0279 379.88,1259.0279" fill="none" id="source_scripts_install_webterm_sh-to-tool_grep" style="stroke:#181818;stroke-width:1;"/><polygon fill="#181818" points="385.88,1259.0279,376.88,1255.0279,380.88,1259.0279,376.88,1263.0279,385.88,1259.0279" style="stroke:#181818;stroke-width:1;"/></g><!--link source_scripts_install_webterm_sh to tool_install--><g class="link" data-entity-1="ent0011" data-entity-2="ent0030" data-link-type="dependency" data-source-line="83" id="lnk78"><path d="M224.38,1523.2179 C250.27,1523.2179 271.24,1523.2179 271.24,1523.2179 C271.24,1523.2179 271.24,1756.1379 271.24,1756.1379 C271.24,1756.1379 332.85,1756.1379 375.91,1756.1379" fill="none" id="source_scripts_install_webterm_sh-to-tool_install" style="stroke:#181818;stroke-width:1;"/><polygon fill="#181818" points="381.91,1756.1379,372.91,1752.1379,376.91,1756.1379,372.91,1760.1379,381.91,1756.1379" style="stroke:#181818;stroke-width:1;"/></g><!--link source_scripts_install_webterm_sh to tool_mkdir--><g class="link" data-entity-1="ent0011" data-entity-2="ent0031" data-link-type="dependency" data-source-line="84" id="lnk79"><path d="M224.62,1475.3379 C299.7,1475.3379 391.24,1475.3379 391.24,1475.3379 C391.24,1475.3379 391.24,1407.0679 391.24,1367.0279" fill="none" id="source_scripts_install_webterm_sh-to-tool_mkdir" style="stroke:#181818;stroke-width:1;"/><polygon fill="#181818" points="391.24,1361.0279,387.24,1370.0279,391.24,1366.0279,395.24,1370.0279,391.24,1361.0279" style="stroke:#181818;stroke-width:1;"/></g><!--link source_scripts_install_webterm_sh to tool_render_webterm_index_sh--><g class="link" data-entity-1="ent0011" data-entity-2="ent0035" data-link-type="dependency" data-source-line="85" id="lnk80"><path d="M224.44,1501.4179 C282.86,1501.4179 346.24,1501.4179 346.24,1501.4179 C346.24,1501.4179 346.24,1731.0079 346.24,1809.2279" fill="none" id="source_scripts_install_webterm_sh-to-tool_render_webterm_index_sh" style="stroke:#181818;stroke-width:1;"/><polygon fill="#181818" points="346.24,1815.2279,350.24,1806.2279,346.24,1810.2279,342.24,1806.2279,346.24,1815.2279" style="stroke:#181818;stroke-width:1;"/></g><!--link source_scripts_install_webterm_sh to tool_systemctl--><g class="link" data-entity-1="ent0011" data-entity-2="ent0041" data-link-type="dependency" data-source-line="86" id="lnk81"><path d="M224.47,1490.5079 C242.2,1490.5079 255.24,1490.5079 255.24,1490.5079 C255.24,1490.5079 255.24,928.8079 255.24,928.8079 C255.24,928.8079 316.75,928.8079 364.48,928.8079" fill="none" id="source_scripts_install_webterm_sh-to-tool_systemctl" style="stroke:#181818;stroke-width:1;"/><polygon fill="#181818" points="370.48,928.8079,361.48,924.8079,365.48,928.8079,361.48,932.8079,370.48,928.8079" style="stroke:#181818;stroke-width:1;"/></g><!--link source_scripts_package_client_sh to tool_cp--><g class="link" data-entity-1="ent0012" data-entity-2="ent0025" data-link-type="dependency" data-source-line="87" id="lnk82"><path d="M220.45,1336.8879 C253.27,1336.8879 282.24,1336.8879 282.24,1336.8879 C282.24,1336.8879 282.24,1415.9079 282.24,1415.9079 C282.24,1415.9079 349.18,1415.9079 387.64,1415.9079" fill="none" id="source_scripts_package_client_sh-to-tool_cp" style="stroke:#181818;stroke-width:1;"/><polygon fill="#181818" points="393.64,1415.9079,384.64,1411.9079,388.64,1415.9079,384.64,1419.9079,393.64,1415.9079" style="stroke:#181818;stroke-width:1;"/></g><!--link source_scripts_package_client_sh to tool_mkdir--><g class="link" data-entity-1="ent0012" data-entity-2="ent0031" data-link-type="dependency" data-source-line="88" id="lnk83"><path d="M220.66,1330.5679 C275.73,1330.5679 336.4,1330.5679 376.11,1330.5679" fill="none" id="source_scripts_package_client_sh-to-tool_mkdir" style="stroke:#181818;stroke-width:1;"/><polygon fill="#181818" points="382.11,1330.5679,373.11,1326.5679,377.11,1330.5679,373.11,1334.5679,382.11,1330.5679" style="stroke:#181818;stroke-width:1;"/></g><!--link source_scripts_package_client_sh to tool_qrencode--><g class="link" data-entity-1="ent0012" data-entity-2="ent0034" data-link-type="dependency" data-source-line="89" id="lnk84"><path d="M220.48,1298.3379 C290.31,1298.3379 374.24,1298.3379 374.24,1298.3379 C374.24,1298.3379 374.24,1171.6379 374.24,1115.1279" fill="none" id="source_scripts_package_client_sh-to-tool_qrencode" style="stroke:#181818;stroke-width:1;"/><polygon fill="#181818" points="374.24,1109.1279,370.24,1118.1279,374.24,1114.1279,378.24,1118.1279,374.24,1109.1279" style="stroke:#181818;stroke-width:1;"/></g><!--link source_scripts_package_client_sh to tool_zip--><g class="link" data-entity-1="ent0012" data-entity-2="ent0047" data-link-type="dependency" data-source-line="90" id="lnk85"><path d="M214.24,1284.8879 C214.24,1242.1879 214.24,1167.8379 214.24,1167.8379 C214.24,1167.8379 331.85,1167.8379 385.93,1167.8379" fill="none" id="source_scripts_package_client_sh-to-tool_zip" style="stroke:#181818;stroke-width:1;"/><polygon fill="#181818" points="391.93,1167.8379,382.93,1163.8379,386.93,1167.8379,382.93,1171.8379,391.93,1167.8379" style="stroke:#181818;stroke-width:1;"/></g><!--link source_scripts_rebuild_webservices_sh to tool_all_services_ttyd--><g class="link" data-entity-1="ent0013" data-entity-2="ent0019" data-link-type="dependency" data-source-line="91" id="lnk86"><path d="M229.24,1622.5179 C229.24,1703.5179 229.24,1924.1379 229.24,1924.1379 C229.24,1924.1379 276.75,1924.1379 326.6,1924.1379" fill="none" id="source_scripts_rebuild_webservices_sh-to-tool_all_services_ttyd" style="stroke:#181818;stroke-width:1;"/><polygon fill="#181818" points="332.6,1924.1379,323.6,1920.1379,327.6,1924.1379,323.6,1928.1379,332.6,1924.1379" style="stroke:#181818;stroke-width:1;"/></g><!--link source_scripts_rebuild_webservices_sh to tool_apt_get--><g class="link" data-entity-1="ent0013" data-entity-2="ent0022" data-link-type="dependency" data-source-line="92" id="lnk87"><path d="M235.24,1563.9579 C235.24,1540.8079 235.24,1512.3179 235.24,1512.3179 C235.24,1512.3179 318.48,1512.3179 371.82,1512.3179" fill="none" id="source_scripts_rebuild_webservices_sh-to-tool_apt_get" style="stroke:#181818;stroke-width:1;"/><polygon fill="#181818" points="377.82,1512.3179,368.82,1508.3179,372.82,1512.3179,368.82,1516.3179,377.82,1512.3179" style="stroke:#181818;stroke-width:1;"/></g><!--link source_scripts_rebuild_webservices_sh to tool_caddy--><g class="link" data-entity-1="ent0013" data-entity-2="ent0023" data-link-type="dependency" data-source-line="93" id="lnk88"><path d="M238.5,1602.9579 C289.42,1602.9579 340.32,1602.9579 375.84,1602.9579" fill="none" id="source_scripts_rebuild_webservices_sh-to-tool_caddy" style="stroke:#181818;stroke-width:1;"/><polygon fill="#181818" points="381.84,1602.9579,372.84,1598.9579,376.84,1602.9579,372.84,1606.9579,381.84,1602.9579" style="stroke:#181818;stroke-width:1;"/></g><!--link source_scripts_rebuild_webservices_sh to tool_cp--><g class="link" data-entity-1="ent0013" data-entity-2="ent0025" data-link-type="dependency" data-source-line="94" id="lnk89"><path d="M228.24,1563.6979 C228.24,1519.3279 228.24,1440.4379 228.24,1440.4379 C228.24,1440.4379 337.31,1440.4379 387.65,1440.4379" fill="none" id="source_scripts_rebuild_webservices_sh-to-tool_cp" style="stroke:#181818;stroke-width:1;"/><polygon fill="#181818" points="393.65,1440.4379,384.65,1436.4379,388.65,1440.4379,384.65,1444.4379,393.65,1440.4379" style="stroke:#181818;stroke-width:1;"/></g><!--link source_scripts_rebuild_webservices_sh to tool_dnf--><g class="link" data-entity-1="ent0013" data-entity-2="ent0026" data-link-type="dependency" data-source-line="95" id="lnk90"><path d="M238.68,1615.0579 C320.29,1615.0579 417.24,1615.0579 417.24,1615.0579 C417.24,1615.0579 417.24,1625.8879 417.24,1641.2679" fill="none" id="source_scripts_rebuild_webservices_sh-to-tool_dnf" style="stroke:#181818;stroke-width:1;"/><polygon fill="#181818" points="417.24,1647.2679,421.24,1638.2679,417.24,1642.2679,413.24,1638.2679,417.24,1647.2679" style="stroke:#181818;stroke-width:1;"/></g><!--link source_scripts_rebuild_webservices_sh to tool_grep--><g class="link" data-entity-1="ent0013" data-entity-2="ent0029" data-link-type="dependency" data-source-line="96" id="lnk91"><path d="M238.61,1593.2379 C286.24,1593.2379 331.24,1593.2379 331.24,1593.2379 C331.24,1593.2379 331.24,1267.8479 331.24,1267.8479 C331.24,1267.8479 355.39,1267.8479 379.89,1267.8479" fill="none" id="source_scripts_rebuild_webservices_sh-to-tool_grep" style="stroke:#181818;stroke-width:1;"/><polygon fill="#181818" points="385.89,1267.8479,376.89,1263.8479,380.89,1267.8479,376.89,1271.8479,385.89,1267.8479" style="stroke:#181818;stroke-width:1;"/></g><!--link source_scripts_rebuild_webservices_sh to tool_install--><g class="link" data-entity-1="ent0013" data-entity-2="ent0030" data-link-type="dependency" data-source-line="97" id="lnk92"><path d="M238.72,1617.4379 C308.77,1617.4379 386.24,1617.4379 386.24,1617.4379 C386.24,1617.4379 386.24,1685.4479 386.24,1725.3479" fill="none" id="source_scripts_rebuild_webservices_sh-to-tool_install" style="stroke:#181818;stroke-width:1;"/><polygon fill="#181818" points="386.24,1731.3479,390.24,1722.3479,386.24,1726.3479,382.24,1722.3479,386.24,1731.3479" style="stroke:#181818;stroke-width:1;"/></g><!--link source_scripts_rebuild_webservices_sh to tool_mkdir--><g class="link" data-entity-1="ent0013" data-entity-2="ent0031" data-link-type="dependency" data-source-line="98" id="lnk93"><path d="M231.24,1563.7879 C231.24,1524.0079 231.24,1457.8779 231.24,1457.8779 C231.24,1457.8779 388.24,1457.8779 388.24,1457.8779 C388.24,1457.8779 388.24,1402.6779 388.24,1367.0679" fill="none" id="source_scripts_rebuild_webservices_sh-to-tool_mkdir" style="stroke:#181818;stroke-width:1;"/><polygon fill="#181818" points="388.24,1361.0679,384.24,1370.0679,388.24,1366.0679,392.24,1370.0679,388.24,1361.0679" style="stroke:#181818;stroke-width:1;"/></g><!--link source_scripts_rebuild_webservices_sh to tool_render_webterm_index_sh--><g class="link" data-entity-1="ent0013" data-entity-2="ent0035" data-link-type="dependency" data-source-line="99" id="lnk94"><path d="M238.73,1619.8279 C289.34,1619.8279 338.24,1619.8279 338.24,1619.8279 C338.24,1619.8279 338.24,1751.6779 338.24,1809.2979" fill="none" id="source_scripts_rebuild_webservices_sh-to-tool_render_webterm_index_sh" style="stroke:#181818;stroke-width:1;"/><polygon fill="#181818" points="338.24,1815.2979,342.24,1806.2979,338.24,1810.2979,334.24,1806.2979,338.24,1815.2979" style="stroke:#181818;stroke-width:1;"/></g><!--link source_scripts_rebuild_webservices_sh to tool_systemctl--><g class="link" data-entity-1="ent0013" data-entity-2="ent0041" data-link-type="dependency" data-source-line="100" id="lnk95"><path d="M238.72,1583.5079 C251.59,1583.5079 260.24,1583.5079 260.24,1583.5079 C260.24,1583.5079 260.24,934.7379 260.24,934.7379 C260.24,934.7379 318.48,934.7379 364.65,934.7379" fill="none" id="source_scripts_rebuild_webservices_sh-to-tool_systemctl" style="stroke:#181818;stroke-width:1;"/><polygon fill="#181818" points="370.65,934.7379,361.65,930.7379,365.65,934.7379,361.65,938.7379,370.65,934.7379" style="stroke:#181818;stroke-width:1;"/></g><!--link source_scripts_render_configs_sh to tool_cat--><g class="link" data-entity-1="ent0014" data-entity-2="ent0024" data-link-type="dependency" data-source-line="101" id="lnk96"><path d="M221.52,834.3779 C231.57,834.3779 238.24,834.3779 238.24,834.3779 C238.24,834.3779 238.24,762.8579 238.24,762.8579 C238.24,762.8579 336.35,762.8579 385.56,762.8579" fill="none" id="source_scripts_render_configs_sh-to-tool_cat" style="stroke:#181818;stroke-width:1;"/><polygon fill="#181818" points="391.56,762.8579,382.56,758.8579,386.56,762.8579,382.56,766.8579,391.56,762.8579" style="stroke:#181818;stroke-width:1;"/></g><!--link source_scripts_render_configs_sh to tool_mkdir--><g class="link" data-entity-1="ent0014" data-entity-2="ent0031" data-link-type="dependency" data-source-line="102" id="lnk97"><path d="M221.15,863.4379 C260.86,863.4379 298.24,863.4379 298.24,863.4379 C298.24,863.4379 298.24,1317.9279 298.24,1317.9279 C298.24,1317.9279 341.18,1317.9279 376.16,1317.9279" fill="none" id="source_scripts_render_configs_sh-to-tool_mkdir" style="stroke:#181818;stroke-width:1;"/><polygon fill="#181818" points="382.16,1317.9279,373.16,1313.9279,377.16,1317.9279,373.16,1321.9279,382.16,1317.9279" style="stroke:#181818;stroke-width:1;"/></g><!--link source_scripts_render_webterm_index_sh to tool_cp--><g class="link" data-entity-1="ent0015" data-entity-2="ent0025" data-link-type="dependency" data-source-line="103" id="lnk98"><path d="M248.46,1426.0579 C302.9,1426.0579 356.04,1426.0579 387.68,1426.0579" fill="none" id="source_scripts_render_webterm_index_sh-to-tool_cp" style="stroke:#181818;stroke-width:1;"/><polygon fill="#181818" points="393.68,1426.0579,384.68,1422.0579,388.68,1426.0579,384.68,1430.0579,393.68,1426.0579" style="stroke:#181818;stroke-width:1;"/></g><!--link source_scripts_render_webterm_index_sh to tool_mkdir--><g class="link" data-entity-1="ent0015" data-entity-2="ent0031" data-link-type="dependency" data-source-line="104" id="lnk99"><path d="M248.41,1386.8379 C315.32,1386.8379 385.24,1386.8379 385.24,1386.8379 C385.24,1386.8379 385.24,1379.7679 385.24,1366.8979" fill="none" id="source_scripts_render_webterm_index_sh-to-tool_mkdir" style="stroke:#181818;stroke-width:1;"/><polygon fill="#181818" points="385.24,1360.8979,381.24,1369.8979,385.24,1365.8979,389.24,1369.8979,385.24,1360.8979" style="stroke:#181818;stroke-width:1;"/></g><!--link source_scripts_run_tachometer_profile_sh to tool_run--><g class="link" data-entity-1="ent0016" data-entity-2="ent0036" data-link-type="dependency" data-source-line="105" id="lnk100"><path d="M231.24,214.7579 C231.24,190.5379 231.24,160.1379 231.24,160.1379 C231.24,160.1379 332.33,160.1379 383.79,160.1379" fill="none" id="source_scripts_run_tachometer_profile_sh-to-tool_run" style="stroke:#181818;stroke-width:1;"/><polygon fill="#181818" points="389.79,160.1379,380.79,156.1379,384.79,160.1379,380.79,164.1379,389.79,160.1379" style="stroke:#181818;stroke-width:1;"/></g><!--link source_scripts_run_tachometer_profile_sh to tool_summarize--><g class="link" data-entity-1="ent0016" data-entity-2="ent0039" data-link-type="dependency" data-source-line="106" id="lnk101"><path d="M249.71,244.1379 C289.92,244.1379 326.54,244.1379 358.67,244.1379" fill="none" id="source_scripts_run_tachometer_profile_sh-to-tool_summarize" style="stroke:#181818;stroke-width:1;"/><polygon fill="#181818" points="364.67,244.1379,355.67,240.1379,359.67,244.1379,355.67,248.1379,364.67,244.1379" style="stroke:#181818;stroke-width:1;"/></g><!--link source_scripts_run_tachometer_profile_sh to tool_tachometer--><g class="link" data-entity-1="ent0016" data-entity-2="ent0042" data-link-type="dependency" data-source-line="107" id="lnk102"><path d="M128.24,273.5179 C128.24,297.7379 128.24,328.1379 128.24,328.1379 C128.24,328.1379 273.73,328.1379 357.17,328.1379" fill="none" id="source_scripts_run_tachometer_profile_sh-to-tool_tachometer" style="stroke:#181818;stroke-width:1;"/><polygon fill="#181818" points="363.17,328.1379,354.17,324.1379,358.17,328.1379,354.17,332.1379,363.17,328.1379" style="stroke:#181818;stroke-width:1;"/></g><!--link source_scripts_ttyd_session_sh to tool_tmux--><g class="link" data-entity-1="ent0017" data-entity-2="ent0044" data-link-type="dependency" data-source-line="108" id="lnk103"><path d="M212.79,76.1379 C270.34,76.1379 337.26,76.1379 378.49,76.1379" fill="none" id="source_scripts_ttyd_session_sh-to-tool_tmux" style="stroke:#181818;stroke-width:1;"/><polygon fill="#181818" points="384.49,76.1379,375.49,72.1379,379.49,76.1379,375.49,80.1379,384.49,76.1379" style="stroke:#181818;stroke-width:1;"/></g><?plantuml-src dLXThvms47tdLw2RbqhLRfARL54U6YbATwj8QH-wKPyYMLuOm5gmgMt2vVxw3h0iNZ3OtCVnd3F77-DXZ6OwXx1aUdSMJ-5t8NB6q_0hrv1AgfdWAiWXqQ4MeMHffiEOIOXQHw0kZ9TKqY9K6Or5tH8JcYimF34ajChrKN3zDoqW_4jmeKeQcPX85ANWmFL9DpYNDZpbQMv2S5AWcn928NKcWXiaVDYdJ6VL-NKjv2N9HQrUHspV5FaF_Xx5DG8XnicBN3s4L8LAL382qfF8ZKGYHf0KlZgyEJuU3wQ0YYGhDOOLF65f9O4ak0CrpVDuhx8V_755vieb5YvHcPzQbTITpljDEiXoA02dvnm8AqaYP4rbZCVdlI0RsQ6N0WVCA20NQ5GdzCv3w8xbKCXm7i29KbaN_ZUFy2F54PjnfV7Oki1lF09VyNvHIGAnaDHxz-zfdXhLkUAwyjxuUvgdHWrd3RBeH3vk4Bdo72fODYuq1HBb38k5zwMufpaq99mhXhSJPwH0_cGHzBdwrkVGBMId78z1Nk-jyaw0UvgVnh373AsdhKftP9TUnOccKIOAZ2v9AKN2Sl1EF3lTeQbrWnKLbCBlKdzUzqes8PFZ2F-JvYp6AkHz_GU26JVAHHM73v-_VIEdmp__VlroEFtw-o_jBBe8RIpIbOmXTLfN-EfuEBxxyc5Wq-xJYz-73AABgBH1xJray2mn5UYgt9KDVaVvdDrvIU-THIZrBWLJijHOe6TA4OtZPaHrvXoZJSGyHccuowatvideHcFg7xwokwWmDdSO9JYwnB30PzXKWZ6xrfeYhdLj15q7fhZYWjtKYEhCAQPaXXWQCx-47NPG1JCs5CT8FpP5_uSNEX8nZDXXP8fSA1iZSR4qJE9KHfgXCVKhCFOSZPbVPIO0hHcYAWegsREngDlG3DkeI1i7qziMb8PY2ko7fjYnLetWSMo61cEMQCpyHVLa0D2Q8h2p6m5eJFrrEhhhTEfzDhFfsSWcHsEystsobvdDHBF2U9Cnx_snj-GF_Dhm6zCi45kvj_m8N3tvZO9bpn_SbXb_DDuZVp3QWMT_lpPt9wU_Qu6hmx_XktBe3yVRv0-kqs3rAJ0kjFG4sWve0MfTs0AsBNY-qAKKdByNPYaVR-0uTSOtmtZx-rPX0-CbAfPCjZmnV2TbetJDp2P2kGMDlSmMk2tdrl1NtnQADLVN20jjmPOGYqS_VygjxFCAsBge5VpG8ssWFBFPX1QUXsCwJfl_pG7i-UoYMNFQITgyF4jkkoYs_7Pn5dBSHREcX8lacUkkC8lvFd_dhts0Lz0BgxCtyAjdxA3OXHQVzEDELlm5h5kR_mBkw0uSFmP62hRZ0HSQXWuQEvm_9IspKpUF9ZX5b7DymhpzCBX3h0koAGNZMks3FuOV1uyVGvqn6UzAAdNJ_qVO1xYvOHl-Vm00?></g></svg>
