<?plantuml 1.2026.2?><svg xmlns="http://www.w3.org/2000/svg" xmlns:xlink="http://www.w3.org/1999/xlink" contentStyleType="text/css" data-diagram-type="DESCRIPTION" height="1875px" preserveAspectRatio="none" style="width:518px;height:1875px;background:#FFFFFF;" version="1.1" viewBox="0 0 518 1875" width="518px" zoomAndPan="magnify"><title>pit-box Tooling Integrations</title><defs/><g><g class="title" data-source-line="1"><text fill="#000000" font-family="Monospace" font-size="14" font-weight="bold" lengthAdjust="spacing" textLength="195.2223" x="154.7974" y="24.9659">pit-box&#160;Tooling&#160;Integrations</text></g><!--entity source_github_workflows_ci_yml--><g class="entity" data-qualified-name="source_github_workflows_ci_yml" data-source-line="7" id="ent0002"><rect fill="#E0F2FE" height="58.1358" rx="2.5" ry="2.5" style="stroke:#181818;stroke-width:0.5;" width="182.6234" x="30.62" y="1510.1449"/><text fill="#000000" font-family="Monospace" font-size="14" lengthAdjust="spacing" textLength="162.6234" x="40.62" y="1535.1108">.github/workflows/ci.yml</text><text fill="#000000" font-family="Monospace" font-size="14" lengthAdjust="spacing" textLength="105.3356" x="40.62" y="1554.1787">4&#160;detected&#160;tools</text></g><!--entity source_scripts_configure_firewalld_sh--><g class="entity" data-qualified-name="source_scripts_configure_firewalld_sh" data-source-line="8" id="ent0003"><rect fill="#E0F2FE" height="58.1358" rx="2.5" ry="2.5" style="stroke:#181818;stroke-width:0.5;" width="213.7312" x="15.07" y="59.1449"/><text fill="#000000" font-family="Monospace" font-size="14" lengthAdjust="spacing" textLength="193.7312" x="25.07" y="84.1108">scripts/configure_firewalld.sh</text><text fill="#000000" font-family="Monospace" font-size="14" lengthAdjust="spacing" textLength="105.3356" x="25.07" y="103.1787">2&#160;detected&#160;tools</text></g><!--entity source_scripts_configure_ufw_sh--><g class="entity" data-qualified-name="source_scripts_configure_ufw_sh" data-source-line="9" id="ent0004"><rect fill="#E0F2FE" height="58.1358" rx="2.5" ry="2.5" style="stroke:#181818;stroke-width:0.5;" width="181.4054" x="31.23" y="1113.1449"/><text fill="#000000" font-family="Monospace" font-size="14" lengthAdjust="spacing" textLength="161.4054" x="41.23" y="1138.1108">scripts/configure_ufw.sh</text><text fill="#000000" font-family="Monospace" font-size="14" lengthAdjust="spacing" textLength="105.3356" x="41.23" y="1157.1787">4&#160;detected&#160;tools</text></g><!--entity source_scripts_enable_ip_forwarding_sh--><g class="entity" data-qualified-name="source_scripts_enable_ip_forwarding_sh" data-source-line="10" id="ent0005"><rect fill="#E0F2FE" height="58.1358" rx="2.5" ry="2.5" style="stroke:#181818;stroke-width:0.5;" width="229.8732" x="7" y="1263.1449"/><text fill="#000000" font-family="Monospace" font-size="14" lengthAdjust="spacing" textLength="209.8732" x="17" y="1288.1108">scripts/enable_ip_forwarding.sh</text><text fill="#000000" font-family="Monospace" font-size="14" lengthAdjust="spacing" textLength="105.3356" x="17" y="1307.1787">2&#160;detected&#160;tools</text></g><!--entity source_scripts_generate_keys_sh--><g class="entity" data-qualified-name="source_scripts_generate_keys_sh" data-source-line="11" id="ent0006"><rect fill="#E0F2FE" height="58.1358" rx="2.5" ry="2.5" style="stroke:#181818;stroke-width:0.5;" width="182.5814" x="30.65" y="372.1449"/><text fill="#000000" font-family="Monospace" font-size="14" lengthAdjust="spacing" textLength="162.5814" x="40.65" y="397.1108">scripts/generate_keys.sh</text><text fill="#000000" font-family="Monospace" font-size="14" lengthAdjust="spacing" textLength="105.3356" x="40.65" y="416.1787">3&#160;detected&#160;tools</text></g><!--entity source_scripts_harden_ssh_sh--><g class="entity" data-qualified-name="source_scripts_harden_ssh_sh" data-source-line="12" id="ent0007"><rect fill="#E0F2FE" height="58.1358" rx="2.5" ry="2.5" style="stroke:#181818;stroke-width:0.5;" width="163.2335" x="40.32" y="628.1449"/><text fill="#000000" font-family="Monospace" font-size="14" lengthAdjust="spacing" textLength="143.2335" x="50.32" y="653.1108">scripts/harden_ssh.sh</text><text fill="#000000" font-family="Monospace" font-size="14" lengthAdjust="spacing" textLength="105.3356" x="50.32" y="672.1787">5&#160;detected&#160;tools</text></g><!--entity source_scripts_install_sh--><g class="entity" data-qualified-name="source_scripts_install_sh" data-source-line="13" id="ent0008"><rect fill="#E0F2FE" height="58.1358" rx="2.5" ry="2.5" style="stroke:#181818;stroke-width:0.5;" width="126.6096" x="58.63" y="1718.1449"/><text fill="#000000" font-family="Monospace" font-size="14" lengthAdjust="spacing" textLength="106.6096" x="68.63" y="1743.1108">scripts/install.sh</text><text fill="#000000" font-family="Monospace" font-size="14" lengthAdjust="spacing" textLength="105.3356" x="68.63" y="1762.1787">0&#160;detected&#160;tools</text></g><!--entity source_scripts_install_fedora_sh--><g class="entity" data-qualified-name="source_scripts_install_fedora_sh" data-source-line="14" id="ent0009"><rect fill="#E0F2FE" height="58.1358" rx="2.5" ry="2.5" style="stroke:#181818;stroke-width:0.5;" width="176.2534" x="33.81" y="171.1449"/><text fill="#000000" font-family="Monospace" font-size="14" lengthAdjust="spacing" textLength="156.2534" x="43.81" y="196.1108">scripts/install_fedora.sh</text><text fill="#000000" font-family="Monospace" font-size="14" lengthAdjust="spacing" textLength="105.3356" x="43.81" y="215.1787">2&#160;detected&#160;tools</text></g><!--entity source_scripts_install_ubuntu_sh--><g class="entity" data-qualified-name="source_scripts_install_ubuntu_sh" data-source-line="15" id="ent0010"><rect fill="#E0F2FE" height="58.1358" rx="2.5" ry="2.5" style="stroke:#181818;stroke-width:0.5;" width="181.0974" x="31.39" y="465.1449"/><text fill="#000000" font-family="Monospace" font-size="14" lengthAdjust="spacing" textLength="161.0974" x="41.39" y="490.1108">scripts/install_ubuntu.sh</text><text fill="#000000" font-family="Monospace" font-size="14" lengthAdjust="spacing" textLength="105.3356" x="41.39" y="509.1787">3&#160;detected&#160;tools</text></g><!--entity source_scripts_package_client_sh--><g class="entity" data-qualified-name="source_scripts_package_client_sh" data-source-line="16" id="ent0011"><rect fill="#E0F2FE" height="58.1358" rx="2.5" ry="2.5" style="stroke:#181818;stroke-width:0.5;" width="184.2894" x="29.79" y="815.1449"/><text fill="#000000" font-family="Monospace" font-size="14" lengthAdjust="spacing" textLength="164.2894" x="39.79" y="840.1108">scripts/package_client.sh</text><text fill="#000000" font-family="Monospace" font-size="14" lengthAdjust="spacing" textLength="105.3356" x="39.79" y="859.1787">4&#160;detected&#160;tools</text></g><!--entity source_scripts_render_configs_sh--><g class="entity" data-qualified-name="source_scripts_render_configs_sh" data-source-line="17" id="ent0012"><rect fill="#E0F2FE" height="58.1358" rx="2.5" ry="2.5" style="stroke:#181818;stroke-width:0.5;" width="185.9274" x="28.97" y="983.1449"/><text fill="#000000" font-family="Monospace" font-size="14" lengthAdjust="spacing" textLength="165.9274" x="38.97" y="1008.1108">scripts/render_configs.sh</text><text fill="#000000" font-family="Monospace" font-size="14" lengthAdjust="spacing" textLength="105.3356" x="38.97" y="1027.1787">2&#160;detected&#160;tools</text></g><!--entity source_scripts_validate_sh--><g class="entity" data-qualified-name="source_scripts_validate_sh" data-source-line="18" id="ent0013"><rect fill="#E0F2FE" height="58.1358" rx="2.5" ry="2.5" style="stroke:#181818;stroke-width:0.5;" width="139.1116" x="52.38" y="1811.1449"/><text fill="#000000" font-family="Monospace" font-size="14" lengthAdjust="spacing" textLength="119.1116" x="62.38" y="1836.1108">scripts/validate.sh</text><text fill="#000000" font-family="Monospace" font-size="14" lengthAdjust="spacing" textLength="105.3356" x="62.38" y="1855.1787">0&#160;detected&#160;tools</text></g><!--entity tool_actions_checkout--><g class="entity" data-qualified-name="tool_actions_checkout" data-source-line="19" id="ent0014"><path d="M342.8221,1397.0506 C346.6739,1390.8915 351.4165,1391.0321 355.146,1397.1731 C358.4517,1390.4102 363.4534,1391.6591 367.492,1396.3856 C372.1123,1389.2382 376.3729,1389.3631 381.0139,1396.3659 C385.2887,1390.0825 389.1213,1391.0705 393.2173,1396.5514 C396.5488,1391.8655 401.7624,1392.0192 404.5426,1397.1852 C407.2408,1391.5275 413.5073,1391.0356 417.0845,1396.163 C421.1641,1390.1257 426.4619,1390.1853 430.835,1395.8172 C436.0096,1390.3817 440.7712,1390.8817 443.6216,1398.1555 C446.5926,1392.0314 452.0729,1392.1155 455.1115,1398.0913 C459.0803,1392.2577 463.4644,1393.0147 467.4744,1398.0443 C477.1557,1400.4539 478.4659,1406.6137 473.4682,1414.402 C478.9131,1422.8591 477.448,1427.9624 467.5047,1430.8354 C465.2571,1436.5068 459.8973,1436.9781 456.7214,1431.7542 C453.1344,1438.2645 446.9723,1438.8538 442.3811,1432.9106 C439.6476,1438.813 435.6771,1440.4284 430.4471,1435.7178 C427.1662,1442.2217 422.6701,1442.0457 418.5901,1436.5043 C416.0617,1443.9434 409.5443,1444.4104 405.536,1437.888 C400.6327,1444.2859 395.1736,1442.2101 392.6865,1435.5164 C388.7506,1442.2944 382.8289,1442.139 379.2581,1435.16 C374.7234,1440.6784 370.0351,1439.1998 367.3615,1433.2324 C363.4843,1438.35 358.1253,1437.972 355.5814,1431.8368 C351.1205,1437.2998 344.8986,1438.0356 341.6371,1430.5456 C334.5391,1426.4941 333.1377,1418.5112 341.7187,1414.5396 C333.4764,1408.5115 334.4235,1402.0288 342.8221,1397.0506" fill="#FEF3C7" style="stroke:#181818;stroke-width:0.5;"/><text fill="#000000" font-family="Monospace" font-size="14" lengthAdjust="spacing" textLength="111.9156" x="348.39" y="1418.6508">actions/checkout</text></g><!--entity tool_actions_setup_python--><g class="entity" data-qualified-name="tool_actions_setup_python" data-source-line="20" id="ent0015"><path d="M328.4591,1482.2356 C330.6716,1476.1807 334.8852,1476.119 338.7039,1480.6864 C343.5676,1475.3567 347.9069,1476.0056 351.2997,1482.2826 C353.1957,1477.6932 357.9936,1475.839 361.4496,1480.5867 C364.8091,1474.2941 368.4166,1474.4008 372.4851,1479.9246 C376.0653,1474.438 379.803,1475.3362 383.2527,1480.0622 C387.0914,1475.7205 390.7298,1476.0489 393.506,1481.2087 C396.6814,1475.4042 401.7379,1473.7514 406.4798,1479.4405 C409.5256,1474.4697 412.464,1474.5282 415.585,1479.3708 C419.9181,1473.6281 424.2461,1474.2688 427.9753,1480.0218 C432.018,1475.0843 435.8871,1475.7482 438.9486,1481.0712 C441.7171,1475.6983 446.4805,1476.3745 449.5899,1480.697 C452.6403,1475.053 457.4418,1475.7681 460.1725,1481.0079 C464.3974,1475.3656 468.1972,1476.0491 472.2337,1481.2179 C476.0254,1475.9476 480.4772,1476.261 483.6776,1481.8415 C492.8226,1484.5427 494.6541,1492.5659 488.134,1499.2722 C495.1689,1507.3678 492.7216,1513.9057 482.1314,1515.4697 C478.6494,1521.0605 474.871,1520.988 471.6867,1515.1965 C469.6418,1521.0722 464.7028,1520.6957 461.2359,1516.7022 C458.489,1522.5648 453.8612,1522.7162 449.9638,1517.9188 C446.8427,1524.0346 441.0931,1523.7702 438.0238,1517.8674 C435.6005,1523.4331 432.3716,1522.8119 428.4733,1519.4444 C425.3192,1524.5774 420.7585,1525.2134 417.2469,1519.8258 C414.8721,1525.2076 409.2119,1525.6816 405.8629,1520.9191 C402.2816,1526.9426 397.7383,1526.616 394.051,1521.0268 C390.4763,1525.6056 385.2835,1526.2944 382.5866,1520.0933 C378.9368,1524.5769 374.6318,1523.0657 372.8853,1518.1325 C368.4332,1522.1632 364.7024,1521.8274 361.5481,1516.5515 C357.4118,1522.6605 353.4978,1521.3565 349.6184,1516.2775 C347.391,1520.7034 342.7623,1520.5699 340.1088,1516.7701 C336.3347,1522.4455 330.7549,1521.8319 328.2562,1515.5101 C318.5193,1514.2242 314.9489,1507.0564 319.5211,1498.4458 C314.5585,1489.5298 317.0867,1482.1449 328.4591,1482.2356" fill="#FEF3C7" style="stroke:#181818;stroke-width:0.5;"/><text fill="#000000" font-family="Monospace" font-size="14" lengthAdjust="spacing" textLength="140.2795" x="334.21" y="1502.6508">actions/setup-python</text></g><!--entity tool_apt_get--><g class="entity" data-qualified-name="tool_apt_get" data-source-line="21" id="ent0016"><path d="M375.3103,474.1527 C378.8283,467.8279 385.7857,467.6322 389.9659,473.3466 C393.6591,466.0263 399.6403,465.2521 405.1176,471.3289 C410.549,464.424 418.477,464.6683 421.3212,473.9231 C424.9393,467.3799 432.1387,465.8919 436.6622,472.8979 C447.4369,473.9964 451.4552,479.5543 445.451,489.523 C450.3788,499.162 446.2756,506.7512 435.1482,506.8358 C432.9607,514.5606 426.7299,515.9569 421.1892,510.3456 C418.933,518.6046 413.6174,520.4539 406.3666,516.3188 C398.6916,522.1781 392.3358,521.3739 389.2236,511.3836 C382.2479,517.9779 375.5848,514.5458 373.8316,506.0549 C366.9024,501.1268 365.305,496.5187 373.2013,490.9711 C366.5073,484.9029 367.4843,478.4001 375.3103,474.1527" fill="#FEF3C7" style="stroke:#181818;stroke-width:0.5;"/><text fill="#000000" font-family="Monospace" font-size="14" lengthAdjust="spacing" textLength="47.5858" x="380.55" y="494.6508">apt-get</text></g><!--entity tool_cat--><g class="entity" data-qualified-name="tool_cat" data-source-line="22" id="ent0017"><path d="M388.4482,1145.6989 C392.3319,1135.589 399.1992,1135.9939 405.9621,1142.7002 C413.4459,1136.0079 417.8046,1138.8674 421.4138,1146.7953 C430.0292,1149.948 430.5173,1155.4402 425.2119,1162.0573 C431.1594,1168.2143 430.7812,1176.1115 421.3311,1178.6721 C419.0083,1188.4878 411.7267,1189.4871 404.3682,1184.4065 C396.5532,1190.4983 391.3019,1187.7733 388.8927,1178.8391 C378.1325,1177.5896 376.7203,1172.1435 381.3437,1163.3812 C375.634,1155.3105 377.1807,1146.9484 388.4482,1145.6989" fill="#FEF3C7" style="stroke:#181818;stroke-width:0.5;"/><text fill="#000000" font-family="Monospace" font-size="14" lengthAdjust="spacing" textLength="19.6279" x="394.53" y="1166.6508">cat</text></g><!--entity tool_cp--><g class="entity" data-qualified-name="tool_cp" data-source-line="23" id="ent0018"><path d="M390.0422,809.6293 C393.4214,801.0298 400.3068,800.69 405.7515,807.5273 C410.7342,801.0127 417.448,802.6291 419.7024,810.2247 C427.9103,814.0469 428.5638,820.2543 421.4557,825.8006 C428.1978,832.0369 428.6058,838.5776 419.4502,842.9554 C418.5466,851.5035 413.7232,854.6578 405.5371,851.986 C395.385,857.4589 390.5423,853.0309 390.0554,842.5857 C380.1919,838.9313 380.5994,831.7623 387.4754,825.5698 C381.8839,819.5992 380.7432,813.2021 390.0422,809.6293" fill="#FEF3C7" style="stroke:#181818;stroke-width:0.5;"/><text fill="#000000" font-family="Monospace" font-size="14" lengthAdjust="spacing" textLength="15.3299" x="396.68" y="830.6508">cp</text></g><!--entity tool_firewall_cmd--><g class="entity" data-qualified-name="tool_firewall_cmd" data-source-line="24" id="ent0019"><path d="M358.7402,54.3923 C362.2802,48.5671 366.8069,48.2665 370.7294,53.9954 C373.325,47.8445 378.0889,47.9018 381.7549,52.9407 C385.046,47.6946 390.611,48.1923 393.2718,53.6207 C395.6746,46.2954 401.9252,46.0679 406.1206,51.8655 C410.0652,46.1819 415.4566,47.2711 417.6793,53.5318 C422.025,47.334 425.6687,48.9989 429.5252,54.0471 C431.9653,47.7617 436.6316,48.5367 440.4279,52.6213 C444.2921,47.393 449.9048,49.0613 452.0485,54.4963 C462.0665,56.4711 465.7761,60.9051 460.095,70.6837 C467.0183,79.9029 463.1331,84.857 453.5744,87.7957 C449.5056,93.5 443.8794,93.2853 440.5251,87.0171 C437.4869,92.8297 432.8368,94.1531 428.4635,88.4107 C425.4572,93.5491 421.6296,93.7821 417.9302,89.1586 C413.7603,94.6503 409.7266,95.141 405.2227,89.5413 C401.4171,94.0849 398.0643,94.3953 394.2415,89.5614 C390.3321,96.2997 385.6105,95.6106 381.7335,89.5297 C376.6152,95.4343 372.6747,94.3956 368.7716,88.2252 C364.7515,93.0059 360.7465,92.3577 357.9077,86.9639 C347.7229,83.5455 347.3635,76.6678 354.0662,69.5286 C348.9475,62.6848 350.3213,57.0558 358.7402,54.3923" fill="#FEF3C7" style="stroke:#181818;stroke-width:0.5;"/><text fill="#000000" font-family="Monospace" font-size="14" lengthAdjust="spacing" textLength="81.1157" x="363.79" y="74.6508">firewall-cmd</text></g><!--entity tool_firewalld--><g class="entity" data-qualified-name="tool_firewalld" data-source-line="25" id="ent0020"><path d="M370.9313,137.8957 C373.0915,132.3697 378.2222,131.2426 381.7857,136.4806 C385.6599,131.4578 391.3527,131.9149 394.4753,137.3892 C397.1657,131.2848 401.7708,130.4054 406.0065,135.8456 C409.4855,131.0505 414.3784,132.2908 416.2071,137.5241 C419.3553,131.7458 423.9138,131.2402 428.0989,136.3964 C432.7051,129.7978 438.2187,131.2141 441.5442,137.7112 C450.5628,141.4147 449.8453,149.4828 442.5354,154.1697 C450.2606,159.6298 450.3946,167.0211 440.9809,170.8876 C439.1208,176.3524 433.9926,177.9509 429.7348,173.6482 C427.6609,179.9407 423.1111,181.1854 418.1052,176.8596 C414.7569,183.5705 409.9728,184.3819 404.7125,178.9723 C400.4609,183.1039 397.1551,182.5542 394.6534,177.1301 C389.0797,182.3003 383.2152,179.3887 381.4347,172.8484 C377.1802,177.4605 373.1165,178.1292 370.018,171.6577 C359.0742,170.704 354.9455,162.6404 361.5331,153.4962 C358.1802,144.1609 359.6116,138.3917 370.9313,137.8957" fill="#FEF3C7" style="stroke:#181818;stroke-width:0.5;"/><text fill="#000000" font-family="Monospace" font-size="14" lengthAdjust="spacing" textLength="56.7978" x="375.95" y="158.6508">firewalld</text></g><!--entity tool_grep--><g class="entity" data-qualified-name="tool_grep" data-source-line="26" id="ent0021"><path d="M383.2292,893.6815 C385.906,889.2731 390.4281,888.1323 393.5897,893.1486 C396.8203,886.173 400.7701,885.2584 406.3339,890.7667 C409.4721,886.0025 414.7202,887.1717 416.9912,891.7555 C421.3709,887.7912 425.2313,888.4737 427.5698,894.0248 C437.4874,896.7957 437.3825,903.1722 431.8852,910.085 C438.7046,917.9639 435.8641,923.1633 427.3245,926.8686 C425.1651,933.0201 421.608,934.8391 416.0464,930.5403 C414.2657,935.4222 409.4678,937.4697 405.5085,932.9936 C399.6088,936.5626 395.6193,935.8498 393.2392,928.8915 C389.306,933.4553 384.1625,931.6438 382.5988,926.3372 C372.884,924.2157 370.2977,916.4774 377.648,909.3751 C371.9033,902.4479 374.3603,895.4115 383.2292,893.6815" fill="#FEF3C7" style="stroke:#181818;stroke-width:0.5;"/><text fill="#000000" font-family="Monospace" font-size="14" lengthAdjust="spacing" textLength="30.8979" x="388.9" y="914.6508">grep</text></g><!--entity tool_mkdir--><g class="entity" data-qualified-name="tool_mkdir" data-source-line="27" id="ent0022"><path d="M379.3713,641.2422 C383.1959,635.4062 388.5233,635.4051 391.8487,641.7535 C395.3758,634.89 400.9426,635.1676 405.6747,640.3731 C409.6126,634.34 413.8604,634.8641 418.1556,639.9728 C422.5027,634.6308 427.7554,634.1883 430.8607,641.2453 C443.4644,641.465 446.0008,648.6543 441.6045,659.1022 C446.1929,667.8554 440.6985,674.286 431.7893,674.3513 C428.8507,680.6147 424.9779,682.8682 419.1334,677.518 C416.2857,684.2043 410.0946,685.8485 404.7739,680.4583 C399.3432,684.9762 395.4574,682.8244 393.385,676.8226 C387.7031,684.0446 381.2904,682.0666 378.2383,674.1853 C368.8884,672.1224 364.5133,667.6267 370.3715,658.1178 C364.9152,647.6835 369.1796,643.3313 379.3713,641.2422" fill="#FEF3C7" style="stroke:#181818;stroke-width:0.5;"/><text fill="#000000" font-family="Monospace" font-size="14" lengthAdjust="spacing" textLength="38.5699" x="385.06" y="662.6508">mkdir</text></g><!--entity tool_pip--><g class="entity" data-qualified-name="tool_pip" data-source-line="28" id="ent0023"><path d="M388.2212,1564.7536 C392.5655,1557.1257 400.0307,1555.6631 405.4851,1563.5155 C412.8931,1555.4017 419.0018,1557.3491 423.2905,1566.6963 C432.6619,1567.9484 436.7219,1572.841 431.887,1582.0481 C437.9778,1591.7749 432.3044,1598.199 422.4161,1598.9965 C419.5061,1608.9722 413.8152,1611.3395 405.4333,1604.5344 C397.1173,1611.6466 389.3026,1607.7435 387.3146,1597.8086 C379.502,1593.53 377.07,1588.9078 384.5787,1581.9808 C377.5108,1574.7628 378.3957,1568.3997 388.2212,1564.7536" fill="#FEF3C7" style="stroke:#181818;stroke-width:0.5;"/><text fill="#000000" font-family="Monospace" font-size="14" lengthAdjust="spacing" textLength="20.8319" x="393.93" y="1586.6508">pip</text></g><!--entity tool_pre_commit--><g class="entity" data-qualified-name="tool_pre_commit" data-source-line="29" id="ent0024"><path d="M360.5072,1649.1377 C363.2931,1644.0413 367.869,1644.403 370.6129,1649.1807 C374.7071,1642.9335 380.0735,1644.3629 383.5436,1649.8676 C386.877,1644.3577 390.1473,1643.9298 393.9043,1649.4704 C396.8095,1642.5429 401.3797,1642.5069 406.1278,1647.5958 C409.9556,1642.3336 414.3672,1644.4388 416.6608,1649.2068 C419.8078,1644.0562 423.8537,1643.8414 427.389,1648.7944 C431.2436,1642.9296 436.166,1644.0549 439.2461,1649.5992 C442.3273,1643.8713 446.9881,1645.1756 449.9763,1649.6967 C458.2048,1653.5079 458.8861,1660.5216 451.7236,1665.9841 C459.744,1670.9476 459.225,1676.6292 451.8924,1681.757 C448.696,1687.1795 444.3913,1687.922 440.4497,1682.5467 C437.7779,1689.235 432.6986,1689.4914 428.171,1684.4971 C424.1897,1689.9034 420.858,1689.1646 417.1246,1684.2321 C414.705,1689.9431 409.4188,1690.0847 406.4036,1684.8136 C402.9817,1689.5691 397.8644,1689.9882 394.7358,1684.4802 C390.6978,1688.2774 385.9695,1688.5621 383.8236,1682.4059 C380.8116,1689.4479 374.6541,1688.6823 370.6027,1683.5332 C367.0468,1688.03 361.3987,1687.6668 359.0347,1682.1556 C350.2279,1681.0066 347.2725,1672.7612 352.1487,1665.8381 C347.4321,1656.4351 348.8516,1650.3463 360.5072,1649.1377" fill="#FEF3C7" style="stroke:#181818;stroke-width:0.5;"/><text fill="#000000" font-family="Monospace" font-size="14" lengthAdjust="spacing" textLength="76.8317" x="365.93" y="1670.6508">pre-commit</text></g><!--entity tool_qrencode--><g class="entity" data-qualified-name="tool_qrencode" data-source-line="30" id="ent0025"><path d="M366.5573,978.205 C370.7226,972.6987 374.6227,971.5702 378.8807,978.11 C383.3062,972.6589 387.2901,970.9864 392.062,977.7357 C394.8466,971.1848 401.5586,970.0321 405.8076,976.1464 C409.2507,969.8649 413.4331,970.7434 417.1608,975.863 C421.1691,969.8611 428.141,969.663 431.0059,977.0457 C435.4261,970.2992 440.1739,970.9557 444.7668,976.8578 C454.8346,977.7081 458.7751,985.5424 454.2022,994.3087 C460.5052,1004.6615 454.6281,1012.4346 443.298,1011.7862 C440.3175,1017.4742 434.4115,1017.955 430.8789,1012.3957 C428.6216,1020.4981 424.3822,1021.4987 418.1531,1016.1546 C415.9561,1022.3358 410.1858,1023.5203 406.0453,1018.2007 C401.1394,1023.6234 395.4047,1024.3185 392.1183,1016.4976 C387.1578,1020.3899 382.156,1020.0808 380.0238,1013.2943 C374.6431,1020.1421 370.1214,1017.8262 366.1988,1011.7361 C355.7531,1009.7837 353.2831,1002.4732 358.0222,993.6542 C353.3431,985.0069 356.5853,978.758 366.5573,978.205" fill="#FEF3C7" style="stroke:#181818;stroke-width:0.5;"/><text fill="#000000" font-family="Monospace" font-size="14" lengthAdjust="spacing" textLength="62.6358" x="373.03" y="998.6508">qrencode</text></g><!--entity tool_sed--><g class="entity" data-qualified-name="tool_sed" data-source-line="31" id="ent0026"><path d="M385.9502,1230.3175 C390.8402,1221.1501 399.1693,1219.5488 406.2481,1227.7612 C412.1281,1219.9671 420.483,1221.7067 423.8987,1230.3995 C433.4883,1231.1082 439.1776,1235.8614 433.6904,1246.0206 C438.9245,1255.4672 435.4225,1260.887 425.049,1261.7698 C424.7907,1274.5253 418.4361,1279.5224 406.4227,1273.3179 C395.4948,1278.3789 388.3118,1276.8992 387.5902,1263.1172 C377.9293,1262.2825 374.1411,1254.191 379.4939,1246.1796 C374.4385,1238.0527 376.8547,1232.6847 385.9502,1230.3175" fill="#FEF3C7" style="stroke:#181818;stroke-width:0.5;"/><text fill="#000000" font-family="Monospace" font-size="14" lengthAdjust="spacing" textLength="23.2119" x="392.74" y="1250.6508">sed</text></g><!--entity tool_sshd--><g class="entity" data-qualified-name="tool_sshd" data-source-line="32" id="ent0027"><path d="M383.3392,557.6815 C386.0004,553.2961 390.4977,552.1602 393.6437,557.1486 C396.855,550.2 400.7873,549.2862 406.3319,554.7667 C409.4561,550.0289 414.6763,551.1944 416.9332,555.7555 C421.2951,551.816 425.1352,552.4992 427.4558,558.0248 C437.3734,560.7957 437.2685,567.1722 431.7712,574.085 C438.5906,581.9639 435.7501,587.1633 427.2105,590.8686 C425.0698,596.9957 421.5313,598.8117 415.9884,594.5403 C414.2224,599.3997 409.4511,601.4425 405.5065,596.9936 C399.6261,600.5398 395.654,599.8245 393.2932,592.8915 C389.3741,597.4279 384.2584,595.6192 382.7088,590.3372 C372.994,588.2157 370.4077,580.4774 377.758,573.3751 C372.0133,566.4479 374.4703,559.4115 383.3392,557.6815" fill="#FEF3C7" style="stroke:#181818;stroke-width:0.5;"/><text fill="#000000" font-family="Monospace" font-size="14" lengthAdjust="spacing" textLength="30.6739" x="389.01" y="578.6508">sshd</text></g><!--entity tool_sysctl--><g class="entity" data-qualified-name="tool_sysctl" data-source-line="33" id="ent0028"><path d="M381.0643,1314.4969 C383.6371,1308.3327 387.4548,1308.2064 392.0317,1312.3683 C396.0585,1305.4464 400.0844,1306.4762 404.9591,1311.4466 C408.992,1306.6342 413.9165,1306.8754 417.4026,1312.1228 C421.6981,1306.8894 426.946,1307.9351 429.8176,1313.7263 C439.4761,1313.5623 445.5161,1320.4566 440.5803,1329.9653 C447.2326,1340.0358 442.0884,1348.6796 430.0506,1347.5732 C425.6806,1352.6703 421.7979,1354.345 417.449,1347.5509 C413.718,1352.8389 409.7593,1354.2152 405.5775,1348.0168 C402.0186,1353.2585 395.6609,1353.39 392.5466,1347.4965 C388.3037,1353.9164 383.0206,1353.0718 379.397,1346.8522 C369.4579,1344.4513 367.3591,1337.1863 373.4407,1329.3373 C368.1352,1320.8812 372.1682,1315.6575 381.0643,1314.4969" fill="#FEF3C7" style="stroke:#181818;stroke-width:0.5;"/><text fill="#000000" font-family="Monospace" font-size="14" lengthAdjust="spacing" textLength="35.9379" x="386.38" y="1334.6508">sysctl</text></g><!--entity tool_systemctl--><g class="entity" data-qualified-name="tool_systemctl" data-source-line="34" id="ent0029"><path d="M366.5143,220.9503 C369.9548,215.0315 376.4793,214.3498 379.58,221.2953 C383.3216,214.5846 388.3585,214.5078 392.8923,220.4625 C396.9241,214.2154 401.4624,214.7079 405.9076,219.996 C409.4515,213.9618 413.1175,214.5446 417.0613,219.5936 C422.0221,212.9342 426.4937,213.8951 430.3066,220.721 C433.894,215.3606 440.1325,214.453 443.1865,221.2845 C451.8828,224.0172 454.8791,232.2246 448.3998,239.3392 C453.7352,245.1439 451.952,251.9258 444.3704,254.2369 C441.801,262.7754 436.2683,263.4466 429.961,258.122 C427.2989,263.722 423.1598,264.4697 418.5065,260.5071 C415.6441,267.1301 410.3262,269.1226 405.3794,262.5865 C399.938,268.1566 395.5052,266.8283 393.0095,259.7139 C388.6127,265.0075 382.8929,265.3823 379.9761,258.1714 C375.0575,262.2406 370.638,262.9701 368.0784,255.6969 C357.3143,252.5787 357.1723,246.7112 363.0476,238.6752 C356.2674,231.417 356.5547,224.9345 366.5143,220.9503" fill="#FEF3C7" style="stroke:#181818;stroke-width:0.5;"/><text fill="#000000" font-family="Monospace" font-size="14" lengthAdjust="spacing" textLength="61.9778" x="373.36" y="242.6508">systemctl</text></g><!--entity tool_tee--><g class="entity" data-qualified-name="tool_tee" data-source-line="35" id="ent0030"><path d="M388.2112,304.7536 C392.5574,297.1227 400.0257,295.6597 405.4821,303.5155 C412.8924,295.3981 419.0035,297.3459 423.2945,306.6963 C432.6659,307.9484 436.7259,312.841 431.891,322.0481 C437.9818,331.7749 432.3084,338.199 422.4201,338.9965 C419.5078,348.9755 413.8145,351.343 405.4303,344.5344 C397.1124,351.6501 389.2946,347.7466 387.3046,337.8086 C379.492,333.53 377.06,328.9078 384.5687,321.9808 C377.5008,314.7628 378.3857,308.3997 388.2112,304.7536" fill="#FEF3C7" style="stroke:#181818;stroke-width:0.5;"/><text fill="#000000" font-family="Monospace" font-size="14" lengthAdjust="spacing" textLength="20.8459" x="393.92" y="326.6508">tee</text></g><!--entity tool_ufw--><g class="entity" data-qualified-name="tool_ufw" data-source-line="36" id="ent0031"><path d="M385.6932,725.3722 C390.6166,715.8789 400.0956,715.1431 405.7691,724.5765 C412.647,716.7884 418.3934,716.8172 423.6014,726.3005 C434.1569,726.9503 436.4077,733.5441 431.5915,742.0114 C436.3693,750.841 432.9664,755.8055 423.9599,758.0942 C418.7468,768.1491 412.9941,768.8513 405.2859,760.6457 C398.5777,768.3235 390.2069,769.1424 385.9821,758.0867 C376.9782,756.7788 374.2561,749.8208 380.499,742.9792 C373.179,735.7481 376.9446,727.863 385.6932,725.3722" fill="#FEF3C7" style="stroke:#181818;stroke-width:0.5;"/><text fill="#000000" font-family="Monospace" font-size="14" lengthAdjust="spacing" textLength="24.4719" x="392.11" y="746.6508">ufw</text></g><!--entity tool_wg--><g class="entity" data-qualified-name="tool_wg" data-source-line="37" id="ent0032"><path d="M388.4582,389.6989 C392.3397,379.5926 399.2044,379.9969 405.9651,386.7002 C413.4465,380.0116 417.803,382.8704 421.4098,390.7953 C430.0252,393.948 430.5133,399.4402 425.2078,406.0573 C431.1554,412.2143 430.7772,420.1115 421.3271,422.6721 C419.0064,432.4845 411.7276,433.4843 404.3712,428.4065 C396.5585,434.4948 391.3097,431.7701 388.9027,422.8391 C378.1425,421.5896 376.7303,416.1435 381.3537,407.3812 C375.644,399.3105 377.1907,390.9484 388.4582,389.6989" fill="#FEF3C7" style="stroke:#181818;stroke-width:0.5;"/><text fill="#000000" font-family="Monospace" font-size="14" lengthAdjust="spacing" textLength="19.6139" x="394.54" y="410.6508">wg</text></g><!--entity tool_zip--><g class="entity" data-qualified-name="tool_zip" data-source-line="38" id="ent0033"><path d="M390.1392,1062.5746 C393.3916,1053.9323 399.5227,1052.9291 406.2365,1058.712 C412.6321,1051.2024 419.5045,1054.0701 422.3716,1062.3237 C431.9175,1065.1109 431.4032,1071.574 425.9265,1077.8098 C433.1419,1084.3311 431.0141,1090.8555 422.9112,1094.631 C422.5169,1107.505 414.069,1109.3508 404.48,1103.8582 C396.9912,1107.9243 389.3062,1105.3346 389.3036,1095.6162 C379.7882,1093.2825 376.7974,1086.554 384.1103,1078.9702 C377.411,1071.4202 381.8591,1064.6165 390.1392,1062.5746" fill="#FEF3C7" style="stroke:#181818;stroke-width:0.5;"/><text fill="#000000" font-family="Monospace" font-size="14" lengthAdjust="spacing" textLength="18.8019" x="394.95" y="1082.6508">zip</text></g><g class="entity" data-qualified-name="toolingGraphSummary" data-source-line="71" id="ent0065"><path d="M296.87,1724.5149 L296.87,1769.9269 L511.8172,1769.9269 L511.8172,1734.5149 L501.8172,1724.5149 L296.87,1724.5149" fill="#FEFFDD" style="stroke:#181818;stroke-width:0.5;"/><path d="M501.8172,1724.5149 L501.8172,1734.5149 L511.8172,1734.5149 L501.8172,1724.5149" fill="#FEFFDD" style="stroke:#181818;stroke-width:1;"/><text fill="#000000" font-family="Monospace" font-size="13" lengthAdjust="spacing" textLength="193.9472" x="302.87" y="1743.4119">Scanned&#160;12&#160;tooling&#160;entrypoints.</text><text fill="#000000" font-family="Monospace" font-size="13" lengthAdjust="spacing" textLength="179.2182" x="302.87" y="1761.1179">Detected&#160;20&#160;third-party&#160;tools.</text></g><!--link source_github_workflows_ci_yml to tool_actions_checkout--><g class="link" data-entity-1="ent0002" data-entity-2="ent0014" data-link-type="dependency" data-source-line="39" id="lnk34"><path d="M121.82,1509.6749 C121.82,1472.4349 121.82,1413.2149 121.82,1413.2149 C121.82,1413.2149 243.36,1413.2149 327.05,1413.2149" fill="none" id="source_github_workflows_ci_yml-to-tool_actions_checkout" style="stroke:#181818;stroke-width:1;"/><polygon fill="#181818" points="333.05,1413.2149,324.05,1409.2149,328.05,1413.2149,324.05,1417.2149,333.05,1413.2149" style="stroke:#181818;stroke-width:1;"/></g><!--link source_github_workflows_ci_yml to tool_actions_setup_python--><g class="link" data-entity-1="ent0002" data-entity-2="ent0015" data-link-type="dependency" data-source-line="40" id="lnk35"><path d="M213.63,1515.9549 C247.45,1515.9549 279.61,1515.9549 312.86,1515.9549" fill="none" id="source_github_workflows_ci_yml-to-tool_actions_setup_python" style="stroke:#181818;stroke-width:1;"/><polygon fill="#181818" points="318.86,1515.9549,309.86,1511.9549,313.86,1515.9549,309.86,1519.9549,318.86,1515.9549" style="stroke:#181818;stroke-width:1;"/></g><!--link source_github_workflows_ci_yml to tool_pip--><g class="link" data-entity-1="ent0002" data-entity-2="ent0023" data-link-type="dependency" data-source-line="41" id="lnk36"><path d="M213.63,1560.5549 C271.29,1560.5549 335.56,1560.5549 372.61,1560.5549" fill="none" id="source_github_workflows_ci_yml-to-tool_pip" style="stroke:#181818;stroke-width:1;"/><polygon fill="#181818" points="378.61,1560.5549,369.61,1556.5549,373.61,1560.5549,369.61,1564.5549,378.61,1560.5549" style="stroke:#181818;stroke-width:1;"/></g><!--link source_github_workflows_ci_yml to tool_pre_commit--><g class="link" data-entity-1="ent0002" data-entity-2="ent0024" data-link-type="dependency" data-source-line="42" id="lnk37"><path d="M213.41,1564.4149 C282.26,1564.4149 364.82,1564.4149 364.82,1564.4149 C364.82,1564.4149 364.82,1604.4549 364.82,1634.3049" fill="none" id="source_github_workflows_ci_yml-to-tool_pre_commit" style="stroke:#181818;stroke-width:1;"/><polygon fill="#181818" points="364.82,1640.3049,368.82,1631.3049,364.82,1635.3049,360.82,1631.3049,364.82,1640.3049" style="stroke:#181818;stroke-width:1;"/></g><!--link source_scripts_configure_firewalld_sh to tool_firewall_cmd--><g class="link" data-entity-1="ent0003" data-entity-2="ent0019" data-link-type="dependency" data-source-line="43" id="lnk38"><path d="M229.11,76.4549 C269.83,76.4549 308.58,76.4549 342.66,76.4549" fill="none" id="source_scripts_configure_firewalld_sh-to-tool_firewall_cmd" style="stroke:#181818;stroke-width:1;"/><polygon fill="#181818" points="348.66,76.4549,339.66,72.4549,343.66,76.4549,339.66,80.4549,348.66,76.4549" style="stroke:#181818;stroke-width:1;"/></g><!--link source_scripts_configure_firewalld_sh to tool_systemctl--><g class="link" data-entity-1="ent0003" data-entity-2="ent0029" data-link-type="dependency" data-source-line="44" id="lnk39"><path d="M221.82,117.7149 C221.82,156.0749 221.82,218.2149 221.82,218.2149 C221.82,218.2149 298.22,218.2149 352.29,218.2149" fill="none" id="source_scripts_configure_firewalld_sh-to-tool_systemctl" style="stroke:#181818;stroke-width:1;"/><polygon fill="#181818" points="358.29,218.2149,349.29,214.2149,353.29,218.2149,349.29,222.2149,358.29,218.2149" style="stroke:#181818;stroke-width:1;"/></g><!--link source_scripts_configure_ufw_sh to tool_cat--><g class="link" data-entity-1="ent0004" data-entity-2="ent0017" data-link-type="dependency" data-source-line="45" id="lnk40"><path d="M212.85,1159.7549 C270.9,1159.7549 335.99,1159.7549 373.08,1159.7549" fill="none" id="source_scripts_configure_ufw_sh-to-tool_cat" style="stroke:#181818;stroke-width:1;"/><polygon fill="#181818" points="379.08,1159.7549,370.08,1155.7549,374.08,1159.7549,370.08,1163.7549,379.08,1159.7549" style="stroke:#181818;stroke-width:1;"/></g><!--link source_scripts_configure_ufw_sh to tool_grep--><g class="link" data-entity-1="ent0004" data-entity-2="ent0021" data-link-type="dependency" data-source-line="46" id="lnk41"><path d="M212.84,1128.8349 C223.58,1128.8349 230.82,1128.8349 230.82,1128.8349 C230.82,1128.8349 230.82,917.3949 230.82,917.3949 C230.82,917.3949 317.91,917.3949 367.72,917.3949" fill="none" id="source_scripts_configure_ufw_sh-to-tool_grep" style="stroke:#181818;stroke-width:1;"/><polygon fill="#181818" points="373.72,917.3949,364.72,913.3949,368.72,917.3949,364.72,921.3949,373.72,917.3949" style="stroke:#181818;stroke-width:1;"/></g><!--link source_scripts_configure_ufw_sh to tool_sed--><g class="link" data-entity-1="ent0004" data-entity-2="ent0026" data-link-type="dependency" data-source-line="47" id="lnk42"><path d="M121.82,1171.5949 C121.82,1200.9949 121.82,1241.9149 121.82,1241.9149 C121.82,1241.9149 300.54,1241.9149 371.26,1241.9149" fill="none" id="source_scripts_configure_ufw_sh-to-tool_sed" style="stroke:#181818;stroke-width:1;"/><polygon fill="#181818" points="377.26,1241.9149,368.26,1237.9149,372.26,1241.9149,368.26,1245.9149,377.26,1241.9149" style="stroke:#181818;stroke-width:1;"/></g><!--link source_scripts_configure_ufw_sh to tool_ufw--><g class="link" data-entity-1="ent0004" data-entity-2="ent0031" data-link-type="dependency" data-source-line="48" id="lnk43"><path d="M212.96,1120.9949 C223.08,1120.9949 229.82,1120.9949 229.82,1120.9949 C229.82,1120.9949 229.82,749.3949 229.82,749.3949 C229.82,749.3949 321.48,749.3949 370.69,749.3949" fill="none" id="source_scripts_configure_ufw_sh-to-tool_ufw" style="stroke:#181818;stroke-width:1;"/><polygon fill="#181818" points="376.69,749.3949,367.69,745.3949,371.69,749.3949,367.69,753.3949,376.69,749.3949" style="stroke:#181818;stroke-width:1;"/></g><!--link source_scripts_enable_ip_forwarding_sh to tool_cat--><g class="link" data-entity-1="ent0005" data-entity-2="ent0017" data-link-type="dependency" data-source-line="49" id="lnk44"><path d="M235.82,1262.9349 C235.82,1229.2449 235.82,1178.5149 235.82,1178.5149 C235.82,1178.5149 326.1,1178.5149 373.12,1178.5149" fill="none" id="source_scripts_enable_ip_forwarding_sh-to-tool_cat" style="stroke:#181818;stroke-width:1;"/><polygon fill="#181818" points="379.12,1178.5149,370.12,1174.5149,374.12,1178.5149,370.12,1182.5149,379.12,1178.5149" style="stroke:#181818;stroke-width:1;"/></g><!--link source_scripts_enable_ip_forwarding_sh to tool_sysctl--><g class="link" data-entity-1="ent0005" data-entity-2="ent0028" data-link-type="dependency" data-source-line="50" id="lnk45"><path d="M237.21,1312.9849 C285.56,1312.9849 332.11,1312.9849 365.12,1312.9849" fill="none" id="source_scripts_enable_ip_forwarding_sh-to-tool_sysctl" style="stroke:#181818;stroke-width:1;"/><polygon fill="#181818" points="371.12,1312.9849,362.12,1308.9849,366.12,1312.9849,362.12,1316.9849,371.12,1312.9849" style="stroke:#181818;stroke-width:1;"/></g><!--link source_scripts_generate_keys_sh to tool_mkdir--><g class="link" data-entity-1="ent0006" data-entity-2="ent0022" data-link-type="dependency" data-source-line="51" id="lnk46"><path d="M213.55,413.3949 C249.28,413.3949 281.82,413.3949 281.82,413.3949 C281.82,413.3949 281.82,639.6949 281.82,639.6949 C281.82,639.6949 327.34,639.6949 363.56,639.6949" fill="none" id="source_scripts_generate_keys_sh-to-tool_mkdir" style="stroke:#181818;stroke-width:1;"/><polygon fill="#181818" points="369.56,639.6949,360.56,635.6949,364.56,639.6949,360.56,643.6949,369.56,639.6949" style="stroke:#181818;stroke-width:1;"/></g><!--link source_scripts_generate_keys_sh to tool_tee--><g class="link" data-entity-1="ent0006" data-entity-2="ent0030" data-link-type="dependency" data-source-line="52" id="lnk47"><path d="M213.39,376.4149 C296.04,376.4149 404.82,376.4149 404.82,376.4149 C404.82,376.4149 404.82,366.8349 404.82,352.2349" fill="none" id="source_scripts_generate_keys_sh-to-tool_tee" style="stroke:#181818;stroke-width:1;"/><polygon fill="#181818" points="404.82,346.2349,400.82,355.2349,404.82,351.2349,408.82,355.2349,404.82,346.2349" style="stroke:#181818;stroke-width:1;"/></g><!--link source_scripts_generate_keys_sh to tool_wg--><g class="link" data-entity-1="ent0006" data-entity-2="ent0032" data-link-type="dependency" data-source-line="53" id="lnk48"><path d="M213.63,397.0349 C271.61,397.0349 336.34,397.0349 373.23,397.0349" fill="none" id="source_scripts_generate_keys_sh-to-tool_wg" style="stroke:#181818;stroke-width:1;"/><polygon fill="#181818" points="379.23,397.0349,370.23,393.0349,374.23,397.0349,370.23,401.0349,379.23,397.0349" style="stroke:#181818;stroke-width:1;"/></g><!--link source_scripts_harden_ssh_sh to tool_cp--><g class="link" data-entity-1="ent0007" data-entity-2="ent0018" data-link-type="dependency" data-source-line="54" id="lnk49"><path d="M121.82,686.6349 C121.82,730.4849 121.82,807.9149 121.82,807.9149 C121.82,807.9149 307.75,807.9149 375.23,807.9149" fill="none" id="source_scripts_harden_ssh_sh-to-tool_cp" style="stroke:#181818;stroke-width:1;"/><polygon fill="#181818" points="381.23,807.9149,372.23,803.9149,376.23,807.9149,372.23,811.9149,381.23,807.9149" style="stroke:#181818;stroke-width:1;"/></g><!--link source_scripts_harden_ssh_sh to tool_grep--><g class="link" data-entity-1="ent0007" data-entity-2="ent0021" data-link-type="dependency" data-source-line="55" id="lnk50"><path d="M203.97,667.7349 C221.48,667.7349 234.82,667.7349 234.82,667.7349 C234.82,667.7349 234.82,901.0349 234.82,901.0349 C234.82,901.0349 318.79,901.0349 367.65,901.0349" fill="none" id="source_scripts_harden_ssh_sh-to-tool_grep" style="stroke:#181818;stroke-width:1;"/><polygon fill="#181818" points="373.65,901.0349,364.65,897.0349,368.65,901.0349,364.65,905.0349,373.65,901.0349" style="stroke:#181818;stroke-width:1;"/></g><!--link source_scripts_harden_ssh_sh to tool_mkdir--><g class="link" data-entity-1="ent0007" data-entity-2="ent0022" data-link-type="dependency" data-source-line="56" id="lnk51"><path d="M204,653.7149 C259.05,653.7149 322.73,653.7149 363.73,653.7149" fill="none" id="source_scripts_harden_ssh_sh-to-tool_mkdir" style="stroke:#181818;stroke-width:1;"/><polygon fill="#181818" points="369.73,653.7149,360.73,649.7149,364.73,653.7149,360.73,657.7149,369.73,653.7149" style="stroke:#181818;stroke-width:1;"/></g><!--link source_scripts_harden_ssh_sh to tool_sshd--><g class="link" data-entity-1="ent0007" data-entity-2="ent0027" data-link-type="dependency" data-source-line="57" id="lnk52"><path d="M121.82,627.8349 C121.82,603.6149 121.82,573.2149 121.82,573.2149 C121.82,573.2149 294.35,573.2149 367.57,573.2149" fill="none" id="source_scripts_harden_ssh_sh-to-tool_sshd" style="stroke:#181818;stroke-width:1;"/><polygon fill="#181818" points="373.57,573.2149,364.57,569.2149,368.57,573.2149,364.57,577.2149,373.57,573.2149" style="stroke:#181818;stroke-width:1;"/></g><!--link source_scripts_harden_ssh_sh to tool_systemctl--><g class="link" data-entity-1="ent0007" data-entity-2="ent0029" data-link-type="dependency" data-source-line="58" id="lnk53"><path d="M203.83,646.7049 C229.76,646.7049 251.82,646.7049 251.82,646.7049 C251.82,646.7049 251.82,245.5149 251.82,245.5149 C251.82,245.5149 307.28,245.5149 352.17,245.5149" fill="none" id="source_scripts_harden_ssh_sh-to-tool_systemctl" style="stroke:#181818;stroke-width:1;"/><polygon fill="#181818" points="358.17,245.5149,349.17,241.5149,353.17,245.5149,349.17,249.5149,358.17,245.5149" style="stroke:#181818;stroke-width:1;"/></g><!--link source_scripts_install_fedora_sh to tool_firewalld--><g class="link" data-entity-1="ent0009" data-entity-2="ent0020" data-link-type="dependency" data-source-line="59" id="lnk54"><path d="M210.28,195.2149 C293.28,195.2149 404.82,195.2149 404.82,195.2149 C404.82,195.2149 404.82,193.1749 404.82,184.1349" fill="none" id="source_scripts_install_fedora_sh-to-tool_firewalld" style="stroke:#181818;stroke-width:1;"/><polygon fill="#181818" points="404.82,178.1349,400.82,187.1349,404.82,183.1349,408.82,187.1349,404.82,178.1349" style="stroke:#181818;stroke-width:1;"/></g><!--link source_scripts_install_fedora_sh to tool_systemctl--><g class="link" data-entity-1="ent0009" data-entity-2="ent0029" data-link-type="dependency" data-source-line="60" id="lnk55"><path d="M210.52,223.7549 C259.37,223.7549 312.03,223.7549 351.93,223.7549" fill="none" id="source_scripts_install_fedora_sh-to-tool_systemctl" style="stroke:#181818;stroke-width:1;"/><polygon fill="#181818" points="357.93,223.7549,348.93,219.7549,352.93,223.7549,348.93,227.7549,357.93,223.7549" style="stroke:#181818;stroke-width:1;"/></g><!--link source_scripts_install_ubuntu_sh to tool_apt_get--><g class="link" data-entity-1="ent0010" data-entity-2="ent0016" data-link-type="dependency" data-source-line="61" id="lnk56"><path d="M212.85,497.5549 C264.28,497.5549 319.96,497.5549 359.16,497.5549" fill="none" id="source_scripts_install_ubuntu_sh-to-tool_apt_get" style="stroke:#181818;stroke-width:1;"/><polygon fill="#181818" points="365.16,497.5549,356.16,493.5549,360.16,497.5549,356.16,501.5549,365.16,497.5549" style="stroke:#181818;stroke-width:1;"/></g><!--link source_scripts_install_ubuntu_sh to tool_systemctl--><g class="link" data-entity-1="ent0010" data-entity-2="ent0029" data-link-type="dependency" data-source-line="62" id="lnk57"><path d="M212.93,481.3449 C280.44,481.3449 360.82,481.3449 360.82,481.3449 C360.82,481.3449 360.82,330.0349 360.82,267.9649" fill="none" id="source_scripts_install_ubuntu_sh-to-tool_systemctl" style="stroke:#181818;stroke-width:1;"/><polygon fill="#181818" points="360.82,261.9649,356.82,270.9649,360.82,266.9649,364.82,270.9649,360.82,261.9649" style="stroke:#181818;stroke-width:1;"/></g><!--link source_scripts_install_ubuntu_sh to tool_ufw--><g class="link" data-entity-1="ent0010" data-entity-2="ent0031" data-link-type="dependency" data-source-line="63" id="lnk58"><path d="M206.82,523.5049 C206.82,587.2749 206.82,733.0349 206.82,733.0349 C206.82,733.0349 316.61,733.0349 370.88,733.0349" fill="none" id="source_scripts_install_ubuntu_sh-to-tool_ufw" style="stroke:#181818;stroke-width:1;"/><polygon fill="#181818" points="376.88,733.0349,367.88,729.0349,371.88,733.0349,367.88,737.0349,376.88,733.0349" style="stroke:#181818;stroke-width:1;"/></g><!--link source_scripts_package_client_sh to tool_cp--><g class="link" data-entity-1="ent0011" data-entity-2="ent0018" data-link-type="dependency" data-source-line="64" id="lnk59"><path d="M214.41,832.4549 C273.28,832.4549 339.05,832.4549 375.18,832.4549" fill="none" id="source_scripts_package_client_sh-to-tool_cp" style="stroke:#181818;stroke-width:1;"/><polygon fill="#181818" points="381.18,832.4549,372.18,828.4549,376.18,832.4549,372.18,836.4549,381.18,832.4549" style="stroke:#181818;stroke-width:1;"/></g><!--link source_scripts_package_client_sh to tool_mkdir--><g class="link" data-entity-1="ent0011" data-entity-2="ent0022" data-link-type="dependency" data-source-line="65" id="lnk60"><path d="M209.82,814.7349 C209.82,762.8649 209.82,660.7249 209.82,660.7249 C209.82,660.7249 307.62,660.7249 363.57,660.7249" fill="none" id="source_scripts_package_client_sh-to-tool_mkdir" style="stroke:#181818;stroke-width:1;"/><polygon fill="#181818" points="369.57,660.7249,360.57,656.7249,364.57,660.7249,360.57,664.7249,369.57,660.7249" style="stroke:#181818;stroke-width:1;"/></g><!--link source_scripts_package_client_sh to tool_qrencode--><g class="link" data-entity-1="ent0011" data-entity-2="ent0025" data-link-type="dependency" data-source-line="66" id="lnk61"><path d="M214.38,857.5949 C282.31,857.5949 362.82,857.5949 362.82,857.5949 C362.82,857.5949 362.82,923.1849 362.82,962.3449" fill="none" id="source_scripts_package_client_sh-to-tool_qrencode" style="stroke:#181818;stroke-width:1;"/><polygon fill="#181818" points="362.82,968.3449,366.82,959.3449,362.82,963.3449,358.82,959.3449,362.82,968.3449" style="stroke:#181818;stroke-width:1;"/></g><!--link source_scripts_package_client_sh to tool_zip--><g class="link" data-entity-1="ent0011" data-entity-2="ent0033" data-link-type="dependency" data-source-line="67" id="lnk62"><path d="M214.33,865.4449 C225.93,865.4449 233.82,865.4449 233.82,865.4449 C233.82,865.4449 233.82,1077.2149 233.82,1077.2149 C233.82,1077.2149 326.26,1077.2149 373.55,1077.2149" fill="none" id="source_scripts_package_client_sh-to-tool_zip" style="stroke:#181818;stroke-width:1;"/><polygon fill="#181818" points="379.55,1077.2149,370.55,1073.2149,374.55,1077.2149,370.55,1081.2149,379.55,1077.2149" style="stroke:#181818;stroke-width:1;"/></g><!--link source_scripts_render_configs_sh to tool_cat--><g class="link" data-entity-1="ent0012" data-entity-2="ent0017" data-link-type="dependency" data-source-line="68" id="lnk63"><path d="M215.13,1029.5149 C225.17,1029.5149 231.82,1029.5149 231.82,1029.5149 C231.82,1029.5149 231.82,1148.2149 231.82,1148.2149 C231.82,1148.2149 325.41,1148.2149 373.26,1148.2149" fill="none" id="source_scripts_render_configs_sh-to-tool_cat" style="stroke:#181818;stroke-width:1;"/><polygon fill="#181818" points="379.26,1148.2149,370.26,1144.2149,374.26,1148.2149,370.26,1152.2149,379.26,1148.2149" style="stroke:#181818;stroke-width:1;"/></g><!--link source_scripts_render_configs_sh to tool_mkdir--><g class="link" data-entity-1="ent0012" data-entity-2="ent0022" data-link-type="dependency" data-source-line="69" id="lnk64"><path d="M215.33,1000.4549 C243.37,1000.4549 266.82,1000.4549 266.82,1000.4549 C266.82,1000.4549 266.82,674.7449 266.82,674.7449 C266.82,674.7449 322.9,674.7449 363.64,674.7449" fill="none" id="source_scripts_render_configs_sh-to-tool_mkdir" style="stroke:#181818;stroke-width:1;"/><polygon fill="#181818" points="369.64,674.7449,360.64,670.7449,364.64,674.7449,360.64,678.7449,369.64,674.7449" style="stroke:#181818;stroke-width:1;"/></g><?plantuml-src dLV1Sfim4Btp5PhaZ9CwwVJMInjtUcWlwJ4p6XaMq5X8gYHAoTTtmSR8W47kSRNlxLkaNMbnt0aWchjuh_wINqe9BdFoNJh83NDSIHi9o1nnYXYU5uwat43IEY9xu58pmqfY2vQgkYLcJ5ZmF2bah19kfwJxoKeWFvHKLhF4noIgr4g2TA-kmLpQy4pcmeTWKk0Q3KGPLwZe325tcvoxeje_rCeSCg5g-v3mJLEAD_cCuWw1a6BoIjWxmYongZ89q2E9daaquHH9vFxbSRVTlVW2DZ5SEmohPCRpoW3DS0Tg9aIwiSMRt2x8dBXqXajj4QPMPNMdytoJ3h9M542olG3ADSsKgPb9yVY2FsYElAANWmIiAA07Q6mdz1GWTC5QKIWm3v3Ksg8B_p4W_41PYSsbTNXiNU37WC0dV5XKca6g30lU_KjQe4QrhwIhWZV-ahQYWGrzO3dGH71iu-1olQIjQ1YGAPXJYTlWlRgahMZyOOAdM6t1nzmJ_BY9K5LAxbXtIM8d5v0SLEKwUXk8dZoqzv3xtSlkwSkdCTE2gtIi6xpnv9JTUUdHEucWNPo3BwaTjj94AM4U1es9NtjkFVRsTrcSbEc0wrSfhbvZpC0dsDo0fzvQOqHvmBTeW7Jc6AEv5mIDYTz0ZEzFoRsDm3LwN1kZVsCr9Ig50TklZ94Ml6z4O-AtXGz0Qu9eREA4X-di6PI3SWmyBesn3hp4qHZxySqO_6YC_NK-kEjyx7ttT_hTs-cL9pUEFy-tnSr4loE2oLWJuTXpOKHX3_oPwJV5hTppUKPhh_sPWgqS3cvRAnoDjHmEHZiAd1oMSb_b77iZMfiTplZkgWY7Ow-4W-iyMXmoXW_LWS2v0xe2dVsmAzZsqWc5NYl1wIGoAVdq1iwgpZ2D3Dr_VDfkOFoFoambJwUNXQDT0C-UsGA-Vt9keBppIKBJkMYf0nVGn_IbSj3V_jYTtmpJnMjLbimqqMl2fCGdyCEsTnDCq3HQSUdi9lhQZrdRH-8ARj8OV_fSSvowDX5AapRyFm00?></g></svg>
