<?plantuml 1.2026.2?><svg xmlns="http://www.w3.org/2000/svg" xmlns:xlink="http://www.w3.org/1999/xlink" contentStyleType="text/css" data-diagram-type="DESCRIPTION" height="2129px" preserveAspectRatio="none" style="width:531px;height:2129px;background:#FFFFFF;" version="1.1" viewBox="0 0 531 2129" width="531px" zoomAndPan="magnify"><title>pit-box Tooling Integrations</title><defs/><g><g class="title" data-source-line="1"><text fill="#000000" font-family="Monospace" font-size="14" font-weight="bold" lengthAdjust="spacing" textLength="195.2223" x="161.0074" y="24.9659">pit-box&#160;Tooling&#160;Integrations</text></g><!--entity source_github_workflows_ci_yml--><g class="entity" data-qualified-name="source_github_workflows_ci_yml" data-source-line="7" id="ent0002"><rect fill="#E0F2FE" height="58.1358" rx="2.5" ry="2.5" style="stroke:#181818;stroke-width:0.5;" width="182.6234" x="36.83" y="1764.6362"/><text fill="#000000" font-family="Monospace" font-size="14" lengthAdjust="spacing" textLength="162.6234" x="46.83" y="1789.6021">.github/workflows/ci.yml</text><text fill="#000000" font-family="Monospace" font-size="14" lengthAdjust="spacing" textLength="105.3356" x="46.83" y="1808.6701">4&#160;detected&#160;tools</text></g><!--entity source_scripts_configure_firewalld_sh--><g class="entity" data-qualified-name="source_scripts_configure_firewalld_sh" data-source-line="8" id="ent0003"><rect fill="#E0F2FE" height="58.1358" rx="2.5" ry="2.5" style="stroke:#181818;stroke-width:0.5;" width="213.7312" x="21.28" y="313.6362"/><text fill="#000000" font-family="Monospace" font-size="14" lengthAdjust="spacing" textLength="193.7312" x="31.28" y="338.6021">scripts/configure_firewalld.sh</text><text fill="#000000" font-family="Monospace" font-size="14" lengthAdjust="spacing" textLength="105.3356" x="31.28" y="357.6701">2&#160;detected&#160;tools</text></g><!--entity source_scripts_configure_ufw_sh--><g class="entity" data-qualified-name="source_scripts_configure_ufw_sh" data-source-line="9" id="ent0004"><rect fill="#E0F2FE" height="58.1358" rx="2.5" ry="2.5" style="stroke:#181818;stroke-width:0.5;" width="181.4054" x="37.44" y="1367.6362"/><text fill="#000000" font-family="Monospace" font-size="14" lengthAdjust="spacing" textLength="161.4054" x="47.44" y="1392.6021">scripts/configure_ufw.sh</text><text fill="#000000" font-family="Monospace" font-size="14" lengthAdjust="spacing" textLength="105.3356" x="47.44" y="1411.6701">4&#160;detected&#160;tools</text></g><!--entity source_scripts_enable_ip_forwarding_sh--><g class="entity" data-qualified-name="source_scripts_enable_ip_forwarding_sh" data-source-line="10" id="ent0005"><rect fill="#E0F2FE" height="58.1358" rx="2.5" ry="2.5" style="stroke:#181818;stroke-width:0.5;" width="229.8732" x="13.21" y="1517.6362"/><text fill="#000000" font-family="Monospace" font-size="14" lengthAdjust="spacing" textLength="209.8732" x="23.21" y="1542.6021">scripts/enable_ip_forwarding.sh</text><text fill="#000000" font-family="Monospace" font-size="14" lengthAdjust="spacing" textLength="105.3356" x="23.21" y="1561.6701">2&#160;detected&#160;tools</text></g><!--entity source_scripts_generate_keys_sh--><g class="entity" data-qualified-name="source_scripts_generate_keys_sh" data-source-line="11" id="ent0006"><rect fill="#E0F2FE" height="58.1358" rx="2.5" ry="2.5" style="stroke:#181818;stroke-width:0.5;" width="182.5814" x="36.85" y="626.6362"/><text fill="#000000" font-family="Monospace" font-size="14" lengthAdjust="spacing" textLength="162.5814" x="46.85" y="651.6021">scripts/generate_keys.sh</text><text fill="#000000" font-family="Monospace" font-size="14" lengthAdjust="spacing" textLength="105.3356" x="46.85" y="670.6701">3&#160;detected&#160;tools</text></g><!--entity source_scripts_harden_ssh_sh--><g class="entity" data-qualified-name="source_scripts_harden_ssh_sh" data-source-line="12" id="ent0007"><rect fill="#E0F2FE" height="58.1358" rx="2.5" ry="2.5" style="stroke:#181818;stroke-width:0.5;" width="163.2335" x="46.53" y="882.6362"/><text fill="#000000" font-family="Monospace" font-size="14" lengthAdjust="spacing" textLength="143.2335" x="56.53" y="907.6021">scripts/harden_ssh.sh</text><text fill="#000000" font-family="Monospace" font-size="14" lengthAdjust="spacing" textLength="105.3356" x="56.53" y="926.6701">5&#160;detected&#160;tools</text></g><!--entity source_scripts_install_sh--><g class="entity" data-qualified-name="source_scripts_install_sh" data-source-line="13" id="ent0008"><rect fill="#E0F2FE" height="58.1358" rx="2.5" ry="2.5" style="stroke:#181818;stroke-width:0.5;" width="126.6096" x="64.84" y="1972.6362"/><text fill="#000000" font-family="Monospace" font-size="14" lengthAdjust="spacing" textLength="106.6096" x="74.84" y="1997.6021">scripts/install.sh</text><text fill="#000000" font-family="Monospace" font-size="14" lengthAdjust="spacing" textLength="105.3356" x="74.84" y="2016.6701">0&#160;detected&#160;tools</text></g><!--entity source_scripts_install_fedora_sh--><g class="entity" data-qualified-name="source_scripts_install_fedora_sh" data-source-line="14" id="ent0009"><rect fill="#E0F2FE" height="58.1358" rx="2.5" ry="2.5" style="stroke:#181818;stroke-width:0.5;" width="176.2534" x="40.02" y="443.6362"/><text fill="#000000" font-family="Monospace" font-size="14" lengthAdjust="spacing" textLength="156.2534" x="50.02" y="468.6021">scripts/install_fedora.sh</text><text fill="#000000" font-family="Monospace" font-size="14" lengthAdjust="spacing" textLength="105.3356" x="50.02" y="487.6701">2&#160;detected&#160;tools</text></g><!--entity source_scripts_install_ubuntu_sh--><g class="entity" data-qualified-name="source_scripts_install_ubuntu_sh" data-source-line="15" id="ent0010"><rect fill="#E0F2FE" height="58.1358" rx="2.5" ry="2.5" style="stroke:#181818;stroke-width:0.5;" width="181.0974" x="37.6" y="719.6362"/><text fill="#000000" font-family="Monospace" font-size="14" lengthAdjust="spacing" textLength="161.0974" x="47.6" y="744.6021">scripts/install_ubuntu.sh</text><text fill="#000000" font-family="Monospace" font-size="14" lengthAdjust="spacing" textLength="105.3356" x="47.6" y="763.6701">3&#160;detected&#160;tools</text></g><!--entity source_scripts_package_client_sh--><g class="entity" data-qualified-name="source_scripts_package_client_sh" data-source-line="16" id="ent0011"><rect fill="#E0F2FE" height="58.1358" rx="2.5" ry="2.5" style="stroke:#181818;stroke-width:0.5;" width="184.2894" x="36" y="1069.6362"/><text fill="#000000" font-family="Monospace" font-size="14" lengthAdjust="spacing" textLength="164.2894" x="46" y="1094.6021">scripts/package_client.sh</text><text fill="#000000" font-family="Monospace" font-size="14" lengthAdjust="spacing" textLength="105.3356" x="46" y="1113.6701">4&#160;detected&#160;tools</text></g><!--entity source_scripts_render_configs_sh--><g class="entity" data-qualified-name="source_scripts_render_configs_sh" data-source-line="17" id="ent0012"><rect fill="#E0F2FE" height="58.1358" rx="2.5" ry="2.5" style="stroke:#181818;stroke-width:0.5;" width="185.9274" x="35.18" y="1237.6362"/><text fill="#000000" font-family="Monospace" font-size="14" lengthAdjust="spacing" textLength="165.9274" x="45.18" y="1262.6021">scripts/render_configs.sh</text><text fill="#000000" font-family="Monospace" font-size="14" lengthAdjust="spacing" textLength="105.3356" x="45.18" y="1281.6701">2&#160;detected&#160;tools</text></g><!--entity source_scripts_run_tachometer_profile_sh--><g class="entity" data-qualified-name="source_scripts_run_tachometer_profile_sh" data-source-line="18" id="ent0013"><rect fill="#E0F2FE" height="58.1358" rx="2.5" ry="2.5" style="stroke:#181818;stroke-width:0.5;" width="242.2912" x="7" y="126.6362"/><text fill="#000000" font-family="Monospace" font-size="14" lengthAdjust="spacing" textLength="222.2912" x="17" y="151.6021">scripts/run_tachometer_profile.sh</text><text fill="#000000" font-family="Monospace" font-size="14" lengthAdjust="spacing" textLength="105.3356" x="17" y="170.6701">3&#160;detected&#160;tools</text></g><!--entity source_scripts_validate_sh--><g class="entity" data-qualified-name="source_scripts_validate_sh" data-source-line="19" id="ent0014"><rect fill="#E0F2FE" height="58.1358" rx="2.5" ry="2.5" style="stroke:#181818;stroke-width:0.5;" width="139.1116" x="58.59" y="2065.6362"/><text fill="#000000" font-family="Monospace" font-size="14" lengthAdjust="spacing" textLength="119.1116" x="68.59" y="2090.6021">scripts/validate.sh</text><text fill="#000000" font-family="Monospace" font-size="14" lengthAdjust="spacing" textLength="105.3356" x="68.59" y="2109.6701">0&#160;detected&#160;tools</text></g><!--entity tool_actions_checkout--><g class="entity" data-qualified-name="tool_actions_checkout" data-source-line="20" id="ent0015"><path d="M355.2421,1651.5419 C359.0939,1645.3829 363.8365,1645.5234 367.566,1651.6645 C370.8717,1644.9015 375.8734,1646.1505 379.912,1650.8769 C384.5323,1643.7295 388.7929,1643.8544 393.4339,1650.8572 C397.7087,1644.5739 401.5413,1645.5619 405.6373,1651.0428 C408.9688,1646.3568 414.1824,1646.5105 416.9626,1651.6765 C419.6608,1646.0188 425.9273,1645.5269 429.5045,1650.6544 C433.5841,1644.6171 438.8819,1644.6767 443.255,1650.3085 C448.4296,1644.873 453.1912,1645.3731 456.0416,1652.6468 C459.0126,1646.5228 464.4929,1646.6069 467.5315,1652.5826 C471.5003,1646.7491 475.8844,1647.5061 479.8944,1652.5356 C489.5757,1654.9453 490.8859,1661.105 485.8882,1668.8933 C491.3331,1677.3505 489.868,1682.4537 479.9247,1685.3268 C477.6771,1690.9981 472.3173,1691.4695 469.1414,1686.2456 C465.5544,1692.7558 459.3923,1693.3451 454.8011,1687.4019 C452.0676,1693.3044 448.0971,1694.9197 442.8671,1690.2091 C439.5862,1696.713 435.0901,1696.5371 431.0101,1690.9956 C428.4817,1698.4348 421.9643,1698.9017 417.956,1692.3794 C413.0527,1698.7772 407.5936,1696.7015 405.1065,1690.0078 C401.1706,1696.7858 395.2489,1696.6304 391.6781,1689.6514 C387.1434,1695.1697 382.4551,1693.6911 379.7815,1687.7238 C375.9043,1692.8413 370.5453,1692.4634 368.0014,1686.3281 C363.5405,1691.7912 357.3186,1692.527 354.0571,1685.0369 C346.9591,1680.9854 345.5577,1673.0025 354.1387,1669.031 C345.8964,1663.0028 346.8435,1656.5202 355.2421,1651.5419" fill="#FEF3C7" style="stroke:#181818;stroke-width:0.5;"/><text fill="#000000" font-family="Monospace" font-size="14" lengthAdjust="spacing" textLength="111.9156" x="360.81" y="1673.1421">actions/checkout</text></g><!--entity tool_actions_setup_python--><g class="entity" data-qualified-name="tool_actions_setup_python" data-source-line="21" id="ent0016"><path d="M340.8791,1736.7269 C343.0916,1730.6721 347.3052,1730.6103 351.1239,1735.1778 C355.9876,1729.8481 360.3269,1730.4969 363.7197,1736.774 C365.6157,1732.1846 370.4136,1730.3304 373.8696,1735.078 C377.2291,1728.7855 380.8366,1728.8921 384.9051,1734.4159 C388.4853,1728.9294 392.223,1729.8276 395.6727,1734.5535 C399.5114,1730.2119 403.1498,1730.5403 405.926,1735.7001 C409.1014,1729.8956 414.1579,1728.2428 418.8998,1733.9318 C421.9456,1728.961 424.884,1729.0196 428.005,1733.8621 C432.3381,1728.1194 436.6661,1728.7602 440.3953,1734.5131 C444.438,1729.5757 448.3071,1730.2395 451.3686,1735.5626 C454.1371,1730.1896 458.9005,1730.8659 462.0099,1735.1883 C465.0603,1729.5443 469.8618,1730.2594 472.5925,1735.4992 C476.8174,1729.857 480.6172,1730.5405 484.6537,1735.7093 C488.4454,1730.4389 492.8972,1730.7523 496.0976,1736.3328 C505.2426,1739.0341 507.0741,1747.0572 500.554,1753.7635 C507.5889,1761.8592 505.1416,1768.397 494.5514,1769.9611 C491.0694,1775.5518 487.291,1775.4794 484.1067,1769.6878 C482.0618,1775.5636 477.1228,1775.1871 473.6559,1771.1935 C470.909,1777.0562 466.2812,1777.2075 462.3838,1772.4102 C459.2627,1778.526 453.5131,1778.2616 450.4438,1772.3587 C448.0205,1777.9244 444.7916,1777.3033 440.8933,1773.9357 C437.7392,1779.0687 433.1785,1779.7047 429.6669,1774.3172 C427.2921,1779.6989 421.6319,1780.1729 418.2829,1775.4104 C414.7016,1781.434 410.1583,1781.1073 406.471,1775.5181 C402.8963,1780.097 397.7035,1780.7858 395.0066,1774.5847 C391.3568,1779.0682 387.0518,1777.557 385.3053,1772.6239 C380.8532,1776.6545 377.1224,1776.3188 373.9681,1771.0429 C369.8318,1777.1518 365.9178,1775.8479 362.0384,1770.7689 C359.811,1775.1948 355.1823,1775.0613 352.5288,1771.2614 C348.7547,1776.9369 343.1749,1776.3232 340.6762,1770.0014 C330.9393,1768.7156 327.3689,1761.5478 331.9411,1752.9372 C326.9785,1744.0211 329.5067,1736.6362 340.8791,1736.7269" fill="#FEF3C7" style="stroke:#181818;stroke-width:0.5;"/><text fill="#000000" font-family="Monospace" font-size="14" lengthAdjust="spacing" textLength="140.2795" x="346.63" y="1757.1421">actions/setup-python</text></g><!--entity tool_apt_get--><g class="entity" data-qualified-name="tool_apt_get" data-source-line="22" id="ent0017"><path d="M387.7303,728.6441 C391.2483,722.3193 398.2057,722.1235 402.3859,727.8379 C406.0791,720.5177 412.0603,719.7435 417.5376,725.8202 C422.969,718.9154 430.897,719.1596 433.7412,728.4144 C437.3593,721.8712 444.5587,720.3832 449.0822,727.3892 C459.8569,728.4878 463.8752,734.0457 457.871,744.0144 C462.7988,753.6534 458.6956,761.2425 447.5682,761.3271 C445.3807,769.0519 439.1499,770.4483 433.6092,764.8369 C431.353,773.096 426.0374,774.9453 418.7866,770.8101 C411.1116,776.6694 404.7558,775.8652 401.6436,765.875 C394.6679,772.4693 388.0048,769.0372 386.2516,760.5462 C379.3224,755.6181 377.725,751.01 385.6213,745.4624 C378.9273,739.3942 379.9043,732.8914 387.7303,728.6441" fill="#FEF3C7" style="stroke:#181818;stroke-width:0.5;"/><text fill="#000000" font-family="Monospace" font-size="14" lengthAdjust="spacing" textLength="47.5858" x="392.97" y="749.1421">apt-get</text></g><!--entity tool_cat--><g class="entity" data-qualified-name="tool_cat" data-source-line="23" id="ent0018"><path d="M400.8682,1400.1903 C404.7519,1390.0803 411.6192,1390.4852 418.3821,1397.1916 C425.8659,1390.4992 430.2246,1393.3588 433.8338,1401.2866 C442.4492,1404.4394 442.9373,1409.9316 437.6319,1416.5486 C443.5794,1422.7057 443.2012,1430.6028 433.7511,1433.1635 C431.4283,1442.9792 424.1467,1443.9785 416.7882,1438.8979 C408.9732,1444.9897 403.7219,1442.2646 401.3127,1433.3305 C390.5525,1432.0809 389.1403,1426.6348 393.7637,1417.8726 C388.054,1409.8018 389.6007,1401.4398 400.8682,1400.1903" fill="#FEF3C7" style="stroke:#181818;stroke-width:0.5;"/><text fill="#000000" font-family="Monospace" font-size="14" lengthAdjust="spacing" textLength="19.6279" x="406.95" y="1421.1421">cat</text></g><!--entity tool_cp--><g class="entity" data-qualified-name="tool_cp" data-source-line="24" id="ent0019"><path d="M402.4622,1064.1206 C405.8414,1055.5211 412.7268,1055.1814 418.1715,1062.0186 C423.1542,1055.504 429.868,1057.1205 432.1224,1064.7161 C440.3303,1068.5382 440.9838,1074.7457 433.8757,1080.2919 C440.6178,1086.5282 441.0258,1093.069 431.8702,1097.4467 C430.9666,1105.9949 426.1432,1109.1491 417.9571,1106.4774 C407.805,1111.9503 402.9623,1107.5222 402.4754,1097.077 C392.6119,1093.4226 393.0194,1086.2537 399.8954,1080.0611 C394.3039,1074.0906 393.1632,1067.6935 402.4622,1064.1206" fill="#FEF3C7" style="stroke:#181818;stroke-width:0.5;"/><text fill="#000000" font-family="Monospace" font-size="14" lengthAdjust="spacing" textLength="15.3299" x="409.1" y="1085.1421">cp</text></g><!--entity tool_firewall_cmd--><g class="entity" data-qualified-name="tool_firewall_cmd" data-source-line="25" id="ent0020"><path d="M371.1602,308.8837 C374.7002,303.0585 379.2269,302.7578 383.1494,308.4867 C385.745,302.3359 390.5089,302.3931 394.1749,307.432 C397.466,302.1859 403.031,302.6837 405.6918,308.112 C408.0946,300.7867 414.3452,300.5593 418.5406,306.3568 C422.4852,300.6733 427.8766,301.7624 430.0993,308.0231 C434.445,301.8254 438.0887,303.4903 441.9452,308.5384 C444.3853,302.2531 449.0516,303.0281 452.8479,307.1127 C456.7121,301.8843 462.3248,303.5526 464.4685,308.9876 C474.4865,310.9625 478.1961,315.3964 472.515,325.175 C479.4383,334.3943 475.5531,339.3483 465.9944,342.2871 C461.9256,347.9914 456.2994,347.7767 452.9451,341.5084 C449.9069,347.3211 445.2568,348.6445 440.8835,342.9021 C437.8772,348.0405 434.0496,348.2734 430.3502,343.65 C426.1803,349.1416 422.1466,349.6323 417.6427,344.0327 C413.8371,348.5763 410.4843,348.8866 406.6615,344.0527 C402.7521,350.791 398.0305,350.102 394.1535,344.021 C389.0352,349.9257 385.0947,348.8869 381.1916,342.7166 C377.1715,347.4972 373.1665,346.8491 370.3277,341.4553 C360.1429,338.0368 359.7835,331.1591 366.4862,324.02 C361.3675,317.1762 362.7413,311.5471 371.1602,308.8837" fill="#FEF3C7" style="stroke:#181818;stroke-width:0.5;"/><text fill="#000000" font-family="Monospace" font-size="14" lengthAdjust="spacing" textLength="81.1157" x="376.21" y="329.1421">firewall-cmd</text></g><!--entity tool_firewalld--><g class="entity" data-qualified-name="tool_firewalld" data-source-line="26" id="ent0021"><path d="M383.3513,392.387 C385.5115,386.861 390.6422,385.7339 394.2057,390.9719 C398.0799,385.9491 403.7727,386.4062 406.8953,391.8805 C409.5857,385.7761 414.1908,384.8967 418.4265,390.3369 C421.9055,385.5419 426.7984,386.7821 428.6271,392.0155 C431.7753,386.2371 436.3338,385.7316 440.5189,390.8877 C445.1251,384.2892 450.6387,385.7055 453.9642,392.2025 C462.9828,395.9061 462.2653,403.9742 454.9554,408.661 C462.6806,414.1211 462.8146,421.5125 453.4009,425.3789 C451.5408,430.8437 446.4126,432.4423 442.1548,428.1396 C440.0809,434.4321 435.5311,435.6768 430.5252,431.3509 C427.1769,438.0618 422.3928,438.8732 417.1325,433.4636 C412.8809,437.5952 409.5751,437.0455 407.0734,431.6215 C401.4997,436.7917 395.6352,433.88 393.8547,427.3398 C389.6002,431.9518 385.5365,432.6206 382.438,426.1491 C371.4942,425.1953 367.3655,417.1317 373.9531,407.9875 C370.6002,398.6522 372.0316,392.8831 383.3513,392.387" fill="#FEF3C7" style="stroke:#181818;stroke-width:0.5;"/><text fill="#000000" font-family="Monospace" font-size="14" lengthAdjust="spacing" textLength="56.7978" x="388.37" y="413.1421">firewalld</text></g><!--entity tool_grep--><g class="entity" data-qualified-name="tool_grep" data-source-line="27" id="ent0022"><path d="M395.6492,1148.1729 C398.326,1143.7644 402.8481,1142.6236 406.0097,1147.6399 C409.2403,1140.6643 413.1901,1139.7497 418.7539,1145.2581 C421.8921,1140.4939 427.1402,1141.663 429.4112,1146.2468 C433.7909,1142.2826 437.6513,1142.965 439.9898,1148.5162 C449.9074,1151.287 449.8025,1157.6635 444.3052,1164.5764 C451.1246,1172.4552 448.2841,1177.6547 439.7445,1181.36 C437.5851,1187.5115 434.028,1189.3305 428.4664,1185.0317 C426.6857,1189.9135 421.8878,1191.9611 417.9285,1187.4849 C412.0288,1191.0539 408.0393,1190.3411 405.6592,1183.3829 C401.726,1187.9467 396.5825,1186.1351 395.0188,1180.8286 C385.304,1178.707 382.7177,1170.9688 390.068,1163.8664 C384.3233,1156.9393 386.7803,1149.9029 395.6492,1148.1729" fill="#FEF3C7" style="stroke:#181818;stroke-width:0.5;"/><text fill="#000000" font-family="Monospace" font-size="14" lengthAdjust="spacing" textLength="30.8979" x="401.32" y="1169.1421">grep</text></g><!--entity tool_mkdir--><g class="entity" data-qualified-name="tool_mkdir" data-source-line="28" id="ent0023"><path d="M391.7913,895.7335 C395.6159,889.8975 400.9433,889.8964 404.2687,896.2448 C407.7958,889.3814 413.3626,889.6589 418.0947,894.8644 C422.0326,888.8314 426.2804,889.3555 430.5756,894.4641 C434.9227,889.1221 440.1754,888.6796 443.2807,895.7367 C455.8844,895.9563 458.4208,903.1456 454.0245,913.5935 C458.6129,922.3468 453.1185,928.7773 444.2093,928.8426 C441.2707,935.106 437.3979,937.3596 431.5534,932.0093 C428.7057,938.6956 422.5146,940.3398 417.1939,934.9497 C411.7632,939.4676 407.8774,937.3158 405.805,931.3139 C400.1231,938.536 393.7104,936.558 390.6583,928.6766 C381.3084,926.6137 376.9333,922.1181 382.7915,912.6091 C377.3352,902.1748 381.5996,897.8227 391.7913,895.7335" fill="#FEF3C7" style="stroke:#181818;stroke-width:0.5;"/><text fill="#000000" font-family="Monospace" font-size="14" lengthAdjust="spacing" textLength="38.5699" x="397.48" y="917.1421">mkdir</text></g><!--entity tool_pip--><g class="entity" data-qualified-name="tool_pip" data-source-line="29" id="ent0024"><path d="M400.6412,1819.2449 C404.9855,1811.617 412.4507,1810.1544 417.9051,1818.0068 C425.3131,1809.893 431.4218,1811.8405 435.7105,1821.1877 C445.0819,1822.4397 449.1419,1827.3324 444.307,1836.5394 C450.3978,1846.2662 444.7244,1852.6903 434.8361,1853.4879 C431.9261,1863.4635 426.2352,1865.8308 417.8533,1859.0257 C409.5373,1866.138 401.7226,1862.2348 399.7346,1852.3 C391.922,1848.0213 389.49,1843.3991 396.9987,1836.4722 C389.9308,1829.2541 390.8157,1822.891 400.6412,1819.2449" fill="#FEF3C7" style="stroke:#181818;stroke-width:0.5;"/><text fill="#000000" font-family="Monospace" font-size="14" lengthAdjust="spacing" textLength="20.8319" x="406.35" y="1841.1421">pip</text></g><!--entity tool_pre_commit--><g class="entity" data-qualified-name="tool_pre_commit" data-source-line="30" id="ent0025"><path d="M372.9272,1903.629 C375.7131,1898.5327 380.289,1898.8943 383.0329,1903.6721 C387.1271,1897.4248 392.4935,1898.8543 395.9636,1904.3589 C399.297,1898.8491 402.5673,1898.4212 406.3243,1903.9618 C409.2295,1897.0342 413.7997,1896.9982 418.5478,1902.0871 C422.3756,1896.825 426.7872,1898.9302 429.0808,1903.6981 C432.2278,1898.5475 436.2737,1898.3328 439.809,1903.2857 C443.6636,1897.4209 448.586,1898.5463 451.6661,1904.0906 C454.7473,1898.3627 459.4081,1899.6669 462.3963,1904.188 C470.6248,1907.9993 471.3061,1915.013 464.1436,1920.4754 C472.164,1925.4389 471.645,1931.1205 464.3124,1936.2484 C461.116,1941.6709 456.8113,1942.4133 452.8697,1937.038 C450.1979,1943.7263 445.1186,1943.9828 440.591,1938.9885 C436.6097,1944.3948 433.278,1943.6559 429.5446,1938.7235 C427.125,1944.4344 421.8388,1944.5761 418.8236,1939.3049 C415.4017,1944.0604 410.2844,1944.4795 407.1558,1938.9715 C403.1178,1942.7688 398.3895,1943.0535 396.2436,1936.8972 C393.2316,1943.9393 387.0741,1943.1737 383.0227,1938.0246 C379.4668,1942.5213 373.8187,1942.1581 371.4547,1936.647 C362.6479,1935.498 359.6925,1927.2526 364.5687,1920.3294 C359.8521,1910.9265 361.2716,1904.8377 372.9272,1903.629" fill="#FEF3C7" style="stroke:#181818;stroke-width:0.5;"/><text fill="#000000" font-family="Monospace" font-size="14" lengthAdjust="spacing" textLength="76.8317" x="378.35" y="1925.1421">pre-commit</text></g><!--entity tool_qrencode--><g class="entity" data-qualified-name="tool_qrencode" data-source-line="31" id="ent0026"><path d="M378.9773,1232.6963 C383.1426,1227.19 387.0427,1226.0615 391.3007,1232.6014 C395.7262,1227.1503 399.7101,1225.4778 404.482,1232.2271 C407.2666,1225.6762 413.9786,1224.5234 418.2276,1230.6377 C421.6707,1224.3562 425.8531,1225.2347 429.5808,1230.3543 C433.5891,1224.3524 440.561,1224.1543 443.4259,1231.537 C447.8461,1224.7905 452.5939,1225.447 457.1868,1231.3491 C467.2546,1232.1995 471.1951,1240.0337 466.6222,1248.8 C472.9252,1259.1529 467.0481,1266.926 455.718,1266.2775 C452.7375,1271.9656 446.8315,1272.4464 443.2989,1266.887 C441.0416,1274.9894 436.8022,1275.99 430.5731,1270.6459 C428.3761,1276.8271 422.6058,1278.0116 418.4653,1272.6921 C413.5594,1278.1147 407.8247,1278.8099 404.5383,1270.9889 C399.5778,1274.8813 394.576,1274.5721 392.4438,1267.7856 C387.0631,1274.6335 382.5414,1272.3175 378.6188,1266.2275 C368.1731,1264.275 365.7031,1256.9646 370.4422,1248.1455 C365.7631,1239.4983 369.0053,1233.2493 378.9773,1232.6963" fill="#FEF3C7" style="stroke:#181818;stroke-width:0.5;"/><text fill="#000000" font-family="Monospace" font-size="14" lengthAdjust="spacing" textLength="62.6358" x="385.45" y="1253.1421">qrencode</text></g><!--entity tool_run--><g class="entity" data-qualified-name="tool_run" data-source-line="32" id="ent0027"><path d="M398.4302,56.8089 C403.3018,47.6676 411.6048,46.0679 418.6651,54.2526 C424.5287,46.4887 432.8535,48.2266 436.2527,56.8908 C445.8423,57.5996 451.5316,62.3527 446.0444,72.5119 C451.2785,81.9585 447.7765,87.3783 437.403,88.2611 C437.1646,100.9858 430.8331,105.9804 418.8397,99.8092 C407.933,104.8419 400.7706,103.3559 400.0702,89.6085 C390.4093,88.7738 386.6211,80.6823 391.9739,72.6709 C386.9185,64.544 389.3347,59.176 398.4302,56.8089" fill="#FEF3C7" style="stroke:#181818;stroke-width:0.5;"/><text fill="#000000" font-family="Monospace" font-size="14" lengthAdjust="spacing" textLength="23.0859" x="405.22" y="77.1421">run</text></g><!--entity tool_sed--><g class="entity" data-qualified-name="tool_sed" data-source-line="33" id="ent0028"><path d="M398.3702,1484.8089 C403.2602,1475.6415 411.5893,1474.0401 418.6681,1482.2526 C424.5481,1474.4584 432.903,1476.198 436.3187,1484.8908 C445.9083,1485.5996 451.5976,1490.3527 446.1104,1500.5119 C451.3445,1509.9585 447.8425,1515.3783 437.469,1516.2611 C437.2107,1529.0166 430.8561,1534.0137 418.8427,1527.8092 C407.9148,1532.8703 400.7318,1531.3905 400.0102,1517.6085 C390.3493,1516.7738 386.5611,1508.6823 391.9139,1500.6709 C386.8585,1492.544 389.2747,1487.176 398.3702,1484.8089" fill="#FEF3C7" style="stroke:#181818;stroke-width:0.5;"/><text fill="#000000" font-family="Monospace" font-size="14" lengthAdjust="spacing" textLength="23.2119" x="405.16" y="1505.1421">sed</text></g><!--entity tool_sshd--><g class="entity" data-qualified-name="tool_sshd" data-source-line="34" id="ent0029"><path d="M395.7592,812.1729 C398.4204,807.7874 402.9177,806.6515 406.0637,811.6399 C409.275,804.6914 413.2073,803.7775 418.7519,809.2581 C421.8761,804.5202 427.0963,805.6858 429.3532,810.2468 C433.7151,806.3074 437.5552,806.9906 439.8758,812.5162 C449.7934,815.287 449.6885,821.6635 444.1912,828.5764 C451.0106,836.4552 448.1701,841.6547 439.6305,845.36 C437.4898,851.487 433.9513,853.303 428.4084,849.0317 C426.6424,853.891 421.8711,855.9338 417.9265,851.4849 C412.0461,855.0312 408.074,854.3158 405.7132,847.3829 C401.7941,851.9193 396.6784,850.1106 395.1288,844.8286 C385.414,842.707 382.8277,834.9688 390.178,827.8664 C384.4333,820.9393 386.8903,813.9029 395.7592,812.1729" fill="#FEF3C7" style="stroke:#181818;stroke-width:0.5;"/><text fill="#000000" font-family="Monospace" font-size="14" lengthAdjust="spacing" textLength="30.6739" x="401.43" y="833.1421">sshd</text></g><!--entity tool_summarize--><g class="entity" data-qualified-name="tool_summarize" data-source-line="35" id="ent0030"><path d="M374.2962,139.6465 C379.4905,132.0263 384.7279,133.5999 389.1554,140.4346 C392.7719,133.2835 398.4794,133.5178 402.5602,139.9772 C407.3942,132.5137 412.1609,131.2437 418.3659,138.5056 C422.4267,131.138 429.5265,131.4039 433.1506,138.9389 C437.7351,132.0796 444.6265,132.3567 447.8424,140.2976 C451.4789,134.483 458.179,133.9206 461.3417,140.8014 C470.7094,140.872 474.8194,148.6889 469.7293,156.4895 C475.6739,165.1026 472.0013,171.1051 462.4064,172.6972 C458.6244,180.5488 451.0345,180.4567 446.1162,173.9901 C442.8099,182.1072 437.5283,181.5982 432.2695,175.9548 C429.4774,183.3357 422.5939,182.8228 418.5346,177.3042 C413.7056,182.8809 408.7355,183.8601 404.3981,176.7562 C398.8402,182.4241 392.5188,181.7329 389.4219,174.0048 C385.232,181.7246 378.7419,181.7647 374.8676,173.7135 C364.3076,172.8582 362.3751,163.5559 367.8171,156.2427 C362.5033,149.0589 363.5692,140.5681 374.2962,139.6465" fill="#FEF3C7" style="stroke:#181818;stroke-width:0.5;"/><text fill="#000000" font-family="Monospace" font-size="14" lengthAdjust="spacing" textLength="73.2617" x="380.13" y="161.1421">summarize</text></g><!--entity tool_sysctl--><g class="entity" data-qualified-name="tool_sysctl" data-source-line="36" id="ent0031"><path d="M393.4843,1568.9882 C396.0571,1562.8241 399.8748,1562.6978 404.4517,1566.8597 C408.4785,1559.9377 412.5044,1560.9675 417.3791,1565.9379 C421.412,1561.1255 426.3365,1561.3668 429.8226,1566.6142 C434.1181,1561.3807 439.366,1562.4264 442.2376,1568.2176 C451.8961,1568.0537 457.9361,1574.948 453.0003,1584.4567 C459.6526,1594.5272 454.5084,1603.1709 442.4706,1602.0645 C438.1006,1607.1616 434.2179,1608.8363 429.869,1602.0422 C426.138,1607.3302 422.1793,1608.7065 417.9975,1602.5082 C414.4386,1607.7499 408.0809,1607.8814 404.9666,1601.9879 C400.7237,1608.4078 395.4406,1607.5632 391.817,1601.3435 C381.8779,1598.9427 379.7791,1591.6776 385.8607,1583.8286 C380.5552,1575.3725 384.5882,1570.1488 393.4843,1568.9882" fill="#FEF3C7" style="stroke:#181818;stroke-width:0.5;"/><text fill="#000000" font-family="Monospace" font-size="14" lengthAdjust="spacing" textLength="35.9379" x="398.8" y="1589.1421">sysctl</text></g><!--entity tool_systemctl--><g class="entity" data-qualified-name="tool_systemctl" data-source-line="37" id="ent0032"><path d="M378.9343,475.4417 C382.3748,469.5229 388.8993,468.8411 392,475.7866 C395.7416,469.0759 400.7785,468.9992 405.3123,474.9538 C409.3441,468.7067 413.8824,469.1993 418.3276,474.4873 C421.8715,468.4532 425.5375,469.036 429.4813,474.0849 C434.4421,467.4255 438.9137,468.3864 442.7266,475.2124 C446.314,469.852 452.5525,468.9443 455.6065,475.7758 C464.3028,478.5085 467.2991,486.7159 460.8198,493.8305 C466.1552,499.6352 464.372,506.4172 456.7904,508.7282 C454.221,517.2667 448.6883,517.9379 442.381,512.6133 C439.7189,518.2134 435.5798,518.961 430.9265,514.9984 C428.0641,521.6214 422.7462,523.6139 417.7994,517.0778 C412.358,522.6479 407.9252,521.3197 405.4295,514.2052 C401.0327,519.4988 395.3129,519.8737 392.3961,512.6627 C387.4775,516.7319 383.058,517.4614 380.4984,510.1883 C369.7343,507.07 369.5923,501.2025 375.4676,493.1665 C368.6874,485.9083 368.9747,479.4258 378.9343,475.4417" fill="#FEF3C7" style="stroke:#181818;stroke-width:0.5;"/><text fill="#000000" font-family="Monospace" font-size="14" lengthAdjust="spacing" textLength="61.9778" x="385.78" y="497.1421">systemctl</text></g><!--entity tool_tachometer--><g class="entity" data-qualified-name="tool_tachometer" data-source-line="38" id="ent0033"><path d="M373.1072,223.629 C375.8807,218.5557 380.436,218.9158 383.1674,223.6721 C387.2484,217.4475 392.5957,218.8729 396.0526,224.3589 C399.3705,218.8727 402.6263,218.4461 406.3678,223.9618 C409.2586,217.0578 413.8121,217.0194 418.5458,222.0871 C422.3608,216.8496 426.7524,218.9488 429.0333,223.6981 C432.1661,218.5688 436.1949,218.3543 439.716,223.2857 C443.5574,217.4443 448.4607,218.5666 451.5276,224.0906 C454.596,218.3871 459.2369,219.686 462.2123,224.188 C470.4408,227.9993 471.1221,235.013 463.9596,240.4754 C471.98,245.4389 471.461,251.1205 464.1284,256.2484 C460.9461,261.6503 456.6587,262.391 452.7312,257.038 C450.0729,263.7037 445.0121,263.9621 440.498,258.9885 C436.5325,264.3721 433.2146,263.636 429.4971,258.7235 C427.0891,264.4108 421.8253,264.5531 418.8216,259.3049 C415.4125,264.0415 410.315,264.4584 407.1993,258.9715 C403.1747,262.7504 398.4651,263.0303 396.3326,256.8972 C393.333,263.9161 387.1963,263.1549 383.1572,258.0246 C379.6131,262.5022 373.987,262.1378 371.6347,256.647 C362.8279,255.498 359.8725,247.2526 364.7487,240.3294 C360.0321,230.9265 361.4516,224.8377 373.1072,223.629" fill="#FEF3C7" style="stroke:#181818;stroke-width:0.5;"/><text fill="#000000" font-family="Monospace" font-size="14" lengthAdjust="spacing" textLength="76.4677" x="378.53" y="245.1421">tachometer</text></g><!--entity tool_tee--><g class="entity" data-qualified-name="tool_tee" data-source-line="39" id="ent0034"><path d="M400.6312,559.2449 C404.9774,551.6141 412.4457,550.1511 417.9021,558.0068 C425.3124,549.8894 431.4235,551.8372 435.7145,561.1877 C445.0859,562.4397 449.1459,567.3324 444.311,576.5394 C450.4018,586.2662 444.7284,592.6903 434.8401,593.4879 C431.9278,603.4669 426.2345,605.8344 417.8503,599.0257 C409.5324,606.1414 401.7146,602.2379 399.7246,592.3 C391.912,588.0213 389.48,583.3991 396.9887,576.4722 C389.9208,569.2541 390.8057,562.891 400.6312,559.2449" fill="#FEF3C7" style="stroke:#181818;stroke-width:0.5;"/><text fill="#000000" font-family="Monospace" font-size="14" lengthAdjust="spacing" textLength="20.8459" x="406.34" y="581.1421">tee</text></g><!--entity tool_ufw--><g class="entity" data-qualified-name="tool_ufw" data-source-line="40" id="ent0035"><path d="M398.1132,979.8635 C403.0366,970.3702 412.5156,969.6344 418.1891,979.0678 C425.067,971.2798 430.8134,971.3085 436.0214,980.7919 C446.5769,981.4416 448.8277,988.0355 444.0115,996.5028 C448.7893,1005.3323 445.3864,1010.2969 436.3799,1012.5855 C431.1668,1022.6404 425.4141,1023.3427 417.7059,1015.1371 C410.9977,1022.8149 402.6269,1023.6338 398.4021,1012.5781 C389.3982,1011.2702 386.6761,1004.3121 392.919,997.4705 C385.599,990.2394 389.3646,982.3543 398.1132,979.8635" fill="#FEF3C7" style="stroke:#181818;stroke-width:0.5;"/><text fill="#000000" font-family="Monospace" font-size="14" lengthAdjust="spacing" textLength="24.4719" x="404.53" y="1001.1421">ufw</text></g><!--entity tool_wg--><g class="entity" data-qualified-name="tool_wg" data-source-line="41" id="ent0036"><path d="M400.8782,644.1903 C404.7597,634.084 411.6244,634.4882 418.3851,641.1916 C425.8665,634.5029 430.223,637.3617 433.8298,645.2866 C442.4452,648.4394 442.9333,653.9316 437.6278,660.5486 C443.5754,666.7057 443.1972,674.6028 433.7471,677.1635 C431.4264,686.9758 424.1476,687.9757 416.7912,682.8979 C408.9785,688.9861 403.7297,686.2614 401.3227,677.3305 C390.5625,676.0809 389.1503,670.6348 393.7737,661.8726 C388.064,653.8018 389.6107,645.4398 400.8782,644.1903" fill="#FEF3C7" style="stroke:#181818;stroke-width:0.5;"/><text fill="#000000" font-family="Monospace" font-size="14" lengthAdjust="spacing" textLength="19.6139" x="406.96" y="665.1421">wg</text></g><!--entity tool_zip--><g class="entity" data-qualified-name="tool_zip" data-source-line="42" id="ent0037"><path d="M402.5492,1317.0659 C405.8016,1308.4236 411.9327,1307.4204 418.6465,1313.2034 C425.0421,1305.6937 431.9145,1308.5614 434.7816,1316.815 C444.3275,1319.6023 443.8132,1326.0653 438.3365,1332.3011 C445.5519,1338.8225 443.4241,1345.3469 435.3212,1349.1223 C434.9269,1361.9963 426.479,1363.8421 416.89,1358.3495 C409.4012,1362.4156 401.7162,1359.826 401.7136,1350.1075 C392.1982,1347.7738 389.2074,1341.0453 396.5203,1333.4615 C389.821,1325.9115 394.2691,1319.1079 402.5492,1317.0659" fill="#FEF3C7" style="stroke:#181818;stroke-width:0.5;"/><text fill="#000000" font-family="Monospace" font-size="14" lengthAdjust="spacing" textLength="18.8019" x="407.36" y="1337.1421">zip</text></g><g class="entity" data-qualified-name="toolingGraphSummary" data-source-line="78" id="ent0072"><path d="M309.29,1979.0062 L309.29,2024.4182 L524.2372,2024.4182 L524.2372,1989.0062 L514.2372,1979.0062 L309.29,1979.0062" fill="#FEFFDD" style="stroke:#181818;stroke-width:0.5;"/><path d="M514.2372,1979.0062 L514.2372,1989.0062 L524.2372,1989.0062 L514.2372,1979.0062" fill="#FEFFDD" style="stroke:#181818;stroke-width:1;"/><text fill="#000000" font-family="Monospace" font-size="13" lengthAdjust="spacing" textLength="193.9472" x="315.29" y="1997.9032">Scanned&#160;13&#160;tooling&#160;entrypoints.</text><text fill="#000000" font-family="Monospace" font-size="13" lengthAdjust="spacing" textLength="179.2182" x="315.29" y="2015.6092">Detected&#160;23&#160;third-party&#160;tools.</text></g><!--link source_github_workflows_ci_yml to tool_actions_checkout--><g class="link" data-entity-1="ent0002" data-entity-2="ent0015" data-link-type="dependency" data-source-line="43" id="lnk38"><path d="M128.24,1764.1662 C128.24,1726.9262 128.24,1667.7062 128.24,1667.7062 C128.24,1667.7062 254,1667.7062 339.44,1667.7062" fill="none" id="source_github_workflows_ci_yml-to-tool_actions_checkout" style="stroke:#181818;stroke-width:1;"/><polygon fill="#181818" points="345.44,1667.7062,336.44,1663.7062,340.44,1667.7062,336.44,1671.7062,345.44,1667.7062" style="stroke:#181818;stroke-width:1;"/></g><!--link source_github_workflows_ci_yml to tool_actions_setup_python--><g class="link" data-entity-1="ent0002" data-entity-2="ent0016" data-link-type="dependency" data-source-line="44" id="lnk39"><path d="M219.86,1770.4462 C255.52,1770.4462 290.13,1770.4462 325.18,1770.4462" fill="none" id="source_github_workflows_ci_yml-to-tool_actions_setup_python" style="stroke:#181818;stroke-width:1;"/><polygon fill="#181818" points="331.18,1770.4462,322.18,1766.4462,326.18,1770.4462,322.18,1774.4462,331.18,1770.4462" style="stroke:#181818;stroke-width:1;"/></g><!--link source_github_workflows_ci_yml to tool_pip--><g class="link" data-entity-1="ent0002" data-entity-2="ent0024" data-link-type="dependency" data-source-line="45" id="lnk40"><path d="M219.86,1815.0462 C279.45,1815.0462 346.9,1815.0462 385.04,1815.0462" fill="none" id="source_github_workflows_ci_yml-to-tool_pip" style="stroke:#181818;stroke-width:1;"/><polygon fill="#181818" points="391.04,1815.0462,382.04,1811.0462,386.04,1815.0462,382.04,1819.0462,391.04,1815.0462" style="stroke:#181818;stroke-width:1;"/></g><!--link source_github_workflows_ci_yml to tool_pre_commit--><g class="link" data-entity-1="ent0002" data-entity-2="ent0025" data-link-type="dependency" data-source-line="46" id="lnk41"><path d="M219.84,1818.9062 C290.86,1818.9062 377.24,1818.9062 377.24,1818.9062 C377.24,1818.9062 377.24,1858.9462 377.24,1888.7962" fill="none" id="source_github_workflows_ci_yml-to-tool_pre_commit" style="stroke:#181818;stroke-width:1;"/><polygon fill="#181818" points="377.24,1894.7962,381.24,1885.7962,377.24,1889.7962,373.24,1885.7962,377.24,1894.7962" style="stroke:#181818;stroke-width:1;"/></g><!--link source_scripts_configure_firewalld_sh to tool_firewall_cmd--><g class="link" data-entity-1="ent0003" data-entity-2="ent0020" data-link-type="dependency" data-source-line="47" id="lnk42"><path d="M235.21,330.9462 C277.88,330.9462 319.22,330.9462 354.86,330.9462" fill="none" id="source_scripts_configure_firewalld_sh-to-tool_firewall_cmd" style="stroke:#181818;stroke-width:1;"/><polygon fill="#181818" points="360.86,330.9462,351.86,326.9462,355.86,330.9462,351.86,334.9462,360.86,330.9462" style="stroke:#181818;stroke-width:1;"/></g><!--link source_scripts_configure_firewalld_sh to tool_systemctl--><g class="link" data-entity-1="ent0003" data-entity-2="ent0032" data-link-type="dependency" data-source-line="48" id="lnk43"><path d="M228.24,372.2162 C228.24,412.2162 228.24,478.7062 228.24,478.7062 C228.24,478.7062 308.83,478.7062 364.65,478.7062" fill="none" id="source_scripts_configure_firewalld_sh-to-tool_systemctl" style="stroke:#181818;stroke-width:1;"/><polygon fill="#181818" points="370.65,478.7062,361.65,474.7062,365.65,478.7062,361.65,482.7062,370.65,478.7062" style="stroke:#181818;stroke-width:1;"/></g><!--link source_scripts_configure_ufw_sh to tool_cat--><g class="link" data-entity-1="ent0004" data-entity-2="ent0018" data-link-type="dependency" data-source-line="49" id="lnk44"><path d="M219.07,1414.2462 C279.05,1414.2462 347.35,1414.2462 385.52,1414.2462" fill="none" id="source_scripts_configure_ufw_sh-to-tool_cat" style="stroke:#181818;stroke-width:1;"/><polygon fill="#181818" points="391.52,1414.2462,382.52,1410.2462,386.52,1414.2462,382.52,1418.2462,391.52,1414.2462" style="stroke:#181818;stroke-width:1;"/></g><!--link source_scripts_configure_ufw_sh to tool_grep--><g class="link" data-entity-1="ent0004" data-entity-2="ent0022" data-link-type="dependency" data-source-line="50" id="lnk45"><path d="M219.22,1383.3262 C229.99,1383.3262 237.24,1383.3262 237.24,1383.3262 C237.24,1383.3262 237.24,1171.8862 237.24,1171.8862 C237.24,1171.8862 328.57,1171.8862 379.9,1171.8862" fill="none" id="source_scripts_configure_ufw_sh-to-tool_grep" style="stroke:#181818;stroke-width:1;"/><polygon fill="#181818" points="385.9,1171.8862,376.9,1167.8862,380.9,1171.8862,376.9,1175.8862,385.9,1171.8862" style="stroke:#181818;stroke-width:1;"/></g><!--link source_scripts_configure_ufw_sh to tool_sed--><g class="link" data-entity-1="ent0004" data-entity-2="ent0028" data-link-type="dependency" data-source-line="51" id="lnk46"><path d="M128.24,1426.0862 C128.24,1455.4862 128.24,1496.4062 128.24,1496.4062 C128.24,1496.4062 312.25,1496.4062 383.88,1496.4062" fill="none" id="source_scripts_configure_ufw_sh-to-tool_sed" style="stroke:#181818;stroke-width:1;"/><polygon fill="#181818" points="389.88,1496.4062,380.88,1492.4062,384.88,1496.4062,380.88,1500.4062,389.88,1496.4062" style="stroke:#181818;stroke-width:1;"/></g><!--link source_scripts_configure_ufw_sh to tool_ufw--><g class="link" data-entity-1="ent0004" data-entity-2="ent0035" data-link-type="dependency" data-source-line="52" id="lnk47"><path d="M218.87,1375.4862 C229.27,1375.4862 236.24,1375.4862 236.24,1375.4862 C236.24,1375.4862 236.24,1003.8862 236.24,1003.8862 C236.24,1003.8862 332.84,1003.8862 383.35,1003.8862" fill="none" id="source_scripts_configure_ufw_sh-to-tool_ufw" style="stroke:#181818;stroke-width:1;"/><polygon fill="#181818" points="389.35,1003.8862,380.35,999.8862,384.35,1003.8862,380.35,1007.8862,389.35,1003.8862" style="stroke:#181818;stroke-width:1;"/></g><!--link source_scripts_enable_ip_forwarding_sh to tool_cat--><g class="link" data-entity-1="ent0005" data-entity-2="ent0018" data-link-type="dependency" data-source-line="53" id="lnk48"><path d="M241.24,1517.4262 C241.24,1483.7362 241.24,1433.0062 241.24,1433.0062 C241.24,1433.0062 337.08,1433.0062 385.62,1433.0062" fill="none" id="source_scripts_enable_ip_forwarding_sh-to-tool_cat" style="stroke:#181818;stroke-width:1;"/><polygon fill="#181818" points="391.62,1433.0062,382.62,1429.0062,386.62,1433.0062,382.62,1437.0062,391.62,1433.0062" style="stroke:#181818;stroke-width:1;"/></g><!--link source_scripts_enable_ip_forwarding_sh to tool_sysctl--><g class="link" data-entity-1="ent0005" data-entity-2="ent0031" data-link-type="dependency" data-source-line="54" id="lnk49"><path d="M243.46,1567.4762 C293.86,1567.4762 343.19,1567.4762 377.45,1567.4762" fill="none" id="source_scripts_enable_ip_forwarding_sh-to-tool_sysctl" style="stroke:#181818;stroke-width:1;"/><polygon fill="#181818" points="383.45,1567.4762,374.45,1563.4762,378.45,1567.4762,374.45,1571.4762,383.45,1567.4762" style="stroke:#181818;stroke-width:1;"/></g><!--link source_scripts_generate_keys_sh to tool_mkdir--><g class="link" data-entity-1="ent0006" data-entity-2="ent0023" data-link-type="dependency" data-source-line="55" id="lnk50"><path d="M219.45,667.8862 C258.05,667.8862 294.24,667.8862 294.24,667.8862 C294.24,667.8862 294.24,894.1862 294.24,894.1862 C294.24,894.1862 339.76,894.1862 375.98,894.1862" fill="none" id="source_scripts_generate_keys_sh-to-tool_mkdir" style="stroke:#181818;stroke-width:1;"/><polygon fill="#181818" points="381.98,894.1862,372.98,890.1862,376.98,894.1862,372.98,898.1862,381.98,894.1862" style="stroke:#181818;stroke-width:1;"/></g><!--link source_scripts_generate_keys_sh to tool_tee--><g class="link" data-entity-1="ent0006" data-entity-2="ent0034" data-link-type="dependency" data-source-line="56" id="lnk51"><path d="M219.62,630.9062 C304.31,630.9062 417.24,630.9062 417.24,630.9062 C417.24,630.9062 417.24,621.3262 417.24,606.7262" fill="none" id="source_scripts_generate_keys_sh-to-tool_tee" style="stroke:#181818;stroke-width:1;"/><polygon fill="#181818" points="417.24,600.7262,413.24,609.7262,417.24,605.7262,421.24,609.7262,417.24,600.7262" style="stroke:#181818;stroke-width:1;"/></g><!--link source_scripts_generate_keys_sh to tool_wg--><g class="link" data-entity-1="ent0006" data-entity-2="ent0036" data-link-type="dependency" data-source-line="57" id="lnk52"><path d="M219.86,651.5262 C279.78,651.5262 347.71,651.5262 385.67,651.5262" fill="none" id="source_scripts_generate_keys_sh-to-tool_wg" style="stroke:#181818;stroke-width:1;"/><polygon fill="#181818" points="391.67,651.5262,382.67,647.5262,386.67,651.5262,382.67,655.5262,391.67,651.5262" style="stroke:#181818;stroke-width:1;"/></g><!--link source_scripts_harden_ssh_sh to tool_cp--><g class="link" data-entity-1="ent0007" data-entity-2="ent0019" data-link-type="dependency" data-source-line="58" id="lnk53"><path d="M128.24,941.1262 C128.24,984.9762 128.24,1062.4062 128.24,1062.4062 C128.24,1062.4062 319.17,1062.4062 387.64,1062.4062" fill="none" id="source_scripts_harden_ssh_sh-to-tool_cp" style="stroke:#181818;stroke-width:1;"/><polygon fill="#181818" points="393.64,1062.4062,384.64,1058.4062,388.64,1062.4062,384.64,1066.4062,393.64,1062.4062" style="stroke:#181818;stroke-width:1;"/></g><!--link source_scripts_harden_ssh_sh to tool_grep--><g class="link" data-entity-1="ent0007" data-entity-2="ent0022" data-link-type="dependency" data-source-line="59" id="lnk54"><path d="M210.2,922.2262 C227.29,922.2262 240.24,922.2262 240.24,922.2262 C240.24,922.2262 240.24,1155.5262 240.24,1155.5262 C240.24,1155.5262 329.44,1155.5262 380.02,1155.5262" fill="none" id="source_scripts_harden_ssh_sh-to-tool_grep" style="stroke:#181818;stroke-width:1;"/><polygon fill="#181818" points="386.02,1155.5262,377.02,1151.5262,381.02,1155.5262,377.02,1159.5262,386.02,1155.5262" style="stroke:#181818;stroke-width:1;"/></g><!--link source_scripts_harden_ssh_sh to tool_mkdir--><g class="link" data-entity-1="ent0007" data-entity-2="ent0023" data-link-type="dependency" data-source-line="60" id="lnk55"><path d="M210.08,908.2062 C266.91,908.2062 333.72,908.2062 376.02,908.2062" fill="none" id="source_scripts_harden_ssh_sh-to-tool_mkdir" style="stroke:#181818;stroke-width:1;"/><polygon fill="#181818" points="382.02,908.2062,373.02,904.2062,377.02,908.2062,373.02,912.2062,382.02,908.2062" style="stroke:#181818;stroke-width:1;"/></g><!--link source_scripts_harden_ssh_sh to tool_sshd--><g class="link" data-entity-1="ent0007" data-entity-2="ent0029" data-link-type="dependency" data-source-line="61" id="lnk56"><path d="M128.24,882.3262 C128.24,858.1062 128.24,827.7062 128.24,827.7062 C128.24,827.7062 305.9,827.7062 380.16,827.7062" fill="none" id="source_scripts_harden_ssh_sh-to-tool_sshd" style="stroke:#181818;stroke-width:1;"/><polygon fill="#181818" points="386.16,827.7062,377.16,823.7062,381.16,827.7062,377.16,831.7062,386.16,827.7062" style="stroke:#181818;stroke-width:1;"/></g><!--link source_scripts_harden_ssh_sh to tool_systemctl--><g class="link" data-entity-1="ent0007" data-entity-2="ent0032" data-link-type="dependency" data-source-line="62" id="lnk57"><path d="M210.06,901.1962 C238.88,901.1962 264.24,901.1962 264.24,901.1962 C264.24,901.1962 264.24,509.0062 264.24,509.0062 C264.24,509.0062 319.7,509.0062 364.59,509.0062" fill="none" id="source_scripts_harden_ssh_sh-to-tool_systemctl" style="stroke:#181818;stroke-width:1;"/><polygon fill="#181818" points="370.59,509.0062,361.59,505.0062,365.59,509.0062,361.59,513.0062,370.59,509.0062" style="stroke:#181818;stroke-width:1;"/></g><!--link source_scripts_install_fedora_sh to tool_firewalld--><g class="link" data-entity-1="ent0009" data-entity-2="ent0021" data-link-type="dependency" data-source-line="63" id="lnk58"><path d="M216.45,455.4062 C301.47,455.4062 417.24,455.4062 417.24,455.4062 C417.24,455.4062 417.24,450.2162 417.24,438.6762" fill="none" id="source_scripts_install_fedora_sh-to-tool_firewalld" style="stroke:#181818;stroke-width:1;"/><polygon fill="#181818" points="417.24,432.6762,413.24,441.6762,417.24,437.6762,421.24,441.6762,417.24,432.6762" style="stroke:#181818;stroke-width:1;"/></g><!--link source_scripts_install_fedora_sh to tool_systemctl--><g class="link" data-entity-1="ent0009" data-entity-2="ent0032" data-link-type="dependency" data-source-line="64" id="lnk59"><path d="M216.7,490.2462 C267.41,490.2462 322.97,490.2462 364.29,490.2462" fill="none" id="source_scripts_install_fedora_sh-to-tool_systemctl" style="stroke:#181818;stroke-width:1;"/><polygon fill="#181818" points="370.29,490.2462,361.29,486.2462,365.29,490.2462,361.29,494.2462,370.29,490.2462" style="stroke:#181818;stroke-width:1;"/></g><!--link source_scripts_install_ubuntu_sh to tool_apt_get--><g class="link" data-entity-1="ent0010" data-entity-2="ent0017" data-link-type="dependency" data-source-line="65" id="lnk60"><path d="M219.07,752.0462 C272.44,752.0462 331.15,752.0462 371.65,752.0462" fill="none" id="source_scripts_install_ubuntu_sh-to-tool_apt_get" style="stroke:#181818;stroke-width:1;"/><polygon fill="#181818" points="377.65,752.0462,368.65,748.0462,372.65,752.0462,368.65,756.0462,377.65,752.0462" style="stroke:#181818;stroke-width:1;"/></g><!--link source_scripts_install_ubuntu_sh to tool_systemctl--><g class="link" data-entity-1="ent0010" data-entity-2="ent0032" data-link-type="dependency" data-source-line="66" id="lnk61"><path d="M219.06,735.8362 C288.81,735.8362 373.24,735.8362 373.24,735.8362 C373.24,735.8362 373.24,584.5262 373.24,522.4562" fill="none" id="source_scripts_install_ubuntu_sh-to-tool_systemctl" style="stroke:#181818;stroke-width:1;"/><polygon fill="#181818" points="373.24,516.4562,369.24,525.4562,373.24,521.4562,377.24,525.4562,373.24,516.4562" style="stroke:#181818;stroke-width:1;"/></g><!--link source_scripts_install_ubuntu_sh to tool_ufw--><g class="link" data-entity-1="ent0010" data-entity-2="ent0035" data-link-type="dependency" data-source-line="67" id="lnk62"><path d="M213.24,777.9962 C213.24,841.7662 213.24,987.5262 213.24,987.5262 C213.24,987.5262 327.76,987.5262 383.32,987.5262" fill="none" id="source_scripts_install_ubuntu_sh-to-tool_ufw" style="stroke:#181818;stroke-width:1;"/><polygon fill="#181818" points="389.32,987.5262,380.32,983.5262,384.32,987.5262,380.32,991.5262,389.32,987.5262" style="stroke:#181818;stroke-width:1;"/></g><!--link source_scripts_package_client_sh to tool_cp--><g class="link" data-entity-1="ent0011" data-entity-2="ent0019" data-link-type="dependency" data-source-line="68" id="lnk63"><path d="M220.66,1086.9462 C281.5,1086.9462 350.5,1086.9462 387.66,1086.9462" fill="none" id="source_scripts_package_client_sh-to-tool_cp" style="stroke:#181818;stroke-width:1;"/><polygon fill="#181818" points="393.66,1086.9462,384.66,1082.9462,388.66,1086.9462,384.66,1090.9462,393.66,1086.9462" style="stroke:#181818;stroke-width:1;"/></g><!--link source_scripts_package_client_sh to tool_mkdir--><g class="link" data-entity-1="ent0011" data-entity-2="ent0023" data-link-type="dependency" data-source-line="69" id="lnk64"><path d="M215.24,1069.2262 C215.24,1017.3562 215.24,915.2162 215.24,915.2162 C215.24,915.2162 318.5,915.2162 376.12,915.2162" fill="none" id="source_scripts_package_client_sh-to-tool_mkdir" style="stroke:#181818;stroke-width:1;"/><polygon fill="#181818" points="382.12,915.2162,373.12,911.2162,377.12,915.2162,373.12,919.2162,382.12,915.2162" style="stroke:#181818;stroke-width:1;"/></g><!--link source_scripts_package_client_sh to tool_qrencode--><g class="link" data-entity-1="ent0011" data-entity-2="ent0026" data-link-type="dependency" data-source-line="70" id="lnk65"><path d="M220.51,1112.0862 C290.69,1112.0862 375.24,1112.0862 375.24,1112.0862 C375.24,1112.0862 375.24,1177.6762 375.24,1216.8362" fill="none" id="source_scripts_package_client_sh-to-tool_qrencode" style="stroke:#181818;stroke-width:1;"/><polygon fill="#181818" points="375.24,1222.8362,379.24,1213.8362,375.24,1217.8362,371.24,1213.8362,375.24,1222.8362" style="stroke:#181818;stroke-width:1;"/></g><!--link source_scripts_package_client_sh to tool_zip--><g class="link" data-entity-1="ent0011" data-entity-2="ent0037" data-link-type="dependency" data-source-line="71" id="lnk66"><path d="M220.64,1119.9362 C231.74,1119.9362 239.24,1119.9362 239.24,1119.9362 C239.24,1119.9362 239.24,1331.7062 239.24,1331.7062 C239.24,1331.7062 337.3,1331.7062 386.08,1331.7062" fill="none" id="source_scripts_package_client_sh-to-tool_zip" style="stroke:#181818;stroke-width:1;"/><polygon fill="#181818" points="392.08,1331.7062,383.08,1327.7062,387.08,1331.7062,383.08,1335.7062,392.08,1331.7062" style="stroke:#181818;stroke-width:1;"/></g><!--link source_scripts_render_configs_sh to tool_cat--><g class="link" data-entity-1="ent0012" data-entity-2="ent0018" data-link-type="dependency" data-source-line="72" id="lnk67"><path d="M221.52,1284.0062 C231.57,1284.0062 238.24,1284.0062 238.24,1284.0062 C238.24,1284.0062 238.24,1402.7062 238.24,1402.7062 C238.24,1402.7062 336.35,1402.7062 385.56,1402.7062" fill="none" id="source_scripts_render_configs_sh-to-tool_cat" style="stroke:#181818;stroke-width:1;"/><polygon fill="#181818" points="391.56,1402.7062,382.56,1398.7062,386.56,1402.7062,382.56,1406.7062,391.56,1402.7062" style="stroke:#181818;stroke-width:1;"/></g><!--link source_scripts_render_configs_sh to tool_mkdir--><g class="link" data-entity-1="ent0012" data-entity-2="ent0023" data-link-type="dependency" data-source-line="73" id="lnk68"><path d="M221.25,1254.9462 C252.35,1254.9462 279.24,1254.9462 279.24,1254.9462 C279.24,1254.9462 279.24,929.2362 279.24,929.2362 C279.24,929.2362 335.32,929.2362 376.06,929.2362" fill="none" id="source_scripts_render_configs_sh-to-tool_mkdir" style="stroke:#181818;stroke-width:1;"/><polygon fill="#181818" points="382.06,929.2362,373.06,925.2362,377.06,929.2362,373.06,933.2362,382.06,929.2362" style="stroke:#181818;stroke-width:1;"/></g><!--link source_scripts_run_tachometer_profile_sh to tool_run--><g class="link" data-entity-1="ent0013" data-entity-2="ent0027" data-link-type="dependency" data-source-line="74" id="lnk69"><path d="M128.24,126.3262 C128.24,102.1062 128.24,71.7062 128.24,71.7062 C128.24,71.7062 312.25,71.7062 383.88,71.7062" fill="none" id="source_scripts_run_tachometer_profile_sh-to-tool_run" style="stroke:#181818;stroke-width:1;"/><polygon fill="#181818" points="389.88,71.7062,380.88,67.7062,384.88,71.7062,380.88,75.7062,389.88,71.7062" style="stroke:#181818;stroke-width:1;"/></g><!--link source_scripts_run_tachometer_profile_sh to tool_summarize--><g class="link" data-entity-1="ent0013" data-entity-2="ent0030" data-link-type="dependency" data-source-line="75" id="lnk70"><path d="M249.71,155.7062 C289.92,155.7062 326.54,155.7062 358.67,155.7062" fill="none" id="source_scripts_run_tachometer_profile_sh-to-tool_summarize" style="stroke:#181818;stroke-width:1;"/><polygon fill="#181818" points="364.67,155.7062,355.67,151.7062,359.67,155.7062,355.67,159.7062,364.67,155.7062" style="stroke:#181818;stroke-width:1;"/></g><!--link source_scripts_run_tachometer_profile_sh to tool_tachometer--><g class="link" data-entity-1="ent0013" data-entity-2="ent0033" data-link-type="dependency" data-source-line="76" id="lnk71"><path d="M242.24,185.0862 C242.24,209.3062 242.24,239.7062 242.24,239.7062 C242.24,239.7062 306.13,239.7062 357.45,239.7062" fill="none" id="source_scripts_run_tachometer_profile_sh-to-tool_tachometer" style="stroke:#181818;stroke-width:1;"/><polygon fill="#181818" points="363.45,239.7062,354.45,235.7062,358.45,239.7062,354.45,243.7062,363.45,239.7062" style="stroke:#181818;stroke-width:1;"/></g><?plantuml-src dLV1Sfim4Btp5PhaZ9icwVJMInjtUcWlwJ4p6XaMq5X8gYHAyTTtZGt8W47ESRNlxLkaNMbnt0aWchjuf_wHtqe9BdFoGph83NDSIHi9o1nnYXYU5uwat41oT4HspwLcXfN45YnLzP6OCM71ywIGiKguhPBk5ok1_5HIMSqI7vEeKYi9qhsw1dCvXcSo5pu4amBNQ23Ak495FOJSRNBkYchteLPcdmbLsmy9tpIbU9FFAEuG22achuIz8ymIgogJ03sHQ4-Y2QT88lSl3zl7xOilO1F3jSEmIcOyhmpG37UWPaAa6rkyoSS5cJENpd2fBSBKggnkTPvlqa7MYW98jXD0kQQPCZKpAHvVy0VDaLVqSf205GLq3urjXPu2X2vOAme5vW6IMbkquJy5X1yeAx6vj0wFhGty413uZ0-BIZD8bM71ktz92zIeTfLqLV36Nz9MDB2Xzom7cWYERHnShfUq5Gq3CWLpBd4Rl5UNj3MDIbB7aaAL6DTGRLJ61GJlsJnzHVCl4pp52WykhOxWnqs4gb9onzgB6M-F0fAzgbnBFmQYPm_jFEH--x9z-lfvpBJWAXth1czPEMMtNdhoJY9e5-VWIsg7xJjHIfY7GMFYrvvRZxtT_HadPJhWkbMAgzSOC_09DZVWgH-jCQBSu_itG5fpZD7S2uB6n6yWnZUlvDv6u1ezhOtHVx224vN2WErMnaWilm64njXlmTi3D2P-M_W0j2Q8gYoPuGSlcNvfWcriueG7REqPb8Do33mjZR53QmtWOMs21YzBDCP-V247FnfZVvqFxZeVUm_-6H-yCruPCEBuotn3tapqUp6OZDKOZkrBCWeRPtgctuwtSllJZzPccvw2bqWu-DZKuMZiad0msb7WdBIK-ohdr4dHsgJKuzjBAXoElH8EhlDeSQGQFbG70kSEw0fqziEkO8_NMIZqMWbEvwv9oQStS5PrXjbhwFxJete3upqgCvKydTKMZdO1F7jc2_ZkiRk1Sk2JXAPJu587Bg1dqxy-z_KyXBo3rJ-kx-0ExaWg1zrZXPV9TyDqyTg6RgBNX4c9iy37fyvDS3zDenMNpcwYRzqy-eY0WfiqnZzorvp6qqs4EqMEuVy3?></g></svg>
