<?plantuml 1.2026.2?><svg xmlns="http://www.w3.org/2000/svg" xmlns:xlink="http://www.w3.org/1999/xlink" contentStyleType="text/css" data-diagram-type="DESCRIPTION" height="2815px" preserveAspectRatio="none" style="width:531px;height:2815px;background:#FFFFFF;" version="1.1" viewBox="0 0 531 2815" width="531px" zoomAndPan="magnify"><title>pit-box Tooling Integrations</title><defs/><g><g class="title" data-source-line="1"><text fill="#000000" font-family="Monospace" font-size="14" font-weight="bold" lengthAdjust="spacing" textLength="195.2223" x="161.0074" y="24.9659">pit-box&#160;Tooling&#160;Integrations</text></g><!--entity source_github_workflows_ci_yml--><g class="entity" data-qualified-name="source_github_workflows_ci_yml" data-source-line="7" id="ent0002"><rect fill="#E0F2FE" height="58.1358" rx="2.5" ry="2.5" style="stroke:#181818;stroke-width:0.5;" width="182.6234" x="36.83" y="2450.0679"/><text fill="#000000" font-family="Monospace" font-size="14" lengthAdjust="spacing" textLength="162.6234" x="46.83" y="2475.0339">.github/workflows/ci.yml</text><text fill="#000000" font-family="Monospace" font-size="14" lengthAdjust="spacing" textLength="105.3356" x="46.83" y="2494.1018">4&#160;detected&#160;tools</text></g><!--entity source_scripts_configure_firewalld_sh--><g class="entity" data-qualified-name="source_scripts_configure_firewalld_sh" data-source-line="8" id="ent0003"><rect fill="#E0F2FE" height="58.1358" rx="2.5" ry="2.5" style="stroke:#181818;stroke-width:0.5;" width="213.7312" x="21.28" y="537.0679"/><text fill="#000000" font-family="Monospace" font-size="14" lengthAdjust="spacing" textLength="193.7312" x="31.28" y="562.0339">scripts/configure_firewalld.sh</text><text fill="#000000" font-family="Monospace" font-size="14" lengthAdjust="spacing" textLength="105.3356" x="31.28" y="581.1018">2&#160;detected&#160;tools</text></g><!--entity source_scripts_configure_ufw_sh--><g class="entity" data-qualified-name="source_scripts_configure_ufw_sh" data-source-line="9" id="ent0004"><rect fill="#E0F2FE" height="58.1358" rx="2.5" ry="2.5" style="stroke:#181818;stroke-width:0.5;" width="181.4054" x="37.44" y="1652.0679"/><text fill="#000000" font-family="Monospace" font-size="14" lengthAdjust="spacing" textLength="161.4054" x="47.44" y="1677.0339">scripts/configure_ufw.sh</text><text fill="#000000" font-family="Monospace" font-size="14" lengthAdjust="spacing" textLength="105.3356" x="47.44" y="1696.1018">4&#160;detected&#160;tools</text></g><!--entity source_scripts_enable_ip_forwarding_sh--><g class="entity" data-qualified-name="source_scripts_enable_ip_forwarding_sh" data-source-line="10" id="ent0005"><rect fill="#E0F2FE" height="58.1358" rx="2.5" ry="2.5" style="stroke:#181818;stroke-width:0.5;" width="229.8732" x="13.21" y="2026.0679"/><text fill="#000000" font-family="Monospace" font-size="14" lengthAdjust="spacing" textLength="209.8732" x="23.21" y="2051.0339">scripts/enable_ip_forwarding.sh</text><text fill="#000000" font-family="Monospace" font-size="14" lengthAdjust="spacing" textLength="105.3356" x="23.21" y="2070.1018">2&#160;detected&#160;tools</text></g><!--entity source_scripts_generate_keys_sh--><g class="entity" data-qualified-name="source_scripts_generate_keys_sh" data-source-line="11" id="ent0006"><rect fill="#E0F2FE" height="58.1358" rx="2.5" ry="2.5" style="stroke:#181818;stroke-width:0.5;" width="182.5814" x="36.85" y="2156.0679"/><text fill="#000000" font-family="Monospace" font-size="14" lengthAdjust="spacing" textLength="162.5814" x="46.85" y="2181.0339">scripts/generate_keys.sh</text><text fill="#000000" font-family="Monospace" font-size="14" lengthAdjust="spacing" textLength="105.3356" x="46.85" y="2200.1018">3&#160;detected&#160;tools</text></g><!--entity source_scripts_harden_ssh_sh--><g class="entity" data-qualified-name="source_scripts_harden_ssh_sh" data-source-line="12" id="ent0007"><rect fill="#E0F2FE" height="58.1358" rx="2.5" ry="2.5" style="stroke:#181818;stroke-width:0.5;" width="163.2335" x="46.53" y="1141.0679"/><text fill="#000000" font-family="Monospace" font-size="14" lengthAdjust="spacing" textLength="143.2335" x="56.53" y="1166.0339">scripts/harden_ssh.sh</text><text fill="#000000" font-family="Monospace" font-size="14" lengthAdjust="spacing" textLength="105.3356" x="56.53" y="1185.1018">5&#160;detected&#160;tools</text></g><!--entity source_scripts_install_sh--><g class="entity" data-qualified-name="source_scripts_install_sh" data-source-line="13" id="ent0008"><rect fill="#E0F2FE" height="58.1358" rx="2.5" ry="2.5" style="stroke:#181818;stroke-width:0.5;" width="126.6096" x="64.84" y="2658.0679"/><text fill="#000000" font-family="Monospace" font-size="14" lengthAdjust="spacing" textLength="106.6096" x="74.84" y="2683.0339">scripts/install.sh</text><text fill="#000000" font-family="Monospace" font-size="14" lengthAdjust="spacing" textLength="105.3356" x="74.84" y="2702.1018">0&#160;detected&#160;tools</text></g><!--entity source_scripts_install_fedora_sh--><g class="entity" data-qualified-name="source_scripts_install_fedora_sh" data-source-line="14" id="ent0009"><rect fill="#E0F2FE" height="58.1358" rx="2.5" ry="2.5" style="stroke:#181818;stroke-width:0.5;" width="176.2534" x="40.02" y="751.0679"/><text fill="#000000" font-family="Monospace" font-size="14" lengthAdjust="spacing" textLength="156.2534" x="50.02" y="776.0339">scripts/install_fedora.sh</text><text fill="#000000" font-family="Monospace" font-size="14" lengthAdjust="spacing" textLength="105.3356" x="50.02" y="795.1018">2&#160;detected&#160;tools</text></g><!--entity source_scripts_install_ubuntu_sh--><g class="entity" data-qualified-name="source_scripts_install_ubuntu_sh" data-source-line="15" id="ent0010"><rect fill="#E0F2FE" height="58.1358" rx="2.5" ry="2.5" style="stroke:#181818;stroke-width:0.5;" width="181.0974" x="37.6" y="1048.0679"/><text fill="#000000" font-family="Monospace" font-size="14" lengthAdjust="spacing" textLength="161.0974" x="47.6" y="1073.0339">scripts/install_ubuntu.sh</text><text fill="#000000" font-family="Monospace" font-size="14" lengthAdjust="spacing" textLength="105.3356" x="47.6" y="1092.1018">3&#160;detected&#160;tools</text></g><!--entity source_scripts_install_webterm_sh--><g class="entity" data-qualified-name="source_scripts_install_webterm_sh" data-source-line="16" id="ent0011"><rect fill="#E0F2FE" height="58.1358" rx="2.5" ry="2.5" style="stroke:#181818;stroke-width:0.5;" width="192.1573" x="32.07" y="1478.0679"/><text fill="#000000" font-family="Monospace" font-size="14" lengthAdjust="spacing" textLength="172.1573" x="42.07" y="1503.0339">scripts/install_webterm.sh</text><text fill="#000000" font-family="Monospace" font-size="14" lengthAdjust="spacing" textLength="113.3436" x="42.07" y="1522.1018">10&#160;detected&#160;tools</text></g><!--entity source_scripts_package_client_sh--><g class="entity" data-qualified-name="source_scripts_package_client_sh" data-source-line="17" id="ent0012"><rect fill="#E0F2FE" height="58.1358" rx="2.5" ry="2.5" style="stroke:#181818;stroke-width:0.5;" width="184.2894" x="36" y="922.0679"/><text fill="#000000" font-family="Monospace" font-size="14" lengthAdjust="spacing" textLength="164.2894" x="46" y="947.0339">scripts/package_client.sh</text><text fill="#000000" font-family="Monospace" font-size="14" lengthAdjust="spacing" textLength="105.3356" x="46" y="966.1018">4&#160;detected&#160;tools</text></g><!--entity source_scripts_rebuild_webservices_sh--><g class="entity" data-qualified-name="source_scripts_rebuild_webservices_sh" data-source-line="18" id="ent0013"><rect fill="#E0F2FE" height="58.1358" rx="2.5" ry="2.5" style="stroke:#181818;stroke-width:0.5;" width="220.4372" x="17.93" y="1373.0679"/><text fill="#000000" font-family="Monospace" font-size="14" lengthAdjust="spacing" textLength="200.4372" x="27.93" y="1398.0339">scripts/rebuild_webservices.sh</text><text fill="#000000" font-family="Monospace" font-size="14" lengthAdjust="spacing" textLength="113.3436" x="27.93" y="1417.1018">10&#160;detected&#160;tools</text></g><!--entity source_scripts_render_configs_sh--><g class="entity" data-qualified-name="source_scripts_render_configs_sh" data-source-line="19" id="ent0014"><rect fill="#E0F2FE" height="58.1358" rx="2.5" ry="2.5" style="stroke:#181818;stroke-width:0.5;" width="185.9274" x="35.18" y="1820.0679"/><text fill="#000000" font-family="Monospace" font-size="14" lengthAdjust="spacing" textLength="165.9274" x="45.18" y="1845.0339">scripts/render_configs.sh</text><text fill="#000000" font-family="Monospace" font-size="14" lengthAdjust="spacing" textLength="105.3356" x="45.18" y="1864.1018">3&#160;detected&#160;tools</text></g><!--entity source_scripts_render_webterm_index_sh--><g class="entity" data-qualified-name="source_scripts_render_webterm_index_sh" data-source-line="20" id="ent0015"><rect fill="#E0F2FE" height="58.1358" rx="2.5" ry="2.5" style="stroke:#181818;stroke-width:0.5;" width="240.0652" x="8.11" y="1256.0679"/><text fill="#000000" font-family="Monospace" font-size="14" lengthAdjust="spacing" textLength="220.0652" x="18.11" y="1281.0339">scripts/render_webterm_index.sh</text><text fill="#000000" font-family="Monospace" font-size="14" lengthAdjust="spacing" textLength="105.3356" x="18.11" y="1300.1018">2&#160;detected&#160;tools</text></g><!--entity source_scripts_run_tachometer_profile_sh--><g class="entity" data-qualified-name="source_scripts_run_tachometer_profile_sh" data-source-line="21" id="ent0016"><rect fill="#E0F2FE" height="58.1358" rx="2.5" ry="2.5" style="stroke:#181818;stroke-width:0.5;" width="242.2912" x="7" y="308.0679"/><text fill="#000000" font-family="Monospace" font-size="14" lengthAdjust="spacing" textLength="222.2912" x="17" y="333.0339">scripts/run_tachometer_profile.sh</text><text fill="#000000" font-family="Monospace" font-size="14" lengthAdjust="spacing" textLength="105.3356" x="17" y="352.1018">3&#160;detected&#160;tools</text></g><!--entity source_scripts_site_registry_sh--><g class="entity" data-qualified-name="source_scripts_site_registry_sh" data-source-line="22" id="ent0017"><rect fill="#E0F2FE" height="58.1358" rx="2.5" ry="2.5" style="stroke:#181818;stroke-width:0.5;" width="167.5735" x="44.36" y="140.0679"/><text fill="#000000" font-family="Monospace" font-size="14" lengthAdjust="spacing" textLength="147.5735" x="54.36" y="165.0339">scripts/site_registry.sh</text><text fill="#000000" font-family="Monospace" font-size="14" lengthAdjust="spacing" textLength="98.6296" x="54.36" y="184.1018">1&#160;detected&#160;tool</text></g><!--entity source_scripts_ttyd_session_sh--><g class="entity" data-qualified-name="source_scripts_ttyd_session_sh" data-source-line="23" id="ent0018"><rect fill="#E0F2FE" height="58.1358" rx="2.5" ry="2.5" style="stroke:#181818;stroke-width:0.5;" width="168.3295" x="43.98" y="47.0679"/><text fill="#000000" font-family="Monospace" font-size="14" lengthAdjust="spacing" textLength="148.3295" x="53.98" y="72.0339">scripts/ttyd_session.sh</text><text fill="#000000" font-family="Monospace" font-size="14" lengthAdjust="spacing" textLength="98.6296" x="53.98" y="91.1018">1&#160;detected&#160;tool</text></g><!--entity source_scripts_validate_sh--><g class="entity" data-qualified-name="source_scripts_validate_sh" data-source-line="24" id="ent0019"><rect fill="#E0F2FE" height="58.1358" rx="2.5" ry="2.5" style="stroke:#181818;stroke-width:0.5;" width="139.1116" x="58.59" y="2751.0679"/><text fill="#000000" font-family="Monospace" font-size="14" lengthAdjust="spacing" textLength="119.1116" x="68.59" y="2776.0339">scripts/validate.sh</text><text fill="#000000" font-family="Monospace" font-size="14" lengthAdjust="spacing" textLength="105.3356" x="68.59" y="2795.1018">0&#160;detected&#160;tools</text></g><!--entity tool_all_services_ttyd--><g class="entity" data-qualified-name="tool_all_services_ttyd" data-source-line="25" id="ent0020"><path d="M341.8281,1246.176 C344.8954,1239.0838 351.4606,1238.915 355.2459,1245.4701 C359.2304,1240.8834 363.2673,1239.8231 366.7354,1246.0203 C370.8616,1239.8855 376.2105,1239.4281 380.7497,1245.548 C383.3772,1239.9883 388.7133,1238.4166 392.7659,1244.0129 C396.1778,1238.3228 402.4251,1236.7349 406.1117,1243.7238 C410.851,1239.2086 414.6079,1238.9224 418.299,1244.937 C421.237,1239.6722 426.1565,1237.9211 430.1107,1243.8662 C433.7439,1238.5638 439.4234,1237.7107 442.8516,1244.0898 C447.2136,1237.5195 451.0486,1237.8168 455.0406,1244.4318 C459.2355,1238.2579 465.4579,1238.8447 468.323,1245.7792 C472.8285,1238.3771 477.9881,1239.3981 482.105,1246.1574 C485.0904,1239.3845 490.0446,1239.4702 494.0015,1245.2357 C503.3273,1250.0803 502.9424,1255.8051 495.8901,1262.4468 C504.0187,1269.38 502.3077,1275.0978 493.1759,1279.2415 C489.9028,1285.5722 485.5999,1285.1727 481.6892,1279.8711 C478.3645,1285.9545 472.3359,1286.9014 468.4701,1280.4413 C464.6635,1286.7881 460.7571,1288.77 455.2554,1282.1717 C451.1537,1287.476 446.4875,1287.1879 442.6924,1281.8112 C439.2006,1289.266 435.0077,1289.4916 429.6699,1283.6143 C426.3075,1289.4585 421.2657,1289.596 417.3451,1284.2279 C413.335,1289.6675 408.4292,1289.3886 404.8886,1283.7022 C400.477,1290.6419 395.3932,1289.6555 391.7968,1282.9216 C387.3882,1288.6363 381.7212,1287.1979 379.3822,1280.8004 C375.7725,1286.1898 370.0142,1285.8339 367.4935,1279.679 C362.4626,1286.0405 357.9738,1285.0158 353.8896,1278.6657 C349.5001,1283.7491 345.7472,1284.2372 341.9426,1278.046 C332.6484,1276.2635 330.1642,1271.4324 335.2145,1263.1645 C329.6821,1254.5146 330.3856,1248.2177 341.8281,1246.176" fill="#FEF3C7" style="stroke:#181818;stroke-width:0.5;"/><text fill="#000000" font-family="Monospace" font-size="14" lengthAdjust="spacing" textLength="137.5495" x="347.99" y="1266.5739">ALL_SERVICES+=(ttyd</text></g><!--entity tool_actions_checkout--><g class="entity" data-qualified-name="tool_actions_checkout" data-source-line="26" id="ent0021"><path d="M355.2421,2336.9736 C359.0939,2330.8146 363.8365,2330.9551 367.566,2337.0962 C370.8717,2330.3332 375.8734,2331.5822 379.912,2336.3087 C384.5323,2329.1613 388.7929,2329.2861 393.4339,2336.289 C397.7087,2330.0056 401.5413,2330.9936 405.6373,2336.4745 C408.9688,2331.7886 414.1824,2331.9422 416.9626,2337.1082 C419.6608,2331.4505 425.9273,2330.9586 429.5045,2336.0861 C433.5841,2330.0488 438.8819,2330.1084 443.255,2335.7402 C448.4296,2330.3047 453.1912,2330.8048 456.0416,2338.0785 C459.0126,2331.9545 464.4929,2332.0386 467.5315,2338.0143 C471.5003,2332.1808 475.8844,2332.9378 479.8944,2337.9674 C489.5757,2340.377 490.8859,2346.5367 485.8882,2354.325 C491.3331,2362.7822 489.868,2367.8855 479.9247,2370.7585 C477.6771,2376.4299 472.3173,2376.9012 469.1414,2371.6773 C465.5544,2378.1875 459.3923,2378.7768 454.8011,2372.8336 C452.0676,2378.7361 448.0971,2380.3515 442.8671,2375.6408 C439.5862,2382.1447 435.0901,2381.9688 431.0101,2376.4273 C428.4817,2383.8665 421.9643,2384.3334 417.956,2377.8111 C413.0527,2384.2089 407.5936,2382.1332 405.1065,2375.4395 C401.1706,2382.2175 395.2489,2382.0621 391.6781,2375.0831 C387.1434,2380.6015 382.4551,2379.1229 379.7815,2373.1555 C375.9043,2378.273 370.5453,2377.8951 368.0014,2371.7598 C363.5405,2377.2229 357.3186,2377.9587 354.0571,2370.4686 C346.9591,2366.4171 345.5577,2358.4342 354.1387,2354.4627 C345.8964,2348.4345 346.8435,2341.9519 355.2421,2336.9736" fill="#FEF3C7" style="stroke:#181818;stroke-width:0.5;"/><text fill="#000000" font-family="Monospace" font-size="14" lengthAdjust="spacing" textLength="111.9156" x="360.81" y="2358.5739">actions/checkout</text></g><!--entity tool_actions_setup_python--><g class="entity" data-qualified-name="tool_actions_setup_python" data-source-line="27" id="ent0022"><path d="M340.8791,2422.1586 C343.0916,2416.1038 347.3052,2416.042 351.1239,2420.6095 C355.9876,2415.2798 360.3269,2415.9286 363.7197,2422.2057 C365.6157,2417.6163 370.4136,2415.7621 373.8696,2420.5098 C377.2291,2414.2172 380.8366,2414.3238 384.9051,2419.8476 C388.4853,2414.3611 392.223,2415.2593 395.6727,2419.9852 C399.5114,2415.6436 403.1498,2415.972 405.926,2421.1318 C409.1014,2415.3273 414.1579,2413.6745 418.8998,2419.3636 C421.9456,2414.3928 424.884,2414.4513 428.005,2419.2938 C432.3381,2413.5512 436.6661,2414.1919 440.3953,2419.9448 C444.438,2415.0074 448.3071,2415.6712 451.3686,2420.9943 C454.1371,2415.6213 458.9005,2416.2976 462.0099,2420.6201 C465.0603,2414.976 469.8618,2415.6911 472.5925,2420.9309 C476.8174,2415.2887 480.6172,2415.9722 484.6537,2421.141 C488.4454,2415.8706 492.8972,2416.184 496.0976,2421.7645 C505.2426,2424.4658 507.0741,2432.489 500.554,2439.1952 C507.5889,2447.2909 505.1416,2453.8288 494.5514,2455.3928 C491.0694,2460.9835 487.291,2460.9111 484.1067,2455.1195 C482.0618,2460.9953 477.1228,2460.6188 473.6559,2456.6252 C470.909,2462.4879 466.2812,2462.6393 462.3838,2457.8419 C459.2627,2463.9577 453.5131,2463.6933 450.4438,2457.7904 C448.0205,2463.3561 444.7916,2462.735 440.8933,2459.3674 C437.7392,2464.5005 433.1785,2465.1364 429.6669,2459.7489 C427.2921,2465.1306 421.6319,2465.6046 418.2829,2460.8421 C414.7016,2466.8657 410.1583,2466.539 406.471,2460.9498 C402.8963,2465.5287 397.7035,2466.2175 395.0066,2460.0164 C391.3568,2464.4999 387.0518,2462.9887 385.3053,2458.0556 C380.8532,2462.0863 377.1224,2461.7505 373.9681,2456.4746 C369.8318,2462.5835 365.9178,2461.2796 362.0384,2456.2006 C359.811,2460.6265 355.1823,2460.493 352.5288,2456.6932 C348.7547,2462.3686 343.1749,2461.7549 340.6762,2455.4331 C330.9393,2454.1473 327.3689,2446.9795 331.9411,2438.3689 C326.9785,2429.4528 329.5067,2422.0679 340.8791,2422.1586" fill="#FEF3C7" style="stroke:#181818;stroke-width:0.5;"/><text fill="#000000" font-family="Monospace" font-size="14" lengthAdjust="spacing" textLength="140.2795" x="346.63" y="2442.5739">actions/setup-python</text></g><!--entity tool_apt_get--><g class="entity" data-qualified-name="tool_apt_get" data-source-line="28" id="ent0023"><path d="M387.7303,1078.0758 C391.2483,1071.751 398.2057,1071.5553 402.3859,1077.2697 C406.0791,1069.9494 412.0603,1069.1752 417.5376,1075.2519 C422.969,1068.3471 430.897,1068.5914 433.7412,1077.8461 C437.3593,1071.3029 444.5587,1069.8149 449.0822,1076.8209 C459.8569,1077.9195 463.8752,1083.4774 457.871,1093.4461 C462.7988,1103.0851 458.6956,1110.6742 447.5682,1110.7588 C445.3807,1118.4837 439.1499,1119.88 433.6092,1114.2686 C431.353,1122.5277 426.0374,1124.377 418.7866,1120.2419 C411.1116,1126.1011 404.7558,1125.297 401.6436,1115.3067 C394.6679,1121.901 388.0048,1118.4689 386.2516,1109.9779 C379.3224,1105.0498 377.725,1100.4417 385.6213,1094.8941 C378.9273,1088.826 379.9043,1082.3231 387.7303,1078.0758" fill="#FEF3C7" style="stroke:#181818;stroke-width:0.5;"/><text fill="#000000" font-family="Monospace" font-size="14" lengthAdjust="spacing" textLength="47.5858" x="392.97" y="1098.5739">apt-get</text></g><!--entity tool_caddy--><g class="entity" data-qualified-name="tool_caddy" data-source-line="29" id="ent0024"><path d="M391.6113,1665.1653 C395.462,1659.2856 400.8282,1659.2829 404.1797,1665.6765 C407.7343,1658.7706 413.3372,1659.0536 418.0967,1664.2961 C422.0647,1658.2201 426.3433,1658.749 430.6686,1663.8959 C435.0427,1658.5128 440.3324,1658.0635 443.4647,1665.1684 C456.0683,1665.388 458.6048,1672.5773 454.2085,1683.0253 C458.7969,1691.7785 453.3025,1698.209 444.3932,1698.2743 C441.4242,1704.5751 437.5214,1706.8374 431.6464,1701.441 C428.773,1708.1645 422.5422,1709.811 417.1959,1704.3814 C411.7363,1708.9446 407.8173,1706.7862 405.716,1700.7457 C400.0083,1708.0156 393.5562,1706.0325 390.4783,1698.1084 C381.1284,1696.0454 376.7533,1691.5498 382.6115,1682.0408 C377.1552,1671.6065 381.4196,1667.2544 391.6113,1665.1653" fill="#FEF3C7" style="stroke:#181818;stroke-width:0.5;"/><text fill="#000000" font-family="Monospace" font-size="14" lengthAdjust="spacing" textLength="38.9339" x="397.3" y="1686.5739">caddy</text></g><!--entity tool_cat--><g class="entity" data-qualified-name="tool_cat" data-source-line="30" id="ent0025"><path d="M400.8682,2001.622 C404.7519,1991.512 411.6192,1991.9169 418.3821,1998.6233 C425.8659,1991.931 430.2246,1994.7905 433.8338,2002.7183 C442.4492,2005.8711 442.9373,2011.3633 437.6319,2017.9803 C443.5794,2024.1374 443.2012,2032.0345 433.7511,2034.5952 C431.4283,2044.4109 424.1467,2045.4102 416.7882,2040.3296 C408.9732,2046.4214 403.7219,2043.6964 401.3127,2034.7622 C390.5525,2033.5126 389.1403,2028.0666 393.7637,2019.3043 C388.054,2011.2336 389.6007,2002.8715 400.8682,2001.622" fill="#FEF3C7" style="stroke:#181818;stroke-width:0.5;"/><text fill="#000000" font-family="Monospace" font-size="14" lengthAdjust="spacing" textLength="19.6279" x="406.95" y="2022.5739">cat</text></g><!--entity tool_cp--><g class="entity" data-qualified-name="tool_cp" data-source-line="31" id="ent0026"><path d="M402.4622,993.5523 C405.8414,984.9528 412.7268,984.6131 418.1715,991.4503 C423.1542,984.9357 429.868,986.5522 432.1224,994.1478 C440.3303,997.97 440.9838,1004.1774 433.8757,1009.7236 C440.6178,1015.96 441.0258,1022.5007 431.8702,1026.8785 C430.9666,1035.4266 426.1432,1038.5809 417.9571,1035.9091 C407.805,1041.382 402.9623,1036.954 402.4754,1026.5088 C392.6119,1022.8544 393.0194,1015.6854 399.8954,1009.4928 C394.3039,1003.5223 393.1632,997.1252 402.4622,993.5523" fill="#FEF3C7" style="stroke:#181818;stroke-width:0.5;"/><text fill="#000000" font-family="Monospace" font-size="14" lengthAdjust="spacing" textLength="15.3299" x="409.1" y="1014.5739">cp</text></g><!--entity tool_dnf--><g class="entity" data-qualified-name="tool_dnf" data-source-line="32" id="ent0027"><path d="M399.2752,1750.5673 C404.7375,1740.3648 410.784,1738.1563 418.8661,1748.008 C423.7528,1738.9978 431.7511,1739.4458 435.9911,1748.6173 C447.1645,1751.3693 448.6384,1757.3641 441.5907,1765.9895 C448.0499,1772.5437 445.0677,1780.1703 436.7001,1782.2708 C433.4258,1792.1915 424.6303,1793.3163 417.93,1786.0017 C411.6618,1795.3971 402.9276,1793.4766 398.8708,1783.7926 C387.9734,1781.8089 384.131,1776.6289 390.9086,1766.5047 C385.1162,1756.4595 387.7018,1751.4961 399.2752,1750.5673" fill="#FEF3C7" style="stroke:#181818;stroke-width:0.5;"/><text fill="#000000" font-family="Monospace" font-size="14" lengthAdjust="spacing" textLength="22.0779" x="405.73" y="1770.5739">dnf</text></g><!--entity tool_firewall_cmd--><g class="entity" data-qualified-name="tool_firewall_cmd" data-source-line="33" id="ent0028"><path d="M371.1602,490.3154 C374.7002,484.4902 379.2269,484.1895 383.1494,489.9185 C385.745,483.7676 390.5089,483.8248 394.1749,488.8637 C397.466,483.6177 403.031,484.1154 405.6918,489.5437 C408.0946,482.2184 414.3452,481.991 418.5406,487.7885 C422.4852,482.105 427.8766,483.1941 430.0993,489.4548 C434.445,483.2571 438.0887,484.922 441.9452,489.9701 C444.3853,483.6848 449.0516,484.4598 452.8479,488.5444 C456.7121,483.316 462.3248,484.9843 464.4685,490.4193 C474.4865,492.3942 478.1961,496.8281 472.515,506.6067 C479.4383,515.826 475.5531,520.78 465.9944,523.7188 C461.9256,529.4231 456.2994,529.2084 452.9451,522.9401 C449.9069,528.7528 445.2568,530.0762 440.8835,524.3338 C437.8772,529.4722 434.0496,529.7051 430.3502,525.0817 C426.1803,530.5734 422.1466,531.064 417.6427,525.4644 C413.8371,530.008 410.4843,530.3183 406.6615,525.4844 C402.7521,532.2227 398.0305,531.5337 394.1535,525.4527 C389.0352,531.3574 385.0947,530.3186 381.1916,524.1483 C377.1715,528.929 373.1665,528.2808 370.3277,522.887 C360.1429,519.4686 359.7835,512.5909 366.4862,505.4517 C361.3675,498.6079 362.7413,492.9788 371.1602,490.3154" fill="#FEF3C7" style="stroke:#181818;stroke-width:0.5;"/><text fill="#000000" font-family="Monospace" font-size="14" lengthAdjust="spacing" textLength="81.1157" x="376.21" y="510.5739">firewall-cmd</text></g><!--entity tool_firewalld--><g class="entity" data-qualified-name="tool_firewalld" data-source-line="34" id="ent0029"><path d="M383.3513,573.8187 C385.5115,568.2927 390.6422,567.1656 394.2057,572.4036 C398.0799,567.3808 403.7727,567.8379 406.8953,573.3123 C409.5857,567.2078 414.1908,566.3284 418.4265,571.7686 C421.9055,566.9736 426.7984,568.2139 428.6271,573.4472 C431.7753,567.6688 436.3338,567.1633 440.5189,572.3194 C445.1251,565.7209 450.6387,567.1372 453.9642,573.6342 C462.9828,577.3378 462.2653,585.4059 454.9554,590.0927 C462.6806,595.5528 462.8146,602.9442 453.4009,606.8106 C451.5408,612.2754 446.4126,613.874 442.1548,609.5713 C440.0809,615.8638 435.5311,617.1085 430.5252,612.7826 C427.1769,619.4935 422.3928,620.305 417.1325,614.8953 C412.8809,619.0269 409.5751,618.4772 407.0734,613.0532 C401.4997,618.2234 395.6352,615.3117 393.8547,608.7715 C389.6002,613.3835 385.5365,614.0523 382.438,607.5808 C371.4942,606.627 367.3655,598.5634 373.9531,589.4192 C370.6002,580.0839 372.0316,574.3148 383.3513,573.8187" fill="#FEF3C7" style="stroke:#181818;stroke-width:0.5;"/><text fill="#000000" font-family="Monospace" font-size="14" lengthAdjust="spacing" textLength="56.7978" x="388.37" y="594.5739">firewalld</text></g><!--entity tool_grep--><g class="entity" data-qualified-name="tool_grep" data-source-line="35" id="ent0030"><path d="M395.6492,1581.6046 C398.326,1577.1961 402.8481,1576.0553 406.0097,1581.0716 C409.2403,1574.096 413.1901,1573.1814 418.7539,1578.6898 C421.8921,1573.9256 427.1402,1575.0947 429.4112,1579.6785 C433.7909,1575.7143 437.6513,1576.3967 439.9898,1581.9479 C449.9074,1584.7187 449.8025,1591.0952 444.3052,1598.0081 C451.1246,1605.8869 448.2841,1611.0864 439.7445,1614.7917 C437.5851,1620.9432 434.028,1622.7622 428.4664,1618.4634 C426.6857,1623.3453 421.8878,1625.3928 417.9285,1620.9166 C412.0288,1624.4856 408.0393,1623.7729 405.6592,1616.8146 C401.726,1621.3784 396.5825,1619.5668 395.0188,1614.2603 C385.304,1612.1387 382.7177,1604.4005 390.068,1597.2981 C384.3233,1590.371 386.7803,1583.3346 395.6492,1581.6046" fill="#FEF3C7" style="stroke:#181818;stroke-width:0.5;"/><text fill="#000000" font-family="Monospace" font-size="14" lengthAdjust="spacing" textLength="30.8979" x="401.32" y="1602.5739">grep</text></g><!--entity tool_install--><g class="entity" data-qualified-name="tool_install" data-source-line="36" id="ent0031"><path d="M391.1863,1412.8385 C395.3349,1407.6302 400.2756,1406.427 403.9368,1413.3508 C408.2222,1404.8756 413.3742,1406.2109 418.8926,1412.0637 C422.4018,1407.425 427.2371,1406.8571 430.2098,1412.646 C435.6396,1405.6756 440.1747,1405.8658 444.8871,1413.3732 C455.0488,1413.2641 459.4949,1421.3367 453.5252,1429.741 C458.1427,1438.6214 453.8256,1444.6933 444.5378,1445.7838 C441.9824,1453.7729 436.2318,1454.6711 430.9301,1448.4055 C427.1111,1456.4235 422.2125,1456.4341 416.7879,1449.9739 C412.3833,1455.8312 407.8769,1455.2148 404.7659,1448.7153 C400.8378,1453.6544 394.5063,1452.9181 391.7819,1447.2428 C380.8109,1445.0938 379.9795,1439.3563 384.6676,1430.5382 C377.3476,1421.0274 379.4658,1415.3369 391.1863,1412.8385" fill="#FEF3C7" style="stroke:#181818;stroke-width:0.5;"/><text fill="#000000" font-family="Monospace" font-size="14" lengthAdjust="spacing" textLength="39.1019" x="397.21" y="1434.5739">install</text></g><!--entity tool_mkdir--><g class="entity" data-qualified-name="tool_mkdir" data-source-line="37" id="ent0032"><path d="M391.7913,1329.1653 C395.6159,1323.3292 400.9433,1323.3281 404.2687,1329.6765 C407.7958,1322.8131 413.3626,1323.0906 418.0947,1328.2961 C422.0326,1322.2631 426.2804,1322.7872 430.5756,1327.8959 C434.9227,1322.5538 440.1754,1322.1113 443.2807,1329.1684 C455.8844,1329.388 458.4208,1336.5773 454.0245,1347.0253 C458.6129,1355.7785 453.1185,1362.209 444.2093,1362.2743 C441.2707,1368.5377 437.3979,1370.7913 431.5534,1365.441 C428.7057,1372.1274 422.5146,1373.7715 417.1939,1368.3814 C411.7632,1372.8993 407.8774,1370.7475 405.805,1364.7457 C400.1231,1371.9677 393.7104,1369.9897 390.6583,1362.1084 C381.3084,1360.0454 376.9333,1355.5498 382.7915,1346.0408 C377.3352,1335.6065 381.5996,1331.2544 391.7913,1329.1653" fill="#FEF3C7" style="stroke:#181818;stroke-width:0.5;"/><text fill="#000000" font-family="Monospace" font-size="14" lengthAdjust="spacing" textLength="38.5699" x="397.48" y="1350.5739">mkdir</text></g><!--entity tool_pip--><g class="entity" data-qualified-name="tool_pip" data-source-line="38" id="ent0033"><path d="M400.6412,2504.6766 C404.9855,2497.0487 412.4507,2495.5861 417.9051,2503.4386 C425.3131,2495.3247 431.4218,2497.2722 435.7105,2506.6194 C445.0819,2507.8715 449.1419,2512.7641 444.307,2521.9712 C450.3978,2531.6979 444.7244,2538.122 434.8361,2538.9196 C431.9261,2548.8952 426.2352,2551.2625 417.8533,2544.4574 C409.5373,2551.5697 401.7226,2547.6665 399.7346,2537.7317 C391.922,2533.453 389.49,2528.8308 396.9987,2521.9039 C389.9308,2514.6859 390.8157,2508.3228 400.6412,2504.6766" fill="#FEF3C7" style="stroke:#181818;stroke-width:0.5;"/><text fill="#000000" font-family="Monospace" font-size="14" lengthAdjust="spacing" textLength="20.8319" x="406.35" y="2526.5739">pip</text></g><!--entity tool_populate_site_hostname--><g class="entity" data-qualified-name="tool_populate_site_hostname" data-source-line="39" id="ent0034"><path d="M330.622,1834.6624 C334.0619,1828.9199 339.7404,1827.9739 343.8132,1833.95 C348.3014,1828.6776 352.3728,1828.5497 356.3701,1834.4994 C358.368,1828.3621 363.3416,1827.5943 366.9951,1832.9718 C370.5427,1827.3931 377.2758,1827.1209 380.717,1833.0981 C384.1828,1827.0319 389.7334,1826.796 393.7103,1832.5355 C396.3017,1827.4165 401.1496,1825.757 404.9484,1831.2578 C409.2011,1826.0642 414,1826.1294 417.4708,1832.1322 C421.8624,1826.5593 426.6202,1825.2698 430.9679,1832.1795 C435.2846,1827.7571 439.1553,1828.2044 442.5988,1833.2521 C446.9682,1825.629 451.5429,1827.0021 456.3373,1832.8177 C459.2162,1826.9209 463.5002,1827.7624 466.8312,1832.366 C471.972,1827.0463 477.3476,1827.5257 480.8539,1834.2666 C483.5643,1828.0813 487.3023,1827.6804 491.8348,1832.4381 C496.6464,1827.1741 502.16,1828.9268 504.7948,1834.9397 C514.6982,1835.6196 519.6294,1840.8279 515.1261,1850.8581 C520.1192,1858.9221 515.3971,1867.2483 506.2349,1867.9477 C502.121,1873.5268 497.0577,1872.7457 493.576,1867.2265 C490.5194,1874.2896 484.5604,1873.4013 480.4293,1868.3972 C475.915,1874.1917 470.5452,1873.999 467.4056,1866.9981 C464.2268,1872.2978 460.7279,1872.6424 456.5365,1868.1185 C452.1027,1874.859 445.9822,1873.5244 442.5499,1867.0579 C439.1501,1873.1697 434.7092,1873.4062 430.0434,1868.4942 C426.6752,1874.0815 421.3548,1873.8943 418.5767,1867.9096 C413.7737,1873.379 408.8164,1873.9676 404.6707,1867.1648 C401.7606,1872.724 397.5878,1871.9052 394.1229,1867.7683 C389.7511,1874.0209 385.1741,1872.6615 381.6465,1866.8921 C377.5919,1873.5873 372.8878,1874.3806 368.2157,1867.5032 C364.8866,1872.8432 358.6096,1873.0847 355.0739,1867.7577 C351.677,1873.1609 346.5035,1872.7585 343.8618,1866.9991 C338.8521,1873.2128 334.2983,1874.0937 329.9673,1866.3247 C320.1276,1866.8531 315.5528,1860.4619 319.2641,1851.3224 C313.7145,1841.1325 320.5844,1834.2259 330.622,1834.6624" fill="#FEF3C7" style="stroke:#181818;stroke-width:0.5;"/><text fill="#000000" font-family="Monospace" font-size="14" lengthAdjust="spacing" textLength="160.8314" x="336.35" y="1854.5739">populate_site_hostname</text></g><!--entity tool_pre_commit--><g class="entity" data-qualified-name="tool_pre_commit" data-source-line="40" id="ent0035"><path d="M372.9272,2589.0607 C375.7131,2583.9644 380.289,2584.3261 383.0329,2589.1038 C387.1271,2582.8565 392.4935,2584.286 395.9636,2589.7906 C399.297,2584.2808 402.5673,2583.8529 406.3243,2589.3935 C409.2295,2582.4659 413.7997,2582.43 418.5478,2587.5188 C422.3756,2582.2567 426.7872,2584.3619 429.0808,2589.1299 C432.2278,2583.9792 436.2737,2583.7645 439.809,2588.7174 C443.6636,2582.8526 448.586,2583.978 451.6661,2589.5223 C454.7473,2583.7944 459.4081,2585.0986 462.3963,2589.6197 C470.6248,2593.431 471.3061,2600.4447 464.1436,2605.9071 C472.164,2610.8706 471.645,2616.5523 464.3124,2621.6801 C461.116,2627.1026 456.8113,2627.845 452.8697,2622.4698 C450.1979,2629.1581 445.1186,2629.4145 440.591,2624.4202 C436.6097,2629.8265 433.278,2629.0876 429.5446,2624.1552 C427.125,2629.8661 421.8388,2630.0078 418.8236,2624.7366 C415.4017,2629.4921 410.2844,2629.9112 407.1558,2624.4032 C403.1178,2628.2005 398.3895,2628.4852 396.2436,2622.329 C393.2316,2629.371 387.0741,2628.6054 383.0227,2623.4563 C379.4668,2627.953 373.8187,2627.5898 371.4547,2622.0787 C362.6479,2620.9297 359.6925,2612.6843 364.5687,2605.7611 C359.8521,2596.3582 361.2716,2590.2694 372.9272,2589.0607" fill="#FEF3C7" style="stroke:#181818;stroke-width:0.5;"/><text fill="#000000" font-family="Monospace" font-size="14" lengthAdjust="spacing" textLength="76.8317" x="378.35" y="2610.5739">pre-commit</text></g><!--entity tool_python3--><g class="entity" data-qualified-name="tool_python3" data-source-line="41" id="ent0036"><path d="M384.4134,152.8908 C388.5031,148.604 392.6039,148.5013 395.6109,154.1153 C397.7935,148.4178 403.1835,146.612 407.1757,152.2727 C410.7495,148.0451 413.9866,148.2293 416.8142,153.0661 C419.4798,147.976 424.5056,146.3493 428.3075,151.8307 C432.2879,146.0398 437.9966,146.3176 441.2898,152.5714 C444.9788,147.9717 449.656,148.0683 451.9384,153.9944 C458.8384,157.7326 460.4493,164.1847 453.9967,169.6756 C462.0533,176.2998 461.706,181.9519 451.8913,186.3148 C450.2195,192.1522 445.6571,192.4147 441.6139,188.929 C439.5031,196.8477 434.147,196.9837 428.5227,192.6977 C427.0008,198.4895 423.2003,201.5408 417.5252,197.2099 C411.3369,201.2096 407.4846,200.1209 405.5191,192.7508 C401.6034,196.1244 396.3045,195.5135 395.1776,189.6339 C390.5677,193.971 386.5267,193.3237 384.0353,187.3455 C376.279,184.0654 374.5333,176.931 381.2259,171.1452 C374.2164,164.7612 374.6826,156.3517 384.4134,152.8908" fill="#FEF3C7" style="stroke:#181818;stroke-width:0.5;"/><text fill="#000000" font-family="Monospace" font-size="14" lengthAdjust="spacing" textLength="54.5858" x="389.47" y="174.5739">python3</text></g><!--entity tool_qrencode--><g class="entity" data-qualified-name="tool_qrencode" data-source-line="42" id="ent0037"><path d="M378.9773,658.128 C383.1426,652.6218 387.0427,651.4932 391.3007,658.0331 C395.7262,652.582 399.7101,650.9095 404.482,657.6588 C407.2666,651.1079 413.9786,649.9551 418.2276,656.0694 C421.6707,649.7879 425.8531,650.6665 429.5808,655.786 C433.5891,649.7841 440.561,649.586 443.4259,656.9687 C447.8461,650.2222 452.5939,650.8788 457.1868,656.7808 C467.2546,657.6312 471.1951,665.4654 466.6222,674.2318 C472.9252,684.5846 467.0481,692.3577 455.718,691.7092 C452.7375,697.3973 446.8315,697.8781 443.2989,692.3187 C441.0416,700.4211 436.8022,701.4218 430.5731,696.0776 C428.3761,702.2589 422.6058,703.4433 418.4653,698.1238 C413.5594,703.5464 407.8247,704.2416 404.5383,696.4207 C399.5778,700.313 394.576,700.0038 392.4438,693.2173 C387.0631,700.0652 382.5414,697.7492 378.6188,691.6592 C368.1731,689.7067 365.7031,682.3963 370.4422,673.5772 C365.7631,664.93 369.0053,658.681 378.9773,658.128" fill="#FEF3C7" style="stroke:#181818;stroke-width:0.5;"/><text fill="#000000" font-family="Monospace" font-size="14" lengthAdjust="spacing" textLength="62.6358" x="385.45" y="678.5739">qrencode</text></g><!--entity tool_render_webterm_index_sh--><g class="entity" data-qualified-name="tool_render_webterm_index_sh" data-source-line="43" id="ent0038"><path d="M324.9894,1497.5859 C329.0661,1491.795 334.4048,1491.5732 337.7022,1498.3727 C341.579,1492.228 347.5566,1490.5792 351.7887,1498.0038 C355.6291,1491.5048 361.7431,1491.7706 365.3692,1498.2284 C368.5316,1492.5137 373.832,1490.5436 378.19,1496.9654 C381.0294,1490.3152 386.5775,1490.4943 390.8419,1495.4061 C396.3409,1488.6391 400.399,1490.5975 404.3837,1496.967 C407.2142,1489.3192 413.7705,1489.4408 418.2942,1495.2118 C422.6402,1489.6705 427.5304,1489.6367 431.2551,1495.8942 C436.3659,1489.7987 441.7234,1490.338 445.6682,1497.1919 C449.0923,1491.2124 452.821,1492.0782 456.9293,1496.4472 C462.4951,1490.6892 467.4768,1490.2065 471.7808,1497.8459 C475.2116,1492.2528 479.4448,1492.7453 483.3856,1497.2603 C488.6991,1490.5185 493.2143,1491.6013 497.9171,1497.9388 C502.7628,1490.3174 506.9804,1490.6528 511.9089,1497.8607 C521.4507,1503.7582 521.2439,1509.9644 511.5493,1515.4691 C517.9825,1520.4677 520.1222,1526.7288 511.3915,1531.5788 C508.4182,1538.5758 502.2028,1539.2635 498.1677,1532.6073 C494.2453,1540.6018 489.3019,1541.5882 483.5946,1534.3105 C478.8891,1539.9551 474.1474,1540.8321 469.8874,1533.8277 C467.9487,1539.2861 463.1498,1540.3891 458.8886,1536.5856 C455.8218,1544.0923 449.1019,1542.8176 445.2857,1537.3727 C441.2512,1543.4334 436.3148,1544.4789 432.0724,1537.5847 C428.4662,1543.982 423.3543,1545.9753 418.091,1539.3661 C413.2865,1544.791 407.5276,1545.9492 404.1822,1537.864 C399.0121,1542.275 395.1311,1541.8173 391.7678,1535.7279 C387.0216,1542.6337 381.3809,1543.3617 377.1226,1535.252 C373.4295,1540.2669 367.7974,1541.2734 364.8649,1534.4635 C360.9467,1540.2329 355.0362,1538.8219 352.7392,1532.7968 C347.9851,1539.4375 343.6458,1539.6922 338.4511,1533.279 C333.6982,1539.5462 329.0045,1539.2594 325.5956,1532.0015 C315.0967,1528.5723 315.2918,1521.4751 321.7925,1514.3776 C313.9041,1508.3824 317.2459,1500.6049 324.9894,1497.5859" fill="#FEF3C7" style="stroke:#181818;stroke-width:0.5;"/><text fill="#000000" font-family="Monospace" font-size="14" lengthAdjust="spacing" textLength="171.6673" x="330.93" y="1518.5739">render_webterm_index.sh</text></g><!--entity tool_run--><g class="entity" data-qualified-name="tool_run" data-source-line="44" id="ent0039"><path d="M398.4302,238.2406 C403.3018,229.0993 411.6048,227.4996 418.6651,235.6843 C424.5287,227.9204 432.8535,229.6583 436.2527,238.3225 C445.8423,239.0313 451.5316,243.7844 446.0444,253.9437 C451.2785,263.3902 447.7765,268.81 437.403,269.6928 C437.1646,282.4175 430.8331,287.4121 418.8397,281.2409 C407.933,286.2736 400.7706,284.7876 400.0702,271.0403 C390.4093,270.2056 386.6211,262.114 391.9739,254.1027 C386.9185,245.9757 389.3347,240.6077 398.4302,238.2406" fill="#FEF3C7" style="stroke:#181818;stroke-width:0.5;"/><text fill="#000000" font-family="Monospace" font-size="14" lengthAdjust="spacing" textLength="23.0859" x="405.22" y="258.5739">run</text></g><!--entity tool_sed--><g class="entity" data-qualified-name="tool_sed" data-source-line="45" id="ent0040"><path d="M398.3702,1918.2406 C403.2602,1909.0732 411.5893,1907.4718 418.6681,1915.6843 C424.5481,1907.8901 432.903,1909.6297 436.3187,1918.3225 C445.9083,1919.0313 451.5976,1923.7844 446.1104,1933.9437 C451.3445,1943.3902 447.8425,1948.81 437.469,1949.6928 C437.2107,1962.4483 430.8561,1967.4454 418.8427,1961.2409 C407.9148,1966.302 400.7318,1964.8222 400.0102,1951.0403 C390.3493,1950.2056 386.5611,1942.114 391.9139,1934.1027 C386.8585,1925.9757 389.2747,1920.6077 398.3702,1918.2406" fill="#FEF3C7" style="stroke:#181818;stroke-width:0.5;"/><text fill="#000000" font-family="Monospace" font-size="14" lengthAdjust="spacing" textLength="23.2119" x="405.16" y="1938.5739">sed</text></g><!--entity tool_sshd--><g class="entity" data-qualified-name="tool_sshd" data-source-line="46" id="ent0041"><path d="M395.7592,909.6046 C398.4204,905.2192 402.9177,904.0832 406.0637,909.0716 C409.275,902.1231 413.2073,901.2092 418.7519,906.6898 C421.8761,901.9519 427.0963,903.1175 429.3532,907.6785 C433.7151,903.7391 437.5552,904.4223 439.8758,909.9479 C449.7934,912.7187 449.6885,919.0952 444.1912,926.0081 C451.0106,933.8869 448.1701,939.0864 439.6305,942.7917 C437.4898,948.9187 433.9513,950.7348 428.4084,946.4634 C426.6424,951.3227 421.8711,953.3656 417.9265,948.9166 C412.0461,952.4629 408.074,951.7476 405.7132,944.8146 C401.7941,949.351 396.6784,947.5423 395.1288,942.2603 C385.414,940.1387 382.8277,932.4005 390.178,925.2981 C384.4333,918.371 386.8903,911.3346 395.7592,909.6046" fill="#FEF3C7" style="stroke:#181818;stroke-width:0.5;"/><text fill="#000000" font-family="Monospace" font-size="14" lengthAdjust="spacing" textLength="30.6739" x="401.43" y="930.5739">sshd</text></g><!--entity tool_summarize--><g class="entity" data-qualified-name="tool_summarize" data-source-line="47" id="ent0042"><path d="M374.2962,321.0782 C379.4905,313.458 384.7279,315.0317 389.1554,321.8663 C392.7719,314.7152 398.4794,314.9495 402.5602,321.4089 C407.3942,313.9454 412.1609,312.6754 418.3659,319.9373 C422.4267,312.5697 429.5265,312.8357 433.1506,320.3707 C437.7351,313.5113 444.6265,313.7884 447.8424,321.7293 C451.4789,315.9147 458.179,315.3523 461.3417,322.2331 C470.7094,322.3038 474.8194,330.1206 469.7293,337.9212 C475.6739,346.5343 472.0013,352.5368 462.4064,354.1289 C458.6244,361.9805 451.0345,361.8884 446.1162,355.4218 C442.8099,363.5389 437.5283,363.0299 432.2695,357.3865 C429.4774,364.7674 422.5939,364.2545 418.5346,358.7359 C413.7056,364.3127 408.7355,365.2918 404.3981,358.1879 C398.8402,363.8558 392.5188,363.1647 389.4219,355.4365 C385.232,363.1563 378.7419,363.1964 374.8676,355.1453 C364.3076,354.2899 362.3751,344.9876 367.8171,337.6745 C362.5033,330.4906 363.5692,321.9998 374.2962,321.0782" fill="#FEF3C7" style="stroke:#181818;stroke-width:0.5;"/><text fill="#000000" font-family="Monospace" font-size="14" lengthAdjust="spacing" textLength="73.2617" x="380.13" y="342.5739">summarize</text></g><!--entity tool_sysctl--><g class="entity" data-qualified-name="tool_sysctl" data-source-line="48" id="ent0043"><path d="M393.4843,2086.4199 C396.0571,2080.2558 399.8748,2080.1295 404.4517,2084.2914 C408.4785,2077.3694 412.5044,2078.3992 417.3791,2083.3696 C421.412,2078.5572 426.3365,2078.7985 429.8226,2084.0459 C434.1181,2078.8125 439.366,2079.8582 442.2376,2085.6493 C451.8961,2085.4854 457.9361,2092.3797 453.0003,2101.8884 C459.6526,2111.9589 454.5084,2120.6027 442.4706,2119.4962 C438.1006,2124.5934 434.2179,2126.268 429.869,2119.4739 C426.138,2124.7619 422.1793,2126.1382 417.9975,2119.9399 C414.4386,2125.1816 408.0809,2125.3131 404.9666,2119.4196 C400.7237,2125.8395 395.4406,2124.9949 391.817,2118.7752 C381.8779,2116.3744 379.7791,2109.1094 385.8607,2101.2603 C380.5552,2092.8042 384.5882,2087.5805 393.4843,2086.4199" fill="#FEF3C7" style="stroke:#181818;stroke-width:0.5;"/><text fill="#000000" font-family="Monospace" font-size="14" lengthAdjust="spacing" textLength="35.9379" x="398.8" y="2106.5739">sysctl</text></g><!--entity tool_systemctl--><g class="entity" data-qualified-name="tool_systemctl" data-source-line="49" id="ent0044"><path d="M378.9343,824.8734 C382.3748,818.9546 388.8993,818.2728 392,825.2183 C395.7416,818.5076 400.7785,818.4309 405.3123,824.3855 C409.3441,818.1384 413.8824,818.631 418.3276,823.919 C421.8715,817.8849 425.5375,818.4677 429.4813,823.5166 C434.4421,816.8573 438.9137,817.8181 442.7266,824.6441 C446.314,819.2837 452.5525,818.376 455.6065,825.2075 C464.3028,827.9402 467.2991,836.1476 460.8198,843.2622 C466.1552,849.0669 464.372,855.8489 456.7904,858.1599 C454.221,866.6985 448.6883,867.3696 442.381,862.045 C439.7189,867.6451 435.5798,868.3927 430.9265,864.4301 C428.0641,871.0531 422.7462,873.0456 417.7994,866.5095 C412.358,872.0797 407.9252,870.7514 405.4295,863.6369 C401.0327,868.9305 395.3129,869.3054 392.3961,862.0944 C387.4775,866.1636 383.058,866.8931 380.4984,859.62 C369.7343,856.5017 369.5923,850.6342 375.4676,842.5982 C368.6874,835.34 368.9747,828.8575 378.9343,824.8734" fill="#FEF3C7" style="stroke:#181818;stroke-width:0.5;"/><text fill="#000000" font-family="Monospace" font-size="14" lengthAdjust="spacing" textLength="61.9778" x="385.78" y="846.5739">systemctl</text></g><!--entity tool_tachometer--><g class="entity" data-qualified-name="tool_tachometer" data-source-line="50" id="ent0045"><path d="M373.1072,405.0607 C375.8807,399.9874 380.436,400.3475 383.1674,405.1038 C387.2484,398.8792 392.5957,400.3047 396.0526,405.7906 C399.3705,400.3044 402.6263,399.8778 406.3678,405.3935 C409.2586,398.4895 413.8121,398.4511 418.5458,403.5188 C422.3608,398.2814 426.7524,400.3805 429.0333,405.1299 C432.1661,400.0005 436.1949,399.786 439.716,404.7174 C443.5574,398.876 448.4607,399.9984 451.5276,405.5223 C454.596,399.8188 459.2369,401.1177 462.2123,405.6197 C470.4408,409.431 471.1221,416.4447 463.9596,421.9071 C471.98,426.8706 471.461,432.5523 464.1284,437.6801 C460.9461,443.082 456.6587,443.8227 452.7312,438.4698 C450.0729,445.1354 445.0121,445.3938 440.498,440.4202 C436.5325,445.8038 433.2146,445.0677 429.4971,440.1552 C427.0891,445.8425 421.8253,445.9848 418.8216,440.7366 C415.4125,445.4732 410.315,445.8901 407.1993,440.4032 C403.1747,444.1821 398.4651,444.4621 396.3326,438.329 C393.333,445.3478 387.1963,444.5866 383.1572,439.4563 C379.6131,443.9339 373.987,443.5696 371.6347,438.0787 C362.8279,436.9297 359.8725,428.6843 364.7487,421.7611 C360.0321,412.3582 361.4516,406.2694 373.1072,405.0607" fill="#FEF3C7" style="stroke:#181818;stroke-width:0.5;"/><text fill="#000000" font-family="Monospace" font-size="14" lengthAdjust="spacing" textLength="76.4677" x="378.53" y="426.5739">tachometer</text></g><!--entity tool_tee--><g class="entity" data-qualified-name="tool_tee" data-source-line="51" id="ent0046"><path d="M400.6312,2168.6766 C404.9774,2161.0458 412.4457,2159.5828 417.9021,2167.4386 C425.3124,2159.3211 431.4235,2161.2689 435.7145,2170.6194 C445.0859,2171.8715 449.1459,2176.7641 444.311,2185.9712 C450.4018,2195.6979 444.7284,2202.122 434.8401,2202.9196 C431.9278,2212.8986 426.2345,2215.2661 417.8503,2208.4574 C409.5324,2215.5731 401.7146,2211.6697 399.7246,2201.7317 C391.912,2197.453 389.48,2192.8308 396.9887,2185.9039 C389.9208,2178.6859 390.8057,2172.3228 400.6312,2168.6766" fill="#FEF3C7" style="stroke:#181818;stroke-width:0.5;"/><text fill="#000000" font-family="Monospace" font-size="14" lengthAdjust="spacing" textLength="20.8459" x="406.34" y="2190.5739">tee</text></g><!--entity tool_tmux--><g class="entity" data-qualified-name="tool_tmux" data-source-line="52" id="ent0047"><path d="M393.2812,61.2232 C395.2985,54.7373 401.3345,54.2168 405.4598,58.9311 C409.3249,52.3151 413.6454,52.1695 418.0674,58.3839 C422.4711,52.8981 426.3155,53.1149 429.8334,59.2786 C434.0737,53.5287 439.8592,53.5729 442.7093,60.6717 C450.7022,64.5333 451.4231,71.0347 444.9001,76.8606 C451.4122,82.9782 450.531,90.7889 441.8817,94.2792 C440.1597,100.5091 434.9085,103.0123 429.5625,98.395 C428.5712,104.644 423.2675,105.7517 418.9189,101.9506 C412.3795,107.4285 406.9708,105.551 405.4236,97.1103 C399.6336,103.0014 394.8373,101.6132 392.7137,93.7278 C382.0935,91.8528 380.6082,85.7357 386.6049,77.576 C380.6882,69.25 384.4806,63.5407 393.2812,61.2232" fill="#FEF3C7" style="stroke:#181818;stroke-width:0.5;"/><text fill="#000000" font-family="Monospace" font-size="14" lengthAdjust="spacing" textLength="34.2019" x="399.66" y="81.5739">tmux</text></g><!--entity tool_ufw--><g class="entity" data-qualified-name="tool_ufw" data-source-line="53" id="ent0048"><path d="M398.1132,1161.2953 C403.0366,1151.8019 412.5156,1151.0661 418.1891,1160.4996 C425.067,1152.7115 430.8134,1152.7402 436.0214,1162.2236 C446.5769,1162.8733 448.8277,1169.4672 444.0115,1177.9345 C448.7893,1186.764 445.3864,1191.7286 436.3799,1194.0172 C431.1668,1204.0722 425.4141,1204.7744 417.7059,1196.5688 C410.9977,1204.2466 402.6269,1205.0655 398.4021,1194.0098 C389.3982,1192.7019 386.6761,1185.7438 392.919,1178.9023 C385.599,1171.6711 389.3646,1163.786 398.1132,1161.2953" fill="#FEF3C7" style="stroke:#181818;stroke-width:0.5;"/><text fill="#000000" font-family="Monospace" font-size="14" lengthAdjust="spacing" textLength="24.4719" x="404.53" y="1182.5739">ufw</text></g><!--entity tool_wg--><g class="entity" data-qualified-name="tool_wg" data-source-line="54" id="ent0049"><path d="M400.8782,2253.622 C404.7597,2243.5157 411.6244,2243.92 418.3851,2250.6233 C425.8665,2243.9346 430.223,2246.7935 433.8298,2254.7183 C442.4452,2257.8711 442.9333,2263.3633 437.6278,2269.9803 C443.5754,2276.1374 443.1972,2284.0345 433.7471,2286.5952 C431.4264,2296.4075 424.1476,2297.4074 416.7912,2292.3296 C408.9785,2298.4178 403.7297,2295.6931 401.3227,2286.7622 C390.5625,2285.5126 389.1503,2280.0666 393.7737,2271.3043 C388.064,2263.2336 389.6107,2254.8715 400.8782,2253.622" fill="#FEF3C7" style="stroke:#181818;stroke-width:0.5;"/><text fill="#000000" font-family="Monospace" font-size="14" lengthAdjust="spacing" textLength="19.6139" x="406.96" y="2274.5739">wg</text></g><!--entity tool_zip--><g class="entity" data-qualified-name="tool_zip" data-source-line="55" id="ent0050"><path d="M402.5492,742.4977 C405.8016,733.8553 411.9327,732.8521 418.6465,738.6351 C425.0421,731.1254 431.9145,733.9932 434.7816,742.2467 C444.3275,745.034 443.8132,751.4971 438.3365,757.7328 C445.5519,764.2542 443.4241,770.7786 435.3212,774.554 C434.9269,787.428 426.479,789.2738 416.89,783.7812 C409.4012,787.8474 401.7162,785.2577 401.7136,775.5392 C392.1982,773.2056 389.2074,766.477 396.5203,758.8933 C389.821,751.3433 394.2691,744.5396 402.5492,742.4977" fill="#FEF3C7" style="stroke:#181818;stroke-width:0.5;"/><text fill="#000000" font-family="Monospace" font-size="14" lengthAdjust="spacing" textLength="18.8019" x="407.36" y="762.5739">zip</text></g><g class="entity" data-qualified-name="toolingGraphSummary" data-source-line="116" id="ent0110"><path d="M309.29,2664.4379 L309.29,2709.8499 L524.2372,2709.8499 L524.2372,2674.4379 L514.2372,2664.4379 L309.29,2664.4379" fill="#FEFFDD" style="stroke:#181818;stroke-width:0.5;"/><path d="M514.2372,2664.4379 L514.2372,2674.4379 L524.2372,2674.4379 L514.2372,2664.4379" fill="#FEFFDD" style="stroke:#181818;stroke-width:1;"/><text fill="#000000" font-family="Monospace" font-size="13" lengthAdjust="spacing" textLength="193.9472" x="315.29" y="2683.3349">Scanned&#160;18&#160;tooling&#160;entrypoints.</text><text fill="#000000" font-family="Monospace" font-size="13" lengthAdjust="spacing" textLength="179.2182" x="315.29" y="2701.0409">Detected&#160;31&#160;third-party&#160;tools.</text></g><!--link source_github_workflows_ci_yml to tool_actions_checkout--><g class="link" data-entity-1="ent0002" data-entity-2="ent0021" data-link-type="dependency" data-source-line="56" id="lnk51"><path d="M97.24,2449.5979 C97.24,2412.3579 97.24,2353.1379 97.24,2353.1379 C97.24,2353.1379 245.28,2353.1379 339.45,2353.1379" fill="none" id="source_github_workflows_ci_yml-to-tool_actions_checkout" style="stroke:#181818;stroke-width:1;"/><polygon fill="#181818" points="345.45,2353.1379,336.45,2349.1379,340.45,2353.1379,336.45,2357.1379,345.45,2353.1379" style="stroke:#181818;stroke-width:1;"/></g><!--link source_github_workflows_ci_yml to tool_actions_setup_python--><g class="link" data-entity-1="ent0002" data-entity-2="ent0022" data-link-type="dependency" data-source-line="57" id="lnk52"><path d="M219.86,2455.8779 C255.52,2455.8779 290.13,2455.8779 325.18,2455.8779" fill="none" id="source_github_workflows_ci_yml-to-tool_actions_setup_python" style="stroke:#181818;stroke-width:1;"/><polygon fill="#181818" points="331.18,2455.8779,322.18,2451.8779,326.18,2455.8779,322.18,2459.8779,331.18,2455.8779" style="stroke:#181818;stroke-width:1;"/></g><!--link source_github_workflows_ci_yml to tool_pip--><g class="link" data-entity-1="ent0002" data-entity-2="ent0033" data-link-type="dependency" data-source-line="58" id="lnk53"><path d="M219.86,2500.4779 C279.45,2500.4779 346.9,2500.4779 385.04,2500.4779" fill="none" id="source_github_workflows_ci_yml-to-tool_pip" style="stroke:#181818;stroke-width:1;"/><polygon fill="#181818" points="391.04,2500.4779,382.04,2496.4779,386.04,2500.4779,382.04,2504.4779,391.04,2500.4779" style="stroke:#181818;stroke-width:1;"/></g><!--link source_github_workflows_ci_yml to tool_pre_commit--><g class="link" data-entity-1="ent0002" data-entity-2="ent0035" data-link-type="dependency" data-source-line="59" id="lnk54"><path d="M219.84,2504.3379 C290.86,2504.3379 377.24,2504.3379 377.24,2504.3379 C377.24,2504.3379 377.24,2544.3779 377.24,2574.2279" fill="none" id="source_github_workflows_ci_yml-to-tool_pre_commit" style="stroke:#181818;stroke-width:1;"/><polygon fill="#181818" points="377.24,2580.2279,381.24,2571.2279,377.24,2575.2279,373.24,2571.2279,377.24,2580.2279" style="stroke:#181818;stroke-width:1;"/></g><!--link source_scripts_configure_firewalld_sh to tool_firewall_cmd--><g class="link" data-entity-1="ent0003" data-entity-2="ent0028" data-link-type="dependency" data-source-line="60" id="lnk55"><path d="M235.35,550.8379 C298.55,550.8379 366.24,550.8379 366.24,550.8379 C366.24,550.8379 366.24,546.7979 366.24,536.1279" fill="none" id="source_scripts_configure_firewalld_sh-to-tool_firewall_cmd" style="stroke:#181818;stroke-width:1;"/><polygon fill="#181818" points="366.24,530.1279,362.24,539.1279,366.24,535.1279,370.24,539.1279,366.24,530.1279" style="stroke:#181818;stroke-width:1;"/></g><!--link source_scripts_configure_firewalld_sh to tool_systemctl--><g class="link" data-entity-1="ent0003" data-entity-2="ent0044" data-link-type="dependency" data-source-line="61" id="lnk56"><path d="M227.24,595.5179 C227.24,664.0779 227.24,828.8779 227.24,828.8779 C227.24,828.8779 308.29,828.8779 364.4,828.8779" fill="none" id="source_scripts_configure_firewalld_sh-to-tool_systemctl" style="stroke:#181818;stroke-width:1;"/><polygon fill="#181818" points="370.4,828.8779,361.4,824.8779,365.4,828.8779,361.4,832.8779,370.4,828.8779" style="stroke:#181818;stroke-width:1;"/></g><!--link source_scripts_configure_ufw_sh to tool_cat--><g class="link" data-entity-1="ent0004" data-entity-2="ent0025" data-link-type="dependency" data-source-line="62" id="lnk57"><path d="M219.18,1697.4979 C223.6,1697.4979 226.24,1697.4979 226.24,1697.4979 C226.24,1697.4979 226.24,2003.7579 226.24,2003.7579 C226.24,2003.7579 333.64,2003.7579 385.46,2003.7579" fill="none" id="source_scripts_configure_ufw_sh-to-tool_cat" style="stroke:#181818;stroke-width:1;"/><polygon fill="#181818" points="391.46,2003.7579,382.46,1999.7579,386.46,2003.7579,382.46,2007.7579,391.46,2003.7579" style="stroke:#181818;stroke-width:1;"/></g><!--link source_scripts_configure_ufw_sh to tool_grep--><g class="link" data-entity-1="ent0004" data-entity-2="ent0030" data-link-type="dependency" data-source-line="63" id="lnk58"><path d="M158.24,1651.7579 C158.24,1632.8779 158.24,1611.8579 158.24,1611.8579 C158.24,1611.8579 311.22,1611.8579 379.84,1611.8579" fill="none" id="source_scripts_configure_ufw_sh-to-tool_grep" style="stroke:#181818;stroke-width:1;"/><polygon fill="#181818" points="385.84,1611.8579,376.84,1607.8579,380.84,1611.8579,376.84,1615.8579,385.84,1611.8579" style="stroke:#181818;stroke-width:1;"/></g><!--link source_scripts_configure_ufw_sh to tool_sed--><g class="link" data-entity-1="ent0004" data-entity-2="ent0040" data-link-type="dependency" data-source-line="64" id="lnk59"><path d="M219.13,1689.3179 C224.18,1689.3179 227.24,1689.3179 227.24,1689.3179 C227.24,1689.3179 227.24,1933.1379 227.24,1933.1379 C227.24,1933.1379 331.77,1933.1379 384.01,1933.1379" fill="none" id="source_scripts_configure_ufw_sh-to-tool_sed" style="stroke:#181818;stroke-width:1;"/><polygon fill="#181818" points="390.01,1933.1379,381.01,1929.1379,385.01,1933.1379,381.01,1937.1379,390.01,1933.1379" style="stroke:#181818;stroke-width:1;"/></g><!--link source_scripts_configure_ufw_sh to tool_ufw--><g class="link" data-entity-1="ent0004" data-entity-2="ent0048" data-link-type="dependency" data-source-line="65" id="lnk60"><path d="M218.9,1681.1379 C257.26,1681.1379 293.24,1681.1379 293.24,1681.1379 C293.24,1681.1379 293.24,1189.8879 293.24,1189.8879 C293.24,1189.8879 346.62,1189.8879 383.04,1189.8879" fill="none" id="source_scripts_configure_ufw_sh-to-tool_ufw" style="stroke:#181818;stroke-width:1;"/><polygon fill="#181818" points="389.04,1189.8879,380.04,1185.8879,384.04,1189.8879,380.04,1193.8879,389.04,1189.8879" style="stroke:#181818;stroke-width:1;"/></g><!--link source_scripts_enable_ip_forwarding_sh to tool_cat--><g class="link" data-entity-1="ent0005" data-entity-2="ent0025" data-link-type="dependency" data-source-line="66" id="lnk61"><path d="M243.46,2033.8779 C298.1,2033.8779 352.53,2033.8779 385.63,2033.8779" fill="none" id="source_scripts_enable_ip_forwarding_sh-to-tool_cat" style="stroke:#181818;stroke-width:1;"/><polygon fill="#181818" points="391.63,2033.8779,382.63,2029.8779,386.63,2033.8779,382.63,2037.8779,391.63,2033.8779" style="stroke:#181818;stroke-width:1;"/></g><!--link source_scripts_enable_ip_forwarding_sh to tool_sysctl--><g class="link" data-entity-1="ent0005" data-entity-2="ent0043" data-link-type="dependency" data-source-line="67" id="lnk62"><path d="M243.46,2080.4079 C293.86,2080.4079 343.19,2080.4079 377.45,2080.4079" fill="none" id="source_scripts_enable_ip_forwarding_sh-to-tool_sysctl" style="stroke:#181818;stroke-width:1;"/><polygon fill="#181818" points="383.45,2080.4079,374.45,2076.4079,378.45,2080.4079,374.45,2084.4079,383.45,2080.4079" style="stroke:#181818;stroke-width:1;"/></g><!--link source_scripts_generate_keys_sh to tool_mkdir--><g class="link" data-entity-1="ent0006" data-entity-2="ent0032" data-link-type="dependency" data-source-line="68" id="lnk63"><path d="M219.8,2176.9579 C263.02,2176.9579 305.24,2176.9579 305.24,2176.9579 C305.24,2176.9579 305.24,1361.4979 305.24,1361.4979 C305.24,1361.4979 343.35,1361.4979 376.09,1361.4979" fill="none" id="source_scripts_generate_keys_sh-to-tool_mkdir" style="stroke:#181818;stroke-width:1;"/><polygon fill="#181818" points="382.09,1361.4979,373.09,1357.4979,377.09,1361.4979,373.09,1365.4979,382.09,1361.4979" style="stroke:#181818;stroke-width:1;"/></g><!--link source_scripts_generate_keys_sh to tool_tee--><g class="link" data-entity-1="ent0006" data-entity-2="ent0046" data-link-type="dependency" data-source-line="69" id="lnk64"><path d="M219.86,2193.3179 C279.45,2193.3179 346.9,2193.3179 385.04,2193.3179" fill="none" id="source_scripts_generate_keys_sh-to-tool_tee" style="stroke:#181818;stroke-width:1;"/><polygon fill="#181818" points="391.04,2193.3179,382.04,2189.3179,386.04,2193.3179,382.04,2197.3179,391.04,2193.3179" style="stroke:#181818;stroke-width:1;"/></g><!--link source_scripts_generate_keys_sh to tool_wg--><g class="link" data-entity-1="ent0006" data-entity-2="ent0049" data-link-type="dependency" data-source-line="70" id="lnk65"><path d="M158.24,2214.5179 C158.24,2238.7379 158.24,2269.1379 158.24,2269.1379 C158.24,2269.1379 320.45,2269.1379 385.51,2269.1379" fill="none" id="source_scripts_generate_keys_sh-to-tool_wg" style="stroke:#181818;stroke-width:1;"/><polygon fill="#181818" points="391.51,2269.1379,382.51,2265.1379,386.51,2269.1379,382.51,2273.1379,391.51,2269.1379" style="stroke:#181818;stroke-width:1;"/></g><!--link source_scripts_harden_ssh_sh to tool_cp--><g class="link" data-entity-1="ent0007" data-entity-2="ent0026" data-link-type="dependency" data-source-line="71" id="lnk66"><path d="M210.07,1146.8379 C246.47,1146.8379 281.24,1146.8379 281.24,1146.8379 C281.24,1146.8379 281.24,1004.2379 281.24,1004.2379 C281.24,1004.2379 349.11,1004.2379 387.77,1004.2379" fill="none" id="source_scripts_harden_ssh_sh-to-tool_cp" style="stroke:#181818;stroke-width:1;"/><polygon fill="#181818" points="393.77,1004.2379,384.77,1000.2379,388.77,1004.2379,384.77,1008.2379,393.77,1004.2379" style="stroke:#181818;stroke-width:1;"/></g><!--link source_scripts_harden_ssh_sh to tool_grep--><g class="link" data-entity-1="ent0007" data-entity-2="ent0030" data-link-type="dependency" data-source-line="72" id="lnk67"><path d="M210.19,1180.5679 C233.77,1180.5679 253.24,1180.5679 253.24,1180.5679 C253.24,1180.5679 253.24,1582.4179 253.24,1582.4179 C253.24,1582.4179 332.64,1582.4179 380.01,1582.4179" fill="none" id="source_scripts_harden_ssh_sh-to-tool_grep" style="stroke:#181818;stroke-width:1;"/><polygon fill="#181818" points="386.01,1582.4179,377.01,1578.4179,381.01,1582.4179,377.01,1586.4179,386.01,1582.4179" style="stroke:#181818;stroke-width:1;"/></g><!--link source_scripts_harden_ssh_sh to tool_mkdir--><g class="link" data-entity-1="ent0007" data-entity-2="ent0032" data-link-type="dependency" data-source-line="73" id="lnk68"><path d="M210.02,1171.2479 C242.93,1171.2479 273.24,1171.2479 273.24,1171.2479 C273.24,1171.2479 273.24,1336.9579 273.24,1336.9579 C273.24,1336.9579 333.54,1336.9579 376.02,1336.9579" fill="none" id="source_scripts_harden_ssh_sh-to-tool_mkdir" style="stroke:#181818;stroke-width:1;"/><polygon fill="#181818" points="382.02,1336.9579,373.02,1332.9579,377.02,1336.9579,373.02,1340.9579,382.02,1336.9579" style="stroke:#181818;stroke-width:1;"/></g><!--link source_scripts_harden_ssh_sh to tool_sshd--><g class="link" data-entity-1="ent0007" data-entity-2="ent0041" data-link-type="dependency" data-source-line="74" id="lnk69"><path d="M210.22,1143.9579 C241.26,1143.9579 269.24,1143.9579 269.24,1143.9579 C269.24,1143.9579 269.24,942.7779 269.24,942.7779 C269.24,942.7779 336.99,942.7779 380.2,942.7779" fill="none" id="source_scripts_harden_ssh_sh-to-tool_sshd" style="stroke:#181818;stroke-width:1;"/><polygon fill="#181818" points="386.2,942.7779,377.2,938.7779,381.2,942.7779,377.2,946.7779,386.2,942.7779" style="stroke:#181818;stroke-width:1;"/></g><!--link source_scripts_harden_ssh_sh to tool_systemctl--><g class="link" data-entity-1="ent0007" data-entity-2="ent0044" data-link-type="dependency" data-source-line="75" id="lnk70"><path d="M210.08,1149.7179 C282.01,1149.7179 375.24,1149.7179 375.24,1149.7179 C375.24,1149.7179 375.24,945.5979 375.24,872.1279" fill="none" id="source_scripts_harden_ssh_sh-to-tool_systemctl" style="stroke:#181818;stroke-width:1;"/><polygon fill="#181818" points="375.24,866.1279,371.24,875.1279,375.24,871.1279,379.24,875.1279,375.24,866.1279" style="stroke:#181818;stroke-width:1;"/></g><!--link source_scripts_install_fedora_sh to tool_firewalld--><g class="link" data-entity-1="ent0009" data-entity-2="ent0029" data-link-type="dependency" data-source-line="76" id="lnk71"><path d="M128.24,750.7279 C128.24,700.7179 128.24,604.4379 128.24,604.4379 C128.24,604.4379 286.23,604.4379 366.94,604.4379" fill="none" id="source_scripts_install_fedora_sh-to-tool_firewalld" style="stroke:#181818;stroke-width:1;"/><polygon fill="#181818" points="372.94,604.4379,363.94,600.4379,367.94,604.4379,363.94,608.4379,372.94,604.4379" style="stroke:#181818;stroke-width:1;"/></g><!--link source_scripts_install_fedora_sh to tool_systemctl--><g class="link" data-entity-1="ent0009" data-entity-2="ent0044" data-link-type="dependency" data-source-line="77" id="lnk72"><path d="M216.67,795.4379 C289.65,795.4379 381.24,795.4379 381.24,795.4379 C381.24,795.4379 381.24,799.4779 381.24,810.1479" fill="none" id="source_scripts_install_fedora_sh-to-tool_systemctl" style="stroke:#181818;stroke-width:1;"/><polygon fill="#181818" points="381.24,816.1479,385.24,807.1479,381.24,811.1479,377.24,807.1479,381.24,816.1479" style="stroke:#181818;stroke-width:1;"/></g><!--link source_scripts_install_ubuntu_sh to tool_apt_get--><g class="link" data-entity-1="ent0010" data-entity-2="ent0023" data-link-type="dependency" data-source-line="78" id="lnk73"><path d="M219.07,1087.4079 C272.44,1087.4079 331.15,1087.4079 371.65,1087.4079" fill="none" id="source_scripts_install_ubuntu_sh-to-tool_apt_get" style="stroke:#181818;stroke-width:1;"/><polygon fill="#181818" points="377.65,1087.4079,368.65,1083.4079,372.65,1087.4079,368.65,1091.4079,377.65,1087.4079" style="stroke:#181818;stroke-width:1;"/></g><!--link source_scripts_install_ubuntu_sh to tool_systemctl--><g class="link" data-entity-1="ent0010" data-entity-2="ent0044" data-link-type="dependency" data-source-line="79" id="lnk74"><path d="M219.06,1058.3379 C288.81,1058.3379 373.24,1058.3379 373.24,1058.3379 C373.24,1058.3379 373.24,929.1079 373.24,872.0579" fill="none" id="source_scripts_install_ubuntu_sh-to-tool_systemctl" style="stroke:#181818;stroke-width:1;"/><polygon fill="#181818" points="373.24,866.0579,369.24,875.0579,373.24,871.0579,377.24,875.0579,373.24,866.0579" style="stroke:#181818;stroke-width:1;"/></g><!--link source_scripts_install_ubuntu_sh to tool_ufw--><g class="link" data-entity-1="ent0010" data-entity-2="ent0048" data-link-type="dependency" data-source-line="80" id="lnk75"><path d="M214.24,1106.3179 C214.24,1130.8479 214.24,1161.9279 214.24,1161.9279 C214.24,1161.9279 327.56,1161.9279 383.03,1161.9279" fill="none" id="source_scripts_install_ubuntu_sh-to-tool_ufw" style="stroke:#181818;stroke-width:1;"/><polygon fill="#181818" points="389.03,1161.9279,380.03,1157.9279,384.03,1161.9279,380.03,1165.9279,389.03,1161.9279" style="stroke:#181818;stroke-width:1;"/></g><!--link source_scripts_install_webterm_sh to tool_apt_get--><g class="link" data-entity-1="ent0011" data-entity-2="ent0023" data-link-type="dependency" data-source-line="81" id="lnk76"><path d="M224.47,1484.3879 C274.06,1484.3879 324.24,1484.3879 324.24,1484.3879 C324.24,1484.3879 324.24,1113.8479 324.24,1113.8479 C324.24,1113.8479 346.31,1113.8479 371.53,1113.8479" fill="none" id="source_scripts_install_webterm_sh-to-tool_apt_get" style="stroke:#181818;stroke-width:1;"/><polygon fill="#181818" points="377.53,1113.8479,368.53,1109.8479,372.53,1113.8479,368.53,1117.8479,377.53,1113.8479" style="stroke:#181818;stroke-width:1;"/></g><!--link source_scripts_install_webterm_sh to tool_caddy--><g class="link" data-entity-1="ent0011" data-entity-2="ent0024" data-link-type="dependency" data-source-line="82" id="lnk77"><path d="M224.64,1512.4079 C229.99,1512.4079 233.24,1512.4079 233.24,1512.4079 C233.24,1512.4079 233.24,1672.9579 233.24,1672.9579 C233.24,1672.9579 322.56,1672.9579 375.81,1672.9579" fill="none" id="source_scripts_install_webterm_sh-to-tool_caddy" style="stroke:#181818;stroke-width:1;"/><polygon fill="#181818" points="381.81,1672.9579,372.81,1668.9579,376.81,1672.9579,372.81,1676.9579,381.81,1672.9579" style="stroke:#181818;stroke-width:1;"/></g><!--link source_scripts_install_webterm_sh to tool_cp--><g class="link" data-entity-1="ent0011" data-entity-2="ent0026" data-link-type="dependency" data-source-line="83" id="lnk78"><path d="M224.47,1482.2879 C272.4,1482.2879 320.24,1482.2879 320.24,1482.2879 C320.24,1482.2879 320.24,1023.8579 320.24,1023.8579 C320.24,1023.8579 359.35,1023.8579 387.89,1023.8579" fill="none" id="source_scripts_install_webterm_sh-to-tool_cp" style="stroke:#181818;stroke-width:1;"/><polygon fill="#181818" points="393.89,1023.8579,384.89,1019.8579,388.89,1023.8579,384.89,1027.8579,393.89,1023.8579" style="stroke:#181818;stroke-width:1;"/></g><!--link source_scripts_install_webterm_sh to tool_dnf--><g class="link" data-entity-1="ent0011" data-entity-2="ent0027" data-link-type="dependency" data-source-line="84" id="lnk79"><path d="M224.46,1520.3379 C228.11,1520.3379 230.24,1520.3379 230.24,1520.3379 C230.24,1520.3379 230.24,1773.3179 230.24,1773.3179 C230.24,1773.3179 333.02,1773.3179 384.44,1773.3179" fill="none" id="source_scripts_install_webterm_sh-to-tool_dnf" style="stroke:#181818;stroke-width:1;"/><polygon fill="#181818" points="390.44,1773.3179,381.44,1769.3179,385.44,1773.3179,381.44,1777.3179,390.44,1773.3179" style="stroke:#181818;stroke-width:1;"/></g><!--link source_scripts_install_webterm_sh to tool_grep--><g class="link" data-entity-1="ent0011" data-entity-2="ent0030" data-link-type="dependency" data-source-line="85" id="lnk80"><path d="M98.24,1536.6479 C98.24,1564.5079 98.24,1602.0479 98.24,1602.0479 C98.24,1602.0479 300,1602.0479 379.93,1602.0479" fill="none" id="source_scripts_install_webterm_sh-to-tool_grep" style="stroke:#181818;stroke-width:1;"/><polygon fill="#181818" points="385.93,1602.0479,376.93,1598.0479,380.93,1602.0479,376.93,1606.0479,385.93,1602.0479" style="stroke:#181818;stroke-width:1;"/></g><!--link source_scripts_install_webterm_sh to tool_install--><g class="link" data-entity-1="ent0011" data-entity-2="ent0031" data-link-type="dependency" data-source-line="86" id="lnk81"><path d="M224.41,1486.4979 C308.51,1486.4979 417.24,1486.4979 417.24,1486.4979 C417.24,1486.4979 417.24,1475.5879 417.24,1460.1279" fill="none" id="source_scripts_install_webterm_sh-to-tool_install" style="stroke:#181818;stroke-width:1;"/><polygon fill="#181818" points="417.24,1454.1279,413.24,1463.1279,417.24,1459.1279,421.24,1463.1279,417.24,1454.1279" style="stroke:#181818;stroke-width:1;"/></g><!--link source_scripts_install_webterm_sh to tool_mkdir--><g class="link" data-entity-1="ent0011" data-entity-2="ent0032" data-link-type="dependency" data-source-line="87" id="lnk82"><path d="M224.55,1480.1779 C262.52,1480.1779 297.24,1480.1779 297.24,1480.1779 C297.24,1480.1779 297.24,1345.1379 297.24,1345.1379 C297.24,1345.1379 340.89,1345.1379 376.19,1345.1379" fill="none" id="source_scripts_install_webterm_sh-to-tool_mkdir" style="stroke:#181818;stroke-width:1;"/><polygon fill="#181818" points="382.19,1345.1379,373.19,1341.1379,377.19,1345.1379,373.19,1349.1379,382.19,1345.1379" style="stroke:#181818;stroke-width:1;"/></g><!--link source_scripts_install_webterm_sh to tool_populate_site_hostname--><g class="link" data-entity-1="ent0011" data-entity-2="ent0034" data-link-type="dependency" data-source-line="88" id="lnk83"><path d="M224.63,1528.2779 C227.56,1528.2779 229.24,1528.2779 229.24,1528.2779 C229.24,1528.2779 229.24,1836.8779 229.24,1836.8779 C229.24,1836.8779 268.85,1836.8779 315.08,1836.8779" fill="none" id="source_scripts_install_webterm_sh-to-tool_populate_site_hostname" style="stroke:#181818;stroke-width:1;"/><polygon fill="#181818" points="321.08,1836.8779,312.08,1832.8779,316.08,1836.8779,312.08,1840.8779,321.08,1836.8779" style="stroke:#181818;stroke-width:1;"/></g><!--link source_scripts_install_webterm_sh to tool_render_webterm_index_sh--><g class="link" data-entity-1="ent0011" data-entity-2="ent0038" data-link-type="dependency" data-source-line="89" id="lnk84"><path d="M224.65,1504.4779 C253.99,1504.4779 280.29,1504.4779 309.9,1504.4779" fill="none" id="source_scripts_install_webterm_sh-to-tool_render_webterm_index_sh" style="stroke:#181818;stroke-width:1;"/><polygon fill="#181818" points="315.9,1504.4779,306.9,1500.4779,310.9,1504.4779,306.9,1508.4779,315.9,1504.4779" style="stroke:#181818;stroke-width:1;"/></g><!--link source_scripts_install_webterm_sh to tool_systemctl--><g class="link" data-entity-1="ent0011" data-entity-2="ent0044" data-link-type="dependency" data-source-line="90" id="lnk85"><path d="M224.48,1496.5379 C247.34,1496.5379 265.24,1496.5379 265.24,1496.5379 C265.24,1496.5379 265.24,853.4079 265.24,853.4079 C265.24,853.4079 319.92,853.4079 364.48,853.4079" fill="none" id="source_scripts_install_webterm_sh-to-tool_systemctl" style="stroke:#181818;stroke-width:1;"/><polygon fill="#181818" points="370.48,853.4079,361.48,849.4079,365.48,853.4079,361.48,857.4079,370.48,853.4079" style="stroke:#181818;stroke-width:1;"/></g><!--link source_scripts_package_client_sh to tool_cp--><g class="link" data-entity-1="ent0012" data-entity-2="ent0026" data-link-type="dependency" data-source-line="91" id="lnk86"><path d="M220.41,959.8479 C305.02,959.8479 417.24,959.8479 417.24,959.8479 C417.24,959.8479 417.24,965.9779 417.24,978.2079" fill="none" id="source_scripts_package_client_sh-to-tool_cp" style="stroke:#181818;stroke-width:1;"/><polygon fill="#181818" points="417.24,984.2079,421.24,975.2079,417.24,979.2079,413.24,975.2079,417.24,984.2079" style="stroke:#181818;stroke-width:1;"/></g><!--link source_scripts_package_client_sh to tool_mkdir--><g class="link" data-entity-1="ent0012" data-entity-2="ent0032" data-link-type="dependency" data-source-line="92" id="lnk87"><path d="M220.45,970.0279 C250.95,970.0279 277.24,970.0279 277.24,970.0279 C277.24,970.0279 277.24,1328.7879 277.24,1328.7879 C277.24,1328.7879 334.96,1328.7879 376.28,1328.7879" fill="none" id="source_scripts_package_client_sh-to-tool_mkdir" style="stroke:#181818;stroke-width:1;"/><polygon fill="#181818" points="382.28,1328.7879,373.28,1324.7879,377.28,1328.7879,373.28,1332.7879,382.28,1328.7879" style="stroke:#181818;stroke-width:1;"/></g><!--link source_scripts_package_client_sh to tool_qrencode--><g class="link" data-entity-1="ent0012" data-entity-2="ent0037" data-link-type="dependency" data-source-line="93" id="lnk88"><path d="M220.59,935.8779 C241.28,935.8779 257.24,935.8779 257.24,935.8779 C257.24,935.8779 257.24,673.1379 257.24,673.1379 C257.24,673.1379 317.11,673.1379 364.19,673.1379" fill="none" id="source_scripts_package_client_sh-to-tool_qrencode" style="stroke:#181818;stroke-width:1;"/><polygon fill="#181818" points="370.19,673.1379,361.19,669.1379,365.19,673.1379,361.19,677.1379,370.19,673.1379" style="stroke:#181818;stroke-width:1;"/></g><!--link source_scripts_package_client_sh to tool_zip--><g class="link" data-entity-1="ent0012" data-entity-2="ent0050" data-link-type="dependency" data-source-line="94" id="lnk89"><path d="M220.76,928.9679 C232.9,928.9679 241.24,928.9679 241.24,928.9679 C241.24,928.9679 241.24,766.3779 241.24,766.3779 C241.24,766.3779 337.6,766.3779 385.99,766.3779" fill="none" id="source_scripts_package_client_sh-to-tool_zip" style="stroke:#181818;stroke-width:1;"/><polygon fill="#181818" points="391.99,766.3779,382.99,762.3779,386.99,766.3779,382.99,770.3779,391.99,766.3779" style="stroke:#181818;stroke-width:1;"/></g><!--link source_scripts_rebuild_webservices_sh to tool_all_services_ttyd--><g class="link" data-entity-1="ent0013" data-entity-2="ent0020" data-link-type="dependency" data-source-line="95" id="lnk90"><path d="M238.67,1394.0979 C297.25,1394.0979 357.24,1394.0979 357.24,1394.0979 C357.24,1394.0979 357.24,1330.6579 357.24,1292.1479" fill="none" id="source_scripts_rebuild_webservices_sh-to-tool_all_services_ttyd" style="stroke:#181818;stroke-width:1;"/><polygon fill="#181818" points="357.24,1286.1479,353.24,1295.1479,357.24,1291.1479,361.24,1295.1479,357.24,1286.1479" style="stroke:#181818;stroke-width:1;"/></g><!--link source_scripts_rebuild_webservices_sh to tool_apt_get--><g class="link" data-entity-1="ent0013" data-entity-2="ent0023" data-link-type="dependency" data-source-line="96" id="lnk91"><path d="M238.71,1388.8379 C266.82,1388.8379 289.24,1388.8379 289.24,1388.8379 C289.24,1388.8379 289.24,1110.0279 289.24,1110.0279 C289.24,1110.0279 334.31,1110.0279 371.81,1110.0279" fill="none" id="source_scripts_rebuild_webservices_sh-to-tool_apt_get" style="stroke:#181818;stroke-width:1;"/><polygon fill="#181818" points="377.81,1110.0279,368.81,1106.0279,372.81,1110.0279,368.81,1114.0279,377.81,1110.0279" style="stroke:#181818;stroke-width:1;"/></g><!--link source_scripts_rebuild_webservices_sh to tool_caddy--><g class="link" data-entity-1="ent0013" data-entity-2="ent0024" data-link-type="dependency" data-source-line="97" id="lnk92"><path d="M235.24,1431.5079 C235.24,1500.0379 235.24,1664.7879 235.24,1664.7879 C235.24,1664.7879 323.53,1664.7879 376.19,1664.7879" fill="none" id="source_scripts_rebuild_webservices_sh-to-tool_caddy" style="stroke:#181818;stroke-width:1;"/><polygon fill="#181818" points="382.19,1664.7879,373.19,1660.7879,377.19,1664.7879,373.19,1668.7879,382.19,1664.7879" style="stroke:#181818;stroke-width:1;"/></g><!--link source_scripts_rebuild_webservices_sh to tool_cp--><g class="link" data-entity-1="ent0013" data-entity-2="ent0026" data-link-type="dependency" data-source-line="98" id="lnk93"><path d="M238.53,1383.5879 C264.73,1383.5879 285.24,1383.5879 285.24,1383.5879 C285.24,1383.5879 285.24,1014.0479 285.24,1014.0479 C285.24,1014.0479 350.17,1014.0479 387.85,1014.0479" fill="none" id="source_scripts_rebuild_webservices_sh-to-tool_cp" style="stroke:#181818;stroke-width:1;"/><polygon fill="#181818" points="393.85,1014.0479,384.85,1010.0479,388.85,1014.0479,384.85,1018.0479,393.85,1014.0479" style="stroke:#181818;stroke-width:1;"/></g><!--link source_scripts_rebuild_webservices_sh to tool_dnf--><g class="link" data-entity-1="ent0013" data-entity-2="ent0027" data-link-type="dependency" data-source-line="99" id="lnk94"><path d="M232.24,1431.4779 C232.24,1516.4879 232.24,1756.9579 232.24,1756.9579 C232.24,1756.9579 333.3,1756.9579 384.33,1756.9579" fill="none" id="source_scripts_rebuild_webservices_sh-to-tool_dnf" style="stroke:#181818;stroke-width:1;"/><polygon fill="#181818" points="390.33,1756.9579,381.33,1752.9579,385.33,1756.9579,381.33,1760.9579,390.33,1756.9579" style="stroke:#181818;stroke-width:1;"/></g><!--link source_scripts_rebuild_webservices_sh to tool_grep--><g class="link" data-entity-1="ent0013" data-entity-2="ent0030" data-link-type="dependency" data-source-line="100" id="lnk95"><path d="M237.24,1431.4279 C237.24,1484.7479 237.24,1592.2379 237.24,1592.2379 C237.24,1592.2379 328.57,1592.2379 379.9,1592.2379" fill="none" id="source_scripts_rebuild_webservices_sh-to-tool_grep" style="stroke:#181818;stroke-width:1;"/><polygon fill="#181818" points="385.9,1592.2379,376.9,1588.2379,380.9,1592.2379,376.9,1596.2379,385.9,1592.2379" style="stroke:#181818;stroke-width:1;"/></g><!--link source_scripts_rebuild_webservices_sh to tool_install--><g class="link" data-entity-1="ent0013" data-entity-2="ent0031" data-link-type="dependency" data-source-line="101" id="lnk96"><path d="M238.5,1413.4779 C289.42,1413.4779 340.32,1413.4779 375.84,1413.4779" fill="none" id="source_scripts_rebuild_webservices_sh-to-tool_install" style="stroke:#181818;stroke-width:1;"/><polygon fill="#181818" points="381.84,1413.4779,372.84,1409.4779,376.84,1413.4779,372.84,1417.4779,381.84,1413.4779" style="stroke:#181818;stroke-width:1;"/></g><!--link source_scripts_rebuild_webservices_sh to tool_mkdir--><g class="link" data-entity-1="ent0013" data-entity-2="ent0032" data-link-type="dependency" data-source-line="102" id="lnk97"><path d="M238.68,1399.3479 C320.29,1399.3479 417.24,1399.3479 417.24,1399.3479 C417.24,1399.3479 417.24,1390.2779 417.24,1376.0279" fill="none" id="source_scripts_rebuild_webservices_sh-to-tool_mkdir" style="stroke:#181818;stroke-width:1;"/><polygon fill="#181818" points="417.24,1370.0279,413.24,1379.0279,417.24,1375.0279,421.24,1379.0279,417.24,1370.0279" style="stroke:#181818;stroke-width:1;"/></g><!--link source_scripts_rebuild_webservices_sh to tool_render_webterm_index_sh--><g class="link" data-entity-1="ent0013" data-entity-2="ent0038" data-link-type="dependency" data-source-line="103" id="lnk98"><path d="M238.73,1422.3379 C285,1422.3379 328.24,1422.3379 328.24,1422.3379 C328.24,1422.3379 328.24,1455.4479 328.24,1482.3279" fill="none" id="source_scripts_rebuild_webservices_sh-to-tool_render_webterm_index_sh" style="stroke:#181818;stroke-width:1;"/><polygon fill="#181818" points="328.24,1488.3279,332.24,1479.3279,328.24,1483.3279,324.24,1479.3279,328.24,1488.3279" style="stroke:#181818;stroke-width:1;"/></g><!--link source_scripts_rebuild_webservices_sh to tool_systemctl--><g class="link" data-entity-1="ent0013" data-entity-2="ent0044" data-link-type="dependency" data-source-line="104" id="lnk99"><path d="M238.66,1378.3279 C252.12,1378.3279 261.24,1378.3279 261.24,1378.3279 C261.24,1378.3279 261.24,841.1379 261.24,841.1379 C261.24,841.1379 318.68,841.1379 364.52,841.1379" fill="none" id="source_scripts_rebuild_webservices_sh-to-tool_systemctl" style="stroke:#181818;stroke-width:1;"/><polygon fill="#181818" points="370.52,841.1379,361.52,837.1379,365.52,841.1379,361.52,845.1379,370.52,841.1379" style="stroke:#181818;stroke-width:1;"/></g><!--link source_scripts_render_configs_sh to tool_cat--><g class="link" data-entity-1="ent0014" data-entity-2="ent0025" data-link-type="dependency" data-source-line="105" id="lnk100"><path d="M128.24,1878.3979 C128.24,1925.9879 128.24,2014.9179 128.24,2014.9179 C128.24,2014.9179 315.47,2014.9179 385.66,2014.9179" fill="none" id="source_scripts_render_configs_sh-to-tool_cat" style="stroke:#181818;stroke-width:1;"/><polygon fill="#181818" points="391.66,2014.9179,382.66,2010.9179,386.66,2014.9179,382.66,2018.9179,391.66,2014.9179" style="stroke:#181818;stroke-width:1;"/></g><!--link source_scripts_render_configs_sh to tool_mkdir--><g class="link" data-entity-1="ent0014" data-entity-2="ent0032" data-link-type="dependency" data-source-line="106" id="lnk101"><path d="M221.53,1849.1379 C262.41,1849.1379 301.24,1849.1379 301.24,1849.1379 C301.24,1849.1379 301.24,1353.3179 301.24,1353.3179 C301.24,1353.3179 342.07,1353.3179 376.1,1353.3179" fill="none" id="source_scripts_render_configs_sh-to-tool_mkdir" style="stroke:#181818;stroke-width:1;"/><polygon fill="#181818" points="382.1,1353.3179,373.1,1349.3179,377.1,1353.3179,373.1,1357.3179,382.1,1353.3179" style="stroke:#181818;stroke-width:1;"/></g><!--link source_scripts_render_configs_sh to tool_populate_site_hostname--><g class="link" data-entity-1="ent0014" data-entity-2="ent0034" data-link-type="dependency" data-source-line="107" id="lnk102"><path d="M221.45,1861.4079 C253.4,1861.4079 283.18,1861.4079 315.3,1861.4079" fill="none" id="source_scripts_render_configs_sh-to-tool_populate_site_hostname" style="stroke:#181818;stroke-width:1;"/><polygon fill="#181818" points="321.3,1861.4079,312.3,1857.4079,316.3,1861.4079,312.3,1865.4079,321.3,1861.4079" style="stroke:#181818;stroke-width:1;"/></g><!--link source_scripts_render_webterm_index_sh to tool_cp--><g class="link" data-entity-1="ent0015" data-entity-2="ent0026" data-link-type="dependency" data-source-line="108" id="lnk103"><path d="M238.24,1255.6679 C238.24,1181.7579 238.24,994.4179 238.24,994.4179 C238.24,994.4179 339.57,994.4179 387.79,994.4179" fill="none" id="source_scripts_render_webterm_index_sh-to-tool_cp" style="stroke:#181818;stroke-width:1;"/><polygon fill="#181818" points="393.79,994.4179,384.79,990.4179,388.79,994.4179,384.79,998.4179,393.79,994.4179" style="stroke:#181818;stroke-width:1;"/></g><!--link source_scripts_render_webterm_index_sh to tool_mkdir--><g class="link" data-entity-1="ent0015" data-entity-2="ent0032" data-link-type="dependency" data-source-line="109" id="lnk104"><path d="M248.65,1299.9379 C327.98,1299.9379 417.24,1299.9379 417.24,1299.9379 C417.24,1299.9379 417.24,1303.7079 417.24,1314.1579" fill="none" id="source_scripts_render_webterm_index_sh-to-tool_mkdir" style="stroke:#181818;stroke-width:1;"/><polygon fill="#181818" points="417.24,1320.1579,421.24,1311.1579,417.24,1315.1579,413.24,1311.1579,417.24,1320.1579" style="stroke:#181818;stroke-width:1;"/></g><!--link source_scripts_run_tachometer_profile_sh to tool_run--><g class="link" data-entity-1="ent0016" data-entity-2="ent0039" data-link-type="dependency" data-source-line="110" id="lnk105"><path d="M231.24,307.7579 C231.24,283.5379 231.24,253.1379 231.24,253.1379 C231.24,253.1379 332.33,253.1379 383.79,253.1379" fill="none" id="source_scripts_run_tachometer_profile_sh-to-tool_run" style="stroke:#181818;stroke-width:1;"/><polygon fill="#181818" points="389.79,253.1379,380.79,249.1379,384.79,253.1379,380.79,257.1379,389.79,253.1379" style="stroke:#181818;stroke-width:1;"/></g><!--link source_scripts_run_tachometer_profile_sh to tool_summarize--><g class="link" data-entity-1="ent0016" data-entity-2="ent0042" data-link-type="dependency" data-source-line="111" id="lnk106"><path d="M249.71,337.1379 C289.92,337.1379 326.54,337.1379 358.67,337.1379" fill="none" id="source_scripts_run_tachometer_profile_sh-to-tool_summarize" style="stroke:#181818;stroke-width:1;"/><polygon fill="#181818" points="364.67,337.1379,355.67,333.1379,359.67,337.1379,355.67,341.1379,364.67,337.1379" style="stroke:#181818;stroke-width:1;"/></g><!--link source_scripts_run_tachometer_profile_sh to tool_tachometer--><g class="link" data-entity-1="ent0016" data-entity-2="ent0045" data-link-type="dependency" data-source-line="112" id="lnk107"><path d="M245.24,366.5179 C245.24,390.7379 245.24,421.1379 245.24,421.1379 C245.24,421.1379 307.08,421.1379 357.43,421.1379" fill="none" id="source_scripts_run_tachometer_profile_sh-to-tool_tachometer" style="stroke:#181818;stroke-width:1;"/><polygon fill="#181818" points="363.43,421.1379,354.43,417.1379,358.43,421.1379,354.43,425.1379,363.43,421.1379" style="stroke:#181818;stroke-width:1;"/></g><!--link source_scripts_site_registry_sh to tool_python3--><g class="link" data-entity-1="ent0017" data-entity-2="ent0036" data-link-type="dependency" data-source-line="113" id="lnk108"><path d="M212.4,169.1379 C265.48,169.1379 325.75,169.1379 368.17,169.1379" fill="none" id="source_scripts_site_registry_sh-to-tool_python3" style="stroke:#181818;stroke-width:1;"/><polygon fill="#181818" points="374.17,169.1379,365.17,165.1379,369.17,169.1379,365.17,173.1379,374.17,169.1379" style="stroke:#181818;stroke-width:1;"/></g><!--link source_scripts_ttyd_session_sh to tool_tmux--><g class="link" data-entity-1="ent0018" data-entity-2="ent0047" data-link-type="dependency" data-source-line="114" id="lnk109"><path d="M212.79,76.1379 C270.34,76.1379 337.26,76.1379 378.49,76.1379" fill="none" id="source_scripts_ttyd_session_sh-to-tool_tmux" style="stroke:#181818;stroke-width:1;"/><polygon fill="#181818" points="384.49,76.1379,375.49,72.1379,379.49,76.1379,375.49,80.1379,384.49,76.1379" style="stroke:#181818;stroke-width:1;"/></g><?plantuml-src dLZVZvms47xdhq2NbqhLNdAvLErB8qNfRHKfxKCtwbCaomi3M0ksQvliSNzz1rWMBnXixj6UxvlFFsO63uQP4cB9pEuedkDlGfICv_4NRY1Nr331TLH2Pc8ZOiNomiGfKv2qXaYV69TKqIhM1Kt5kILcjDHWMLB8Q5sQlU3cRrf1_9VWGakQs9X4L59muEPW6bnBwvxolBGXk2WmZOHOA5E8w0g9x-vpPehw-FOir2ahnLc_JTXzKvNV-GSKDmY451SlIdqNKnrhKQi4I4yYLn99645I_ERftVxz_iaMq8bYqg1RmJEMrmf8XYTmfcMPtklYEt-_8dFX4WUNw29ChSxEdSw7JJh8yYW0fySI29Ca4-fCLOhN5xmX5zcZbmC7Z2WW9sXq9_GO87J3yYWKk0xWHEkYS_zBWFkHul7Dk3PuRPtZTm6EB_WmhoI3L2WQVFgtj42D-bXpKmSV_2qjKECCHmEgwaGUjXpJXUYHmRfneZcGf6HOBOApufRcqL1mh1cc9wv8W_h14j3Xst6GlN8y1NL9tF2qkAM5QGndp73q71nhBh9Fh-R4qAGG5NfNH2gHiHB2z-QaUpGrmngX86VQgAQ_i5ifbz8DoIDWJ8Cr6xJ6Br-eVvlZSV-3bYp5EXTSO0Q2xJSfHPt6Tv--VYM7ft_-_VBvwV3pxp-rg-WyjBv8LvI6s6nDyPlzq_xnywy3ctOVT_m25P2SH6qiQcyXWsM9gS7KSYSR_5BpERkpajuwyo3DBWTRKXhy1CoK4fgcpOZgXdECiH5p7z8oowarvTbeni7KFdp7Tqbb7UumIt1sYU60px2v0cjrxMYAk1JE4NIPcEAg4xxNHbGtd68aiyHmCBCBMPTTgBNvKWXjE3xbB8hJFlEYO8SllOfPru9pf9-ReRluUBIW_SGKzn_MfqIarcg6cIboeGgEnCLAD_5JMq6DWwbTWtN3E9ZPTM43S3H3r5L55NknDdMTcc4RdHWh3Fgn0sMWcWBxgIbsBBqZU9oReS5Q9Gvczgf-jW0ucYBmfJe2S32rd_FHVCwdrXSxTb-isFKyz7UxZ-wYjfberxDWCcPPEFQQ955OMt5bskLeA_SQ7v6lnxXIiCY6WzkY5ex6F0e7upWAx5VMrkxbzBaM-JgMAxuhlk5mpAPmy3cFLbkRSQCo4EYwe0MeSsCBsBRWXKANGd3U_yn2Fjt0yUgCFT2O_Vt3P0FZDIgEI7PqJA6BSb6wfzCcWjo2nfVJ5hWhvjRm5ziMYZDMrmZkryqM3miFYoqk5eDdtjkktDGAs7aiA_ZXbRM1yi9c2rhebyU0dZOhcnsuCy97SsQ5bxHvUuxiy55S6UBZB6I9Z-OC2HyfCDPzRXRZVVxZO-qJle9UsDqYFgmCBFKGgq7YeRXNklYJPBoAch-2TUqqNi4TpP7lJyjuhdrV5tb-dOmQs494N1WONltuAljJKLaSkeKtqI6Xd6FRzV3RO8wn4gb62iQDle_-67wjF3x4fc0gtKcgJDF_QRcFy3RYrlt_?></g></svg>
